999
dxfrw 0.6.3
  0
SECTION
  2
HEADER
  9
$ACADVER
  1
AC1021
  9
$DWGCODEPAGE
  3
ANSI_1252
  9
$INSBASE
 10
0
 20
0
 30
0
  9
$EXTMIN
 10
-479.7797558863953
 20
-339.000000108873
 30
0
  9
$EXTMAX
 10
684.9678854716218
 20
156.9080525829042
 30
0
  9
$LIMMIN
 10
0
 20
0
  9
$LIMMAX
 10
420
 20
297
  9
$ORTHOMODE
 70
    0
  9
$REGENMODE
 70
    1
  9
$FILLMODE
 70
    1
  9
$QTEXTMODE
 70
    0
  9
$MIRRTEXT
 70
    0
  9
$LTSCALE
 40
1
  9
$ATTMODE
 70
    0
  9
$TEXTSIZE
 40
2.5
  9
$TRACEWID
 40
15.68
  9
$TEXTSTYLE
  7
STANDARD
  9
$CLAYER
  8
0
  9
$CELTYPE
  6
BYLAYER
  9
$CECOLOR
 62
  256
  9
$CELTSCALE
 40
1
  9
$DISPSILH
 70
    0
  9
$DIMSCALE
 40
2.5
  9
$DIMASZ
 40
2.5
  9
$DIMEXO
 40
0.625
  9
$DIMDLI
 40
3.75
  9
$DIMRND
 40
0
  9
$DIMDLE
 40
0
  9
$DIMEXE
 40
1.25
  9
$DIMTP
 40
0
  9
$DIMTM
 40
0
  9
$DIMTXT
 40
2.5
  9
$DIMCEN
 40
2.5
  9
$DIMTSZ
 40
0
  9
$DIMTOL
 70
    0
  9
$DIMLIM
 70
    0
  9
$DIMTIH
 70
    0
  9
$DIMTOH
 70
    0
  9
$DIMSE1
 70
    0
  9
$DIMSE2
 70
    0
  9
$DIMTAD
 70
    1
  9
$DIMZIN
 70
    8
  9
$DIMBLK
  1

  9
$DIMASO
 70
    1
  9
$DIMSHO
 70
    1
  9
$DIMPOST
  1

  9
$DIMAPOST
  1

  9
$DIMALT
 70
    0
  9
$DIMALTD
 70
    3
  9
$DIMALTF
 40
0.03937
  9
$DIMLFAC
 40
1
  9
$DIMTOFL
 70
    1
  9
$DIMTVP
 40
0
  9
$DIMTIX
 70
    0
  9
$DIMSOXD
 70
    0
  9
$DIMSAH
 70
    0
  9
$DIMBLK1
  1

  9
$DIMBLK2
  1

  9
$DIMSTYLE
  2
Standard
  9
$DIMCLRD
 70
    0
  9
$DIMCLRE
 70
    0
  9
$DIMCLRT
 70
    0
  9
$DIMTFAC
 40
1
  9
$DIMGAP
 40
0.625
  9
$DIMJUST
 70
    0
  9
$DIMSD1
 70
    0
  9
$DIMSD2
 70
    0
  9
$DIMTOLJ
 70
    0
  9
$DIMTZIN
 70
    8
  9
$DIMALTZ
 70
    0
  9
$DIMALTTZ
 70
    0
  9
$DIMUPT
 70
    0
  9
$DIMDEC
 70
    2
  9
$DIMTDEC
 70
    2
  9
$DIMALTU
 70
    2
  9
$DIMALTTD
 70
    3
  9
$DIMTXSTY
  7
STANDARD
  9
$DIMAUNIT
 70
    0
  9
$DIMADEC
 70
    0
  9
$DIMALTRND
 40
0
  9
$DIMAZIN
 70
    0
  9
$DIMDSEP
 70
   44
  9
$DIMATFIT
 70
    3
  9
$DIMFRAC
 70
    0
  9
$DIMLDRBLK
  1
STANDARD
  9
$DIMLUNIT
 70
    2
  9
$DIMLWD
 70
   -2
  9
$DIMLWE
 70
   -2
  9
$DIMTMOVE
 70
    0
  9
$DIMFXL
 40
1
  9
$DIMFXLON
 70
    0
  9
$DIMJOGANG
 40
0.7854
  9
$DIMTFILL
 70
    0
  9
$DIMTFILLCLR
 70
    0
  9
$DIMARCSYM
 70
    0
  9
$DIMLTYPE
  6

  9
$DIMLTEX1
  6

  9
$DIMLTEX2
  6

  9
$LUNITS
 70
    2
  9
$LUPREC
 70
    4
  9
$SKETCHINC
 40
1
  9
$FILLETRAD
 40
0
  9
$AUNITS
 70
    0
  9
$AUPREC
 70
    2
  9
$MENU
  1
.
  9
$ELEVATION
 40
0
  9
$PELEVATION
 40
0
  9
$THICKNESS
 40
0
  9
$LIMCHECK
 70
    0
  9
$CHAMFERA
 40
0
  9
$CHAMFERB
 40
0
  9
$CHAMFERC
 40
0
  9
$CHAMFERD
 40
0
  9
$SKPOLY
 70
    0
  9
$USRTIMER
 70
    1
  9
$ANGBASE
 50
0
  9
$ANGDIR
 70
    0
  9
$PDMODE
 70
   34
  9
$PDSIZE
 40
0
  9
$PLINEWID
 40
0
  9
$SPLFRAME
 70
    0
  9
$SPLINETYPE
 70
    2
  9
$SPLINESEGS
 70
    8
  9
$HANDSEED
  5
20000
  9
$SURFTAB1
 70
    6
  9
$SURFTAB2
 70
    6
  9
$SURFTYPE
 70
    6
  9
$SURFU
 70
    6
  9
$SURFV
 70
    6
  9
$UCSBASE
  2

  9
$UCSNAME
  2

  9
$UCSORG
 10
0
 20
0
 30
0
  9
$UCSXDIR
 10
1
 20
0
 30
0
  9
$UCSYDIR
 10
0
 20
1
 30
0
  9
$UCSORTHOREF
  2

  9
$UCSORTHOVIEW
 70
    0
  9
$UCSORGTOP
 10
0
 20
0
 30
0
  9
$UCSORGBOTTOM
 10
0
 20
0
 30
0
  9
$UCSORGLEFT
 10
0
 20
0
 30
0
  9
$UCSORGRIGHT
 10
0
 20
0
 30
0
  9
$UCSORGFRONT
 10
0
 20
0
 30
0
  9
$UCSORGBACK
 10
0
 20
0
 30
0
  9
$PUCSBASE
  2

  9
$PUCSNAME
  2

  9
$PUCSORG
 10
0
 20
0
 30
0
  9
$PUCSXDIR
 10
1
 20
0
 30
0
  9
$PUCSYDIR
 10
0
 20
1
 30
0
  9
$PUCSORTHOREF
  2

  9
$PUCSORTHOVIEW
 70
    0
  9
$PUCSORGTOP
 10
0
 20
0
 30
0
  9
$PUCSORGBOTTOM
 10
0
 20
0
 30
0
  9
$PUCSORGLEFT
 10
0
 20
0
 30
0
  9
$PUCSORGRIGHT
 10
0
 20
0
 30
0
  9
$PUCSORGFRONT
 10
0
 20
0
 30
0
  9
$PUCSORGBACK
 10
0
 20
0
 30
0
  9
$USERI1
 70
    0
  9
$USERI2
 70
    0
  9
$USERI3
 70
    0
  9
$USERI4
 70
    0
  9
$USERI5
 70
    0
  9
$USERR1
 40
0
  9
$USERR2
 40
0
  9
$USERR3
 40
0
  9
$USERR4
 40
0
  9
$USERR5
 40
0
  9
$WORLDVIEW
 70
    1
  9
$SHADEDGE
 70
    3
  9
$SHADEDIF
 70
   70
  9
$TILEMODE
 70
    1
  9
$MAXACTVP
 70
   64
  9
$PINSBASE
 10
0
 20
0
 30
0
  9
$PLIMCHECK
 70
    0
  9
$PEXTMIN
 10
0
 20
0
 30
0
  9
$PEXTMAX
 10
0
 20
0
 30
0
  9
$GRIDMODE
 70
    1
  9
$SNAPSTYLE
 70
    0
  9
$PLIMMIN
 10
0
 20
0
  9
$PLIMMAX
 10
210
 20
297
  9
$UNITMODE
 70
    0
  9
$VISRETAIN
 70
    1
  9
$PLINEGEN
 70
    0
  9
$PSLTSCALE
 70
    1
  9
$TREEDEPTH
 70
 3020
  9
$CMLSTYLE
  2
Standard
  9
$CMLJUST
 70
    0
  9
$CMLSCALE
 40
20
  9
$PROXYGRAPHICS
 70
    1
  9
$MEASUREMENT
 70
    1
  9
$CELWEIGHT
370
   -1
  9
$ENDCAPS
280
    0
  9
$JOINSTYLE
280
    0
  9
$LWDISPLAY
290
    0
  9
$INSUNITS
 70
    4
  9
$HYPERLINKBASE
  1

  9
$STYLESHEET
  1

  9
$XEDIT
290
    1
  9
$CEPSNTYPE
380
    0
  9
$PSTYLEMODE
290
    1
  9
$EXTNAMES
290
    1
  9
$PSVPSCALE
 40
1
  9
$OLESTARTUP
290
    0
  9
$SORTENTS
280
  127
  9
$INDEXCTL
280
    0
  9
$HIDETEXT
280
    1
  9
$XCLIPFRAME
290
    0
  9
$HALOGAP
280
    0
  9
$OBSCOLOR
 70
  257
  9
$OBSLTYPE
280
    0
  9
$INTERSECTIONDISPLAY
280
    0
  9
$INTERSECTIONCOLOR
 70
  257
  9
$DIMASSOC
280
    1
  9
$PROJECTNAME
  1

  9
$CAMERADISPLAY
290
    0
  9
$LENSLENGTH
 40
50
  9
$CAMERAHEIGHT
 40
0
  9
$STEPSPERSEC
 40
2
  9
$STEPSIZE
 40
50
  9
$3DDWFPREC
 40
2
  9
$PSOLWIDTH
 40
5
  9
$PSOLHEIGHT
 40
80
  9
$LOFTANG1
 40
1.570796326794897
  9
$LOFTANG2
 40
1.570796326794897
  9
$LOFTMAG1
 40
0
  9
$LOFTMAG2
 40
0
  9
$LOFTPARAM
 70
    7
  9
$LOFTNORMALS
280
    1
  9
$LATITUDE
 40
1
  9
$LONGITUDE
 40
1
  9
$NORTHDIRECTION
 40
0
  9
$TIMEZONE
 70
-8000
  9
$LIGHTGLYPHDISPLAY
280
    1
  9
$TILEMODELIGHTSYNCH
280
    1
  9
$SOLIDHIST
280
    1
  9
$SHOWHIST
280
    1
  9
$DWFFRAME
280
    2
  9
$DGNFRAME
280
    0
  9
$REALWORLDSCALE
290
    1
  9
$INTERFERECOLOR
 62
    1
  9
$CSHADOW
280
    0
  9
$SHADOWPLANELOCATION
 40
0
  0
ENDSEC
  0
SECTION
  2
CLASSES
  0
ENDSEC
  0
SECTION
  2
TABLES
  0
TABLE
  2
VPORT
  5
8
330
0
100
AcDbSymbolTable
 70
    1
  0
VPORT
  5
31
330
2
100
AcDbSymbolTableRecord
100
AcDbViewportTableRecord
  2
*ACTIVE
 70
    0
 10
0
 20
0
 11
1
 21
1
 12
343.6773286930048
 22
192.5526629349603
 13
0
 23
0
 14
10
 24
10
 15
10
 25
10
 16
0
 26
0
 36
1
 17
0
 27
0
 37
0
 40
1036.283422340877
 41
1.734234234234234
 42
50
 43
0
 44
0
 50
0
 51
0
 71
    0
 72
  100
 73
    1
 74
    3
 75
    0
 76
    1
 77
    0
 78
    0
281
    0
 65
    1
110
0
120
0
130
0
111
1
121
0
131
0
112
0
122
1
132
0
 79
    0
146
0
348
10020
 60
    7
 61
    5
292
1
282
    1
141
0
142
0
 63
  250
421
3358443
  0
ENDTAB
  0
TABLE
  2
LTYPE
  5
5
330
0
100
AcDbSymbolTable
 70
    4
  0
LTYPE
  5
14
330
5
100
AcDbSymbolTableRecord
100
AcDbLinetypeTableRecord
  2
ByBlock
 70
    0
  3

 72
   65
 73
    0
 40
0
  0
LTYPE
  5
15
330
5
100
AcDbSymbolTableRecord
100
AcDbLinetypeTableRecord
  2
ByLayer
 70
    0
  3

 72
   65
 73
    0
 40
0
  0
LTYPE
  5
16
330
5
100
AcDbSymbolTableRecord
100
AcDbLinetypeTableRecord
  2
Continuous
 70
    0
  3
Solid line
 72
   65
 73
    0
 40
0
  0
LTYPE
  5
32
330
5
100
AcDbSymbolTableRecord
100
AcDbLinetypeTableRecord
  2
DOT
 70
    0
  3
Dot . . . . . . . . . . . . . . . . . . . . . .
 72
   65
 73
    2
 40
6.35
 49
0
 74
    0
 49
-6.35
 74
    0
  0
LTYPE
  5
33
330
5
100
AcDbSymbolTableRecord
100
AcDbLinetypeTableRecord
  2
DOTTINY
 70
    0
  3
Dot (.15x) .....................................
 72
   65
 73
    2
 40
0.9525
 49
0
 74
    0
 49
-0.9525
 74
    0
  0
LTYPE
  5
34
330
5
100
AcDbSymbolTableRecord
100
AcDbLinetypeTableRecord
  2
DOT2
 70
    0
  3
Dot (.5x) .....................................
 72
   65
 73
    2
 40
3.175
 49
0
 74
    0
 49
-3.175
 74
    0
  0
LTYPE
  5
35
330
5
100
AcDbSymbolTableRecord
100
AcDbLinetypeTableRecord
  2
DOTX2
 70
    0
  3
Dot (2x) .  .  .  .  .  .  .  .  .  .  .  .  .
 72
   65
 73
    2
 40
12.7
 49
0
 74
    0
 49
-12.7
 74
    0
  0
LTYPE
  5
36
330
5
100
AcDbSymbolTableRecord
100
AcDbLinetypeTableRecord
  2
DASHED
 70
    0
  3
Dashed _ _ _ _ _ _ _ _ _ _ _ _ _ _ _ _ _
 72
   65
 73
    2
 40
19.05
 49
12.7
 74
    0
 49
-6.35
 74
    0
  0
LTYPE
  5
37
330
5
100
AcDbSymbolTableRecord
100
AcDbLinetypeTableRecord
  2
DASHEDTINY
 70
    0
  3
Dashed (.15x) _ _ _ _ _ _ _ _ _ _ _ _ _ _ _ _ _
 72
   65
 73
    2
 40
2.8575
 49
1.905
 74
    0
 49
-0.9525
 74
    0
  0
LTYPE
  5
38
330
5
100
AcDbSymbolTableRecord
100
AcDbLinetypeTableRecord
  2
DASHED2
 70
    0
  3
Dashed (.5x) _ _ _ _ _ _ _ _ _ _ _ _ _ _ _ _ _
 72
   65
 73
    2
 40
9.524999999999999
 49
6.35
 74
    0
 49
-3.175
 74
    0
  0
LTYPE
  5
39
330
5
100
AcDbSymbolTableRecord
100
AcDbLinetypeTableRecord
  2
DASHEDX2
 70
    0
  3
Dashed (2x) ____  ____  ____  ____  ____  ___
 72
   65
 73
    2
 40
38.09999999999999
 49
25.4
 74
    0
 49
-12.7
 74
    0
  0
LTYPE
  5
3A
330
5
100
AcDbSymbolTableRecord
100
AcDbLinetypeTableRecord
  2
DASHDOT
 70
    0
  3
Dash dot __ . __ . __ . __ . __ . __ . __ . __
 72
   65
 73
    4
 40
25.4
 49
12.7
 74
    0
 49
-6.35
 74
    0
 49
0
 74
    0
 49
-6.35
 74
    0
  0
LTYPE
  5
3B
330
5
100
AcDbSymbolTableRecord
100
AcDbLinetypeTableRecord
  2
DASHDOTTINY
 70
    0
  3
Dash dot (.15x) _._._._._._._._._._._._._._._.
 72
   65
 73
    4
 40
3.81
 49
1.905
 74
    0
 49
-0.9525
 74
    0
 49
0
 74
    0
 49
-0.9525
 74
    0
  0
LTYPE
  5
3C
330
5
100
AcDbSymbolTableRecord
100
AcDbLinetypeTableRecord
  2
DASHDOT2
 70
    0
  3
Dash dot (.5x) _._._._._._._._._._._._._._._.
 72
   65
 73
    4
 40
12.7
 49
6.35
 74
    0
 49
-3.175
 74
    0
 49
0
 74
    0
 49
-3.175
 74
    0
  0
LTYPE
  5
3D
330
5
100
AcDbSymbolTableRecord
100
AcDbLinetypeTableRecord
  2
DASHDOTX2
 70
    0
  3
Dash dot (2x) ____  .  ____  .  ____  .  ___
 72
   65
 73
    4
 40
50.8
 49
25.4
 74
    0
 49
-12.7
 74
    0
 49
0
 74
    0
 49
-12.7
 74
    0
  0
LTYPE
  5
3E
330
5
100
AcDbSymbolTableRecord
100
AcDbLinetypeTableRecord
  2
DIVIDE
 70
    0
  3
Divide ____ . . ____ . . ____ . . ____ . . ____
 72
   65
 73
    6
 40
31.75
 49
12.7
 74
    0
 49
-6.35
 74
    0
 49
0
 74
    0
 49
-6.35
 74
    0
 49
0
 74
    0
 49
-6.35
 74
    0
  0
LTYPE
  5
3F
330
5
100
AcDbSymbolTableRecord
100
AcDbLinetypeTableRecord
  2
DIVIDETINY
 70
    0
  3
Divide (.15x) __..__..__..__..__..__..__..__.._
 72
   65
 73
    6
 40
4.7625
 49
1.905
 74
    0
 49
-0.9525
 74
    0
 49
0
 74
    0
 49
-0.9525
 74
    0
 49
0
 74
    0
 49
-0.9525
 74
    0
  0
LTYPE
  5
40
330
5
100
AcDbSymbolTableRecord
100
AcDbLinetypeTableRecord
  2
DIVIDE2
 70
    0
  3
Divide (.5x) __..__..__..__..__..__..__..__.._
 72
   65
 73
    6
 40
15.875
 49
6.35
 74
    0
 49
-3.175
 74
    0
 49
0
 74
    0
 49
-3.175
 74
    0
 49
0
 74
    0
 49
-3.175
 74
    0
  0
LTYPE
  5
41
330
5
100
AcDbSymbolTableRecord
100
AcDbLinetypeTableRecord
  2
DIVIDEX2
 70
    0
  3
Divide (2x) ________  .  .  ________  .  .  _
 72
   65
 73
    6
 40
63.5
 49
25.4
 74
    0
 49
-12.7
 74
    0
 49
0
 74
    0
 49
-12.7
 74
    0
 49
0
 74
    0
 49
-12.7
 74
    0
  0
LTYPE
  5
42
330
5
100
AcDbSymbolTableRecord
100
AcDbLinetypeTableRecord
  2
BORDER
 70
    0
  3
Border __ __ . __ __ . __ __ . __ __ . __ __ .
 72
   65
 73
    6
 40
44.45
 49
12.7
 74
    0
 49
-6.35
 74
    0
 49
12.7
 74
    0
 49
-6.35
 74
    0
 49
0
 74
    0
 49
-6.35
 74
    0
  0
LTYPE
  5
43
330
5
100
AcDbSymbolTableRecord
100
AcDbLinetypeTableRecord
  2
BORDERTINY
 70
    0
  3
Border (.15x) __.__.__.__.__.__.__.__.__.__.__.
 72
   65
 73
    6
 40
6.6675
 49
1.905
 74
    0
 49
-0.9525
 74
    0
 49
1.905
 74
    0
 49
-0.9525
 74
    0
 49
0
 74
    0
 49
-0.9525
 74
    0
  0
LTYPE
  5
44
330
5
100
AcDbSymbolTableRecord
100
AcDbLinetypeTableRecord
  2
BORDER2
 70
    0
  3
Border (.5x) __.__.__.__.__.__.__.__.__.__.__.
 72
   65
 73
    6
 40
22.225
 49
6.35
 74
    0
 49
-3.175
 74
    0
 49
6.35
 74
    0
 49
-3.175
 74
    0
 49
0
 74
    0
 49
-3.175
 74
    0
  0
LTYPE
  5
45
330
5
100
AcDbSymbolTableRecord
100
AcDbLinetypeTableRecord
  2
BORDERX2
 70
    0
  3
Border (2x) ____  ____  .  ____  ____  .  ___
 72
   65
 73
    6
 40
88.89999999999999
 49
25.4
 74
    0
 49
-12.7
 74
    0
 49
25.4
 74
    0
 49
-12.7
 74
    0
 49
0
 74
    0
 49
-12.7
 74
    0
  0
LTYPE
  5
46
330
5
100
AcDbSymbolTableRecord
100
AcDbLinetypeTableRecord
  2
CENTER
 70
    0
  3
Center ____ _ ____ _ ____ _ ____ _ ____ _ ____
 72
   65
 73
    4
 40
50.8
 49
31.75
 74
    0
 49
-6.35
 74
    0
 49
6.35
 74
    0
 49
-6.35
 74
    0
  0
LTYPE
  5
47
330
5
100
AcDbSymbolTableRecord
100
AcDbLinetypeTableRecord
  2
CENTERTINY
 70
    0
  3
Center (.15x) ___ _ ___ _ ___ _ ___ _ ___ _ ___
 72
   65
 73
    4
 40
7.62
 49
4.7625
 74
    0
 49
-0.9525
 74
    0
 49
0.9525
 74
    0
 49
-0.9525
 74
    0
  0
LTYPE
  5
48
330
5
100
AcDbSymbolTableRecord
100
AcDbLinetypeTableRecord
  2
CENTER2
 70
    0
  3
Center (.5x) ___ _ ___ _ ___ _ ___ _ ___ _ ___
 72
   65
 73
    4
 40
28.575
 49
19.05
 74
    0
 49
-3.175
 74
    0
 49
3.175
 74
    0
 49
-3.175
 74
    0
  0
LTYPE
  5
49
330
5
100
AcDbSymbolTableRecord
100
AcDbLinetypeTableRecord
  2
CENTERX2
 70
    0
  3
Center (2x) ________  __  ________  __  _____
 72
   65
 73
    4
 40
101.6
 49
63.5
 74
    0
 49
-12.7
 74
    0
 49
12.7
 74
    0
 49
-12.7
 74
    0
  0
ENDTAB
  0
TABLE
  2
LAYER
  5
2
330
0
100
AcDbSymbolTable
 70
    1
  0
LAYER
  5
10
330
2
100
AcDbSymbolTableRecord
100
AcDbLayerTableRecord
  2
0
 70
    0
 62
    7
  6
CONTINUOUS
370
   -3
390
F
  0
ENDTAB
  0
TABLE
  2
STYLE
  5
3
330
0
100
AcDbSymbolTable
 70
    3
  0
STYLE
  5
4A
330
2
100
AcDbSymbolTableRecord
100
AcDbTextStyleTableRecord
  2
Standard
 70
    0
 40
0
 41
1
 50
0
 71
    0
 42
1
  3
txt
  4

  0
ENDTAB
  0
TABLE
  2
VIEW
  5
6
330
0
100
AcDbSymbolTable
 70
    0
  0
ENDTAB
  0
TABLE
  2
UCS
  5
7
330
0
100
AcDbSymbolTable
 70
    0
  0
ENDTAB
  0
TABLE
  2
APPID
  5
9
330
0
100
AcDbSymbolTable
 70
    1
  0
APPID
  5
12
330
9
100
AcDbSymbolTableRecord
100
AcDbRegAppTableRecord
  2
ACAD
 70
    0
  0
APPID
  5
4B
330
9
100
AcDbSymbolTableRecord
100
AcDbRegAppTableRecord
  2
LibreCad
 70
    0
  0
ENDTAB
  0
TABLE
  2
DIMSTYLE
  5
A
330
0
100
AcDbSymbolTable
 70
    1
100
AcDbDimStyleTable
 71
    1
  0
DIMSTYLE
105
4C
330
A
100
AcDbSymbolTableRecord
100
AcDbDimStyleTableRecord
  2
Standard
 70
    0
 40
2.5
 41
2.5
 42
0.625
 43
0.38
 44
1.25
 45
0
 46
0
 47
0
 48
0
 49
1
140
2.5
141
0.09
142
0
143
25.4
144
1
145
0
146
1
147
0.625
148
0
 71
    0
 72
    0
 73
    0
 74
    1
 75
    0
 76
    0
 77
    0
 78
    8
 79
    0
170
    0
171
    2
172
    0
173
    0
174
    0
175
    0
176
    0
177
    0
178
    0
179
    0
271
    2
272
    4
273
    2
274
    2
275
    0
276
    0
277
    2
278
   44
279
    0
280
    0
281
    0
282
    0
283
    1
284
    0
285
    0
286
    0
288
    0
289
    3
340
STANDARD
341

371
   -2
372
   -2
  0
ENDTAB
  0
TABLE
  2
BLOCK_RECORD
  5
1
330
0
100
AcDbSymbolTable
 70
    2
  0
BLOCK_RECORD
  5
1F
330
1
100
AcDbSymbolTableRecord
100
AcDbBlockTableRecord
  2
*Model_Space
 70
    0
280
    1
281
    0
  0
BLOCK_RECORD
  5
1E
330
1
100
AcDbSymbolTableRecord
100
AcDbBlockTableRecord
  2
*Paper_Space
 70
    0
280
    1
281
    0
  0
ENDTAB
  0
ENDSEC
  0
SECTION
  2
BLOCKS
  0
BLOCK
  5
20
330
1F
100
AcDbEntity
  8
0
100
AcDbBlockBegin
  2
*Model_Space
 70
    0
 10
0
 20
0
 30
0
  3
*Model_Space
  1

  0
ENDBLK
  5
21
330
1F
100
AcDbEntity
  8
0
100
AcDbBlockEnd
  0
BLOCK
  5
1C
330
1B
100
AcDbEntity
  8
0
100
AcDbBlockBegin
  2
*Paper_Space
 70
    0
 10
0
 20
0
 30
0
  3
*Paper_Space
  1

  0
ENDBLK
  5
1D
330
1F
100
AcDbEntity
  8
0
100
AcDbBlockEnd
  0
ENDSEC
  0
SECTION
  2
ENTITIES
  0
LINE
  5
4D
100
AcDbEntity
  8
0
  6
ByLayer
 62
  256
370
   -1
100
AcDbLine
 10
240
 20
0
 11
240
 21
8.000000000000002
  0
LINE
  5
4E
100
AcDbEntity
  8
0
  6
ByLayer
 62
  256
370
   -1
100
AcDbLine
 10
240
 20
8.000000000000002
 11
10
 21
7.999999999999999
  0
LINE
  5
4F
100
AcDbEntity
  8
0
  6
ByLayer
 62
  256
370
   -1
100
AcDbLine
 10
10
 20
7.999999999999999
 11
10
 21
-9.184850993605146e-016
  0
LINE
  5
50
100
AcDbEntity
  8
0
  6
ByLayer
 62
  256
370
   -1
100
AcDbLine
 10
10.00008885480456
 20
-328.0000001088728
 11
10.00008885480419
 21
-331.0000001088728
  0
LINE
  5
51
100
AcDbEntity
  8
0
  6
ByLayer
 62
  256
370
   -1
100
AcDbLine
 10
8.885480455369531e-005
 20
-331.0000001088727
 11
8.885480471091005e-005
 21
-328.0000001088728
  0
LINE
  5
52
100
AcDbEntity
  8
0
  6
ByLayer
 62
  256
370
   -1
100
AcDbLine
 10
249.9999863285929
 20
-328.0000001088724
 11
249.999986155566
 21
-331.0000001088725
  0
LINE
  5
53
100
AcDbEntity
  8
0
  6
ByLayer
 62
  256
370
   -1
100
AcDbLine
 10
239.9999861555661
 20
-331.0000001088729
 11
239.9999861555657
 21
-328.0000001088562
  0
CIRCLE
  5
54
100
AcDbEntity
  8
0
  6
ByLayer
 62
  256
370
   -1
100
AcDbCircle
 10
7.5
 20
-7.5
 40
1.5
  0
CIRCLE
  5
55
100
AcDbEntity
  8
0
  6
ByLayer
 62
  256
370
   -1
100
AcDbCircle
 10
7.5
 20
-242.5
 40
1.5
  0
CIRCLE
  5
56
100
AcDbEntity
  8
0
  6
ByLayer
 62
  256
370
   -1
100
AcDbCircle
 10
242.5
 20
-242.5
 40
1.5
  0
LINE
  5
57
100
AcDbEntity
  8
0
  6
ByLayer
 62
  256
370
   -1
100
AcDbLine
 10
0
 20
0
 11
10
 21
-9.184850993605146e-016
  0
LINE
  5
58
100
AcDbEntity
  8
0
  6
ByLayer
 62
  256
370
   -1
100
AcDbLine
 10
0
 20
0
 11
10
 21
-9.184850993605146e-016
  0
LINE
  5
59
100
AcDbEntity
  8
0
  6
ByLayer
 62
  256
370
   -1
100
AcDbLine
 10
240
 20
0
 11
250
 21
0
  0
LINE
  5
5A
100
AcDbEntity
  8
0
  6
ByLayer
 62
  256
370
   -1
100
AcDbLine
 10
239.9999861555657
 20
-328.0000001088562
 11
10.00008885480456
 21
-328.0000001088728
  0
LWPOLYLINE
  5
5B
100
AcDbEntity
  8
0
  6
ByLayer
 62
  256
370
   -1
100
AcDbPolyline
 90
    4
 70
    1
 43
0
 10
239.5000026215237
 20
-10.5
 10
10.5
 20
-10.50000000000001
 10
10.50000000000001
 20
-239.5000001098078
 10
239.4999938718929
 20
-239.4999999967375
  0
LWPOLYLINE
  5
5C
100
AcDbEntity
  8
0
  6
ByLayer
 62
  256
370
   -1
100
AcDbPolyline
 90
    2
 70
    1
 43
0
 10
-7.999992781375754
 20
-250.0000000000977
 10
7.218624245020067e-006
 20
-249.9999999999999
  0
LINE
  5
5D
100
AcDbEntity
  8
0
  6
ByLayer
 62
  256
370
   -1
100
AcDbLine
 10
249.9999913506061
 20
-257.9999999967372
 11
249.999993828692
 21
-249.9999999967375
  0
CIRCLE
  5
5E
100
AcDbEntity
  8
0
  6
ByLayer
 62
  256
370
   -1
100
AcDbCircle
 10
-15.5
 20
-7.5
 40
1.5
  0
CIRCLE
  5
5F
100
AcDbEntity
  8
0
  6
ByLayer
 62
  256
370
   -1
100
AcDbCircle
 10
7.500007218624245
 20
-265.4999999999999
 40
1.5
  0
CIRCLE
  5
60
100
AcDbEntity
  8
0
  6
ByLayer
 62
  256
370
   -1
100
AcDbCircle
 10
242.5000072186242
 20
-265.4999999999999
 40
1.5
  0
CIRCLE
  5
61
100
AcDbEntity
  8
0
  6
ByLayer
 62
  256
370
   -1
100
AcDbCircle
 10
7.500007218624245
 20
-320.4999999999999
 40
1.5
  0
CIRCLE
  5
62
100
AcDbEntity
  8
0
  6
ByLayer
 62
  256
370
   -1
100
AcDbCircle
 10
242.5000072186242
 20
-320.4999999999999
 40
1.5
  0
CIRCLE
  5
63
100
AcDbEntity
  8
0
  6
ByLayer
 62
  256
370
   -1
100
AcDbCircle
 10
-15.5
 20
-242.5
 40
1.5
  0
CIRCLE
  5
64
100
AcDbEntity
  8
0
  6
ByLayer
 62
  256
370
   -1
100
AcDbCircle
 10
-70.5
 20
-242.5
 40
1.5
  0
LINE
  5
65
100
AcDbEntity
  8
0
  6
ByLayer
 62
  256
370
   -1
100
AcDbLine
 10
-14.99999278137576
 20
-249.9999999924194
 11
-14.99999278137583
 21
-257.9999999924194
  0
LINE
  5
66
100
AcDbEntity
  8
0
  6
ByLayer
 62
  256
370
   -1
100
AcDbLine
 10
-14.99999278137583
 20
-257.9999999924194
 11
-21.99999278137575
 21
-257.9999999924195
  0
LINE
  5
67
100
AcDbEntity
  8
0
  6
ByLayer
 62
  256
370
   -1
100
AcDbLine
 10
-21.99999278137575
 20
-257.9999999924195
 11
-21.99999278137575
 21
-249.9999999924195
  0
LINE
  5
68
100
AcDbEntity
  8
0
  6
ByLayer
 62
  256
370
   -1
100
AcDbLine
 10
0.007465477181918199
 20
-257.9999965233978
 11
-7.992534522818082
 21
-257.9999965190885
  0
LINE
  5
69
100
AcDbEntity
  8
0
  6
ByLayer
 62
  256
370
   -1
100
AcDbLine
 10
-7.992534522818082
 20
-257.9999965190885
 11
-7.992534522819392
 21
-264.9999965190885
  0
LINE
  5
6A
100
AcDbEntity
  8
0
  6
ByLayer
 62
  256
370
   -1
100
AcDbLine
 10
-7.992534522819392
 20
-264.9999965190885
 11
4.899239136009441e-017
 21
-264.9999965190881
  0
LINE
  5
6B
100
AcDbEntity
  8
0
  6
ByLayer
 62
  256
370
   -1
100
AcDbLine
 10
257.999971145506
 20
-268.0000001078869
 11
249.9999888285143
 21
-268.0000001088645
  0
LINE
  5
6C
100
AcDbEntity
  8
0
  6
ByLayer
 62
  256
370
   -1
100
AcDbLine
 10
249.999993828692
 20
-249.9999999967375
 11
249.9999913506061
 21
-257.9999999967372
  0
LINE
  5
6D
100
AcDbEntity
  8
0
  6
ByLayer
 62
  256
370
   -1
100
AcDbLine
 10
-14.99999278137576
 20
-249.9999999924194
 11
-7.999992781375754
 21
-250.0000000000977
  0
LINE
  5
6E
100
AcDbEntity
  8
0
  6
ByLayer
 62
  256
370
   -1
100
AcDbLine
 10
-7.999996521894946
 20
-271.9999999956939
 11
-7.999996521896255
 21
-278.9999999956939
  0
LINE
  5
6F
100
AcDbEntity
  8
0
  6
ByLayer
 62
  256
370
   -1
100
AcDbLine
 10
-7.999996521896255
 20
-278.9999999956939
 11
-5.708956988041383e-014
 21
-278.9999999956935
  0
LINE
  5
70
100
AcDbEntity
  8
0
  6
ByLayer
 62
  256
370
   -1
100
AcDbLine
 10
3.478104990973009e-006
 20
-271.9999999999992
 11
-7.999996521894946
 21
-271.9999999956939
  0
LINE
  5
71
100
AcDbEntity
  8
0
  6
ByLayer
 62
  256
370
   -1
100
AcDbLine
 10
-7.999996521894946
 20
-285.9999999956939
 11
-7.999996521896255
 21
-292.999999995694
  0
LINE
  5
72
100
AcDbEntity
  8
0
  6
ByLayer
 62
  256
370
   -1
100
AcDbLine
 10
-7.999996521896255
 20
-292.999999995694
 11
-5.708956988041383e-014
 21
-292.9999999956935
  0
LINE
  5
73
100
AcDbEntity
  8
0
  6
ByLayer
 62
  256
370
   -1
100
AcDbLine
 10
3.478104990973009e-006
 20
-285.9999999999992
 11
-7.999996521894946
 21
-285.9999999956939
  0
LINE
  5
74
100
AcDbEntity
  8
0
  6
ByLayer
 62
  256
370
   -1
100
AcDbLine
 10
-7.999996521894946
 20
-299.9999999956939
 11
-7.999996521896255
 21
-306.9999999956939
  0
LINE
  5
75
100
AcDbEntity
  8
0
  6
ByLayer
 62
  256
370
   -1
100
AcDbLine
 10
-7.999996521896255
 20
-306.9999999956939
 11
-5.708956988041383e-014
 21
-306.9999999956935
  0
LINE
  5
76
100
AcDbEntity
  8
0
  6
ByLayer
 62
  256
370
   -1
100
AcDbLine
 10
3.478104990973009e-006
 20
-299.9999999999992
 11
-7.999996521894946
 21
-299.9999999956939
  0
LINE
  5
77
100
AcDbEntity
  8
0
  6
ByLayer
 62
  256
370
   -1
100
AcDbLine
 10
-7.999996521894946
 20
-313.9999999956939
 11
-7.999996521896255
 21
-320.999999995694
  0
LINE
  5
78
100
AcDbEntity
  8
0
  6
ByLayer
 62
  256
370
   -1
100
AcDbLine
 10
-7.999996521896255
 20
-320.999999995694
 11
0.0001269964771283263
 21
-320.9999999956935
  0
LINE
  5
79
100
AcDbEntity
  8
0
  6
ByLayer
 62
  256
370
   -1
100
AcDbLine
 10
3.478104990973009e-006
 20
-313.9999999999992
 11
-7.999996521894946
 21
-313.9999999956939
  0
LINE
  5
7A
100
AcDbEntity
  8
0
  6
ByLayer
 62
  256
370
   -1
100
AcDbLine
 10
-28.99999278137583
 20
-257.9999999924194
 11
-35.99999278137575
 21
-257.9999999924195
  0
LINE
  5
7B
100
AcDbEntity
  8
0
  6
ByLayer
 62
  256
370
   -1
100
AcDbLine
 10
-35.99999278137575
 20
-257.9999999924195
 11
-35.99999278137575
 21
-249.9999999924195
  0
LINE
  5
7C
100
AcDbEntity
  8
0
  6
ByLayer
 62
  256
370
   -1
100
AcDbLine
 10
-28.99999278137575
 20
-249.9999999924194
 11
-28.99999278137583
 21
-257.9999999924194
  0
LINE
  5
7D
100
AcDbEntity
  8
0
  6
ByLayer
 62
  256
370
   -1
100
AcDbLine
 10
-42.99999278137583
 20
-257.9999999924194
 11
-49.99999278137576
 21
-257.9999999924195
  0
LINE
  5
7E
100
AcDbEntity
  8
0
  6
ByLayer
 62
  256
370
   -1
100
AcDbLine
 10
-49.99999278137576
 20
-257.9999999924195
 11
-49.99999278137576
 21
-249.9999999924195
  0
LINE
  5
7F
100
AcDbEntity
  8
0
  6
ByLayer
 62
  256
370
   -1
100
AcDbLine
 10
-42.99999278137576
 20
-249.9999999924194
 11
-42.99999278137583
 21
-257.9999999924194
  0
LINE
  5
80
100
AcDbEntity
  8
0
  6
ByLayer
 62
  256
370
   -1
100
AcDbLine
 10
-56.99999278137583
 20
-257.9999999924194
 11
-63.99999278137575
 21
-257.9999999924195
  0
LINE
  5
81
100
AcDbEntity
  8
0
  6
ByLayer
 62
  256
370
   -1
100
AcDbLine
 10
-63.99999278137575
 20
-257.9999999924195
 11
-63.99999278137575
 21
-249.9999999924195
  0
LINE
  5
82
100
AcDbEntity
  8
0
  6
ByLayer
 62
  256
370
   -1
100
AcDbLine
 10
-56.99999278137575
 20
-249.9999999924194
 11
-56.99999278137583
 21
-257.9999999924194
  0
LINE
  5
83
100
AcDbEntity
  8
0
  6
ByLayer
 62
  256
370
   -1
100
AcDbLine
 10
-70.99999278137584
 20
-257.9999999924194
 11
-77.99999278137575
 21
-257.9999999924195
  0
LINE
  5
84
100
AcDbEntity
  8
0
  6
ByLayer
 62
  256
370
   -1
100
AcDbLine
 10
-77.99999278137575
 20
-257.9999999924195
 11
-77.99999278137575
 21
-249.9999999924195
  0
LINE
  5
85
100
AcDbEntity
  8
0
  6
ByLayer
 62
  256
370
   -1
100
AcDbLine
 10
-70.99999278137575
 20
-249.9999999924194
 11
-70.99999278137584
 21
-257.9999999924194
  0
LINE
  5
86
100
AcDbEntity
  8
0
  6
ByLayer
 62
  256
370
   -1
100
AcDbLine
 10
3.478104990973009e-006
 20
-271.9999999999992
 11
4.899239136009441e-017
 21
-264.9999965190881
  0
LINE
  5
87
100
AcDbEntity
  8
0
  6
ByLayer
 62
  256
370
   -1
100
AcDbLine
 10
3.478104990973009e-006
 20
-285.9999999999992
 11
-5.708956988041383e-014
 21
-278.9999999956935
  0
LINE
  5
88
100
AcDbEntity
  8
0
  6
ByLayer
 62
  256
370
   -1
100
AcDbLine
 10
3.478104990973009e-006
 20
-313.9999999999993
 11
-5.708956988041383e-014
 21
-306.9999999956935
  0
LINE
  5
89
100
AcDbEntity
  8
0
  6
ByLayer
 62
  256
370
   -1
100
AcDbLine
 10
3.478104990973009e-006
 20
-299.9999999999992
 11
-5.708956988041383e-014
 21
-292.9999999956935
  0
LINE
  5
8A
100
AcDbEntity
  8
0
  6
ByLayer
 62
  256
370
   -1
100
AcDbLine
 10
249.999971145506
 20
-318.000000108884
 11
249.9999863285929
 21
-328.0000001088724
  0
LINE
  5
8B
100
AcDbEntity
  8
0
  6
ByLayer
 62
  256
370
   -1
100
AcDbLine
 10
249.999993828692
 20
-249.9999999967375
 11
249.9999913506061
 21
-257.9999999967372
  0
LINE
  5
8C
100
AcDbEntity
  8
0
  6
ByLayer
 62
  256
370
   -1
100
AcDbLine
 10
0
 20
0
 11
-7.999999999995659
 21
-6.162975822039155e-032
  0
LINE
  5
8D
100
AcDbEntity
  8
0
  6
ByLayer
 62
  256
370
   -1
100
AcDbLine
 10
-70.99999278137575
 20
-249.9999999924194
 11
-63.99999278137575
 21
-249.9999999924195
  0
LINE
  5
8E
100
AcDbEntity
  8
0
  6
ByLayer
 62
  256
370
   -1
100
AcDbLine
 10
-56.99999278137575
 20
-249.9999999924194
 11
-49.99999278137576
 21
-249.9999999924195
  0
LINE
  5
8F
100
AcDbEntity
  8
0
  6
ByLayer
 62
  256
370
   -1
100
AcDbLine
 10
-42.99999278137576
 20
-249.9999999924194
 11
-35.99999278137575
 21
-249.9999999924195
  0
LINE
  5
90
100
AcDbEntity
  8
0
  6
ByLayer
 62
  256
370
   -1
100
AcDbLine
 10
-28.99999278137575
 20
-249.9999999924194
 11
-21.99999278137575
 21
-249.9999999924195
  0
LINE
  5
91
100
AcDbEntity
  8
0
  6
ByLayer
 62
  256
370
   -1
100
AcDbLine
 10
0
 20
0
 11
-7.999999999995659
 21
-6.162975822039155e-032
  0
LINE
  5
92
100
AcDbEntity
  8
0
  6
ByLayer
 62
  256
370
   -1
100
AcDbLine
 10
-78
 20
8
 11
-7.999999999995659
 21
8
  0
LINE
  5
93
100
AcDbEntity
  8
0
  6
ByLayer
 62
  256
370
   -1
100
AcDbLine
 10
249.999993828692
 20
-249.9999999967375
 11
249.9999913506061
 21
-257.9999999967372
  0
LWPOLYLINE
  5
94
100
AcDbEntity
  8
0
  6
ByLayer
 62
  256
370
   -1
100
AcDbPolyline
 90
    4
 70
    1
 43
0
 10
-67.5
 20
-10.5
 10
-18.49999999999566
 20
-10.50000000000001
 10
-18.5
 20
-239.5000000008249
 10
-67.50000000000011
 20
-239.5000000008249
  0
CIRCLE
  5
95
100
AcDbEntity
  8
0
  6
ByLayer
 62
  256
370
   -1
100
AcDbCircle
 10
-70.5
 20
-7.5
 40
1.5
  0
LINE
  5
96
100
AcDbEntity
  8
0
  6
ByLayer
 62
  256
370
   -1
100
AcDbLine
 10
-113.0202364505298
 20
-27.77777777777779
 11
-120.9999999982863
 21
-27.77777777777781
  0
LINE
  5
97
100
AcDbEntity
  8
0
  6
ByLayer
 62
  256
370
   -1
100
AcDbLine
 10
-113.0173455187726
 20
-55.55555555555556
 11
-120.9999999982864
 21
-55.55555541561307
  0
LINE
  5
98
100
AcDbEntity
  8
0
  6
ByLayer
 62
  256
370
   -1
100
AcDbLine
 10
-113.0144542414304
 20
-83.33665312449142
 11
-120.9999999982868
 21
-83.33665301828682
  0
LINE
  5
99
100
AcDbEntity
  8
0
  6
ByLayer
 62
  256
370
   -1
100
AcDbLine
 10
-113.0115633415108
 20
-111.1141245555151
 11
-120.9999999982872
 21
-111.1141244831102
  0
LINE
  5
9A
100
AcDbEntity
  8
0
  6
ByLayer
 62
  256
370
   -1
100
AcDbLine
 10
-113.0086728192326
 20
-138.8879674901241
 11
-120.9999999982862
 21
-138.8879674515806
  0
LINE
  5
9B
100
AcDbEntity
  8
0
  6
ByLayer
 62
  256
370
   -1
100
AcDbLine
 10
-113.0057819193233
 20
-166.6654389272728
 11
-120.9999999982861
 21
-166.665438922651
  0
LINE
  5
9C
100
AcDbEntity
  8
0
  6
ByLayer
 62
  256
370
   -1
100
AcDbLine
 10
-113.0028910194138
 20
-194.4429103658984
 11
-120.9999999982861
 21
-194.4429103952595
  0
LINE
  5
9D
100
AcDbEntity
  8
0
  6
ByLayer
 62
  256
370
   -1
100
AcDbLine
 10
-112.9999999982874
 20
-222.2215465378197
 11
-120.9999999982874
 21
-222.222379126166
  0
LINE
  5
9E
100
AcDbEntity
  8
0
  6
ByLayer
 62
  256
370
   -1
100
AcDbLine
 10
-370.8328862526782
 20
-27.77777777777793
 11
-378.9301801567108
 21
-27.77777777777794
  0
LINE
  5
9F
100
AcDbEntity
  8
0
  6
ByLayer
 62
  256
370
   -1
100
AcDbLine
 10
-370.8328862526782
 20
-55.55555555555554
 11
-378.930180156711
 21
-55.55555555555557
  0
LINE
  5
A0
100
AcDbEntity
  8
0
  6
ByLayer
 62
  256
370
   -1
100
AcDbLine
 10
-370.8328862526782
 20
-83.33333333333331
 11
-378.9301801567112
 21
-83.33333333333334
  0
LINE
  5
A1
100
AcDbEntity
  8
0
  6
ByLayer
 62
  256
370
   -1
100
AcDbLine
 10
-370.8328862526782
 20
-138.8888888888889
 11
-378.9301801567117
 21
-138.8888888888889
  0
LINE
  5
A2
100
AcDbEntity
  8
0
  6
ByLayer
 62
  256
370
   -1
100
AcDbLine
 10
-370.8328862526782
 20
-166.6666666666665
 11
-378.9301801567119
 21
-166.6666666666666
  0
LINE
  5
A3
100
AcDbEntity
  8
0
  6
ByLayer
 62
  256
370
   -1
100
AcDbLine
 10
-370.8328862526782
 20
-194.4444444444443
 11
-378.930180156712
 21
-194.4444444444443
  0
LINE
  5
A4
100
AcDbEntity
  8
0
  6
ByLayer
 62
  256
370
   -1
100
AcDbLine
 10
-370.8328862526786
 20
-222.2222222222223
 11
-378.9301801567121
 21
-222.2222222222224
  0
LINE
  5
A5
100
AcDbEntity
  8
0
  6
ByLayer
 62
  256
370
   -1
100
AcDbLine
 10
7.218624245522683e-006
 20
-249.9999999999999
 11
27.77777777777778
 21
-249.9999999992667
  0
LINE
  5
A6
100
AcDbEntity
  8
0
  6
ByLayer
 62
  256
370
   -1
100
AcDbLine
 10
55.55555555555554
 20
-249.9999999992595
 11
83.33333333333331
 21
-249.9999999992523
  0
LINE
  5
A7
100
AcDbEntity
  8
0
  6
ByLayer
 62
  256
370
   -1
100
AcDbLine
 10
111.1111111111111
 20
-249.9999999993321
 11
138.8888888888889
 21
-249.9999999994119
  0
LINE
  5
A8
100
AcDbEntity
  8
0
  6
ByLayer
 62
  256
370
   -1
100
AcDbLine
 10
166.6666666666666
 20
-249.9999999993321
 11
194.4444444444444
 21
-249.9999999993321
  0
LINE
  5
A9
100
AcDbEntity
  8
0
  6
ByLayer
 62
  256
370
   -1
100
AcDbLine
 10
222.2222222222222
 20
-249.9999999976024
 11
249.999993828692
 21
-249.9999999967375
  0
LINE
  5
AA
100
AcDbEntity
  8
0
  6
ByLayer
 62
  256
370
   -1
100
AcDbLine
 10
-120.999999998285
 20
-255.9080529999935
 11
-120.9999999982874
 21
-222.222379126166
  0
LINE
  5
AB
100
AcDbEntity
  8
0
  6
ByLayer
 62
  256
370
   -1
100
AcDbLine
 10
-120.999999998285
 20
-255.9080529999935
 11
-120.9999999982874
 21
-222.222379126166
  0
LINE
  5
AC
100
AcDbEntity
  8
0
  6
ByLayer
 62
  256
370
   -1
100
AcDbLine
 10
-120.9999999982861
 20
-194.4429103952595
 11
-120.9999999982861
 21
-166.665438922651
  0
LINE
  5
AD
100
AcDbEntity
  8
0
  6
ByLayer
 62
  256
370
   -1
100
AcDbLine
 10
-120.9999999982861
 20
-194.4429103952595
 11
-120.9999999982861
 21
-166.665438922651
  0
LINE
  5
AE
100
AcDbEntity
  8
0
  6
ByLayer
 62
  256
370
   -1
100
AcDbLine
 10
-120.9999999982862
 20
-138.8879674515806
 11
-120.9999999982872
 21
-111.1141244831102
  0
LINE
  5
AF
100
AcDbEntity
  8
0
  6
ByLayer
 62
  256
370
   -1
100
AcDbLine
 10
-120.9999999982868
 20
-83.33665301828682
 11
-120.9999999982864
 21
-55.55555541561307
  0
LINE
  5
B0
100
AcDbEntity
  8
0
  6
ByLayer
 62
  256
370
   -1
100
AcDbLine
 10
-120.9999999982862
 20
-138.8879674515806
 11
-120.9999999982872
 21
-111.1141244831102
  0
LINE
  5
B1
100
AcDbEntity
  8
0
  6
ByLayer
 62
  256
370
   -1
100
AcDbLine
 10
-120.9999999982868
 20
-83.33665301828682
 11
-120.9999999982864
 21
-55.55555541561307
  0
LINE
  5
B2
100
AcDbEntity
  8
0
  6
ByLayer
 62
  256
370
   -1
100
AcDbLine
 10
-120.9999999982863
 20
-27.77777777777781
 11
-120.9999999982872
 21
-4.811162746732167e-009
  0
LINE
  5
B3
100
AcDbEntity
  8
0
  6
ByLayer
 62
  256
370
   -1
100
AcDbLine
 10
-370.8328862526782
 20
2.042306464842567e-013
 11
-370.8328862526782
 21
-27.77777777777793
  0
LINE
  5
B4
100
AcDbEntity
  8
0
  6
ByLayer
 62
  256
370
   -1
100
AcDbLine
 10
-370.8328862526782
 20
-55.55555555555554
 11
-370.8328862526782
 21
-83.33333333333331
  0
LINE
  5
B5
100
AcDbEntity
  8
0
  6
ByLayer
 62
  256
370
   -1
100
AcDbLine
 10
-370.8328862526782
 20
-111.1111216077367
 11
-370.8328862526782
 21
-138.8888888888889
  0
LINE
  5
B6
100
AcDbEntity
  8
0
  6
ByLayer
 62
  256
370
   -1
100
AcDbLine
 10
-370.8328862526782
 20
-166.6666666666665
 11
-370.8328862526782
 21
-194.4444444444443
  0
LINE
  5
B7
100
AcDbEntity
  8
0
  6
ByLayer
 62
  256
370
   -1
100
AcDbLine
 10
-370.8328862526786
 20
-222.2222222222223
 11
-370.8328862526786
 21
-263.9080530000089
  0
LWPOLYLINE
  5
B8
100
AcDbEntity
  8
0
  6
ByLayer
 62
  256
370
   -1
100
AcDbPolyline
 90
    4
 70
    1
 43
0
 10
239.49998635972
 20
-268.4999999999024
 10
10.50002608725009
 20
-268.4999999997228
 10
10.50002608578875
 20
-317.5000001061206
 10
239.4999863285929
 20
-317.5000001088725
  0
LINE
  5
B9
100
AcDbEntity
  8
0
  6
ByLayer
 62
  256
370
   -1
100
AcDbLine
 10
0.0001269964771283263
 20
-320.9999999956935
 11
8.885480471091005e-005
 21
-328.0000001088728
  0
LINE
  5
BA
100
AcDbEntity
  8
0
  6
ByLayer
 62
  256
370
   -1
100
AcDbLine
 10
0
 20
-27.77777777777778
 11
-7.999999999995659
 21
-27.77777777777778
  0
LINE
  5
BB
100
AcDbEntity
  8
0
  6
ByLayer
 62
  256
370
   -1
100
AcDbLine
 10
0
 20
-55.55555555555556
 11
-7.999999999995659
 21
-55.55555555555556
  0
LINE
  5
BC
100
AcDbEntity
  8
0
  6
ByLayer
 62
  256
370
   -1
100
AcDbLine
 10
0
 20
-83.33333333333331
 11
-7.999999999995659
 21
-83.33333333333331
  0
LINE
  5
BD
100
AcDbEntity
  8
0
  6
ByLayer
 62
  256
370
   -1
100
AcDbLine
 10
0
 20
-111.1111111111111
 11
-7.999999999995659
 21
-111.1111111111111
  0
LINE
  5
BE
100
AcDbEntity
  8
0
  6
ByLayer
 62
  256
370
   -1
100
AcDbLine
 10
0
 20
-138.8888888888889
 11
-7.999999999995659
 21
-138.8888888888889
  0
LINE
  5
BF
100
AcDbEntity
  8
0
  6
ByLayer
 62
  256
370
   -1
100
AcDbLine
 10
0
 20
-166.6666666666666
 11
-7.999999999995659
 21
-166.6666666666666
  0
LINE
  5
C0
100
AcDbEntity
  8
0
  6
ByLayer
 62
  256
370
   -1
100
AcDbLine
 10
0
 20
-194.4444444444444
 11
-7.999999999995659
 21
-194.4444444444444
  0
LINE
  5
C1
100
AcDbEntity
  8
0
  6
ByLayer
 62
  256
370
   -1
100
AcDbLine
 10
0
 20
-222.2222222222222
 11
-7.999999999995659
 21
-222.2222222222222
  0
LINE
  5
C2
100
AcDbEntity
  8
0
  6
ByLayer
 62
  256
370
   -1
100
AcDbLine
 10
0
 20
-250
 11
-7.999999999995659
 21
-250
  0
LINE
  5
C3
100
AcDbEntity
  8
0
  6
ByLayer
 62
  256
370
   -1
100
AcDbLine
 10
-7.999999999995659
 20
-27.77777777777778
 11
-7.999999999995659
 21
-55.55555555555556
  0
LINE
  5
C4
100
AcDbEntity
  8
0
  6
ByLayer
 62
  256
370
   -1
100
AcDbLine
 10
-7.999999999995659
 20
-83.33333333333331
 11
-7.999999999995659
 21
-111.1111111111111
  0
LINE
  5
C5
100
AcDbEntity
  8
0
  6
ByLayer
 62
  256
370
   -1
100
AcDbLine
 10
-7.999999999995659
 20
-138.8888888888889
 11
-7.999999999995659
 21
-166.6666666666666
  0
LINE
  5
C6
100
AcDbEntity
  8
0
  6
ByLayer
 62
  256
370
   -1
100
AcDbLine
 10
-7.999999999995659
 20
-194.4444444444444
 11
-7.999999999995659
 21
-222.2222222222222
  0
LINE
  5
C7
100
AcDbEntity
  8
0
  6
ByLayer
 62
  256
370
   -1
100
AcDbLine
 10
0
 20
-222.2222222222222
 11
0.007465477181918199
 21
-257.9999965233978
  0
LINE
  5
C8
100
AcDbEntity
  8
0
  6
ByLayer
 62
  256
370
   -1
100
AcDbLine
 10
0
 20
-111.1111111111111
 11
0
 21
-138.8888888888889
  0
LINE
  5
C9
100
AcDbEntity
  8
0
  6
ByLayer
 62
  256
370
   -1
100
AcDbLine
 10
0
 20
-166.6666666666666
 11
0
 21
-194.4444444444444
  0
LINE
  5
CA
100
AcDbEntity
  8
0
  6
ByLayer
 62
  256
370
   -1
100
AcDbLine
 10
0
 20
0
 11
0
 21
-27.77777777777778
  0
LINE
  5
CB
100
AcDbEntity
  8
0
  6
ByLayer
 62
  256
370
   -1
100
AcDbLine
 10
0
 20
-55.55555555555556
 11
0
 21
-83.33333333333331
  0
LINE
  5
CC
100
AcDbEntity
  8
0
  6
ByLayer
 62
  256
370
   -1
100
AcDbLine
 10
-77.99999999828663
 20
-27.77777777777779
 11
-85.99999919466154
 21
-27.77777777785859
  0
LINE
  5
CD
100
AcDbEntity
  8
0
  6
ByLayer
 62
  256
370
   -1
100
AcDbLine
 10
-77.99999999828663
 20
-55.55555555555556
 11
-85.99999839075581
 21
-55.55555555563637
  0
LINE
  5
CE
100
AcDbEntity
  8
0
  6
ByLayer
 62
  256
370
   -1
100
AcDbLine
 10
-77.99999999828663
 20
-83.33333333333331
 11
-85.99999758685009
 21
-83.33333333341413
  0
LINE
  5
CF
100
AcDbEntity
  8
0
  6
ByLayer
 62
  256
370
   -1
100
AcDbLine
 10
-77.99999999828663
 20
-111.1111111111111
 11
-85.99999678294438
 21
-111.1111111111919
  0
LINE
  5
D0
100
AcDbEntity
  8
0
  6
ByLayer
 62
  256
370
   -1
100
AcDbLine
 10
-77.99999999828663
 20
-138.8888888888889
 11
-85.99999597903866
 21
-138.8888888889697
  0
LINE
  5
D1
100
AcDbEntity
  8
0
  6
ByLayer
 62
  256
370
   -1
100
AcDbLine
 10
-77.99999999828663
 20
-166.6666666666666
 11
-85.99999517513294
 21
-166.6666666667475
  0
LINE
  5
D2
100
AcDbEntity
  8
0
  6
ByLayer
 62
  256
370
   -1
100
AcDbLine
 10
-77.99999999828663
 20
-194.4444444444444
 11
-85.9999943712272
 21
-194.4444444445253
  0
LINE
  5
D3
100
AcDbEntity
  8
0
  6
ByLayer
 62
  256
370
   -1
100
AcDbLine
 10
-77.9999999982866
 20
-222.2222222222222
 11
-85.99999358303647
 21
-222.222222222303
  0
LINE
  5
D4
100
AcDbEntity
  8
0
  6
ByLayer
 62
  256
370
   -1
100
AcDbLine
 10
-355.7398222287628
 20
-242.9080529999931
 11
-228.7398222287628
 21
-242.9080529999931
  0
LINE
  5
D5
100
AcDbEntity
  8
0
  6
ByLayer
 62
  256
370
   -1
100
AcDbLine
 10
-228.7398222287628
 20
-242.9080529999931
 11
-228.7398222287628
 21
-263.9080529999934
  0
LINE
  5
D6
100
AcDbEntity
  8
0
  6
ByLayer
 62
  256
370
   -1
100
AcDbLine
 10
-355.7398222287628
 20
-263.9080529999931
 11
-355.7398222287628
 21
-242.9080529999931
  0
LINE
  5
D7
100
AcDbEntity
  8
0
  6
ByLayer
 62
  256
370
   -1
100
AcDbLine
 10
-253.6583670339292
 20
-13.00000000000926
 11
-253.6583670339281
 21
7.999999999990765
  0
LINE
  5
D8
100
AcDbEntity
  8
0
  6
ByLayer
 62
  256
370
   -1
100
AcDbLine
 10
-126.6583670339292
 20
-0.02235062288170326
 11
-126.6583670339292
 21
-13.00000000002859
  0
LINE
  5
D9
100
AcDbEntity
  8
0
  6
ByLayer
 62
  256
370
   -1
100
AcDbLine
 10
-126.6583670339292
 20
-13.00000000002859
 11
-253.6583670339292
 21
-13.00000000000926
  0
LINE
  5
DA
100
AcDbEntity
  8
0
  6
ByLayer
 62
  256
370
   -1
100
AcDbLine
 10
-228.7398222287629
 20
-242.9080529999931
 11
-355.7398222287628
 21
-242.9080529999931
  0
LINE
  5
DB
100
AcDbEntity
  8
0
  6
ByLayer
 62
  256
370
   -1
100
AcDbLine
 10
-253.7398222287629
 20
-116.9080529999931
 11
-228.7398222287629
 21
-152.9080529999931
  0
LINE
  5
DC
100
AcDbEntity
  8
0
  6
ByLayer
 62
  256
370
   -1
100
AcDbLine
 10
-253.6583670339292
 20
-13.00000000000926
 11
-126.6583670339292
 21
-13.00000000002859
  0
LINE
  5
DD
100
AcDbEntity
  8
0
  6
ByLayer
 62
  256
370
   -1
100
AcDbLine
 10
-228.6583670339394
 20
-139.0000000000273
 11
-253.6583670339394
 21
-103.0000000000273
  0
LWPOLYLINE
  5
DE
100
AcDbEntity
  8
0
  6
ByLayer
 62
  256
370
   -1
100
AcDbPolyline
 90
    4
 70
    1
 43
0
 10
-217.791589297723
 20
-168.6735084206983
 10
-272.1217901521539
 20
-90.43801919031743
 10
-265.5508304267675
 20
-85.87485271435452
 10
-211.2206295723361
 20
-164.110341944736
  0
LINE
  5
DF
100
AcDbEntity
  8
0
  6
ByLayer
 62
  256
370
   -1
100
AcDbLine
 10
-166.6476793718622
 20
-255.9080529999936
 11
-120.999999998285
 21
-255.9080529999935
  0
LINE
  5
E0
100
AcDbEntity
  8
0
  6
ByLayer
 62
  256
370
   -1
100
AcDbLine
 10
-306.8111609101024
 20
5.173639294753229e-013
 11
-370.8328862526782
 21
2.042306464842567e-013
  0
LINE
  5
E1
100
AcDbEntity
  8
0
  6
ByLayer
 62
  256
370
   -1
100
AcDbLine
 10
-355.7398222287628
 20
-263.9080529999931
 11
-370.8328862526786
 21
-263.9080530000089
  0
LINE
  5
E2
100
AcDbEntity
  8
0
  6
ByLayer
 62
  256
370
   -1
100
AcDbLine
 10
-306.8111609101022
 20
8.000000000000519
 11
-306.8111609101024
 21
5.173639294753229e-013
  0
LINE
  5
E3
100
AcDbEntity
  8
0
  6
ByLayer
 62
  256
370
   -1
100
AcDbLine
 10
-166.6476793718622
 20
-255.9080529999936
 11
-166.6476793718622
 21
-263.9080529999936
  0
LINE
  5
E4
100
AcDbEntity
  8
0
  6
ByLayer
 62
  256
370
   -1
100
AcDbLine
 10
-42.99999999999565
 20
3
 11
-42.99999999999565
 21
6.000000000000001
  0
LWPOLYLINE
  5
E5
100
AcDbEntity
  8
0
  6
ByLayer
 62
  256
370
   -1
100
AcDbPolyline
 90
    4
 70
    1
 43
0
 10
268.5000000000018
 20
-239.5000000000744
 10
317.500000000006
 20
-239.5000000000732
 10
317.5000000000003
 20
-10.49999999999832
 10
268.499999999996
 20
-10.49999999999955
  0
LINE
  5
E6
100
AcDbEntity
  8
0
  6
ByLayer
 62
  256
370
   -1
100
AcDbLine
 10
257.9999735386191
 20
-250.000000109574
 11
249.9999951190071
 21
-250.0000001169775
  0
CIRCLE
  5
E7
100
AcDbEntity
  8
0
  6
ByLayer
 62
  256
370
   -1
100
AcDbCircle
 10
320.5000000000061
 20
-242.4999999999982
 40
1.5
  0
LINE
  5
E8
100
AcDbEntity
  8
0
  6
ByLayer
 62
  256
370
   -1
100
AcDbLine
 10
249.9999964839851
 20
-239.9999999967375
 11
257.9999756307334
 21
-239.9999999967374
  0
CIRCLE
  5
E9
100
AcDbEntity
  8
0
  6
ByLayer
 62
  256
370
   -1
100
AcDbCircle
 10
265.5000000000061
 20
-242.4999999999996
 40
1.5
  0
CIRCLE
  5
EA
100
AcDbEntity
  8
0
  6
ByLayer
 62
  256
370
   -1
100
AcDbCircle
 10
265.5000000000002
 20
-7.499999999999614
 40
1.5
  0
LINE
  5
EB
100
AcDbEntity
  8
0
  6
ByLayer
 62
  256
370
   -1
100
AcDbLine
 10
250
 20
0
 11
257.9999722682145
 21
-0.05326664900589503
  0
LINE
  5
EC
100
AcDbEntity
  8
0
  6
ByLayer
 62
  256
370
   -1
100
AcDbLine
 10
249.999999852719
 20
-10.05326664900765
 11
257.9999801646779
 21
-10.05326664900647
  0
CIRCLE
  5
ED
100
AcDbEntity
  8
0
  6
ByLayer
 62
  256
370
   -1
100
AcDbCircle
 10
320.5000000000002
 20
-7.49999999999825
 40
1.5
  0
LINE
  5
EE
100
AcDbEntity
  8
0
  6
ByLayer
 62
  256
370
   -1
100
AcDbLine
 10
328.0000000000016
 20
8.000000000001929
 11
257.9999722682144
 21
8.000000000000199
  0
LINE
  5
EF
100
AcDbEntity
  8
0
  6
ByLayer
 62
  256
370
   -1
100
AcDbLine
 10
249.999993828692
 20
-249.9999999967375
 11
257.9999735386191
 21
-250.000000109574
  0
LINE
  5
F0
100
AcDbEntity
  8
0
  6
ByLayer
 62
  256
370
   -1
100
AcDbLine
 10
249.999993828692
 20
-249.9999999967375
 11
257.9999735386191
 21
-250.000000109574
  0
LINE
  5
F1
100
AcDbEntity
  8
0
  6
ByLayer
 62
  256
370
   -1
100
AcDbLine
 10
55.55555555555973
 20
-257.9999999999638
 11
27.77777777778196
 21
-257.9999999999783
  0
LINE
  5
F2
100
AcDbEntity
  8
0
  6
ByLayer
 62
  256
370
   -1
100
AcDbLine
 10
111.1111111111153
 20
-257.9999999999348
 11
83.33333333333749
 21
-257.9999999999493
  0
LINE
  5
F3
100
AcDbEntity
  8
0
  6
ByLayer
 62
  256
370
   -1
100
AcDbLine
 10
166.6666666666708
 20
-257.9999999999058
 11
138.8888888888931
 21
-257.9999999999203
  0
LINE
  5
F4
100
AcDbEntity
  8
0
  6
ByLayer
 62
  256
370
   -1
100
AcDbLine
 10
222.2222222222264
 20
-257.9999999998768
 11
194.4444444444486
 21
-257.9999999998913
  0
LINE
  5
F5
100
AcDbEntity
  8
0
  6
ByLayer
 62
  256
370
   -1
100
AcDbLine
 10
27.77777777778196
 20
-257.9999999999783
 11
27.77777777777778
 21
-249.9999999992667
  0
LINE
  5
F6
100
AcDbEntity
  8
0
  6
ByLayer
 62
  256
370
   -1
100
AcDbLine
 10
55.55555555555973
 20
-257.9999999999638
 11
55.55555555555554
 21
-249.9999999978076
  0
LINE
  5
F7
100
AcDbEntity
  8
0
  6
ByLayer
 62
  256
370
   -1
100
AcDbLine
 10
83.33333333333749
 20
-257.9999999999493
 11
83.33333333333331
 21
-249.9999999963484
  0
LINE
  5
F8
100
AcDbEntity
  8
0
  6
ByLayer
 62
  256
370
   -1
100
AcDbLine
 10
111.1111111111153
 20
-257.9999999999348
 11
111.1111111111111
 21
-249.9999999948022
  0
LINE
  5
F9
100
AcDbEntity
  8
0
  6
ByLayer
 62
  256
370
   -1
100
AcDbLine
 10
166.6666666666708
 20
-257.9999999999058
 11
166.6666666666666
 21
-249.9999999918693
  0
LINE
  5
FA
100
AcDbEntity
  8
0
  6
ByLayer
 62
  256
370
   -1
100
AcDbLine
 10
138.8888888888931
 20
-257.9999999999203
 11
138.8888888888889
 21
-249.9999999932559
  0
LINE
  5
FB
100
AcDbEntity
  8
0
  6
ByLayer
 62
  256
370
   -1
100
AcDbLine
 10
194.4444444444486
 20
-257.9999999998913
 11
194.4444444444444
 21
-249.9999999904029
  0
LINE
  5
FC
100
AcDbEntity
  8
0
  6
ByLayer
 62
  256
370
   -1
100
AcDbLine
 10
222.2222222222264
 20
-257.9999999998768
 11
222.2222222222222
 21
-249.9999999906663
  0
LINE
  5
FD
100
AcDbEntity
  8
0
  6
ByLayer
 62
  256
370
   -1
100
AcDbLine
 10
-120.9999999982917
 20
8.000000148446709
 11
-120.9999999982872
 21
-4.811162746732167e-009
  0
LINE
  5
FE
100
AcDbEntity
  8
0
  6
ByLayer
 62
  256
370
   -1
100
AcDbLine
 10
-126.6583670339292
 20
-0.02235062288170326
 11
-126.6583670339292
 21
7.999999999967443
  0
LINE
  5
FF
100
AcDbEntity
  8
0
  6
ByLayer
 62
  256
370
   -1
100
AcDbLine
 10
-378.930180156711
 20
-55.55555555555557
 11
-378.9301801567108
 21
-27.77777777777794
  0
LINE
  5
100
100
AcDbEntity
  8
0
  6
ByLayer
 62
  256
370
   -1
100
AcDbLine
 10
-378.9301801567115
 20
-111.1111203113488
 11
-378.9301801567112
 21
-83.33333333333334
  0
LINE
  5
101
100
AcDbEntity
  8
0
  6
ByLayer
 62
  256
370
   -1
100
AcDbLine
 10
-378.9301801567121
 20
-222.2222222222224
 11
-378.930180156712
 21
-194.4444444444443
  0
LINE
  5
102
100
AcDbEntity
  8
0
  6
ByLayer
 62
  256
370
   -1
100
AcDbLine
 10
-378.9301801567119
 20
-166.6666666666666
 11
-378.9301801567117
 21
-138.8888888888889
  0
LINE
  5
103
100
AcDbEntity
  8
0
  6
ByLayer
 62
  256
370
   -1
100
AcDbLine
 10
257.9999756307334
 20
-239.9999999967374
 11
257.9999801646779
 21
-10.05326664900647
  0
LINE
  5
104
100
AcDbEntity
  8
0
  6
ByLayer
 62
  256
370
   -1
100
AcDbLine
 10
250
 20
0
 11
249.999999852719
 21
-10.05326664900765
  0
LINE
  5
105
100
AcDbEntity
  8
0
  6
ByLayer
 62
  256
370
   -1
100
AcDbLine
 10
249.9999964839851
 20
-239.9999999967375
 11
249.9999951190071
 21
-250.0000001169775
  0
LWPOLYLINE
  5
106
100
AcDbEntity
  8
0
  6
ByLayer
 62
  256
370
   -1
100
AcDbPolyline
 90
    4
 70
    1
 43
0
 10
670.9678854716219
 20
-5.999999999998065
 10
432.9678854716219
 20
-5.99999999999806
 10
432.9678854716219
 20
-243.9999999999981
 10
670.9678854716219
 20
-243.9999999999981
  0
LINE
  5
107
100
AcDbEntity
  8
0
  6
ByLayer
 62
  256
370
   -1
100
AcDbLine
 10
328.0000000000018
 20
1.943098027131937e-012
 11
336.0000000000017
 21
1.943098027131937e-012
  0
LINE
  5
108
100
AcDbEntity
  8
0
  6
ByLayer
 62
  256
370
   -1
100
AcDbLine
 10
336.0000000000017
 20
-250.0403262559289
 11
328.0000000000175
 21
-250.0403262559289
  0
LINE
  5
109
100
AcDbEntity
  8
0
  6
ByLayer
 62
  256
370
   -1
100
AcDbLine
 10
328.0000000000175
 20
-27.7777777777575
 11
336.0000000000017
 21
-27.7777777777575
  0
LINE
  5
10A
100
AcDbEntity
  8
0
  6
ByLayer
 62
  256
370
   -1
100
AcDbLine
 10
328.0000000000175
 20
-55.55555555555361
 11
336.0000000000017
 21
-55.55555555555361
  0
LINE
  5
10B
100
AcDbEntity
  8
0
  6
ByLayer
 62
  256
370
   -1
100
AcDbLine
 10
328.0000000000175
 20
-83.33333333333138
 11
336.0000000000017
 21
-83.33333333333138
  0
LINE
  5
10C
100
AcDbEntity
  8
0
  6
ByLayer
 62
  256
370
   -1
100
AcDbLine
 10
328.0000000000175
 20
-111.1111111111092
 11
336.0000000000017
 21
-111.1111111111092
  0
LINE
  5
10D
100
AcDbEntity
  8
0
  6
ByLayer
 62
  256
370
   -1
100
AcDbLine
 10
328.0000000000176
 20
-138.888888888887
 11
336.0000000000017
 21
-138.888888888887
  0
LINE
  5
10E
100
AcDbEntity
  8
0
  6
ByLayer
 62
  256
370
   -1
100
AcDbLine
 10
328.0000000000175
 20
-166.6666666666647
 11
336.0000000000017
 21
-166.6666666666647
  0
LINE
  5
10F
100
AcDbEntity
  8
0
  6
ByLayer
 62
  256
370
   -1
100
AcDbLine
 10
328.0000000000175
 20
-194.4444444444425
 11
336.0000000000017
 21
-194.4444444444425
  0
LINE
  5
110
100
AcDbEntity
  8
0
  6
ByLayer
 62
  256
370
   -1
100
AcDbLine
 10
328.0000000000175
 20
-222.2222222222203
 11
336.0000000000017
 21
-222.2222222222203
  0
LINE
  5
111
100
AcDbEntity
  8
0
  6
ByLayer
 62
  256
370
   -1
100
AcDbLine
 10
328.0000000000018
 20
-249.999999999998
 11
336.0000000000017
 21
-249.999999999998
  0
CIRCLE
  5
112
100
AcDbEntity
  8
0
  6
ByLayer
 62
  256
370
   -1
100
AcDbCircle
 10
-350.3021094465982
 20
-25.54850312160651
 40
6.000000000000025
  0
LINE
  5
113
100
AcDbEntity
  8
0
  6
ByLayer
 62
  256
370
   -1
100
AcDbLine
 10
-113.0202364505298
 20
-27.77777777777779
 11
-113.0173455187726
 21
-55.55555555555556
  0
LINE
  5
114
100
AcDbEntity
  8
0
  6
ByLayer
 62
  256
370
   -1
100
AcDbLine
 10
-113.0144542414304
 20
-83.33665312449142
 11
-113.0115633415108
 21
-111.1141245555151
  0
LINE
  5
115
100
AcDbEntity
  8
0
  6
ByLayer
 62
  256
370
   -1
100
AcDbLine
 10
-113.0086728192326
 20
-138.8879674901241
 11
-113.0057819193233
 21
-166.6654389272728
  0
LINE
  5
116
100
AcDbEntity
  8
0
  6
ByLayer
 62
  256
370
   -1
100
AcDbLine
 10
-113.0028910194138
 20
-194.4429103658984
 11
-112.9999999982874
 21
-222.2215465378197
  0
LINE
  5
117
100
AcDbEntity
  8
0
  6
ByLayer
 62
  256
370
   -1
100
AcDbLine
 10
-228.7398222287575
 20
-309.2127027547687
 11
-228.7398222287575
 21
-322.2127027547686
  0
LINE
  5
118
100
AcDbEntity
  8
0
  6
ByLayer
 62
  256
370
   -1
100
AcDbLine
 10
-228.7398222287575
 20
-309.2127027547687
 11
-166.6476793718617
 21
-309.2127027547687
  0
LINE
  5
119
100
AcDbEntity
  8
0
  6
ByLayer
 62
  256
370
   -1
100
AcDbLine
 10
-166.6476793718617
 20
-301.2127027547687
 11
-166.6476793718617
 21
-309.2127027547687
  0
LINE
  5
11A
100
AcDbEntity
  8
0
  6
ByLayer
 62
  256
370
   -1
100
AcDbLine
 10
-202.128561790956
 20
-333.2127027547683
 11
-202.1285617910667
 21
-322.2127027547684
  0
LINE
  5
11B
100
AcDbEntity
  8
0
  6
ByLayer
 62
  256
370
   -1
100
AcDbLine
 10
-177.4668435270833
 20
-333.2127027547682
 11
-177.4668435271943
 21
-322.2127027547684
  0
LINE
  5
11C
100
AcDbEntity
  8
0
  6
ByLayer
 62
  256
370
   -1
100
AcDbLine
 10
-146.2286449990013
 20
-333.2127027547683
 11
-146.2286449991124
 21
-322.2127027547683
  0
LINE
  5
11D
100
AcDbEntity
  8
0
  6
ByLayer
 62
  256
370
   -1
100
AcDbLine
 10
-228.7398222287575
 20
-309.2127027547687
 11
-166.6476793718617
 21
-309.2127027547687
  0
LINE
  5
11E
100
AcDbEntity
  8
0
  6
ByLayer
 62
  256
370
   -1
100
AcDbLine
 10
-120.9999999982816
 20
-322.2127027547683
 11
-120.9999999982857
 21
-282.2139602577093
  0
LINE
  5
11F
100
AcDbEntity
  8
0
  6
ByLayer
 62
  256
370
   -1
100
AcDbLine
 10
-166.6476793718617
 20
-301.2127027547687
 11
-228.7398222160239
 21
-301.2139602577093
  0
LINE
  5
120
100
AcDbEntity
  8
0
  6
ByLayer
 62
  256
370
   -1
100
AcDbLine
 10
-306.8111609101022
 20
8.000000000000519
 11
-253.6583670339281
 21
7.999999999990765
  0
LINE
  5
121
100
AcDbEntity
  8
0
  6
ByLayer
 62
  256
370
   -1
100
AcDbLine
 10
-126.6583670339292
 20
7.999999999967443
 11
-120.9999999982917
 21
8.000000148446709
  0
LINE
  5
122
100
AcDbEntity
  8
0
  6
ByLayer
 62
  256
370
   -1
100
AcDbLine
 10
-228.7398222287628
 20
-263.9080529999934
 11
-166.6476793718622
 21
-263.9080529999936
  0
LINE
  5
123
100
AcDbEntity
  8
0
  6
ByLayer
 62
  256
370
   -1
100
AcDbLine
 10
-370.8328862526786
 20
-263.9080530000089
 11
-355.7398222287628
 21
-263.9080529999931
  0
LINE
  5
124
100
AcDbEntity
  8
0
  6
ByLayer
 62
  256
370
   -1
100
AcDbLine
 10
-257.7401409883852
 20
156.9080525829042
 11
-257.7401409882739
 21
145.9080525829043
  0
LINE
  5
125
100
AcDbEntity
  8
0
  6
ByLayer
 62
  256
370
   -1
100
AcDbLine
 10
-306.8111609101022
 20
135.9080525829042
 11
-253.6583667262701
 21
135.9080525829042
  0
LINE
  5
126
100
AcDbEntity
  8
0
  6
ByLayer
 62
  256
370
   -1
100
AcDbLine
 10
-370.8021663877574
 20
145.9080525829043
 11
-370.8021663877574
 21
108.9086458885482
  0
LINE
  5
127
100
AcDbEntity
  8
0
  6
ByLayer
 62
  256
370
   -1
100
AcDbLine
 10
-312.3975973397931
 20
156.9080525829041
 11
-312.3975973397932
 21
145.9080525829043
  0
LINE
  5
128
100
AcDbEntity
  8
0
  6
ByLayer
 62
  256
370
   -1
100
AcDbLine
 10
-306.8111609101022
 20
135.9080525829042
 11
-306.8111609101019
 21
127.9080525829042
  0
LINE
  5
129
100
AcDbEntity
  8
0
  6
ByLayer
 62
  256
370
   -1
100
AcDbLine
 10
-340.8693877943298
 20
156.908052582904
 11
-340.8693877942185
 21
145.9080525829043
  0
LINE
  5
12A
100
AcDbEntity
  8
0
  6
ByLayer
 62
  256
370
   -1
100
AcDbLine
 10
-285.3527328588528
 20
156.9080525829041
 11
-285.3527328588529
 21
145.9080525829043
  0
LINE
  5
12B
100
AcDbEntity
  8
0
  6
ByLayer
 62
  256
370
   -1
100
AcDbLine
 10
-253.6583667262701
 20
145.9080525829043
 11
-253.6583667262701
 21
135.9080525829042
  0
LINE
  5
12C
100
AcDbEntity
  8
0
  6
ByLayer
 62
  256
370
   -1
100
AcDbLine
 10
-306.8111609101019
 20
127.9080525829042
 11
-120.8021663877574
 21
127.9080525829042
  0
LINE
  5
12D
100
AcDbEntity
  8
0
  6
ByLayer
 62
  256
370
   -1
100
AcDbLine
 10
-370.8328862526782
 20
-290.2139602577093
 11
-370.8328862526782
 21
-301.2139602577093
  0
LINE
  5
12E
100
AcDbEntity
  8
0
  6
ByLayer
 62
  256
370
   -1
100
AcDbLine
 10
-370.8328862526782
 20
-301.2139602577093
 11
-228.7398222160239
 21
-301.2139602577093
  0
LINE
  5
12F
100
AcDbEntity
  8
0
  6
ByLayer
 62
  256
370
   -1
100
AcDbLine
 10
-370.8328862526782
 20
-282.2139602577093
 11
-370.8328862526782
 21
-290.2139602577093
  0
LINE
  5
130
100
AcDbEntity
  8
0
  6
ByLayer
 62
  256
370
   -1
100
AcDbLine
 10
-343.0551084749005
 20
-282.2139602577093
 11
-343.0551084749005
 21
-290.2139602577093
  0
LINE
  5
131
100
AcDbEntity
  8
0
  6
ByLayer
 62
  256
370
   -1
100
AcDbLine
 10
-315.2773306971227
 20
-282.2139602577093
 11
-315.2773306971227
 21
-290.2139602577093
  0
LINE
  5
132
100
AcDbEntity
  8
0
  6
ByLayer
 62
  256
370
   -1
100
AcDbLine
 10
-287.4995529193449
 20
-282.2139602577093
 11
-287.4995529193449
 21
-290.2139602577093
  0
LINE
  5
133
100
AcDbEntity
  8
0
  6
ByLayer
 62
  256
370
   -1
100
AcDbLine
 10
-259.7217751415672
 20
-282.2139602577093
 11
-259.7217751415672
 21
-290.2139602577093
  0
LINE
  5
134
100
AcDbEntity
  8
0
  6
ByLayer
 62
  256
370
   -1
100
AcDbLine
 10
-231.9439973637894
 20
-282.2139602577093
 11
-231.9439973637894
 21
-290.2139602577093
  0
LINE
  5
135
100
AcDbEntity
  8
0
  6
ByLayer
 62
  256
370
   -1
100
AcDbLine
 10
-204.1662195860116
 20
-282.2139602577093
 11
-204.1662195860116
 21
-290.2139602577093
  0
LINE
  5
136
100
AcDbEntity
  8
0
  6
ByLayer
 62
  256
370
   -1
100
AcDbLine
 10
-176.3884418082338
 20
-282.2139602577093
 11
-176.3884418082338
 21
-290.2139602577093
  0
LINE
  5
137
100
AcDbEntity
  8
0
  6
ByLayer
 62
  256
370
   -1
100
AcDbLine
 10
-148.6106640304561
 20
-282.2139602577093
 11
-148.6106640304561
 21
-290.2139602577093
  0
LINE
  5
138
100
AcDbEntity
  8
0
  6
ByLayer
 62
  256
370
   -1
100
AcDbLine
 10
-120.8021663877574
 20
116.9080525829042
 11
-120.8021663877574
 21
100.9086458885482
  0
LINE
  5
139
100
AcDbEntity
  8
0
  6
ByLayer
 62
  256
370
   -1
100
AcDbLine
 10
-370.8021663877574
 20
100.9086458885482
 11
-370.8021663877574
 21
108.9086458885482
  0
LINE
  5
13A
100
AcDbEntity
  8
0
  6
ByLayer
 62
  256
370
   -1
100
AcDbLine
 10
-120.8021663877574
 20
127.9080525829042
 11
-120.8021663877574
 21
116.9080525829042
  0
LINE
  5
13B
100
AcDbEntity
  8
0
  6
ByLayer
 62
  256
370
   -1
100
AcDbLine
 10
-343.0243886099796
 20
100.9086458885482
 11
-343.0243886099796
 21
108.9086458885482
  0
LINE
  5
13C
100
AcDbEntity
  8
0
  6
ByLayer
 62
  256
370
   -1
100
AcDbLine
 10
-315.2466108322018
 20
100.9086458885482
 11
-315.2466108322018
 21
108.9086458885482
  0
LINE
  5
13D
100
AcDbEntity
  8
0
  6
ByLayer
 62
  256
370
   -1
100
AcDbLine
 10
-287.4688330544241
 20
100.9086458885482
 11
-287.4688330544241
 21
108.9086458885482
  0
LINE
  5
13E
100
AcDbEntity
  8
0
  6
ByLayer
 62
  256
370
   -1
100
AcDbLine
 10
-259.6910552766463
 20
100.9086458885482
 11
-259.6910552766463
 21
108.9086458885482
  0
LINE
  5
13F
100
AcDbEntity
  8
0
  6
ByLayer
 62
  256
370
   -1
100
AcDbLine
 10
-231.9132774988685
 20
100.9086458885482
 11
-231.9132774988685
 21
108.9086458885482
  0
LINE
  5
140
100
AcDbEntity
  8
0
  6
ByLayer
 62
  256
370
   -1
100
AcDbLine
 10
-204.1354997210908
 20
100.9086458885482
 11
-204.1354997210908
 21
108.9086458885482
  0
LINE
  5
141
100
AcDbEntity
  8
0
  6
ByLayer
 62
  256
370
   -1
100
AcDbLine
 10
-176.357721943313
 20
100.9086458885482
 11
-176.357721943313
 21
108.9086458885482
  0
LINE
  5
142
100
AcDbEntity
  8
0
  6
ByLayer
 62
  256
370
   -1
100
AcDbLine
 10
-148.5799441655352
 20
100.9086458885482
 11
-148.5799441655352
 21
108.9086458885482
  0
LINE
  5
143
100
AcDbEntity
  8
0
  6
ByLayer
 62
  256
370
   -1
100
AcDbLine
 10
-120.8021663877574
 20
100.9086458885482
 11
-120.8021663877574
 21
108.9086458885482
  0
LINE
  5
144
100
AcDbEntity
  8
0
  6
ByLayer
 62
  256
370
   -1
100
AcDbLine
 10
-343.0243886099796
 20
108.9086458885482
 11
-315.2466108322018
 21
108.9086458885482
  0
LINE
  5
145
100
AcDbEntity
  8
0
  6
ByLayer
 62
  256
370
   -1
100
AcDbLine
 10
-176.357721943313
 20
108.9086458885482
 11
-148.5799441655352
 21
108.9086458885482
  0
LINE
  5
146
100
AcDbEntity
  8
0
  6
ByLayer
 62
  256
370
   -1
100
AcDbLine
 10
-287.4688330544241
 20
108.9086458885482
 11
-259.6910552766463
 21
108.9086458885482
  0
LINE
  5
147
100
AcDbEntity
  8
0
  6
ByLayer
 62
  256
370
   -1
100
AcDbLine
 10
-231.9132774988685
 20
108.9086458885482
 11
-204.1354997210908
 21
108.9086458885482
  0
LINE
  5
148
100
AcDbEntity
  8
0
  6
ByLayer
 62
  256
370
   -1
100
AcDbLine
 10
-343.0243886099796
 20
100.9086458885482
 11
-370.8021663877574
 21
100.9086458885482
  0
LINE
  5
149
100
AcDbEntity
  8
0
  6
ByLayer
 62
  256
370
   -1
100
AcDbLine
 10
-287.4688330544241
 20
100.9086458885482
 11
-315.2466108322018
 21
100.9086458885482
  0
LINE
  5
14A
100
AcDbEntity
  8
0
  6
ByLayer
 62
  256
370
   -1
100
AcDbLine
 10
-231.9132774988685
 20
100.9086458885482
 11
-259.6910552766463
 21
100.9086458885482
  0
LINE
  5
14B
100
AcDbEntity
  8
0
  6
ByLayer
 62
  256
370
   -1
100
AcDbLine
 10
-120.8021663877574
 20
100.9086458885482
 11
-148.5799441655352
 21
100.9086458885482
  0
LINE
  5
14C
100
AcDbEntity
  8
0
  6
ByLayer
 62
  256
370
   -1
100
AcDbLine
 10
-176.357721943313
 20
100.9086458885482
 11
-204.1354997210908
 21
100.9086458885482
  0
LINE
  5
14D
100
AcDbEntity
  8
0
  6
ByLayer
 62
  256
370
   -1
100
AcDbLine
 10
418.967885471622
 20
-222.2222222222203
 11
426.9678854716219
 21
-222.2222222222203
  0
LINE
  5
14E
100
AcDbEntity
  8
0
  6
ByLayer
 62
  256
370
   -1
100
AcDbLine
 10
684.9678854716218
 20
-222.2222222222203
 11
676.9678854716219
 21
-222.2222222222203
  0
LINE
  5
14F
100
AcDbEntity
  8
0
  6
ByLayer
 62
  256
370
   -1
100
AcDbLine
 10
418.967885471622
 20
-194.4444444444425
 11
426.9678854716219
 21
-194.4444444444425
  0
LINE
  5
150
100
AcDbEntity
  8
0
  6
ByLayer
 62
  256
370
   -1
100
AcDbLine
 10
684.9678854716218
 20
-194.4444444444425
 11
676.9678854716219
 21
-194.4444444444425
  0
LINE
  5
151
100
AcDbEntity
  8
0
  6
ByLayer
 62
  256
370
   -1
100
AcDbLine
 10
418.967885471622
 20
-166.6666666666647
 11
426.9678854716219
 21
-166.6666666666647
  0
LINE
  5
152
100
AcDbEntity
  8
0
  6
ByLayer
 62
  256
370
   -1
100
AcDbLine
 10
684.9678854716218
 20
-166.6666666666647
 11
676.9678854716219
 21
-166.6666666666647
  0
LINE
  5
153
100
AcDbEntity
  8
0
  6
ByLayer
 62
  256
370
   -1
100
AcDbLine
 10
418.967885471622
 20
-138.8888888888869
 11
426.9678854716219
 21
-138.8888888888869
  0
LINE
  5
154
100
AcDbEntity
  8
0
  6
ByLayer
 62
  256
370
   -1
100
AcDbLine
 10
684.9678854716218
 20
-138.8888888888869
 11
676.9678854716219
 21
-138.8888888888869
  0
LINE
  5
155
100
AcDbEntity
  8
0
  6
ByLayer
 62
  256
370
   -1
100
AcDbLine
 10
418.967885471622
 20
-111.1111111111092
 11
426.9678854716219
 21
-111.1111111111092
  0
LINE
  5
156
100
AcDbEntity
  8
0
  6
ByLayer
 62
  256
370
   -1
100
AcDbLine
 10
684.9678854716218
 20
-111.1111111111092
 11
676.9678854716219
 21
-111.1111111111092
  0
LINE
  5
157
100
AcDbEntity
  8
0
  6
ByLayer
 62
  256
370
   -1
100
AcDbLine
 10
418.967885471622
 20
-83.33333333333141
 11
426.9678854716219
 21
-83.33333333333141
  0
LINE
  5
158
100
AcDbEntity
  8
0
  6
ByLayer
 62
  256
370
   -1
100
AcDbLine
 10
684.9678854716218
 20
-83.33333333333141
 11
676.9678854716219
 21
-83.33333333333141
  0
LINE
  5
159
100
AcDbEntity
  8
0
  6
ByLayer
 62
  256
370
   -1
100
AcDbLine
 10
418.967885471622
 20
-55.55555555555362
 11
426.9678854716219
 21
-55.55555555555362
  0
LINE
  5
15A
100
AcDbEntity
  8
0
  6
ByLayer
 62
  256
370
   -1
100
AcDbLine
 10
684.9678854716218
 20
-55.55555555555362
 11
676.9678854716219
 21
-55.55555555555362
  0
LINE
  5
15B
100
AcDbEntity
  8
0
  6
ByLayer
 62
  256
370
   -1
100
AcDbLine
 10
418.967885471622
 20
-27.7777777777575
 11
426.967885471622
 21
-27.7777777777575
  0
LINE
  5
15C
100
AcDbEntity
  8
0
  6
ByLayer
 62
  256
370
   -1
100
AcDbLine
 10
684.9678854716218
 20
-27.77777777777583
 11
676.9678854716219
 21
-27.77777777777583
  0
LINE
  5
15D
100
AcDbEntity
  8
0
  6
ByLayer
 62
  256
370
   -1
100
AcDbLine
 10
454.7456632493997
 20
-257.9999999999981
 11
454.7456632493997
 21
-249.999999999998
  0
LINE
  5
15E
100
AcDbEntity
  8
0
  6
ByLayer
 62
  256
370
   -1
100
AcDbLine
 10
454.7456632493997
 20
8.000000000001936
 11
454.7456632493997
 21
1.936228954946273e-012
  0
LINE
  5
15F
100
AcDbEntity
  8
0
  6
ByLayer
 62
  256
370
   -1
100
AcDbLine
 10
482.5234410271775
 20
-257.9999999999981
 11
482.5234410271775
 21
-249.999999999998
  0
LINE
  5
160
100
AcDbEntity
  8
0
  6
ByLayer
 62
  256
370
   -1
100
AcDbLine
 10
482.5234410271775
 20
8.000000000001936
 11
482.5234410271775
 21
1.936228954946273e-012
  0
LINE
  5
161
100
AcDbEntity
  8
0
  6
ByLayer
 62
  256
370
   -1
100
AcDbLine
 10
510.3012188049552
 20
-257.9999999999981
 11
510.3012188049552
 21
-249.999999999998
  0
LINE
  5
162
100
AcDbEntity
  8
0
  6
ByLayer
 62
  256
370
   -1
100
AcDbLine
 10
510.3012188049552
 20
8.000000000001936
 11
510.3012188049552
 21
1.936228954946273e-012
  0
LINE
  5
163
100
AcDbEntity
  8
0
  6
ByLayer
 62
  256
370
   -1
100
AcDbLine
 10
538.078996582733
 20
-257.9999999999981
 11
538.078996582733
 21
-249.999999999998
  0
LINE
  5
164
100
AcDbEntity
  8
0
  6
ByLayer
 62
  256
370
   -1
100
AcDbLine
 10
538.078996582733
 20
8.000000000001936
 11
538.078996582733
 21
1.936228954946273e-012
  0
LINE
  5
165
100
AcDbEntity
  8
0
  6
ByLayer
 62
  256
370
   -1
100
AcDbLine
 10
565.8567743605108
 20
-257.9999999999981
 11
565.8567743605108
 21
-249.999999999998
  0
LINE
  5
166
100
AcDbEntity
  8
0
  6
ByLayer
 62
  256
370
   -1
100
AcDbLine
 10
565.8567743605108
 20
8.000000000001936
 11
565.8567743605108
 21
1.936228954946273e-012
  0
LINE
  5
167
100
AcDbEntity
  8
0
  6
ByLayer
 62
  256
370
   -1
100
AcDbLine
 10
593.6345521382885
 20
-257.9999999999981
 11
593.6345521382885
 21
-249.999999999998
  0
LINE
  5
168
100
AcDbEntity
  8
0
  6
ByLayer
 62
  256
370
   -1
100
AcDbLine
 10
593.6345521382885
 20
8.000000000001936
 11
593.6345521382885
 21
1.936228954946273e-012
  0
LINE
  5
169
100
AcDbEntity
  8
0
  6
ByLayer
 62
  256
370
   -1
100
AcDbLine
 10
621.4123299160663
 20
-257.9999999999981
 11
621.4123299160663
 21
-249.999999999998
  0
LINE
  5
16A
100
AcDbEntity
  8
0
  6
ByLayer
 62
  256
370
   -1
100
AcDbLine
 10
621.4123299160663
 20
8.000000000001936
 11
621.4123299160663
 21
1.936228954946273e-012
  0
LINE
  5
16B
100
AcDbEntity
  8
0
  6
ByLayer
 62
  256
370
   -1
100
AcDbLine
 10
649.1901076938441
 20
-257.9999999999981
 11
649.1901076938441
 21
-249.999999999998
  0
LINE
  5
16C
100
AcDbEntity
  8
0
  6
ByLayer
 62
  256
370
   -1
100
AcDbLine
 10
649.1901076938441
 20
8.000000000001936
 11
649.1901076938441
 21
1.936228954946273e-012
  0
LINE
  5
16D
100
AcDbEntity
  8
0
  6
ByLayer
 62
  256
370
   -1
100
AcDbLine
 10
482.5234410271775
 20
-257.9999999999981
 11
454.7456632493997
 21
-257.9999999999981
  0
LINE
  5
16E
100
AcDbEntity
  8
0
  6
ByLayer
 62
  256
370
   -1
100
AcDbLine
 10
538.078996582733
 20
-257.9999999999981
 11
510.3012188049552
 21
-257.9999999999981
  0
LINE
  5
16F
100
AcDbEntity
  8
0
  6
ByLayer
 62
  256
370
   -1
100
AcDbLine
 10
649.1901076938441
 20
-257.9999999999981
 11
621.4123299160663
 21
-257.9999999999981
  0
LINE
  5
170
100
AcDbEntity
  8
0
  6
ByLayer
 62
  256
370
   -1
100
AcDbLine
 10
593.6345521382885
 20
-257.9999999999981
 11
565.8567743605108
 21
-257.9999999999981
  0
LINE
  5
171
100
AcDbEntity
  8
0
  6
ByLayer
 62
  256
370
   -1
100
AcDbLine
 10
684.9678854716218
 20
-194.4444444444425
 11
684.9678854716218
 21
-222.2222222222203
  0
LINE
  5
172
100
AcDbEntity
  8
0
  6
ByLayer
 62
  256
370
   -1
100
AcDbLine
 10
684.9678854716218
 20
-138.8888888888869
 11
684.9678854716218
 21
-166.6666666666647
  0
LINE
  5
173
100
AcDbEntity
  8
0
  6
ByLayer
 62
  256
370
   -1
100
AcDbLine
 10
684.9678854716218
 20
-27.77777777777583
 11
684.9678854716218
 21
-55.55555555555362
  0
LINE
  5
174
100
AcDbEntity
  8
0
  6
ByLayer
 62
  256
370
   -1
100
AcDbLine
 10
684.9678854716218
 20
-83.33333333333141
 11
684.9678854716218
 21
-111.1111111111092
  0
LINE
  5
175
100
AcDbEntity
  8
0
  6
ByLayer
 62
  256
370
   -1
100
AcDbLine
 10
649.1901076938441
 20
8.000000000001936
 11
621.4123299160663
 21
8.000000000001936
  0
LINE
  5
176
100
AcDbEntity
  8
0
  6
ByLayer
 62
  256
370
   -1
100
AcDbLine
 10
593.6345521382885
 20
8.000000000001936
 11
565.8567743605108
 21
8.000000000001936
  0
LINE
  5
177
100
AcDbEntity
  8
0
  6
ByLayer
 62
  256
370
   -1
100
AcDbLine
 10
538.078996582733
 20
8.000000000001936
 11
510.3012188049552
 21
8.000000000001936
  0
LINE
  5
178
100
AcDbEntity
  8
0
  6
ByLayer
 62
  256
370
   -1
100
AcDbLine
 10
482.5234410271775
 20
8.000000000001936
 11
454.7456632493997
 21
8.000000000001936
  0
LINE
  5
179
100
AcDbEntity
  8
0
  6
ByLayer
 62
  256
370
   -1
100
AcDbLine
 10
418.967885471622
 20
-27.7777777777575
 11
418.967885471622
 21
-55.55555555555362
  0
LINE
  5
17A
100
AcDbEntity
  8
0
  6
ByLayer
 62
  256
370
   -1
100
AcDbLine
 10
418.967885471622
 20
-83.33333333333141
 11
418.967885471622
 21
-111.1111111111092
  0
LINE
  5
17B
100
AcDbEntity
  8
0
  6
ByLayer
 62
  256
370
   -1
100
AcDbLine
 10
418.967885471622
 20
-138.8888888888869
 11
418.967885471622
 21
-166.6666666666647
  0
LINE
  5
17C
100
AcDbEntity
  8
0
  6
ByLayer
 62
  256
370
   -1
100
AcDbLine
 10
418.967885471622
 20
-194.4444444444425
 11
418.967885471622
 21
-222.2222222222203
  0
LINE
  5
17D
100
AcDbEntity
  8
0
  6
ByLayer
 62
  256
370
   -1
100
AcDbLine
 10
426.9678854716219
 20
-83.33333333333141
 11
426.9678854716219
 21
-55.55555555555362
  0
LINE
  5
17E
100
AcDbEntity
  8
0
  6
ByLayer
 62
  256
370
   -1
100
AcDbLine
 10
426.967885471622
 20
-27.7777777777575
 11
426.9678854716219
 21
1.936228954946273e-012
  0
LINE
  5
17F
100
AcDbEntity
  8
0
  6
ByLayer
 62
  256
370
   -1
100
AcDbLine
 10
426.9678854716219
 20
-83.33333333333141
 11
426.9678854716219
 21
-55.55555555555362
  0
LINE
  5
180
100
AcDbEntity
  8
0
  6
ByLayer
 62
  256
370
   -1
100
AcDbLine
 10
426.967885471622
 20
-27.7777777777575
 11
426.9678854716219
 21
1.936228954946273e-012
  0
LINE
  5
181
100
AcDbEntity
  8
0
  6
ByLayer
 62
  256
370
   -1
100
AcDbLine
 10
426.9678854716219
 20
-138.8888888888869
 11
426.9678854716219
 21
-111.1111111111092
  0
LINE
  5
182
100
AcDbEntity
  8
0
  6
ByLayer
 62
  256
370
   -1
100
AcDbLine
 10
426.9678854716219
 20
-138.8888888888869
 11
426.9678854716219
 21
-111.1111111111092
  0
LINE
  5
183
100
AcDbEntity
  8
0
  6
ByLayer
 62
  256
370
   -1
100
AcDbLine
 10
426.9678854716219
 20
-249.999999999998
 11
426.9678854716219
 21
-222.2222222222203
  0
LINE
  5
184
100
AcDbEntity
  8
0
  6
ByLayer
 62
  256
370
   -1
100
AcDbLine
 10
426.9678854716219
 20
-194.4444444444425
 11
426.9678854716219
 21
-166.6666666666647
  0
LINE
  5
185
100
AcDbEntity
  8
0
  6
ByLayer
 62
  256
370
   -1
100
AcDbLine
 10
426.9678854716219
 20
-249.999999999998
 11
426.9678854716219
 21
-222.2222222222203
  0
LINE
  5
186
100
AcDbEntity
  8
0
  6
ByLayer
 62
  256
370
   -1
100
AcDbLine
 10
426.9678854716219
 20
-194.4444444444425
 11
426.9678854716219
 21
-166.6666666666647
  0
LINE
  5
187
100
AcDbEntity
  8
0
  6
ByLayer
 62
  256
370
   -1
100
AcDbLine
 10
454.7456632493997
 20
-249.999999999998
 11
426.9678854716219
 21
-249.999999999998
  0
LINE
  5
188
100
AcDbEntity
  8
0
  6
ByLayer
 62
  256
370
   -1
100
AcDbLine
 10
426.9678854716219
 20
-249.999999999998
 11
454.7456632493997
 21
-249.999999999998
  0
LINE
  5
189
100
AcDbEntity
  8
0
  6
ByLayer
 62
  256
370
   -1
100
AcDbLine
 10
482.5234410271775
 20
-249.999999999998
 11
510.3012188049552
 21
-249.999999999998
  0
LINE
  5
18A
100
AcDbEntity
  8
0
  6
ByLayer
 62
  256
370
   -1
100
AcDbLine
 10
510.3012188049552
 20
-249.999999999998
 11
482.5234410271775
 21
-249.999999999998
  0
LINE
  5
18B
100
AcDbEntity
  8
0
  6
ByLayer
 62
  256
370
   -1
100
AcDbLine
 10
565.8567743605108
 20
-249.999999999998
 11
538.078996582733
 21
-249.999999999998
  0
LINE
  5
18C
100
AcDbEntity
  8
0
  6
ByLayer
 62
  256
370
   -1
100
AcDbLine
 10
538.078996582733
 20
-249.999999999998
 11
565.8567743605108
 21
-249.999999999998
  0
LINE
  5
18D
100
AcDbEntity
  8
0
  6
ByLayer
 62
  256
370
   -1
100
AcDbLine
 10
676.9678854716219
 20
-249.999999999998
 11
649.1901076938441
 21
-249.999999999998
  0
LINE
  5
18E
100
AcDbEntity
  8
0
  6
ByLayer
 62
  256
370
   -1
100
AcDbLine
 10
621.4123299160663
 20
-249.999999999998
 11
593.6345521382885
 21
-249.999999999998
  0
LINE
  5
18F
100
AcDbEntity
  8
0
  6
ByLayer
 62
  256
370
   -1
100
AcDbLine
 10
593.6345521382885
 20
-249.999999999998
 11
621.4123299160663
 21
-249.999999999998
  0
LINE
  5
190
100
AcDbEntity
  8
0
  6
ByLayer
 62
  256
370
   -1
100
AcDbLine
 10
649.1901076938441
 20
-249.999999999998
 11
676.9678854716219
 21
-249.999999999998
  0
LINE
  5
191
100
AcDbEntity
  8
0
  6
ByLayer
 62
  256
370
   -1
100
AcDbLine
 10
676.9678854716219
 20
-249.999999999998
 11
676.9678854716219
 21
-222.2222222222203
  0
LINE
  5
192
100
AcDbEntity
  8
0
  6
ByLayer
 62
  256
370
   -1
100
AcDbLine
 10
676.9678854716219
 20
-222.2222222222203
 11
676.9678854716219
 21
-249.999999999998
  0
LINE
  5
193
100
AcDbEntity
  8
0
  6
ByLayer
 62
  256
370
   -1
100
AcDbLine
 10
676.9678854716219
 20
-27.77777777777583
 11
676.9678854716219
 21
1.936228954946273e-012
  0
LINE
  5
194
100
AcDbEntity
  8
0
  6
ByLayer
 62
  256
370
   -1
100
AcDbLine
 10
676.9678854716219
 20
1.936228954946273e-012
 11
676.9678854716219
 21
-27.77777777777583
  0
LINE
  5
195
100
AcDbEntity
  8
0
  6
ByLayer
 62
  256
370
   -1
100
AcDbLine
 10
676.9678854716219
 20
-55.55555555555362
 11
676.9678854716219
 21
-83.33333333333141
  0
LINE
  5
196
100
AcDbEntity
  8
0
  6
ByLayer
 62
  256
370
   -1
100
AcDbLine
 10
676.9678854716219
 20
-83.33333333333141
 11
676.9678854716219
 21
-55.55555555555362
  0
LINE
  5
197
100
AcDbEntity
  8
0
  6
ByLayer
 62
  256
370
   -1
100
AcDbLine
 10
676.9678854716219
 20
-194.4444444444425
 11
676.9678854716219
 21
-166.6666666666647
  0
LINE
  5
198
100
AcDbEntity
  8
0
  6
ByLayer
 62
  256
370
   -1
100
AcDbLine
 10
676.9678854716219
 20
-138.8888888888869
 11
676.9678854716219
 21
-111.1111111111092
  0
LINE
  5
199
100
AcDbEntity
  8
0
  6
ByLayer
 62
  256
370
   -1
100
AcDbLine
 10
676.9678854716219
 20
-111.1111111111092
 11
676.9678854716219
 21
-138.8888888888869
  0
LINE
  5
19A
100
AcDbEntity
  8
0
  6
ByLayer
 62
  256
370
   -1
100
AcDbLine
 10
676.9678854716219
 20
-166.6666666666647
 11
676.9678854716219
 21
-194.4444444444425
  0
LINE
  5
19B
100
AcDbEntity
  8
0
  6
ByLayer
 62
  256
370
   -1
100
AcDbLine
 10
649.1901076938441
 20
1.936228954946273e-012
 11
676.9678854716219
 21
1.936228954946273e-012
  0
LINE
  5
19C
100
AcDbEntity
  8
0
  6
ByLayer
 62
  256
370
   -1
100
AcDbLine
 10
593.6345521382885
 20
1.936228954946273e-012
 11
621.4123299160663
 21
1.936228954946273e-012
  0
LINE
  5
19D
100
AcDbEntity
  8
0
  6
ByLayer
 62
  256
370
   -1
100
AcDbLine
 10
482.5234410271775
 20
1.936228954946273e-012
 11
510.3012188049552
 21
1.936228954946273e-012
  0
LINE
  5
19E
100
AcDbEntity
  8
0
  6
ByLayer
 62
  256
370
   -1
100
AcDbLine
 10
538.078996582733
 20
1.936228954946273e-012
 11
565.8567743605108
 21
1.936228954946273e-012
  0
LINE
  5
19F
100
AcDbEntity
  8
0
  6
ByLayer
 62
  256
370
   -1
100
AcDbLine
 10
426.9678854716219
 20
1.936228954946273e-012
 11
454.7456632493997
 21
1.936228954946273e-012
  0
LINE
  5
1A0
100
AcDbEntity
  8
0
  6
ByLayer
 62
  256
370
   -1
100
AcDbLine
 10
-343.0551084749005
 20
-290.2139602577093
 11
-315.2773306971227
 21
-290.2139602577093
  0
LINE
  5
1A1
100
AcDbEntity
  8
0
  6
ByLayer
 62
  256
370
   -1
100
AcDbLine
 10
-315.2773306971227
 20
-290.2139602577093
 11
-343.0551084749005
 21
-290.2139602577093
  0
LINE
  5
1A2
100
AcDbEntity
  8
0
  6
ByLayer
 62
  256
370
   -1
100
AcDbLine
 10
-148.6106640304561
 20
-290.2139602577093
 11
-176.3884418082338
 21
-290.2139602577093
  0
LINE
  5
1A3
100
AcDbEntity
  8
0
  6
ByLayer
 62
  256
370
   -1
100
AcDbLine
 10
-287.4995529193449
 20
-290.2139602577093
 11
-259.7217751415672
 21
-290.2139602577093
  0
LINE
  5
1A4
100
AcDbEntity
  8
0
  6
ByLayer
 62
  256
370
   -1
100
AcDbLine
 10
-204.1662195860116
 20
-290.2139602577093
 11
-231.9439973637894
 21
-290.2139602577093
  0
LINE
  5
1A5
100
AcDbEntity
  8
0
  6
ByLayer
 62
  256
370
   -1
100
AcDbLine
 10
-259.7217751415672
 20
-290.2139602577093
 11
-287.4995529193449
 21
-290.2139602577093
  0
LINE
  5
1A6
100
AcDbEntity
  8
0
  6
ByLayer
 62
  256
370
   -1
100
AcDbLine
 10
-231.9439973637894
 20
-290.2139602577093
 11
-204.1662195860116
 21
-290.2139602577093
  0
LINE
  5
1A7
100
AcDbEntity
  8
0
  6
ByLayer
 62
  256
370
   -1
100
AcDbLine
 10
-176.3884418082338
 20
-290.2139602577093
 11
-148.6106640304561
 21
-290.2139602577093
  0
LINE
  5
1A8
100
AcDbEntity
  8
0
  6
ByLayer
 62
  256
370
   -1
100
AcDbLine
 10
-343.0551084749005
 20
-282.2139602577093
 11
-370.8328862526782
 21
-282.2139602577093
  0
LINE
  5
1A9
100
AcDbEntity
  8
0
  6
ByLayer
 62
  256
370
   -1
100
AcDbLine
 10
-120.9999999982857
 20
-282.2139602577093
 11
-148.6106640304561
 21
-282.2139602577093
  0
LINE
  5
1AA
100
AcDbEntity
  8
0
  6
ByLayer
 62
  256
370
   -1
100
AcDbLine
 10
-176.3884418082338
 20
-282.2139602577093
 11
-204.1662195860116
 21
-282.2139602577093
  0
LINE
  5
1AB
100
AcDbEntity
  8
0
  6
ByLayer
 62
  256
370
   -1
100
AcDbLine
 10
-231.9439973637894
 20
-282.2139602577093
 11
-259.7217751415672
 21
-282.2139602577093
  0
LINE
  5
1AC
100
AcDbEntity
  8
0
  6
ByLayer
 62
  256
370
   -1
100
AcDbLine
 10
-287.4995529193449
 20
-282.2139602577093
 11
-315.2773306971227
 21
-282.2139602577093
  0
LINE
  5
1AD
100
AcDbEntity
  8
0
  6
ByLayer
 62
  256
370
   -1
100
AcDbLine
 10
328.0000000000175
 20
-55.55555555555361
 11
328.0000000000175
 21
-27.7777777777575
  0
LINE
  5
1AE
100
AcDbEntity
  8
0
  6
ByLayer
 62
  256
370
   -1
100
AcDbLine
 10
328.0000000000175
 20
-27.7777777777575
 11
328.0000000000175
 21
-55.55555555555361
  0
LINE
  5
1AF
100
AcDbEntity
  8
0
  6
ByLayer
 62
  256
370
   -1
100
AcDbLine
 10
328.0000000000175
 20
-83.33333333333138
 11
328.0000000000175
 21
-111.1111111111092
  0
LINE
  5
1B0
100
AcDbEntity
  8
0
  6
ByLayer
 62
  256
370
   -1
100
AcDbLine
 10
328.0000000000175
 20
-111.1111111111092
 11
328.0000000000175
 21
-83.33333333333138
  0
LINE
  5
1B1
100
AcDbEntity
  8
0
  6
ByLayer
 62
  256
370
   -1
100
AcDbLine
 10
328.0000000000175
 20
-166.6666666666647
 11
328.0000000000176
 21
-138.888888888887
  0
LINE
  5
1B2
100
AcDbEntity
  8
0
  6
ByLayer
 62
  256
370
   -1
100
AcDbLine
 10
328.0000000000176
 20
-138.888888888887
 11
328.0000000000175
 21
-166.6666666666647
  0
LINE
  5
1B3
100
AcDbEntity
  8
0
  6
ByLayer
 62
  256
370
   -1
100
AcDbLine
 10
328.0000000000175
 20
-194.4444444444425
 11
328.0000000000175
 21
-222.2222222222203
  0
LINE
  5
1B4
100
AcDbEntity
  8
0
  6
ByLayer
 62
  256
370
   -1
100
AcDbLine
 10
328.0000000000175
 20
-250.0403262559289
 11
328.0000000000222
 21
-249.9999999992934
  0
LINE
  5
1B5
100
AcDbEntity
  8
0
  6
ByLayer
 62
  256
370
   -1
100
AcDbLine
 10
328.0000000000175
 20
-222.2222222222203
 11
328.0000000000175
 21
-194.4444444444425
  0
LINE
  5
1B6
100
AcDbEntity
  8
0
  6
ByLayer
 62
  256
370
   -1
100
AcDbLine
 10
336.0000000000017
 20
-222.2222222222203
 11
336.0000000000017
 21
-250.0403262559289
  0
LINE
  5
1B7
100
AcDbEntity
  8
0
  6
ByLayer
 62
  256
370
   -1
100
AcDbLine
 10
336.0000000000017
 20
-250.0403262559289
 11
336.0000000000017
 21
-222.2222222222203
  0
LINE
  5
1B8
100
AcDbEntity
  8
0
  6
ByLayer
 62
  256
370
   -1
100
AcDbLine
 10
336.0000000000017
 20
-194.4444444444425
 11
336.0000000000017
 21
-166.6666666666647
  0
LINE
  5
1B9
100
AcDbEntity
  8
0
  6
ByLayer
 62
  256
370
   -1
100
AcDbLine
 10
336.0000000000017
 20
-166.6666666666647
 11
336.0000000000017
 21
-194.4444444444425
  0
LINE
  5
1BA
100
AcDbEntity
  8
0
  6
ByLayer
 62
  256
370
   -1
100
AcDbLine
 10
336.0000000000017
 20
-111.1111111111092
 11
336.0000000000017
 21
-138.888888888887
  0
LINE
  5
1BB
100
AcDbEntity
  8
0
  6
ByLayer
 62
  256
370
   -1
100
AcDbLine
 10
336.0000000000017
 20
1.943098027131937e-012
 11
336.0000000000017
 21
-27.7777777777575
  0
LINE
  5
1BC
100
AcDbEntity
  8
0
  6
ByLayer
 62
  256
370
   -1
100
AcDbLine
 10
336.0000000000017
 20
-55.55555555555361
 11
336.0000000000017
 21
-83.33333333333138
  0
LINE
  5
1BD
100
AcDbEntity
  8
0
  6
ByLayer
 62
  256
370
   -1
100
AcDbLine
 10
336.0000000000017
 20
-83.33333333333138
 11
336.0000000000017
 21
-55.55555555555361
  0
LINE
  5
1BE
100
AcDbEntity
  8
0
  6
ByLayer
 62
  256
370
   -1
100
AcDbLine
 10
336.0000000000017
 20
-27.7777777777575
 11
336.0000000000017
 21
1.943098027131937e-012
  0
LWPOLYLINE
  5
1BF
100
AcDbEntity
  8
0
  6
ByLayer
 62
  256
370
   -1
100
AcDbPolyline
 90
    4
 70
    1
 43
0
 10
-455.779755886397
 20
-194.4444444444446
 10
-455.7797558863973
 20
-222.2222222222223
 10
-447.7797558863954
 20
-222.2222222222223
 10
-447.7797558863954
 20
-194.4444444444446
  0
LINE
  5
1C0
100
AcDbEntity
  8
0
  6
ByLayer
 62
  256
370
   -1
100
AcDbLine
 10
-468.7797558863952
 20
-194.4444444444445
 11
-479.7797558863953
 21
-194.4444444444447
  0
LWPOLYLINE
  5
1C1
100
AcDbEntity
  8
0
  6
ByLayer
 62
  256
370
   -1
100
AcDbPolyline
 90
    4
 70
    1
 43
0
 10
-455.7797558863953
 20
-27.77777777777736
 10
-447.7797558863954
 20
-27.77777777777736
 10
-447.7797558863954
 20
-55.55555555555568
 10
-455.7797558863956
 20
-55.5555555555557
  0
LINE
  5
1C2
100
AcDbEntity
  8
0
  6
ByLayer
 62
  256
370
   -1
100
AcDbLine
 10
-468.7797558863953
 20
-27.77777777777791
 11
-479.7797558863953
 21
-27.7777777777782
  0
LINE
  5
1C3
100
AcDbEntity
  8
0
  6
ByLayer
 62
  256
370
   -1
100
AcDbLine
 10
-468.7797558863953
 20
-55.55555555555557
 11
-479.7797558863953
 21
-55.55555555555575
  0
LWPOLYLINE
  5
1C4
100
AcDbEntity
  8
0
  6
ByLayer
 62
  256
370
   -1
100
AcDbPolyline
 90
    4
 70
    1
 43
0
 10
-455.7797558863958
 20
-83.33333333333344
 10
-447.7797558863954
 20
-83.33333333333344
 10
-447.7797558863954
 20
-111.1111121268058
 10
-455.7797558863962
 20
-111.1111111111112
  0
LINE
  5
1C5
100
AcDbEntity
  8
0
  6
ByLayer
 62
  256
370
   -1
100
AcDbLine
 10
-468.7797558863953
 20
-83.33333333333346
 11
-479.7797558863953
 21
-83.33333333333363
  0
LINE
  5
1C6
100
AcDbEntity
  8
0
  6
ByLayer
 62
  256
370
   -1
100
AcDbLine
 10
-468.7797558863955
 20
-1.332267629550188e-013
 11
-436.3952562561823
 21
-1.332267629550188e-013
  0
LWPOLYLINE
  5
1C7
100
AcDbEntity
  8
0
  6
ByLayer
 62
  256
370
   -1
100
AcDbPolyline
 90
    4
 70
    1
 43
0
 10
-455.7797558863964
 20
-138.888888888889
 10
-455.7797558863967
 20
-166.6666666666668
 10
-447.7797558863954
 20
-166.6666666666668
 10
-447.7797558863954
 20
-138.888888888889
  0
LINE
  5
1C8
100
AcDbEntity
  8
0
  6
ByLayer
 62
  256
370
   -1
100
AcDbLine
 10
-468.7797558863953
 20
-138.8888888888891
 11
-479.7797558863953
 21
-138.8888888888893
  0
LINE
  5
1C9
100
AcDbEntity
  8
0
  6
ByLayer
 62
  256
370
   -1
100
AcDbLine
 10
-468.7797558863953
 20
-111.1111094606076
 11
-479.7797558863953
 21
-111.1111080640276
  0
LINE
  5
1CA
100
AcDbEntity
  8
0
  6
ByLayer
 62
  256
370
   -1
100
AcDbLine
 10
-468.7797558863953
 20
-166.6666666666668
 11
-479.7797558863953
 21
-166.6666666666667
  0
LINE
  5
1CB
100
AcDbEntity
  8
0
  6
ByLayer
 62
  256
370
   -1
100
AcDbLine
 10
-468.7797558863954
 20
-222.2222222222223
 11
-479.7797558863953
 21
-222.2222222222223
  0
LINE
  5
1CC
100
AcDbEntity
  8
0
  6
ByLayer
 62
  256
370
   -1
100
AcDbLine
 10
-436.3952562561823
 20
-1.332267629550188e-013
 11
-468.7797558863955
 21
-1.332267629550188e-013
  0
LINE
  5
1CD
100
AcDbEntity
  8
0
  6
ByLayer
 62
  256
370
   -1
100
AcDbLine
 10
-436.3952562561823
 20
-1.332267629550188e-013
 11
-428.3952562561824
 21
-1.076916333886402e-013
  0
LINE
  5
1CE
100
AcDbEntity
  8
0
  6
ByLayer
 62
  256
370
   -1
100
AcDbLine
 10
-436.3952562561823
 20
-27.77777777777791
 11
-428.3952562561824
 21
-27.77777777777789
  0
LINE
  5
1CF
100
AcDbEntity
  8
0
  6
ByLayer
 62
  256
370
   -1
100
AcDbLine
 10
-436.3952562561823
 20
-55.55555555555568
 11
-428.3952562561824
 21
-55.55555555555566
  0
LINE
  5
1D0
100
AcDbEntity
  8
0
  6
ByLayer
 62
  256
370
   -1
100
AcDbLine
 10
-436.3952562561823
 20
-83.33333333333344
 11
-428.3952562561824
 21
-83.33333333333343
  0
LINE
  5
1D1
100
AcDbEntity
  8
0
  6
ByLayer
 62
  256
370
   -1
100
AcDbLine
 10
-436.3952562561823
 20
-111.1111111111112
 11
-428.3952562561824
 21
-111.1111111111112
  0
LINE
  5
1D2
100
AcDbEntity
  8
0
  6
ByLayer
 62
  256
370
   -1
100
AcDbLine
 10
-436.3952562561823
 20
-138.888888888889
 11
-428.3952562561824
 21
-138.888888888889
  0
LINE
  5
1D3
100
AcDbEntity
  8
0
  6
ByLayer
 62
  256
370
   -1
100
AcDbLine
 10
-436.3952562561823
 20
-166.6666666666668
 11
-428.3952562561824
 21
-166.6666666666667
  0
LINE
  5
1D4
100
AcDbEntity
  8
0
  6
ByLayer
 62
  256
370
   -1
100
AcDbLine
 10
-436.3952562561823
 20
-194.4444444444446
 11
-428.3952562561824
 21
-194.4444444444445
  0
LINE
  5
1D5
100
AcDbEntity
  8
0
  6
ByLayer
 62
  256
370
   -1
100
AcDbLine
 10
-436.3952562561823
 20
-222.2222222222223
 11
-428.3952562561824
 21
-222.2222222222223
  0
LINE
  5
1D6
100
AcDbEntity
  8
0
  6
ByLayer
 62
  256
370
   -1
100
AcDbLine
 10
-436.3952562561823
 20
-55.55555555555568
 11
-436.3952562561823
 21
-27.77777777777791
  0
LINE
  5
1D7
100
AcDbEntity
  8
0
  6
ByLayer
 62
  256
370
   -1
100
AcDbLine
 10
-436.3952562561823
 20
-55.55555555555568
 11
-436.3952562561823
 21
-27.77777777777791
  0
LINE
  5
1D8
100
AcDbEntity
  8
0
  6
ByLayer
 62
  256
370
   -1
100
AcDbLine
 10
-436.3952562561823
 20
-111.1111111111112
 11
-436.3952562561823
 21
-83.33333333333344
  0
LINE
  5
1D9
100
AcDbEntity
  8
0
  6
ByLayer
 62
  256
370
   -1
100
AcDbLine
 10
-436.3952562561823
 20
-111.1111111111112
 11
-436.3952562561823
 21
-83.33333333333344
  0
LINE
  5
1DA
100
AcDbEntity
  8
0
  6
ByLayer
 62
  256
370
   -1
100
AcDbLine
 10
-436.3952562561823
 20
-166.6666666666668
 11
-436.3952562561823
 21
-138.888888888889
  0
LINE
  5
1DB
100
AcDbEntity
  8
0
  6
ByLayer
 62
  256
370
   -1
100
AcDbLine
 10
-436.3952562561823
 20
-166.6666666666668
 11
-436.3952562561823
 21
-138.888888888889
  0
LINE
  5
1DC
100
AcDbEntity
  8
0
  6
ByLayer
 62
  256
370
   -1
100
AcDbLine
 10
-428.3952562561824
 20
-1.076916333886402e-013
 11
-428.3952562561824
 21
-27.77777777777789
  0
LINE
  5
1DD
100
AcDbEntity
  8
0
  6
ByLayer
 62
  256
370
   -1
100
AcDbLine
 10
-428.3952562561824
 20
-55.55555555555566
 11
-428.3952562561824
 21
-83.33333333333343
  0
LINE
  5
1DE
100
AcDbEntity
  8
0
  6
ByLayer
 62
  256
370
   -1
100
AcDbLine
 10
-428.3952562561824
 20
-111.1111111111112
 11
-428.3952562561824
 21
-138.888888888889
  0
LINE
  5
1DF
100
AcDbEntity
  8
0
  6
ByLayer
 62
  256
370
   -1
100
AcDbLine
 10
-428.3952562561824
 20
-166.6666666666667
 11
-428.3952562561824
 21
-194.4444444444445
  0
LINE
  5
1E0
100
AcDbEntity
  8
0
  6
ByLayer
 62
  256
370
   -1
100
AcDbLine
 10
-428.3952562561824
 20
-222.2222222222223
 11
-428.3952562561823
 21
-249.9999999924196
  0
LINE
  5
1E1
100
AcDbEntity
  8
0
  6
ByLayer
 62
  256
370
   -1
100
AcDbLine
 10
-436.3952562561823
 20
-222.2222222222223
 11
-436.3952562561823
 21
-194.4444444444446
  0
LINE
  5
1E2
100
AcDbEntity
  8
0
  6
ByLayer
 62
  256
370
   -1
100
AcDbLine
 10
-436.3952562561823
 20
-222.2222222222223
 11
-436.3952562561823
 21
-194.4444444444446
  0
LINE
  5
1E3
100
AcDbEntity
  8
0
  6
ByLayer
 62
  256
370
   -1
100
AcDbLine
 10
-378.9301801567115
 20
-111.1111203113488
 11
-370.8328862526782
 21
-111.1111216077367
  0
LINE
  5
1E4
100
AcDbEntity
  8
0
  6
ByLayer
 62
  256
370
   -1
100
AcDbLine
 10
482.5234410271775
 20
1.936228954946273e-012
 11
510.3012188049552
 21
1.936228954946273e-012
  0
LINE
  5
1E5
100
AcDbEntity
  8
0
  6
ByLayer
 62
  256
370
   -1
100
AcDbLine
 10
538.078996582733
 20
1.936228954946273e-012
 11
565.8567743605108
 21
1.936228954946273e-012
  0
LINE
  5
1E6
100
AcDbEntity
  8
0
  6
ByLayer
 62
  256
370
   -1
100
AcDbLine
 10
593.6345521382885
 20
1.936228954946273e-012
 11
621.4123299160663
 21
1.936228954946273e-012
  0
LINE
  5
1E7
100
AcDbEntity
  8
0
  6
ByLayer
 62
  256
370
   -1
100
AcDbLine
 10
649.1901076938441
 20
1.936228954946273e-012
 11
676.9678854716219
 21
1.936228954946273e-012
  0
LINE
  5
1E8
100
AcDbEntity
  8
0
  6
ByLayer
 62
  256
370
   -1
100
AcDbLine
 10
-428.3952562561823
 20
-249.9999999924196
 11
-468.7797558863955
 21
-249.9999999924196
  0
LINE
  5
1E9
100
AcDbEntity
  8
0
  6
ByLayer
 62
  256
370
   -1
100
AcDbLine
 10
320.2221944904368
 20
2.500000000001181
 11
320.2221944904367
 21
5.500000000001723
  0
LWPOLYLINE
  5
1EA
100
AcDbEntity
  8
0
  6
ByLayer
 62
  256
370
   -1
100
AcDbPolyline
 90
    4
 70
    1
 43
0
 10
312.4444167126589
 20
5.500000000001517
 10
312.4444167126589
 20
2.500000000001043
 10
304.6666389348812
 20
2.500000000000904
 10
304.6666389348811
 20
5.500000000001312
  0
LWPOLYLINE
  5
1EB
100
AcDbEntity
  8
0
  6
ByLayer
 62
  256
370
   -1
100
AcDbPolyline
 90
    4
 70
    1
 43
0
 10
296.8888611571033
 20
5.500000000001105
 10
296.8888611571034
 20
2.500000000000766
 10
289.1110833793256
 20
2.500000000000628
 10
289.1110833793255
 20
5.5000000000009
  0
LWPOLYLINE
  5
1EC
100
AcDbEntity
  8
0
  6
ByLayer
 62
  256
370
   -1
100
AcDbPolyline
 90
    4
 70
    1
 43
0
 10
273.55552782377
 20
5.500000000000488
 10
273.5555278237701
 20
2.500000000000352
 10
281.3333056015478
 20
2.50000000000049
 10
281.3333056015477
 20
5.500000000000693
  0
LINE
  5
1ED
100
AcDbEntity
  8
0
  6
ByLayer
 62
  256
370
   -1
100
AcDbLine
 10
265.7777500459923
 20
2.500000000000214
 11
265.7777500459922
 21
5.500000000000282
  0
LINE
  5
1EE
100
AcDbEntity
  8
0
  6
ByLayer
 62
  256
370
   -1
100
AcDbLine
 10
265.7777500459922
 20
5.500000000000282
 11
257.9999722682144
 21
5.500000000000076
  0
LINE
  5
1EF
100
AcDbEntity
  8
0
  6
ByLayer
 62
  256
370
   -1
100
AcDbLine
 10
257.9999722682145
 20
2.500000000000075
 11
265.7777500459923
 21
2.500000000000214
  0
LINE
  5
1F0
100
AcDbEntity
  8
0
  6
ByLayer
 62
  256
370
   -1
100
AcDbLine
 10
328.0000000000017
 20
5.500000000001929
 11
320.2221944904367
 21
5.500000000001723
  0
LINE
  5
1F1
100
AcDbEntity
  8
0
  6
ByLayer
 62
  256
370
   -1
100
AcDbLine
 10
320.2221944904368
 20
2.500000000001181
 11
328.0000000000017
 21
2.500000000001319
  0
LINE
  5
1F2
100
AcDbEntity
  8
0
  6
ByLayer
 62
  256
370
   -1
100
AcDbLine
 10
250
 20
0
 11
257.9999722682145
 21
1.985911435298249e-013
  0
LINE
  5
1F3
100
AcDbEntity
  8
0
  6
ByLayer
 62
  256
370
   -1
100
AcDbLine
 10
328.0000000000018
 20
1.943098027131937e-012
 11
328.0000000000017
 21
2.500000000001319
  0
LINE
  5
1F4
100
AcDbEntity
  8
0
  6
ByLayer
 62
  256
370
   -1
100
AcDbLine
 10
328.0000000000017
 20
5.500000000001929
 11
328.0000000000016
 21
8.000000000001929
  0
LINE
  5
1F5
100
AcDbEntity
  8
0
  6
ByLayer
 62
  256
370
   -1
100
AcDbLine
 10
257.9999722682145
 20
-0.05326664900589503
 11
257.9999722682145
 21
2.500000000000075
  0
LINE
  5
1F6
100
AcDbEntity
  8
0
  6
ByLayer
 62
  256
370
   -1
100
AcDbLine
 10
257.9999722682144
 20
5.500000000000076
 11
257.9999722682144
 21
8.000000000000199
  0
LINE
  5
1F7
100
AcDbEntity
  8
0
  6
ByLayer
 62
  256
370
   -1
100
AcDbLine
 10
327.9999722682146
 20
-0.05326664900589503
 11
327.9999722682145
 21
2.500000000001319
  0
LINE
  5
1F8
100
AcDbEntity
  8
0
  6
ByLayer
 62
  256
370
   -1
100
AcDbLine
 10
327.9999722682144
 20
5.500000000001929
 11
327.9999722682143
 21
8.000000000000199
  0
LINE
  5
1F9
100
AcDbEntity
  8
0
  6
ByLayer
 62
  256
370
   -1
100
AcDbLine
 10
267.9999735386191
 20
-250.0000001088986
 11
267.9999735386193
 21
-258.0000001095738
  0
LINE
  5
1FA
100
AcDbEntity
  8
0
  6
ByLayer
 62
  256
370
   -1
100
AcDbLine
 10
267.9999735386193
 20
-258.0000001095738
 11
257.9999735386193
 21
-258.0000001095738
  0
LINE
  5
1FB
100
AcDbEntity
  8
0
  6
ByLayer
 62
  256
370
   -1
100
AcDbLine
 10
257.9999735386193
 20
-258.0000001095738
 11
257.9999735386191
 21
-250.000000109574
  0
LINE
  5
1FC
100
AcDbEntity
  8
0
  6
ByLayer
 62
  256
370
   -1
100
AcDbLine
 10
318.0000000000222
 20
-249.9999999993053
 11
318.000000000022
 21
-257.9999999992935
  0
LINE
  5
1FD
100
AcDbEntity
  8
0
  6
ByLayer
 62
  256
370
   -1
100
AcDbLine
 10
318.000000000022
 20
-257.9999999992935
 11
328.000000000022
 21
-257.9999999992935
  0
LINE
  5
1FE
100
AcDbEntity
  8
0
  6
ByLayer
 62
  256
370
   -1
100
AcDbLine
 10
328.000000000022
 20
-257.9999999992935
 11
328.0000000000222
 21
-249.9999999992934
  0
LINE
  5
1FF
100
AcDbEntity
  8
0
  6
ByLayer
 62
  256
370
   -1
100
AcDbLine
 10
267.9999735386191
 20
-250.0000001088986
 11
318.0000000000222
 21
-249.9999999993053
  0
LINE
  5
200
100
AcDbEntity
  8
0
  6
ByLayer
 62
  256
370
   -1
100
AcDbLine
 10
249.999971145506
 20
-318.000000108884
 11
257.999971145506
 21
-318.000000108884
  0
LINE
  5
201
100
AcDbEntity
  8
0
  6
ByLayer
 62
  256
370
   -1
100
AcDbLine
 10
257.999971145506
 20
-318.000000108884
 11
257.999971145506
 21
-268.0000001078869
  0
LINE
  5
202
100
AcDbEntity
  8
0
  6
ByLayer
 62
  256
370
   -1
100
AcDbLine
 10
249.9999913506061
 20
-257.9999999967372
 11
249.9999888285143
 21
-268.0000001088645
  0
LINE
  5
203
100
AcDbEntity
  8
0
  6
ByLayer
 62
  256
370
   -1
100
AcDbLine
 10
249.999971145506
 20
-318.000000108884
 11
249.9999700845255
 21
-321.000000001884
  0
LINE
  5
204
100
AcDbEntity
  8
0
  6
ByLayer
 62
  256
370
   -1
100
AcDbLine
 10
-7.999999999995659
 20
-6.162975822039155e-032
 11
-7.999999999995659
 21
3
  0
LINE
  5
205
100
AcDbEntity
  8
0
  6
ByLayer
 62
  256
370
   -1
100
AcDbLine
 10
-7.999999999995659
 20
6.000000000000001
 11
-7.999999999995659
 21
8
  0
LINE
  5
206
100
AcDbEntity
  8
0
  6
ByLayer
 62
  256
370
   -1
100
AcDbLine
 10
-77.99999278137575
 20
-249.9999999924195
 11
-85.99999278137574
 21
-249.9999999924195
  0
LINE
  5
207
100
AcDbEntity
  8
0
  6
ByLayer
 62
  256
370
   -1
100
AcDbLine
 10
-77.99999999999999
 20
-4.811160110307353e-009
 11
-86
 21
-5.304609871444852e-009
  0
LINE
  5
208
100
AcDbEntity
  8
0
  6
ByLayer
 62
  256
370
   -1
100
AcDbLine
 10
-77.99999999828663
 20
-194.4444444444444
 11
-77.9999999982866
 21
-222.2222222222222
  0
LINE
  5
209
100
AcDbEntity
  8
0
  6
ByLayer
 62
  256
370
   -1
100
AcDbLine
 10
-85.99999358303647
 20
-222.222222222303
 11
-85.99999278137574
 21
-249.9999999924195
  0
LINE
  5
20A
100
AcDbEntity
  8
0
  6
ByLayer
 62
  256
370
   -1
100
AcDbLine
 10
-85.99999517513294
 20
-166.6666666667475
 11
-85.9999943712272
 21
-194.4444444445253
  0
LINE
  5
20B
100
AcDbEntity
  8
0
  6
ByLayer
 62
  256
370
   -1
100
AcDbLine
 10
-77.99999999828663
 20
-138.8888888888889
 11
-77.99999999828663
 21
-166.6666666666666
  0
LINE
  5
20C
100
AcDbEntity
  8
0
  6
ByLayer
 62
  256
370
   -1
100
AcDbLine
 10
-77.99999999828663
 20
-27.77777777777779
 11
-77.99999999828663
 21
-55.55555555555556
  0
LINE
  5
20D
100
AcDbEntity
  8
0
  6
ByLayer
 62
  256
370
   -1
100
AcDbLine
 10
-77.99999999828663
 20
-83.33333333333331
 11
-77.99999999828663
 21
-111.1111111111111
  0
LINE
  5
20E
100
AcDbEntity
  8
0
  6
ByLayer
 62
  256
370
   -1
100
AcDbLine
 10
-85.99999678294438
 20
-111.1111111111919
 11
-85.99999597903866
 21
-138.8888888889697
  0
LINE
  5
20F
100
AcDbEntity
  8
0
  6
ByLayer
 62
  256
370
   -1
100
AcDbLine
 10
-86
 20
-5.304609871444852e-009
 11
-85.99999919466154
 21
-27.77777777785859
  0
LINE
  5
210
100
AcDbEntity
  8
0
  6
ByLayer
 62
  256
370
   -1
100
AcDbLine
 10
-85.99999839075581
 20
-55.55555555563637
 11
-85.99999758685009
 21
-83.33333333341413
  0
LINE
  5
211
100
AcDbEntity
  8
0
  6
ByLayer
 62
  256
370
   -1
100
AcDbLine
 10
-479.7797558863953
 20
-27.7777777777782
 11
-479.7797558863953
 21
-55.55555555555575
  0
LINE
  5
212
100
AcDbEntity
  8
0
  6
ByLayer
 62
  256
370
   -1
100
AcDbLine
 10
-479.7797558863953
 20
-83.33333333333363
 11
-479.7797558863953
 21
-111.1111080640276
  0
LINE
  5
213
100
AcDbEntity
  8
0
  6
ByLayer
 62
  256
370
   -1
100
AcDbLine
 10
-479.7797558863953
 20
-138.8888888888893
 11
-479.7797558863953
 21
-166.6666666666667
  0
LINE
  5
214
100
AcDbEntity
  8
0
  6
ByLayer
 62
  256
370
   -1
100
AcDbLine
 10
-479.7797558863953
 20
-194.4444444444447
 11
-479.7797558863953
 21
-222.2222222222223
  0
LINE
  5
215
100
AcDbEntity
  8
0
  6
ByLayer
 62
  256
370
   -1
100
AcDbLine
 10
-468.7797558863953
 20
-138.8888888888891
 11
-468.7797558863953
 21
-111.1111094606076
  0
LINE
  5
216
100
AcDbEntity
  8
0
  6
ByLayer
 62
  256
370
   -1
100
AcDbLine
 10
-468.7797558863955
 20
-249.9999999924196
 11
-468.7797558863954
 21
-222.2222222222223
  0
LINE
  5
217
100
AcDbEntity
  8
0
  6
ByLayer
 62
  256
370
   -1
100
AcDbLine
 10
-468.7797558863952
 20
-194.4444444444445
 11
-468.7797558863953
 21
-166.6666666666668
  0
LINE
  5
218
100
AcDbEntity
  8
0
  6
ByLayer
 62
  256
370
   -1
100
AcDbLine
 10
-468.7797558863953
 20
-83.33333333333346
 11
-468.7797558863953
 21
-55.55555555555557
  0
LINE
  5
219
100
AcDbEntity
  8
0
  6
ByLayer
 62
  256
370
   -1
100
AcDbLine
 10
-468.7797558863953
 20
-27.77777777777791
 11
-468.7797558863955
 21
-1.332267629550188e-013
  0
LINE
  5
21A
100
AcDbEntity
  8
0
  6
ByLayer
 62
  256
370
   -1
100
AcDbLine
 10
249.9999856941611
 20
-330.9999999999849
 11
249.9999856941611
 21
-339.0000001088728
  0
LINE
  5
21B
100
AcDbEntity
  8
0
  6
ByLayer
 62
  256
370
   -1
100
AcDbLine
 10
8.885480455369531e-005
 20
-339.000000108873
 11
8.885480455369531e-005
 21
-331.0000001088727
  0
LINE
  5
21C
100
AcDbEntity
  8
0
  6
ByLayer
 62
  256
370
   -1
100
AcDbLine
 10
27.77786663258233
 20
-339.000000108873
 11
27.77786663258233
 21
-331.0000001088727
  0
LINE
  5
21D
100
AcDbEntity
  8
0
  6
ByLayer
 62
  256
370
   -1
100
AcDbLine
 10
222.2223110770267
 20
-339.000000108873
 11
222.2223110770267
 21
-331.0000001088727
  0
LINE
  5
21E
100
AcDbEntity
  8
0
  6
ByLayer
 62
  256
370
   -1
100
AcDbLine
 10
250.0000888548045
 20
-339.000000108873
 11
250.0000888548045
 21
-331.0000001088727
  0
LINE
  5
21F
100
AcDbEntity
  8
0
  6
ByLayer
 62
  256
370
   -1
100
AcDbLine
 10
249.999986155566
 20
-331.0000001088725
 11
250.0000888548045
 21
-331.0000001088727
  0
LINE
  5
220
100
AcDbEntity
  8
0
  6
ByLayer
 62
  256
370
   -1
100
AcDbLine
 10
240.0016101731358
 20
-331.0000001088729
 11
239.9999861555661
 21
-331.0000001088729
  0
LINE
  5
221
100
AcDbEntity
  8
0
  6
ByLayer
 62
  256
370
   -1
100
AcDbLine
 10
249.9999856941611
 20
-339.0000001088728
 11
222.2223110770267
 21
-339.000000108873
  0
LINE
  5
222
100
AcDbEntity
  8
0
  6
ByLayer
 62
  256
370
   -1
100
AcDbLine
 10
27.77786663258233
 20
-339.000000108873
 11
8.885480455369531e-005
 21
-339.000000108873
  0
LINE
  5
223
100
AcDbEntity
  8
0
  6
ByLayer
 62
  256
370
   -1
100
AcDbLine
 10
10.00008885480419
 20
-331.0000001088728
 11
27.77786663258233
 21
-331.0000001088727
  0
LINE
  5
224
100
AcDbEntity
  8
0
  6
ByLayer
 62
  256
370
   -1
100
AcDbLine
 10
222.2223110770267
 20
-331.0000001088727
 11
240.0016101731358
 21
-331.0000001088729
  0
LINE
  5
225
100
AcDbEntity
  8
0
  6
ByLayer
 62
  256
370
   -1
100
AcDbLine
 10
-340.8693877943298
 20
156.908052582904
 11
-312.3975973397931
 21
156.9080525829041
  0
LINE
  5
226
100
AcDbEntity
  8
0
  6
ByLayer
 62
  256
370
   -1
100
AcDbLine
 10
-285.3527328588528
 20
156.9080525829041
 11
-257.7401409883852
 21
156.9080525829042
  0
LINE
  5
227
100
AcDbEntity
  8
0
  6
ByLayer
 62
  256
370
   -1
100
AcDbLine
 10
-253.6583667262701
 20
145.9080525829043
 11
-257.7401409882739
 21
145.9080525829043
  0
LINE
  5
228
100
AcDbEntity
  8
0
  6
ByLayer
 62
  256
370
   -1
100
AcDbLine
 10
-285.3527328588529
 20
145.9080525829043
 11
-312.3975973397932
 21
145.9080525829043
  0
LINE
  5
229
100
AcDbEntity
  8
0
  6
ByLayer
 62
  256
370
   -1
100
AcDbLine
 10
-340.8693877942185
 20
145.9080525829043
 11
-370.8021663877574
 21
145.9080525829043
  0
LINE
  5
22A
100
AcDbEntity
  8
0
  6
ByLayer
 62
  256
370
   -1
100
AcDbLine
 10
-228.7398222287575
 20
-322.2127027547686
 11
-228.7398222287576
 21
-333.2127027547676
  0
LINE
  5
22B
100
AcDbEntity
  8
0
  6
ByLayer
 62
  256
370
   -1
100
AcDbLine
 10
-146.2286449990013
 20
-333.2127027547683
 11
-177.4668435270833
 21
-333.2127027547682
  0
LINE
  5
22C
100
AcDbEntity
  8
0
  6
ByLayer
 62
  256
370
   -1
100
AcDbLine
 10
-202.128561790956
 20
-333.2127027547683
 11
-228.7398222287576
 21
-333.2127027547676
  0
LINE
  5
22D
100
AcDbEntity
  8
0
  6
ByLayer
 62
  256
370
   -1
100
AcDbLine
 10
-120.9999999982816
 20
-322.2127027547683
 11
-146.2286449991124
 21
-322.2127027547683
  0
LINE
  5
22E
100
AcDbEntity
  8
0
  6
ByLayer
 62
  256
370
   -1
100
AcDbLine
 10
-177.4668435271943
 20
-322.2127027547684
 11
-202.1285617910667
 21
-322.2127027547684
  0
CIRCLE
  5
22F
100
AcDbEntity
  8
0
  6
ByLayer
 62
  256
370
   -1
100
AcDbCircle
 10
-461.2792169502841
 20
-7.500114678759243
 40
1.500000000000025
  0
CIRCLE
  5
230
100
AcDbEntity
  8
0
  6
ByLayer
 62
  256
370
   -1
100
AcDbCircle
 10
-461.2799399791505
 20
-242.5025778124825
 40
1.500000000000009
  0
LINE
  5
231
100
AcDbEntity
  8
0
  6
ByLayer
 62
  256
370
   -1
100
AcDbLine
 10
-7.999999999995659
 20
6.000000000000001
 11
-7.999999999995659
 21
3
  0
LINE
  5
232
100
AcDbEntity
  8
0
  6
ByLayer
 62
  256
370
   -1
100
AcDbLine
 10
-42.99999999999565
 20
3
 11
-78
 21
3
  0
LINE
  5
233
100
AcDbEntity
  8
0
  6
ByLayer
 62
  256
370
   -1
100
AcDbLine
 10
-42.99999999999565
 20
6.000000000000001
 11
-78
 21
6.000000000000001
  0
LINE
  5
234
100
AcDbEntity
  8
0
  6
ByLayer
 62
  256
370
   -1
100
AcDbLine
 10
-78
 20
0
 11
-78
 21
3
  0
LINE
  5
235
100
AcDbEntity
  8
0
  6
ByLayer
 62
  256
370
   -1
100
AcDbLine
 10
-78
 20
6.000000000000001
 11
-78
 21
8
  0
ENDSEC
  0
SECTION
  2
OBJECTS
  0
DICTIONARY
  5
C
330
0
100
AcDbDictionary
281
    1
  3
ACAD_GROUP
350
D
  0
DICTIONARY
  5
D
330
C
100
AcDbDictionary
281
    1
  0
ENDSEC
  0
EOF
