solid ASCII
  facet normal -0.000000e+00 -9.973323e-01 -7.299531e-02
    outer loop
      vertex   4.703360e+01 5.871325e+01 7.718402e+00
      vertex   4.503360e+01 5.871325e+01 7.718402e+00
      vertex   4.703360e+01 5.872923e+01 7.500000e+00
    endloop
  endfacet
  facet normal -0.000000e+00 -9.973323e-01 -7.299531e-02
    outer loop
      vertex   4.703360e+01 5.872923e+01 7.500000e+00
      vertex   4.503360e+01 5.871325e+01 7.718402e+00
      vertex   4.503360e+01 5.872923e+01 7.500000e+00
    endloop
  endfacet
  facet normal 0.000000e+00 -9.973323e-01 7.299531e-02
    outer loop
      vertex   4.703360e+01 5.872923e+01 7.500000e+00
      vertex   4.503360e+01 5.872923e+01 7.500000e+00
      vertex   4.703360e+01 5.871325e+01 7.281598e+00
    endloop
  endfacet
  facet normal 0.000000e+00 -9.973323e-01 7.299531e-02
    outer loop
      vertex   4.703360e+01 5.871325e+01 7.281598e+00
      vertex   4.503360e+01 5.872923e+01 7.500000e+00
      vertex   4.503360e+01 5.871325e+01 7.281598e+00
    endloop
  endfacet
  facet normal 0.000000e+00 -9.760759e-01 2.174302e-01
    outer loop
      vertex   4.703360e+01 5.871325e+01 7.281598e+00
      vertex   4.503360e+01 5.871325e+01 7.281598e+00
      vertex   4.703360e+01 5.866563e+01 7.067851e+00
    endloop
  endfacet
  facet normal 9.655839e-17 -9.760759e-01 2.174302e-01
    outer loop
      vertex   4.703360e+01 5.866563e+01 7.067851e+00
      vertex   4.503360e+01 5.871325e+01 7.281598e+00
      vertex   4.503360e+01 5.866563e+01 7.067851e+00
    endloop
  endfacet
  facet normal 1.586424e-16 -9.340161e-01 3.572309e-01
    outer loop
      vertex   4.703360e+01 5.866563e+01 7.067851e+00
      vertex   4.503360e+01 5.866563e+01 7.067851e+00
      vertex   4.703360e+01 5.858741e+01 6.863315e+00
    endloop
  endfacet
  facet normal 3.172848e-16 -9.340161e-01 3.572309e-01
    outer loop
      vertex   4.703360e+01 5.858741e+01 6.863315e+00
      vertex   4.503360e+01 5.866563e+01 7.067851e+00
      vertex   4.503360e+01 5.858741e+01 6.863315e+00
    endloop
  endfacet
  facet normal 4.346904e-16 -8.720494e-01 4.894178e-01
    outer loop
      vertex   4.703360e+01 5.858741e+01 6.863315e+00
      vertex   4.503360e+01 5.858741e+01 6.863315e+00
      vertex   4.703360e+01 5.848023e+01 6.672348e+00
    endloop
  endfacet
  facet normal 4.346904e-16 -8.720494e-01 4.894178e-01
    outer loop
      vertex   4.703360e+01 5.848023e+01 6.672348e+00
      vertex   4.503360e+01 5.858741e+01 6.863315e+00
      vertex   4.503360e+01 5.848023e+01 6.672348e+00
    endloop
  endfacet
  facet normal 5.428313e-16 -7.914965e-01 6.111737e-01
    outer loop
      vertex   4.703360e+01 5.848023e+01 6.672348e+00
      vertex   4.503360e+01 5.848023e+01 6.672348e+00
      vertex   4.703360e+01 5.834639e+01 6.499022e+00
    endloop
  endfacet
  facet normal 0.000000e+00 -7.914965e-01 6.111737e-01
    outer loop
      vertex   4.703360e+01 5.834639e+01 6.499022e+00
      vertex   4.503360e+01 5.848023e+01 6.672348e+00
      vertex   4.503360e+01 5.834639e+01 6.499022e+00
    endloop
  endfacet
  facet normal 0.000000e+00 -6.940742e-01 7.199035e-01
    outer loop
      vertex   4.703360e+01 5.834639e+01 6.499022e+00
      vertex   4.503360e+01 5.834639e+01 6.499022e+00
      vertex   4.703360e+01 5.818874e+01 6.347029e+00
    endloop
  endfacet
  facet normal 0.000000e+00 -6.940742e-01 7.199035e-01
    outer loop
      vertex   4.703360e+01 5.818874e+01 6.347029e+00
      vertex   4.503360e+01 5.834639e+01 6.499022e+00
      vertex   4.503360e+01 5.818874e+01 6.347029e+00
    endloop
  endfacet
  facet normal 0.000000e+00 -5.818589e-01 8.132897e-01
    outer loop
      vertex   4.703360e+01 5.818874e+01 6.347029e+00
      vertex   4.503360e+01 5.818874e+01 6.347029e+00
      vertex   4.703360e+01 5.801064e+01 6.219610e+00
    endloop
  endfacet
  facet normal 0.000000e+00 -5.818589e-01 8.132897e-01
    outer loop
      vertex   4.703360e+01 5.801064e+01 6.219610e+00
      vertex   4.503360e+01 5.818874e+01 6.347029e+00
      vertex   4.503360e+01 5.801064e+01 6.219610e+00
    endloop
  endfacet
  facet normal 0.000000e+00 -4.572423e-01 8.893421e-01
    outer loop
      vertex   4.703360e+01 5.801064e+01 6.219610e+00
      vertex   4.503360e+01 5.801064e+01 6.219610e+00
      vertex   4.703360e+01 5.781589e+01 6.119481e+00
    endloop
  endfacet
  facet normal 0.000000e+00 -4.572423e-01 8.893421e-01
    outer loop
      vertex   4.703360e+01 5.781589e+01 6.119481e+00
      vertex   4.503360e+01 5.801064e+01 6.219610e+00
      vertex   4.503360e+01 5.781589e+01 6.119481e+00
    endloop
  endfacet
  facet normal 0.000000e+00 -3.228804e-01 9.464398e-01
    outer loop
      vertex   4.703360e+01 5.781589e+01 6.119481e+00
      vertex   4.503360e+01 5.781589e+01 6.119481e+00
      vertex   4.703360e+01 5.760863e+01 6.048774e+00
    endloop
  endfacet
  facet normal 0.000000e+00 -3.228804e-01 9.464398e-01
    outer loop
      vertex   4.703360e+01 5.760863e+01 6.048774e+00
      vertex   4.503360e+01 5.781589e+01 6.119481e+00
      vertex   4.503360e+01 5.760863e+01 6.048774e+00
    endloop
  endfacet
  facet normal 0.000000e+00 -1.816369e-01 9.833657e-01
    outer loop
      vertex   4.703360e+01 5.760863e+01 6.048774e+00
      vertex   4.503360e+01 5.760863e+01 6.048774e+00
      vertex   4.703360e+01 5.739329e+01 6.008999e+00
    endloop
  endfacet
  facet normal 0.000000e+00 -1.816369e-01 9.833657e-01
    outer loop
      vertex   4.703360e+01 5.739329e+01 6.008999e+00
      vertex   4.503360e+01 5.760863e+01 6.048774e+00
      vertex   4.503360e+01 5.739329e+01 6.008999e+00
    endloop
  endfacet
  facet normal 0.000000e+00 -3.652202e-02 9.993328e-01
    outer loop
      vertex   4.703360e+01 5.739329e+01 6.008999e+00
      vertex   4.503360e+01 5.739329e+01 6.008999e+00
      vertex   4.703360e+01 5.717445e+01 6.001001e+00
    endloop
  endfacet
  facet normal 0.000000e+00 -3.652202e-02 9.993328e-01
    outer loop
      vertex   4.703360e+01 5.717445e+01 6.001001e+00
      vertex   4.503360e+01 5.739329e+01 6.008999e+00
      vertex   4.503360e+01 5.717445e+01 6.001001e+00
    endloop
  endfacet
  facet normal 0.000000e+00 1.093712e-01 9.940010e-01
    outer loop
      vertex   4.703360e+01 5.717445e+01 6.001001e+00
      vertex   4.503360e+01 5.717445e+01 6.001001e+00
      vertex   4.703360e+01 5.695678e+01 6.024951e+00
    endloop
  endfacet
  facet normal 0.000000e+00 1.093712e-01 9.940010e-01
    outer loop
      vertex   4.703360e+01 5.695678e+01 6.024951e+00
      vertex   4.503360e+01 5.717445e+01 6.001001e+00
      vertex   4.503360e+01 5.695678e+01 6.024951e+00
    endloop
  endfacet
  facet normal 0.000000e+00 2.529334e-01 9.674837e-01
    outer loop
      vertex   4.703360e+01 5.695678e+01 6.024951e+00
      vertex   4.503360e+01 5.695678e+01 6.024951e+00
      vertex   4.703360e+01 5.674491e+01 6.080340e+00
    endloop
  endfacet
  facet normal 0.000000e+00 2.529334e-01 9.674837e-01
    outer loop
      vertex   4.703360e+01 5.674491e+01 6.080340e+00
      vertex   4.503360e+01 5.695678e+01 6.024951e+00
      vertex   4.503360e+01 5.674491e+01 6.080340e+00
    endloop
  endfacet
  facet normal 0.000000e+00 3.911047e-01 9.203462e-01
    outer loop
      vertex   4.703360e+01 5.674491e+01 6.080340e+00
      vertex   4.503360e+01 5.674491e+01 6.080340e+00
      vertex   4.703360e+01 5.654337e+01 6.165987e+00
    endloop
  endfacet
  facet normal 0.000000e+00 3.911047e-01 9.203462e-01
    outer loop
      vertex   4.703360e+01 5.654337e+01 6.165987e+00
      vertex   4.503360e+01 5.674491e+01 6.080340e+00
      vertex   4.503360e+01 5.654337e+01 6.165987e+00
    endloop
  endfacet
  facet normal 0.000000e+00 5.209403e-01 8.535931e-01
    outer loop
      vertex   4.703360e+01 5.654337e+01 6.165987e+00
      vertex   4.503360e+01 5.654337e+01 6.165987e+00
      vertex   4.703360e+01 5.635645e+01 6.280065e+00
    endloop
  endfacet
  facet normal 0.000000e+00 5.209403e-01 8.535931e-01
    outer loop
      vertex   4.703360e+01 5.635645e+01 6.280065e+00
      vertex   4.503360e+01 5.654337e+01 6.165987e+00
      vertex   4.503360e+01 5.635645e+01 6.280065e+00
    endloop
  endfacet
  facet normal 0.000000e+00 6.396730e-01 7.686471e-01
    outer loop
      vertex   4.703360e+01 5.635645e+01 6.280065e+00
      vertex   4.503360e+01 5.635645e+01 6.280065e+00
      vertex   4.703360e+01 5.618812e+01 6.420145e+00
    endloop
  endfacet
  facet normal 0.000000e+00 6.396730e-01 7.686471e-01
    outer loop
      vertex   4.703360e+01 5.618812e+01 6.420145e+00
      vertex   4.503360e+01 5.635645e+01 6.280065e+00
      vertex   4.503360e+01 5.618812e+01 6.420145e+00
    endloop
  endfacet
  facet normal 0.000000e+00 7.447722e-01 6.673188e-01
    outer loop
      vertex   4.703360e+01 5.618812e+01 6.420145e+00
      vertex   4.503360e+01 5.618812e+01 6.420145e+00
      vertex   4.703360e+01 5.604199e+01 6.583239e+00
    endloop
  endfacet
  facet normal 0.000000e+00 7.447722e-01 6.673188e-01
    outer loop
      vertex   4.703360e+01 5.604199e+01 6.583239e+00
      vertex   4.503360e+01 5.618812e+01 6.420145e+00
      vertex   4.503360e+01 5.604199e+01 6.583239e+00
    endloop
  endfacet
  facet normal 0.000000e+00 8.339978e-01 5.517677e-01
    outer loop
      vertex   4.703360e+01 5.604199e+01 6.583239e+00
      vertex   4.503360e+01 5.604199e+01 6.583239e+00
      vertex   4.703360e+01 5.592116e+01 6.765873e+00
    endloop
  endfacet
  facet normal 0.000000e+00 8.339978e-01 5.517677e-01
    outer loop
      vertex   4.703360e+01 5.592116e+01 6.765873e+00
      vertex   4.503360e+01 5.604199e+01 6.583239e+00
      vertex   4.503360e+01 5.592116e+01 6.765873e+00
    endloop
  endfacet
  facet normal 0.000000e+00 9.054482e-01 4.244567e-01
    outer loop
      vertex   4.703360e+01 5.592116e+01 6.765873e+00
      vertex   4.503360e+01 5.592116e+01 6.765873e+00
      vertex   4.703360e+01 5.582821e+01 6.964154e+00
    endloop
  endfacet
  facet normal 0.000000e+00 9.054482e-01 4.244567e-01
    outer loop
      vertex   4.703360e+01 5.582821e+01 6.964154e+00
      vertex   4.503360e+01 5.592116e+01 6.765873e+00
      vertex   4.503360e+01 5.582821e+01 6.964154e+00
    endloop
  endfacet
  facet normal 0.000000e+00 9.576006e-01 2.880991e-01
    outer loop
      vertex   4.703360e+01 5.582821e+01 6.964154e+00
      vertex   4.503360e+01 5.582821e+01 6.964154e+00
      vertex   4.703360e+01 5.576512e+01 7.173855e+00
    endloop
  endfacet
  facet normal 0.000000e+00 9.576006e-01 2.880991e-01
    outer loop
      vertex   4.703360e+01 5.576512e+01 7.173855e+00
      vertex   4.503360e+01 5.582821e+01 6.964154e+00
      vertex   4.503360e+01 5.576512e+01 7.173855e+00
    endloop
  endfacet
  facet normal 0.000000e+00 9.893434e-01 1.456012e-01
    outer loop
      vertex   4.703360e+01 5.576512e+01 7.173855e+00
      vertex   4.503360e+01 5.576512e+01 7.173855e+00
      vertex   4.703360e+01 5.573323e+01 7.390507e+00
    endloop
  endfacet
  facet normal 0.000000e+00 9.893434e-01 1.456012e-01
    outer loop
      vertex   4.703360e+01 5.573323e+01 7.390507e+00
      vertex   4.503360e+01 5.576512e+01 7.173855e+00
      vertex   4.503360e+01 5.573323e+01 7.390507e+00
    endloop
  endfacet
  facet normal 0.000000e+00 1.000000e+00 -0.000000e+00
    outer loop
      vertex   4.703360e+01 5.573323e+01 7.390507e+00
      vertex   4.503360e+01 5.573323e+01 7.390507e+00
      vertex   4.703360e+01 5.573323e+01 7.609493e+00
    endloop
  endfacet
  facet normal 0.000000e+00 1.000000e+00 0.000000e+00
    outer loop
      vertex   4.703360e+01 5.573323e+01 7.609493e+00
      vertex   4.503360e+01 5.573323e+01 7.390507e+00
      vertex   4.503360e+01 5.573323e+01 7.609493e+00
    endloop
  endfacet
  facet normal 0.000000e+00 9.893434e-01 -1.456012e-01
    outer loop
      vertex   4.703360e+01 5.573323e+01 7.609493e+00
      vertex   4.503360e+01 5.573323e+01 7.609493e+00
      vertex   4.703360e+01 5.576512e+01 7.826145e+00
    endloop
  endfacet
  facet normal 0.000000e+00 9.893434e-01 -1.456012e-01
    outer loop
      vertex   4.703360e+01 5.576512e+01 7.826145e+00
      vertex   4.503360e+01 5.573323e+01 7.609493e+00
      vertex   4.503360e+01 5.576512e+01 7.826145e+00
    endloop
  endfacet
  facet normal 0.000000e+00 9.576006e-01 -2.880991e-01
    outer loop
      vertex   4.703360e+01 5.576512e+01 7.826145e+00
      vertex   4.503360e+01 5.576512e+01 7.826145e+00
      vertex   4.703360e+01 5.582821e+01 8.035846e+00
    endloop
  endfacet
  facet normal 0.000000e+00 9.576006e-01 -2.880991e-01
    outer loop
      vertex   4.703360e+01 5.582821e+01 8.035846e+00
      vertex   4.503360e+01 5.576512e+01 7.826145e+00
      vertex   4.503360e+01 5.582821e+01 8.035846e+00
    endloop
  endfacet
  facet normal 0.000000e+00 9.054482e-01 -4.244567e-01
    outer loop
      vertex   4.703360e+01 5.582821e+01 8.035846e+00
      vertex   4.503360e+01 5.582821e+01 8.035846e+00
      vertex   4.703360e+01 5.592116e+01 8.234127e+00
    endloop
  endfacet
  facet normal 0.000000e+00 9.054482e-01 -4.244567e-01
    outer loop
      vertex   4.703360e+01 5.592116e+01 8.234127e+00
      vertex   4.503360e+01 5.582821e+01 8.035846e+00
      vertex   4.503360e+01 5.592116e+01 8.234127e+00
    endloop
  endfacet
  facet normal 0.000000e+00 8.339978e-01 -5.517677e-01
    outer loop
      vertex   4.703360e+01 5.592116e+01 8.234127e+00
      vertex   4.503360e+01 5.592116e+01 8.234127e+00
      vertex   4.703360e+01 5.604199e+01 8.416761e+00
    endloop
  endfacet
  facet normal 0.000000e+00 8.339978e-01 -5.517677e-01
    outer loop
      vertex   4.703360e+01 5.604199e+01 8.416761e+00
      vertex   4.503360e+01 5.592116e+01 8.234127e+00
      vertex   4.503360e+01 5.604199e+01 8.416761e+00
    endloop
  endfacet
  facet normal 0.000000e+00 7.447722e-01 -6.673188e-01
    outer loop
      vertex   4.703360e+01 5.604199e+01 8.416761e+00
      vertex   4.503360e+01 5.604199e+01 8.416761e+00
      vertex   4.703360e+01 5.618812e+01 8.579855e+00
    endloop
  endfacet
  facet normal 0.000000e+00 7.447722e-01 -6.673188e-01
    outer loop
      vertex   4.703360e+01 5.618812e+01 8.579855e+00
      vertex   4.503360e+01 5.604199e+01 8.416761e+00
      vertex   4.503360e+01 5.618812e+01 8.579855e+00
    endloop
  endfacet
  facet normal 0.000000e+00 6.396730e-01 -7.686471e-01
    outer loop
      vertex   4.703360e+01 5.618812e+01 8.579855e+00
      vertex   4.503360e+01 5.618812e+01 8.579855e+00
      vertex   4.703360e+01 5.635645e+01 8.719935e+00
    endloop
  endfacet
  facet normal 0.000000e+00 6.396730e-01 -7.686471e-01
    outer loop
      vertex   4.703360e+01 5.635645e+01 8.719935e+00
      vertex   4.503360e+01 5.618812e+01 8.579855e+00
      vertex   4.503360e+01 5.635645e+01 8.719935e+00
    endloop
  endfacet
  facet normal 0.000000e+00 5.209403e-01 -8.535931e-01
    outer loop
      vertex   4.703360e+01 5.635645e+01 8.719935e+00
      vertex   4.503360e+01 5.635645e+01 8.719935e+00
      vertex   4.703360e+01 5.654337e+01 8.834013e+00
    endloop
  endfacet
  facet normal 0.000000e+00 5.209403e-01 -8.535931e-01
    outer loop
      vertex   4.703360e+01 5.654337e+01 8.834013e+00
      vertex   4.503360e+01 5.635645e+01 8.719935e+00
      vertex   4.503360e+01 5.654337e+01 8.834013e+00
    endloop
  endfacet
  facet normal 0.000000e+00 3.911047e-01 -9.203462e-01
    outer loop
      vertex   4.703360e+01 5.654337e+01 8.834013e+00
      vertex   4.503360e+01 5.654337e+01 8.834013e+00
      vertex   4.703360e+01 5.674491e+01 8.919660e+00
    endloop
  endfacet
  facet normal 0.000000e+00 3.911047e-01 -9.203462e-01
    outer loop
      vertex   4.703360e+01 5.674491e+01 8.919660e+00
      vertex   4.503360e+01 5.654337e+01 8.834013e+00
      vertex   4.503360e+01 5.674491e+01 8.919660e+00
    endloop
  endfacet
  facet normal 0.000000e+00 2.529334e-01 -9.674837e-01
    outer loop
      vertex   4.703360e+01 5.674491e+01 8.919660e+00
      vertex   4.503360e+01 5.674491e+01 8.919660e+00
      vertex   4.703360e+01 5.695678e+01 8.975049e+00
    endloop
  endfacet
  facet normal 0.000000e+00 2.529334e-01 -9.674837e-01
    outer loop
      vertex   4.703360e+01 5.695678e+01 8.975049e+00
      vertex   4.503360e+01 5.674491e+01 8.919660e+00
      vertex   4.503360e+01 5.695678e+01 8.975049e+00
    endloop
  endfacet
  facet normal 0.000000e+00 1.093712e-01 -9.940010e-01
    outer loop
      vertex   4.703360e+01 5.695678e+01 8.975049e+00
      vertex   4.503360e+01 5.695678e+01 8.975049e+00
      vertex   4.703360e+01 5.717445e+01 8.998999e+00
    endloop
  endfacet
  facet normal 0.000000e+00 1.093712e-01 -9.940010e-01
    outer loop
      vertex   4.703360e+01 5.717445e+01 8.998999e+00
      vertex   4.503360e+01 5.695678e+01 8.975049e+00
      vertex   4.503360e+01 5.717445e+01 8.998999e+00
    endloop
  endfacet
  facet normal -0.000000e+00 -3.652202e-02 -9.993328e-01
    outer loop
      vertex   4.703360e+01 5.717445e+01 8.998999e+00
      vertex   4.503360e+01 5.717445e+01 8.998999e+00
      vertex   4.703360e+01 5.739329e+01 8.991001e+00
    endloop
  endfacet
  facet normal -0.000000e+00 -3.652202e-02 -9.993328e-01
    outer loop
      vertex   4.703360e+01 5.739329e+01 8.991001e+00
      vertex   4.503360e+01 5.717445e+01 8.998999e+00
      vertex   4.503360e+01 5.739329e+01 8.991001e+00
    endloop
  endfacet
  facet normal -0.000000e+00 -1.816369e-01 -9.833657e-01
    outer loop
      vertex   4.703360e+01 5.739329e+01 8.991001e+00
      vertex   4.503360e+01 5.739329e+01 8.991001e+00
      vertex   4.703360e+01 5.760863e+01 8.951226e+00
    endloop
  endfacet
  facet normal -0.000000e+00 -1.816369e-01 -9.833657e-01
    outer loop
      vertex   4.703360e+01 5.760863e+01 8.951226e+00
      vertex   4.503360e+01 5.739329e+01 8.991001e+00
      vertex   4.503360e+01 5.760863e+01 8.951226e+00
    endloop
  endfacet
  facet normal -0.000000e+00 -3.228804e-01 -9.464398e-01
    outer loop
      vertex   4.703360e+01 5.760863e+01 8.951226e+00
      vertex   4.503360e+01 5.760863e+01 8.951226e+00
      vertex   4.703360e+01 5.781589e+01 8.880519e+00
    endloop
  endfacet
  facet normal -0.000000e+00 -3.228804e-01 -9.464398e-01
    outer loop
      vertex   4.703360e+01 5.781589e+01 8.880519e+00
      vertex   4.503360e+01 5.760863e+01 8.951226e+00
      vertex   4.503360e+01 5.781589e+01 8.880519e+00
    endloop
  endfacet
  facet normal -0.000000e+00 -4.572423e-01 -8.893421e-01
    outer loop
      vertex   4.703360e+01 5.781589e+01 8.880519e+00
      vertex   4.503360e+01 5.781589e+01 8.880519e+00
      vertex   4.703360e+01 5.801064e+01 8.780390e+00
    endloop
  endfacet
  facet normal -0.000000e+00 -4.572423e-01 -8.893421e-01
    outer loop
      vertex   4.703360e+01 5.801064e+01 8.780390e+00
      vertex   4.503360e+01 5.781589e+01 8.880519e+00
      vertex   4.503360e+01 5.801064e+01 8.780390e+00
    endloop
  endfacet
  facet normal -0.000000e+00 -5.818589e-01 -8.132897e-01
    outer loop
      vertex   4.703360e+01 5.801064e+01 8.780390e+00
      vertex   4.503360e+01 5.801064e+01 8.780390e+00
      vertex   4.703360e+01 5.818874e+01 8.652971e+00
    endloop
  endfacet
  facet normal -0.000000e+00 -5.818589e-01 -8.132897e-01
    outer loop
      vertex   4.703360e+01 5.818874e+01 8.652971e+00
      vertex   4.503360e+01 5.801064e+01 8.780390e+00
      vertex   4.503360e+01 5.818874e+01 8.652971e+00
    endloop
  endfacet
  facet normal -0.000000e+00 -6.940742e-01 -7.199035e-01
    outer loop
      vertex   4.703360e+01 5.818874e+01 8.652971e+00
      vertex   4.503360e+01 5.818874e+01 8.652971e+00
      vertex   4.703360e+01 5.834639e+01 8.500978e+00
    endloop
  endfacet
  facet normal -0.000000e+00 -6.940742e-01 -7.199035e-01
    outer loop
      vertex   4.703360e+01 5.834639e+01 8.500978e+00
      vertex   4.503360e+01 5.818874e+01 8.652971e+00
      vertex   4.503360e+01 5.834639e+01 8.500978e+00
    endloop
  endfacet
  facet normal -0.000000e+00 -7.914965e-01 -6.111737e-01
    outer loop
      vertex   4.703360e+01 5.834639e+01 8.500978e+00
      vertex   4.503360e+01 5.834639e+01 8.500978e+00
      vertex   4.703360e+01 5.848023e+01 8.327652e+00
    endloop
  endfacet
  facet normal -5.428313e-16 -7.914965e-01 -6.111737e-01
    outer loop
      vertex   4.703360e+01 5.848023e+01 8.327652e+00
      vertex   4.503360e+01 5.834639e+01 8.500978e+00
      vertex   4.503360e+01 5.848023e+01 8.327652e+00
    endloop
  endfacet
  facet normal -4.346904e-16 -8.720494e-01 -4.894178e-01
    outer loop
      vertex   4.703360e+01 5.848023e+01 8.327652e+00
      vertex   4.503360e+01 5.848023e+01 8.327652e+00
      vertex   4.703360e+01 5.858741e+01 8.136685e+00
    endloop
  endfacet
  facet normal -4.346904e-16 -8.720494e-01 -4.894178e-01
    outer loop
      vertex   4.703360e+01 5.858741e+01 8.136685e+00
      vertex   4.503360e+01 5.848023e+01 8.327652e+00
      vertex   4.503360e+01 5.858741e+01 8.136685e+00
    endloop
  endfacet
  facet normal -3.172848e-16 -9.340161e-01 -3.572309e-01
    outer loop
      vertex   4.703360e+01 5.858741e+01 8.136685e+00
      vertex   4.503360e+01 5.858741e+01 8.136685e+00
      vertex   4.703360e+01 5.866563e+01 7.932149e+00
    endloop
  endfacet
  facet normal -1.586424e-16 -9.340161e-01 -3.572309e-01
    outer loop
      vertex   4.703360e+01 5.866563e+01 7.932149e+00
      vertex   4.503360e+01 5.858741e+01 8.136685e+00
      vertex   4.503360e+01 5.866563e+01 7.932149e+00
    endloop
  endfacet
  facet normal -9.655839e-17 -9.760759e-01 -2.174302e-01
    outer loop
      vertex   4.703360e+01 5.866563e+01 7.932149e+00
      vertex   4.503360e+01 5.866563e+01 7.932149e+00
      vertex   4.703360e+01 5.871325e+01 7.718402e+00
    endloop
  endfacet
  facet normal -0.000000e+00 -9.760759e-01 -2.174302e-01
    outer loop
      vertex   4.703360e+01 5.871325e+01 7.718402e+00
      vertex   4.503360e+01 5.866563e+01 7.932149e+00
      vertex   4.503360e+01 5.871325e+01 7.718402e+00
    endloop
  endfacet
  facet normal 0.000000e+00 1.000000e+00 -0.000000e+00
    outer loop
      vertex   6.003360e+01 6.272923e+01 -2.775558e-15
      vertex   5.803360e+01 6.272923e+01 2.000000e+00
      vertex   6.003360e+01 6.272923e+01 2.000000e+00
    endloop
  endfacet
  facet normal 0.000000e+00 -1.000000e+00 -0.000000e+00
    outer loop
      vertex   6.003360e+01 5.172923e+01 2.000000e+00
      vertex   5.803360e+01 5.172923e+01 2.000000e+00
      vertex   6.003360e+01 5.172923e+01 -3.330669e-15
    endloop
  endfacet
  facet normal 1.000000e+00 -0.000000e+00 0.000000e+00
    outer loop
      vertex   4.703360e+01 5.871325e+01 7.281598e+00
      vertex   4.703360e+01 6.272923e+01 2.000000e+00
      vertex   4.703360e+01 5.872923e+01 7.500000e+00
    endloop
  endfacet
  facet normal 1.000000e+00 -0.000000e+00 0.000000e+00
    outer loop
      vertex   4.703360e+01 5.872923e+01 7.500000e+00
      vertex   4.703360e+01 6.272923e+01 2.000000e+00
      vertex   4.703360e+01 6.272923e+01 1.300000e+01
    endloop
  endfacet
  facet normal 1.000000e+00 0.000000e+00 -0.000000e+00
    outer loop
      vertex   4.703360e+01 5.872923e+01 7.500000e+00
      vertex   4.703360e+01 6.272923e+01 1.300000e+01
      vertex   4.703360e+01 5.871325e+01 7.718402e+00
    endloop
  endfacet
  facet normal 1.000000e+00 0.000000e+00 -0.000000e+00
    outer loop
      vertex   4.703360e+01 5.871325e+01 7.718402e+00
      vertex   4.703360e+01 6.272923e+01 1.300000e+01
      vertex   4.703360e+01 5.866563e+01 7.932149e+00
    endloop
  endfacet
  facet normal 1.000000e+00 0.000000e+00 -0.000000e+00
    outer loop
      vertex   4.703360e+01 5.866563e+01 7.932149e+00
      vertex   4.703360e+01 6.272923e+01 1.300000e+01
      vertex   4.703360e+01 5.858741e+01 8.136685e+00
    endloop
  endfacet
  facet normal 1.000000e+00 0.000000e+00 -0.000000e+00
    outer loop
      vertex   4.703360e+01 5.858741e+01 8.136685e+00
      vertex   4.703360e+01 6.272923e+01 1.300000e+01
      vertex   4.703360e+01 5.848023e+01 8.327652e+00
    endloop
  endfacet
  facet normal 1.000000e+00 0.000000e+00 -0.000000e+00
    outer loop
      vertex   4.703360e+01 5.848023e+01 8.327652e+00
      vertex   4.703360e+01 6.272923e+01 1.300000e+01
      vertex   4.703360e+01 5.834639e+01 8.500978e+00
    endloop
  endfacet
  facet normal 1.000000e+00 0.000000e+00 -0.000000e+00
    outer loop
      vertex   4.703360e+01 5.834639e+01 8.500978e+00
      vertex   4.703360e+01 6.272923e+01 1.300000e+01
      vertex   4.703360e+01 5.818874e+01 8.652971e+00
    endloop
  endfacet
  facet normal 1.000000e+00 0.000000e+00 -0.000000e+00
    outer loop
      vertex   4.703360e+01 5.818874e+01 8.652971e+00
      vertex   4.703360e+01 6.272923e+01 1.300000e+01
      vertex   4.703360e+01 5.801064e+01 8.780390e+00
    endloop
  endfacet
  facet normal 1.000000e+00 0.000000e+00 -0.000000e+00
    outer loop
      vertex   4.703360e+01 5.801064e+01 8.780390e+00
      vertex   4.703360e+01 6.272923e+01 1.300000e+01
      vertex   4.703360e+01 5.781589e+01 8.880519e+00
    endloop
  endfacet
  facet normal 1.000000e+00 0.000000e+00 -0.000000e+00
    outer loop
      vertex   4.703360e+01 5.781589e+01 8.880519e+00
      vertex   4.703360e+01 6.272923e+01 1.300000e+01
      vertex   4.703360e+01 5.760863e+01 8.951226e+00
    endloop
  endfacet
  facet normal 1.000000e+00 0.000000e+00 -0.000000e+00
    outer loop
      vertex   4.703360e+01 5.760863e+01 8.951226e+00
      vertex   4.703360e+01 6.272923e+01 1.300000e+01
      vertex   4.703360e+01 5.739329e+01 8.991001e+00
    endloop
  endfacet
  facet normal 1.000000e+00 0.000000e+00 -0.000000e+00
    outer loop
      vertex   4.703360e+01 5.739329e+01 8.991001e+00
      vertex   4.703360e+01 6.272923e+01 1.300000e+01
      vertex   4.703360e+01 5.717445e+01 8.998999e+00
    endloop
  endfacet
  facet normal 1.000000e+00 0.000000e+00 -0.000000e+00
    outer loop
      vertex   4.703360e+01 5.717445e+01 8.998999e+00
      vertex   4.703360e+01 6.272923e+01 1.300000e+01
      vertex   4.703360e+01 5.172923e+01 1.300000e+01
    endloop
  endfacet
  facet normal 1.000000e+00 0.000000e+00 0.000000e+00
    outer loop
      vertex   4.703360e+01 5.717445e+01 8.998999e+00
      vertex   4.703360e+01 5.172923e+01 1.300000e+01
      vertex   4.703360e+01 5.695678e+01 8.975049e+00
    endloop
  endfacet
  facet normal 1.000000e+00 0.000000e+00 0.000000e+00
    outer loop
      vertex   4.703360e+01 5.695678e+01 8.975049e+00
      vertex   4.703360e+01 5.172923e+01 1.300000e+01
      vertex   4.703360e+01 5.674491e+01 8.919660e+00
    endloop
  endfacet
  facet normal 1.000000e+00 0.000000e+00 0.000000e+00
    outer loop
      vertex   4.703360e+01 5.674491e+01 8.919660e+00
      vertex   4.703360e+01 5.172923e+01 1.300000e+01
      vertex   4.703360e+01 5.654337e+01 8.834013e+00
    endloop
  endfacet
  facet normal 1.000000e+00 0.000000e+00 0.000000e+00
    outer loop
      vertex   4.703360e+01 5.654337e+01 8.834013e+00
      vertex   4.703360e+01 5.172923e+01 1.300000e+01
      vertex   4.703360e+01 5.635645e+01 8.719935e+00
    endloop
  endfacet
  facet normal 1.000000e+00 0.000000e+00 0.000000e+00
    outer loop
      vertex   4.703360e+01 5.635645e+01 8.719935e+00
      vertex   4.703360e+01 5.172923e+01 1.300000e+01
      vertex   4.703360e+01 5.618812e+01 8.579855e+00
    endloop
  endfacet
  facet normal 1.000000e+00 0.000000e+00 0.000000e+00
    outer loop
      vertex   4.703360e+01 5.618812e+01 8.579855e+00
      vertex   4.703360e+01 5.172923e+01 1.300000e+01
      vertex   4.703360e+01 5.604199e+01 8.416761e+00
    endloop
  endfacet
  facet normal 1.000000e+00 0.000000e+00 0.000000e+00
    outer loop
      vertex   4.703360e+01 5.604199e+01 8.416761e+00
      vertex   4.703360e+01 5.172923e+01 1.300000e+01
      vertex   4.703360e+01 5.592116e+01 8.234127e+00
    endloop
  endfacet
  facet normal 1.000000e+00 0.000000e+00 0.000000e+00
    outer loop
      vertex   4.703360e+01 5.592116e+01 8.234127e+00
      vertex   4.703360e+01 5.172923e+01 1.300000e+01
      vertex   4.703360e+01 5.582821e+01 8.035846e+00
    endloop
  endfacet
  facet normal 1.000000e+00 0.000000e+00 0.000000e+00
    outer loop
      vertex   4.703360e+01 5.582821e+01 8.035846e+00
      vertex   4.703360e+01 5.172923e+01 1.300000e+01
      vertex   4.703360e+01 5.576512e+01 7.826145e+00
    endloop
  endfacet
  facet normal 1.000000e+00 0.000000e+00 0.000000e+00
    outer loop
      vertex   4.703360e+01 5.576512e+01 7.826145e+00
      vertex   4.703360e+01 5.172923e+01 1.300000e+01
      vertex   4.703360e+01 5.573323e+01 7.609493e+00
    endloop
  endfacet
  facet normal 1.000000e+00 0.000000e+00 0.000000e+00
    outer loop
      vertex   4.703360e+01 5.573323e+01 7.609493e+00
      vertex   4.703360e+01 5.172923e+01 1.300000e+01
      vertex   4.703360e+01 5.172923e+01 2.000000e+00
    endloop
  endfacet
  facet normal 1.000000e+00 0.000000e+00 0.000000e+00
    outer loop
      vertex   4.703360e+01 5.573323e+01 7.609493e+00
      vertex   4.703360e+01 5.172923e+01 2.000000e+00
      vertex   4.703360e+01 5.573323e+01 7.390507e+00
    endloop
  endfacet
  facet normal 1.000000e+00 0.000000e+00 0.000000e+00
    outer loop
      vertex   4.703360e+01 5.573323e+01 7.390507e+00
      vertex   4.703360e+01 5.172923e+01 2.000000e+00
      vertex   4.703360e+01 5.576512e+01 7.173855e+00
    endloop
  endfacet
  facet normal 1.000000e+00 0.000000e+00 0.000000e+00
    outer loop
      vertex   4.703360e+01 5.576512e+01 7.173855e+00
      vertex   4.703360e+01 5.172923e+01 2.000000e+00
      vertex   4.703360e+01 5.582821e+01 6.964154e+00
    endloop
  endfacet
  facet normal 1.000000e+00 0.000000e+00 0.000000e+00
    outer loop
      vertex   4.703360e+01 5.582821e+01 6.964154e+00
      vertex   4.703360e+01 5.172923e+01 2.000000e+00
      vertex   4.703360e+01 5.592116e+01 6.765873e+00
    endloop
  endfacet
  facet normal 1.000000e+00 0.000000e+00 0.000000e+00
    outer loop
      vertex   4.703360e+01 5.592116e+01 6.765873e+00
      vertex   4.703360e+01 5.172923e+01 2.000000e+00
      vertex   4.703360e+01 5.604199e+01 6.583239e+00
    endloop
  endfacet
  facet normal 1.000000e+00 0.000000e+00 0.000000e+00
    outer loop
      vertex   4.703360e+01 5.604199e+01 6.583239e+00
      vertex   4.703360e+01 5.172923e+01 2.000000e+00
      vertex   4.703360e+01 5.618812e+01 6.420145e+00
    endloop
  endfacet
  facet normal 1.000000e+00 0.000000e+00 0.000000e+00
    outer loop
      vertex   4.703360e+01 5.618812e+01 6.420145e+00
      vertex   4.703360e+01 5.172923e+01 2.000000e+00
      vertex   4.703360e+01 5.635645e+01 6.280065e+00
    endloop
  endfacet
  facet normal 1.000000e+00 0.000000e+00 0.000000e+00
    outer loop
      vertex   4.703360e+01 5.635645e+01 6.280065e+00
      vertex   4.703360e+01 5.172923e+01 2.000000e+00
      vertex   4.703360e+01 5.654337e+01 6.165987e+00
    endloop
  endfacet
  facet normal 1.000000e+00 0.000000e+00 0.000000e+00
    outer loop
      vertex   4.703360e+01 5.654337e+01 6.165987e+00
      vertex   4.703360e+01 5.172923e+01 2.000000e+00
      vertex   4.703360e+01 5.674491e+01 6.080340e+00
    endloop
  endfacet
  facet normal 1.000000e+00 0.000000e+00 0.000000e+00
    outer loop
      vertex   4.703360e+01 5.674491e+01 6.080340e+00
      vertex   4.703360e+01 5.172923e+01 2.000000e+00
      vertex   4.703360e+01 5.695678e+01 6.024951e+00
    endloop
  endfacet
  facet normal 1.000000e+00 0.000000e+00 0.000000e+00
    outer loop
      vertex   4.703360e+01 5.695678e+01 6.024951e+00
      vertex   4.703360e+01 5.172923e+01 2.000000e+00
      vertex   4.703360e+01 5.717445e+01 6.001001e+00
    endloop
  endfacet
  facet normal 1.000000e+00 0.000000e+00 0.000000e+00
    outer loop
      vertex   4.703360e+01 5.717445e+01 6.001001e+00
      vertex   4.703360e+01 5.172923e+01 2.000000e+00
      vertex   4.703360e+01 6.272923e+01 2.000000e+00
    endloop
  endfacet
  facet normal 1.000000e+00 -0.000000e+00 0.000000e+00
    outer loop
      vertex   4.703360e+01 5.717445e+01 6.001001e+00
      vertex   4.703360e+01 6.272923e+01 2.000000e+00
      vertex   4.703360e+01 5.739329e+01 6.008999e+00
    endloop
  endfacet
  facet normal 1.000000e+00 -0.000000e+00 0.000000e+00
    outer loop
      vertex   4.703360e+01 5.739329e+01 6.008999e+00
      vertex   4.703360e+01 6.272923e+01 2.000000e+00
      vertex   4.703360e+01 5.760863e+01 6.048774e+00
    endloop
  endfacet
  facet normal 1.000000e+00 -0.000000e+00 0.000000e+00
    outer loop
      vertex   4.703360e+01 5.760863e+01 6.048774e+00
      vertex   4.703360e+01 6.272923e+01 2.000000e+00
      vertex   4.703360e+01 5.781589e+01 6.119481e+00
    endloop
  endfacet
  facet normal 1.000000e+00 -0.000000e+00 0.000000e+00
    outer loop
      vertex   4.703360e+01 5.781589e+01 6.119481e+00
      vertex   4.703360e+01 6.272923e+01 2.000000e+00
      vertex   4.703360e+01 5.801064e+01 6.219610e+00
    endloop
  endfacet
  facet normal 1.000000e+00 -0.000000e+00 0.000000e+00
    outer loop
      vertex   4.703360e+01 5.801064e+01 6.219610e+00
      vertex   4.703360e+01 6.272923e+01 2.000000e+00
      vertex   4.703360e+01 5.818874e+01 6.347029e+00
    endloop
  endfacet
  facet normal 1.000000e+00 -0.000000e+00 0.000000e+00
    outer loop
      vertex   4.703360e+01 5.818874e+01 6.347029e+00
      vertex   4.703360e+01 6.272923e+01 2.000000e+00
      vertex   4.703360e+01 5.834639e+01 6.499022e+00
    endloop
  endfacet
  facet normal 1.000000e+00 -0.000000e+00 0.000000e+00
    outer loop
      vertex   4.703360e+01 5.834639e+01 6.499022e+00
      vertex   4.703360e+01 6.272923e+01 2.000000e+00
      vertex   4.703360e+01 5.848023e+01 6.672348e+00
    endloop
  endfacet
  facet normal 1.000000e+00 -0.000000e+00 0.000000e+00
    outer loop
      vertex   4.703360e+01 5.848023e+01 6.672348e+00
      vertex   4.703360e+01 6.272923e+01 2.000000e+00
      vertex   4.703360e+01 5.858741e+01 6.863315e+00
    endloop
  endfacet
  facet normal 1.000000e+00 -0.000000e+00 0.000000e+00
    outer loop
      vertex   4.703360e+01 5.858741e+01 6.863315e+00
      vertex   4.703360e+01 6.272923e+01 2.000000e+00
      vertex   4.703360e+01 5.866563e+01 7.067851e+00
    endloop
  endfacet
  facet normal 1.000000e+00 -0.000000e+00 0.000000e+00
    outer loop
      vertex   4.703360e+01 5.866563e+01 7.067851e+00
      vertex   4.703360e+01 6.272923e+01 2.000000e+00
      vertex   4.703360e+01 5.871325e+01 7.281598e+00
    endloop
  endfacet
  facet normal -1.000000e+00 0.000000e+00 0.000000e+00
    outer loop
      vertex   4.503360e+01 5.871325e+01 7.718402e+00
      vertex   4.503360e+01 6.472923e+01 1.500000e+01
      vertex   4.503360e+01 5.872923e+01 7.500000e+00
    endloop
  endfacet
  facet normal -1.000000e+00 0.000000e+00 0.000000e+00
    outer loop
      vertex   4.503360e+01 5.872923e+01 7.500000e+00
      vertex   4.503360e+01 6.472923e+01 1.500000e+01
      vertex   4.503360e+01 6.472923e+01 0.000000e+00
    endloop
  endfacet
  facet normal -1.000000e+00 0.000000e+00 -0.000000e+00
    outer loop
      vertex   4.503360e+01 5.872923e+01 7.500000e+00
      vertex   4.503360e+01 6.472923e+01 0.000000e+00
      vertex   4.503360e+01 5.871325e+01 7.281598e+00
    endloop
  endfacet
  facet normal -1.000000e+00 0.000000e+00 -0.000000e+00
    outer loop
      vertex   4.503360e+01 5.871325e+01 7.281598e+00
      vertex   4.503360e+01 6.472923e+01 0.000000e+00
      vertex   4.503360e+01 5.866563e+01 7.067851e+00
    endloop
  endfacet
  facet normal -1.000000e+00 0.000000e+00 -0.000000e+00
    outer loop
      vertex   4.503360e+01 5.866563e+01 7.067851e+00
      vertex   4.503360e+01 6.472923e+01 0.000000e+00
      vertex   4.503360e+01 5.858741e+01 6.863315e+00
    endloop
  endfacet
  facet normal -1.000000e+00 0.000000e+00 -0.000000e+00
    outer loop
      vertex   4.503360e+01 5.858741e+01 6.863315e+00
      vertex   4.503360e+01 6.472923e+01 0.000000e+00
      vertex   4.503360e+01 5.848023e+01 6.672348e+00
    endloop
  endfacet
  facet normal -1.000000e+00 0.000000e+00 -0.000000e+00
    outer loop
      vertex   4.503360e+01 5.848023e+01 6.672348e+00
      vertex   4.503360e+01 6.472923e+01 0.000000e+00
      vertex   4.503360e+01 5.834639e+01 6.499022e+00
    endloop
  endfacet
  facet normal -1.000000e+00 0.000000e+00 -0.000000e+00
    outer loop
      vertex   4.503360e+01 5.834639e+01 6.499022e+00
      vertex   4.503360e+01 6.472923e+01 0.000000e+00
      vertex   4.503360e+01 5.818874e+01 6.347029e+00
    endloop
  endfacet
  facet normal -1.000000e+00 0.000000e+00 -0.000000e+00
    outer loop
      vertex   4.503360e+01 5.818874e+01 6.347029e+00
      vertex   4.503360e+01 6.472923e+01 0.000000e+00
      vertex   4.503360e+01 5.801064e+01 6.219610e+00
    endloop
  endfacet
  facet normal -1.000000e+00 0.000000e+00 -0.000000e+00
    outer loop
      vertex   4.503360e+01 5.801064e+01 6.219610e+00
      vertex   4.503360e+01 6.472923e+01 0.000000e+00
      vertex   4.503360e+01 5.781589e+01 6.119481e+00
    endloop
  endfacet
  facet normal -1.000000e+00 0.000000e+00 -0.000000e+00
    outer loop
      vertex   4.503360e+01 5.781589e+01 6.119481e+00
      vertex   4.503360e+01 6.472923e+01 0.000000e+00
      vertex   4.503360e+01 5.760863e+01 6.048774e+00
    endloop
  endfacet
  facet normal -1.000000e+00 0.000000e+00 -0.000000e+00
    outer loop
      vertex   4.503360e+01 5.760863e+01 6.048774e+00
      vertex   4.503360e+01 6.472923e+01 0.000000e+00
      vertex   4.503360e+01 5.739329e+01 6.008999e+00
    endloop
  endfacet
  facet normal -1.000000e+00 0.000000e+00 -0.000000e+00
    outer loop
      vertex   4.503360e+01 5.739329e+01 6.008999e+00
      vertex   4.503360e+01 6.472923e+01 0.000000e+00
      vertex   4.503360e+01 5.717445e+01 6.001001e+00
    endloop
  endfacet
  facet normal -1.000000e+00 0.000000e+00 -0.000000e+00
    outer loop
      vertex   4.503360e+01 5.717445e+01 6.001001e+00
      vertex   4.503360e+01 6.472923e+01 0.000000e+00
      vertex   4.503360e+01 4.972923e+01 0.000000e+00
    endloop
  endfacet
  facet normal -1.000000e+00 -0.000000e+00 0.000000e+00
    outer loop
      vertex   4.503360e+01 5.717445e+01 6.001001e+00
      vertex   4.503360e+01 4.972923e+01 0.000000e+00
      vertex   4.503360e+01 5.695678e+01 6.024951e+00
    endloop
  endfacet
  facet normal -1.000000e+00 -0.000000e+00 0.000000e+00
    outer loop
      vertex   4.503360e+01 5.695678e+01 6.024951e+00
      vertex   4.503360e+01 4.972923e+01 0.000000e+00
      vertex   4.503360e+01 5.674491e+01 6.080340e+00
    endloop
  endfacet
  facet normal -1.000000e+00 -0.000000e+00 0.000000e+00
    outer loop
      vertex   4.503360e+01 5.674491e+01 6.080340e+00
      vertex   4.503360e+01 4.972923e+01 0.000000e+00
      vertex   4.503360e+01 5.654337e+01 6.165987e+00
    endloop
  endfacet
  facet normal -1.000000e+00 -0.000000e+00 0.000000e+00
    outer loop
      vertex   4.503360e+01 5.654337e+01 6.165987e+00
      vertex   4.503360e+01 4.972923e+01 0.000000e+00
      vertex   4.503360e+01 5.635645e+01 6.280065e+00
    endloop
  endfacet
  facet normal -1.000000e+00 -0.000000e+00 0.000000e+00
    outer loop
      vertex   4.503360e+01 5.635645e+01 6.280065e+00
      vertex   4.503360e+01 4.972923e+01 0.000000e+00
      vertex   4.503360e+01 5.618812e+01 6.420145e+00
    endloop
  endfacet
  facet normal -1.000000e+00 -0.000000e+00 0.000000e+00
    outer loop
      vertex   4.503360e+01 5.618812e+01 6.420145e+00
      vertex   4.503360e+01 4.972923e+01 0.000000e+00
      vertex   4.503360e+01 5.604199e+01 6.583239e+00
    endloop
  endfacet
  facet normal -1.000000e+00 -0.000000e+00 0.000000e+00
    outer loop
      vertex   4.503360e+01 5.604199e+01 6.583239e+00
      vertex   4.503360e+01 4.972923e+01 0.000000e+00
      vertex   4.503360e+01 5.592116e+01 6.765873e+00
    endloop
  endfacet
  facet normal -1.000000e+00 -0.000000e+00 0.000000e+00
    outer loop
      vertex   4.503360e+01 5.592116e+01 6.765873e+00
      vertex   4.503360e+01 4.972923e+01 0.000000e+00
      vertex   4.503360e+01 5.582821e+01 6.964154e+00
    endloop
  endfacet
  facet normal -1.000000e+00 -0.000000e+00 0.000000e+00
    outer loop
      vertex   4.503360e+01 5.582821e+01 6.964154e+00
      vertex   4.503360e+01 4.972923e+01 0.000000e+00
      vertex   4.503360e+01 5.576512e+01 7.173855e+00
    endloop
  endfacet
  facet normal -1.000000e+00 -0.000000e+00 0.000000e+00
    outer loop
      vertex   4.503360e+01 5.576512e+01 7.173855e+00
      vertex   4.503360e+01 4.972923e+01 0.000000e+00
      vertex   4.503360e+01 5.573323e+01 7.390507e+00
    endloop
  endfacet
  facet normal -1.000000e+00 -0.000000e+00 0.000000e+00
    outer loop
      vertex   4.503360e+01 5.573323e+01 7.390507e+00
      vertex   4.503360e+01 4.972923e+01 0.000000e+00
      vertex   4.503360e+01 5.573323e+01 7.609493e+00
    endloop
  endfacet
  facet normal -1.000000e+00 -0.000000e+00 0.000000e+00
    outer loop
      vertex   4.503360e+01 5.573323e+01 7.609493e+00
      vertex   4.503360e+01 4.972923e+01 0.000000e+00
      vertex   4.503360e+01 4.972923e+01 1.500000e+01
    endloop
  endfacet
  facet normal -1.000000e+00 0.000000e+00 0.000000e+00
    outer loop
      vertex   4.503360e+01 5.573323e+01 7.609493e+00
      vertex   4.503360e+01 4.972923e+01 1.500000e+01
      vertex   4.503360e+01 5.576512e+01 7.826145e+00
    endloop
  endfacet
  facet normal -1.000000e+00 0.000000e+00 0.000000e+00
    outer loop
      vertex   4.503360e+01 5.576512e+01 7.826145e+00
      vertex   4.503360e+01 4.972923e+01 1.500000e+01
      vertex   4.503360e+01 5.582821e+01 8.035846e+00
    endloop
  endfacet
  facet normal -1.000000e+00 0.000000e+00 0.000000e+00
    outer loop
      vertex   4.503360e+01 5.582821e+01 8.035846e+00
      vertex   4.503360e+01 4.972923e+01 1.500000e+01
      vertex   4.503360e+01 5.592116e+01 8.234127e+00
    endloop
  endfacet
  facet normal -1.000000e+00 0.000000e+00 0.000000e+00
    outer loop
      vertex   4.503360e+01 5.592116e+01 8.234127e+00
      vertex   4.503360e+01 4.972923e+01 1.500000e+01
      vertex   4.503360e+01 5.604199e+01 8.416761e+00
    endloop
  endfacet
  facet normal -1.000000e+00 0.000000e+00 0.000000e+00
    outer loop
      vertex   4.503360e+01 5.604199e+01 8.416761e+00
      vertex   4.503360e+01 4.972923e+01 1.500000e+01
      vertex   4.503360e+01 5.618812e+01 8.579855e+00
    endloop
  endfacet
  facet normal -1.000000e+00 0.000000e+00 0.000000e+00
    outer loop
      vertex   4.503360e+01 5.618812e+01 8.579855e+00
      vertex   4.503360e+01 4.972923e+01 1.500000e+01
      vertex   4.503360e+01 5.635645e+01 8.719935e+00
    endloop
  endfacet
  facet normal -1.000000e+00 0.000000e+00 0.000000e+00
    outer loop
      vertex   4.503360e+01 5.635645e+01 8.719935e+00
      vertex   4.503360e+01 4.972923e+01 1.500000e+01
      vertex   4.503360e+01 5.654337e+01 8.834013e+00
    endloop
  endfacet
  facet normal -1.000000e+00 0.000000e+00 0.000000e+00
    outer loop
      vertex   4.503360e+01 5.654337e+01 8.834013e+00
      vertex   4.503360e+01 4.972923e+01 1.500000e+01
      vertex   4.503360e+01 5.674491e+01 8.919660e+00
    endloop
  endfacet
  facet normal -1.000000e+00 0.000000e+00 0.000000e+00
    outer loop
      vertex   4.503360e+01 5.674491e+01 8.919660e+00
      vertex   4.503360e+01 4.972923e+01 1.500000e+01
      vertex   4.503360e+01 5.695678e+01 8.975049e+00
    endloop
  endfacet
  facet normal -1.000000e+00 0.000000e+00 0.000000e+00
    outer loop
      vertex   4.503360e+01 5.695678e+01 8.975049e+00
      vertex   4.503360e+01 4.972923e+01 1.500000e+01
      vertex   4.503360e+01 5.717445e+01 8.998999e+00
    endloop
  endfacet
  facet normal -1.000000e+00 0.000000e+00 0.000000e+00
    outer loop
      vertex   4.503360e+01 5.717445e+01 8.998999e+00
      vertex   4.503360e+01 4.972923e+01 1.500000e+01
      vertex   4.503360e+01 6.472923e+01 1.500000e+01
    endloop
  endfacet
  facet normal -1.000000e+00 0.000000e+00 0.000000e+00
    outer loop
      vertex   4.503360e+01 5.717445e+01 8.998999e+00
      vertex   4.503360e+01 6.472923e+01 1.500000e+01
      vertex   4.503360e+01 5.739329e+01 8.991001e+00
    endloop
  endfacet
  facet normal -1.000000e+00 0.000000e+00 0.000000e+00
    outer loop
      vertex   4.503360e+01 5.739329e+01 8.991001e+00
      vertex   4.503360e+01 6.472923e+01 1.500000e+01
      vertex   4.503360e+01 5.760863e+01 8.951226e+00
    endloop
  endfacet
  facet normal -1.000000e+00 0.000000e+00 0.000000e+00
    outer loop
      vertex   4.503360e+01 5.760863e+01 8.951226e+00
      vertex   4.503360e+01 6.472923e+01 1.500000e+01
      vertex   4.503360e+01 5.781589e+01 8.880519e+00
    endloop
  endfacet
  facet normal -1.000000e+00 0.000000e+00 0.000000e+00
    outer loop
      vertex   4.503360e+01 5.781589e+01 8.880519e+00
      vertex   4.503360e+01 6.472923e+01 1.500000e+01
      vertex   4.503360e+01 5.801064e+01 8.780390e+00
    endloop
  endfacet
  facet normal -1.000000e+00 0.000000e+00 0.000000e+00
    outer loop
      vertex   4.503360e+01 5.801064e+01 8.780390e+00
      vertex   4.503360e+01 6.472923e+01 1.500000e+01
      vertex   4.503360e+01 5.818874e+01 8.652971e+00
    endloop
  endfacet
  facet normal -1.000000e+00 0.000000e+00 0.000000e+00
    outer loop
      vertex   4.503360e+01 5.818874e+01 8.652971e+00
      vertex   4.503360e+01 6.472923e+01 1.500000e+01
      vertex   4.503360e+01 5.834639e+01 8.500978e+00
    endloop
  endfacet
  facet normal -1.000000e+00 0.000000e+00 0.000000e+00
    outer loop
      vertex   4.503360e+01 5.834639e+01 8.500978e+00
      vertex   4.503360e+01 6.472923e+01 1.500000e+01
      vertex   4.503360e+01 5.848023e+01 8.327652e+00
    endloop
  endfacet
  facet normal -1.000000e+00 0.000000e+00 0.000000e+00
    outer loop
      vertex   4.503360e+01 5.848023e+01 8.327652e+00
      vertex   4.503360e+01 6.472923e+01 1.500000e+01
      vertex   4.503360e+01 5.858741e+01 8.136685e+00
    endloop
  endfacet
  facet normal -1.000000e+00 0.000000e+00 0.000000e+00
    outer loop
      vertex   4.503360e+01 5.858741e+01 8.136685e+00
      vertex   4.503360e+01 6.472923e+01 1.500000e+01
      vertex   4.503360e+01 5.866563e+01 7.932149e+00
    endloop
  endfacet
  facet normal -1.000000e+00 0.000000e+00 0.000000e+00
    outer loop
      vertex   4.503360e+01 5.866563e+01 7.932149e+00
      vertex   4.503360e+01 6.472923e+01 1.500000e+01
      vertex   4.503360e+01 5.871325e+01 7.718402e+00
    endloop
  endfacet
  facet normal 0.000000e+00 1.000000e+00 0.000000e+00
    outer loop
      vertex   4.703360e+01 5.172923e+01 1.300000e+01
      vertex   5.803360e+01 5.172923e+01 2.000000e+00
      vertex   4.703360e+01 5.172923e+01 2.000000e+00
    endloop
  endfacet
  facet normal 0.000000e+00 -1.000000e+00 0.000000e+00
    outer loop
      vertex   6.003360e+01 4.972923e+01 -1.387779e-15
      vertex   4.503360e+01 4.972923e+01 1.500000e+01
      vertex   4.503360e+01 4.972923e+01 0.000000e+00
    endloop
  endfacet
  facet normal 7.071068e-01 6.869155e-16 7.071068e-01
    outer loop
      vertex   6.003360e+01 5.172923e+01 -3.330669e-15
      vertex   5.803360e+01 5.172923e+01 2.000000e+00
      vertex   6.003360e+01 4.972923e+01 -1.387779e-15
    endloop
  endfacet
  facet normal 7.071068e-01 0.000000e+00 7.071068e-01
    outer loop
      vertex   6.003360e+01 4.972923e+01 -1.387779e-15
      vertex   5.803360e+01 5.172923e+01 2.000000e+00
      vertex   4.703360e+01 5.172923e+01 1.300000e+01
    endloop
  endfacet
  facet normal 7.071068e-01 -1.339812e-15 7.071068e-01
    outer loop
      vertex   6.003360e+01 4.972923e+01 -1.387779e-15
      vertex   4.703360e+01 5.172923e+01 1.300000e+01
      vertex   4.503360e+01 4.972923e+01 1.500000e+01
    endloop
  endfacet
  facet normal 7.071068e-01 0.000000e+00 7.071068e-01
    outer loop
      vertex   4.503360e+01 4.972923e+01 1.500000e+01
      vertex   4.703360e+01 5.172923e+01 1.300000e+01
      vertex   4.703360e+01 6.272923e+01 1.300000e+01
    endloop
  endfacet
  facet normal 7.071068e-01 -0.000000e+00 7.071068e-01
    outer loop
      vertex   4.503360e+01 4.972923e+01 1.500000e+01
      vertex   4.703360e+01 6.272923e+01 1.300000e+01
      vertex   4.503360e+01 6.472923e+01 1.500000e+01
    endloop
  endfacet
  facet normal 7.071068e-01 1.484451e-15 7.071068e-01
    outer loop
      vertex   4.503360e+01 6.472923e+01 1.500000e+01
      vertex   4.703360e+01 6.272923e+01 1.300000e+01
      vertex   5.803360e+01 6.272923e+01 2.000000e+00
    endloop
  endfacet
  facet normal 7.071068e-01 6.699061e-16 7.071068e-01
    outer loop
      vertex   4.503360e+01 6.472923e+01 1.500000e+01
      vertex   5.803360e+01 6.272923e+01 2.000000e+00
      vertex   6.003360e+01 6.472923e+01 -1.665335e-15
    endloop
  endfacet
  facet normal 7.071068e-01 -3.925231e-16 7.071068e-01
    outer loop
      vertex   6.003360e+01 6.472923e+01 -1.665335e-15
      vertex   5.803360e+01 6.272923e+01 2.000000e+00
      vertex   6.003360e+01 6.272923e+01 -2.775558e-15
    endloop
  endfacet
  facet normal 0.000000e+00 -1.000000e+00 0.000000e+00
    outer loop
      vertex   4.703360e+01 6.272923e+01 2.000000e+00
      vertex   5.803360e+01 6.272923e+01 2.000000e+00
      vertex   4.703360e+01 6.272923e+01 1.300000e+01
    endloop
  endfacet
  facet normal 0.000000e+00 1.000000e+00 0.000000e+00
    outer loop
      vertex   6.003360e+01 6.472923e+01 -1.665335e-15
      vertex   4.503360e+01 6.472923e+01 0.000000e+00
      vertex   4.503360e+01 6.472923e+01 1.500000e+01
    endloop
  endfacet
  facet normal 9.973323e-01 7.299531e-02 0.000000e+00
    outer loop
      vertex   5.104958e+01 5.701083e+01 2.000000e+00
      vertex   5.104958e+01 5.701083e+01 0.000000e+00
      vertex   5.103360e+01 5.722923e+01 2.000000e+00
    endloop
  endfacet
  facet normal 9.973323e-01 7.299531e-02 0.000000e+00
    outer loop
      vertex   5.103360e+01 5.722923e+01 2.000000e+00
      vertex   5.104958e+01 5.701083e+01 0.000000e+00
      vertex   5.103360e+01 5.722923e+01 0.000000e+00
    endloop
  endfacet
  facet normal 9.973323e-01 -7.299531e-02 0.000000e+00
    outer loop
      vertex   5.103360e+01 5.722923e+01 2.000000e+00
      vertex   5.103360e+01 5.722923e+01 0.000000e+00
      vertex   5.104958e+01 5.744764e+01 2.000000e+00
    endloop
  endfacet
  facet normal 9.973323e-01 -7.299531e-02 0.000000e+00
    outer loop
      vertex   5.104958e+01 5.744764e+01 2.000000e+00
      vertex   5.103360e+01 5.722923e+01 0.000000e+00
      vertex   5.104958e+01 5.744764e+01 0.000000e+00
    endloop
  endfacet
  facet normal 9.760759e-01 -2.174302e-01 0.000000e+00
    outer loop
      vertex   5.104958e+01 5.744764e+01 2.000000e+00
      vertex   5.104958e+01 5.744764e+01 0.000000e+00
      vertex   5.109719e+01 5.766138e+01 2.000000e+00
    endloop
  endfacet
  facet normal 9.760759e-01 -2.174302e-01 0.000000e+00
    outer loop
      vertex   5.109719e+01 5.766138e+01 2.000000e+00
      vertex   5.104958e+01 5.744764e+01 0.000000e+00
      vertex   5.109719e+01 5.766138e+01 0.000000e+00
    endloop
  endfacet
  facet normal 9.340161e-01 -3.572309e-01 0.000000e+00
    outer loop
      vertex   5.109719e+01 5.766138e+01 2.000000e+00
      vertex   5.109719e+01 5.766138e+01 0.000000e+00
      vertex   5.117542e+01 5.786592e+01 2.000000e+00
    endloop
  endfacet
  facet normal 9.340161e-01 -3.572309e-01 0.000000e+00
    outer loop
      vertex   5.117542e+01 5.786592e+01 2.000000e+00
      vertex   5.109719e+01 5.766138e+01 0.000000e+00
      vertex   5.117542e+01 5.786592e+01 0.000000e+00
    endloop
  endfacet
  facet normal 8.720494e-01 -4.894178e-01 0.000000e+00
    outer loop
      vertex   5.117542e+01 5.786592e+01 2.000000e+00
      vertex   5.117542e+01 5.786592e+01 0.000000e+00
      vertex   5.128260e+01 5.805689e+01 2.000000e+00
    endloop
  endfacet
  facet normal 8.720494e-01 -4.894178e-01 0.000000e+00
    outer loop
      vertex   5.128260e+01 5.805689e+01 2.000000e+00
      vertex   5.117542e+01 5.786592e+01 0.000000e+00
      vertex   5.128260e+01 5.805689e+01 0.000000e+00
    endloop
  endfacet
  facet normal 7.914965e-01 -6.111737e-01 0.000000e+00
    outer loop
      vertex   5.128260e+01 5.805689e+01 2.000000e+00
      vertex   5.128260e+01 5.805689e+01 0.000000e+00
      vertex   5.141644e+01 5.823021e+01 2.000000e+00
    endloop
  endfacet
  facet normal 7.914965e-01 -6.111737e-01 0.000000e+00
    outer loop
      vertex   5.141644e+01 5.823021e+01 2.000000e+00
      vertex   5.128260e+01 5.805689e+01 0.000000e+00
      vertex   5.141644e+01 5.823021e+01 0.000000e+00
    endloop
  endfacet
  facet normal 6.940742e-01 -7.199035e-01 0.000000e+00
    outer loop
      vertex   5.141644e+01 5.823021e+01 2.000000e+00
      vertex   5.141644e+01 5.823021e+01 0.000000e+00
      vertex   5.157409e+01 5.838220e+01 2.000000e+00
    endloop
  endfacet
  facet normal 6.940742e-01 -7.199035e-01 0.000000e+00
    outer loop
      vertex   5.157409e+01 5.838220e+01 2.000000e+00
      vertex   5.141644e+01 5.823021e+01 0.000000e+00
      vertex   5.157409e+01 5.838220e+01 0.000000e+00
    endloop
  endfacet
  facet normal 5.818589e-01 -8.132897e-01 0.000000e+00
    outer loop
      vertex   5.157409e+01 5.838220e+01 2.000000e+00
      vertex   5.157409e+01 5.838220e+01 0.000000e+00
      vertex   5.175218e+01 5.850962e+01 2.000000e+00
    endloop
  endfacet
  facet normal 5.818589e-01 -8.132897e-01 0.000000e+00
    outer loop
      vertex   5.175218e+01 5.850962e+01 2.000000e+00
      vertex   5.157409e+01 5.838220e+01 0.000000e+00
      vertex   5.175218e+01 5.850962e+01 0.000000e+00
    endloop
  endfacet
  facet normal 4.572423e-01 -8.893421e-01 0.000000e+00
    outer loop
      vertex   5.175218e+01 5.850962e+01 2.000000e+00
      vertex   5.175218e+01 5.850962e+01 0.000000e+00
      vertex   5.194694e+01 5.860975e+01 2.000000e+00
    endloop
  endfacet
  facet normal 4.572423e-01 -8.893421e-01 0.000000e+00
    outer loop
      vertex   5.194694e+01 5.860975e+01 2.000000e+00
      vertex   5.175218e+01 5.850962e+01 0.000000e+00
      vertex   5.194694e+01 5.860975e+01 0.000000e+00
    endloop
  endfacet
  facet normal 3.228804e-01 -9.464398e-01 0.000000e+00
    outer loop
      vertex   5.194694e+01 5.860975e+01 2.000000e+00
      vertex   5.194694e+01 5.860975e+01 0.000000e+00
      vertex   5.215420e+01 5.868046e+01 2.000000e+00
    endloop
  endfacet
  facet normal 3.228804e-01 -9.464398e-01 0.000000e+00
    outer loop
      vertex   5.215420e+01 5.868046e+01 2.000000e+00
      vertex   5.194694e+01 5.860975e+01 0.000000e+00
      vertex   5.215420e+01 5.868046e+01 0.000000e+00
    endloop
  endfacet
  facet normal 1.816369e-01 -9.833657e-01 0.000000e+00
    outer loop
      vertex   5.215420e+01 5.868046e+01 2.000000e+00
      vertex   5.215420e+01 5.868046e+01 0.000000e+00
      vertex   5.236954e+01 5.872023e+01 2.000000e+00
    endloop
  endfacet
  facet normal 1.816369e-01 -9.833657e-01 0.000000e+00
    outer loop
      vertex   5.236954e+01 5.872023e+01 2.000000e+00
      vertex   5.215420e+01 5.868046e+01 0.000000e+00
      vertex   5.236954e+01 5.872023e+01 0.000000e+00
    endloop
  endfacet
  facet normal 3.652202e-02 -9.993328e-01 0.000000e+00
    outer loop
      vertex   5.236954e+01 5.872023e+01 2.000000e+00
      vertex   5.236954e+01 5.872023e+01 0.000000e+00
      vertex   5.258838e+01 5.872823e+01 2.000000e+00
    endloop
  endfacet
  facet normal 3.652202e-02 -9.993328e-01 0.000000e+00
    outer loop
      vertex   5.258838e+01 5.872823e+01 2.000000e+00
      vertex   5.236954e+01 5.872023e+01 0.000000e+00
      vertex   5.258838e+01 5.872823e+01 0.000000e+00
    endloop
  endfacet
  facet normal -1.093712e-01 -9.940010e-01 -0.000000e+00
    outer loop
      vertex   5.258838e+01 5.872823e+01 2.000000e+00
      vertex   5.258838e+01 5.872823e+01 0.000000e+00
      vertex   5.280605e+01 5.870428e+01 2.000000e+00
    endloop
  endfacet
  facet normal -1.093712e-01 -9.940010e-01 -0.000000e+00
    outer loop
      vertex   5.280605e+01 5.870428e+01 2.000000e+00
      vertex   5.258838e+01 5.872823e+01 0.000000e+00
      vertex   5.280605e+01 5.870428e+01 0.000000e+00
    endloop
  endfacet
  facet normal -2.529334e-01 -9.674837e-01 -0.000000e+00
    outer loop
      vertex   5.280605e+01 5.870428e+01 2.000000e+00
      vertex   5.280605e+01 5.870428e+01 0.000000e+00
      vertex   5.301792e+01 5.864889e+01 2.000000e+00
    endloop
  endfacet
  facet normal -2.529334e-01 -9.674837e-01 -0.000000e+00
    outer loop
      vertex   5.301792e+01 5.864889e+01 2.000000e+00
      vertex   5.280605e+01 5.870428e+01 0.000000e+00
      vertex   5.301792e+01 5.864889e+01 0.000000e+00
    endloop
  endfacet
  facet normal -3.911047e-01 -9.203462e-01 -0.000000e+00
    outer loop
      vertex   5.301792e+01 5.864889e+01 2.000000e+00
      vertex   5.301792e+01 5.864889e+01 0.000000e+00
      vertex   5.321946e+01 5.856325e+01 2.000000e+00
    endloop
  endfacet
  facet normal -3.911047e-01 -9.203462e-01 -0.000000e+00
    outer loop
      vertex   5.321946e+01 5.856325e+01 2.000000e+00
      vertex   5.301792e+01 5.864889e+01 0.000000e+00
      vertex   5.321946e+01 5.856325e+01 0.000000e+00
    endloop
  endfacet
  facet normal -5.209403e-01 -8.535931e-01 -0.000000e+00
    outer loop
      vertex   5.321946e+01 5.856325e+01 2.000000e+00
      vertex   5.321946e+01 5.856325e+01 0.000000e+00
      vertex   5.340638e+01 5.844917e+01 2.000000e+00
    endloop
  endfacet
  facet normal -5.209403e-01 -8.535931e-01 -0.000000e+00
    outer loop
      vertex   5.340638e+01 5.844917e+01 2.000000e+00
      vertex   5.321946e+01 5.856325e+01 0.000000e+00
      vertex   5.340638e+01 5.844917e+01 0.000000e+00
    endloop
  endfacet
  facet normal -6.396730e-01 -7.686471e-01 -0.000000e+00
    outer loop
      vertex   5.340638e+01 5.844917e+01 2.000000e+00
      vertex   5.340638e+01 5.844917e+01 0.000000e+00
      vertex   5.357471e+01 5.830909e+01 2.000000e+00
    endloop
  endfacet
  facet normal -6.396730e-01 -7.686471e-01 -0.000000e+00
    outer loop
      vertex   5.357471e+01 5.830909e+01 2.000000e+00
      vertex   5.340638e+01 5.844917e+01 0.000000e+00
      vertex   5.357471e+01 5.830909e+01 0.000000e+00
    endloop
  endfacet
  facet normal -7.447722e-01 -6.673188e-01 -0.000000e+00
    outer loop
      vertex   5.357471e+01 5.830909e+01 2.000000e+00
      vertex   5.357471e+01 5.830909e+01 0.000000e+00
      vertex   5.372084e+01 5.814599e+01 2.000000e+00
    endloop
  endfacet
  facet normal -7.447722e-01 -6.673188e-01 -0.000000e+00
    outer loop
      vertex   5.372084e+01 5.814599e+01 2.000000e+00
      vertex   5.357471e+01 5.830909e+01 0.000000e+00
      vertex   5.372084e+01 5.814599e+01 0.000000e+00
    endloop
  endfacet
  facet normal -8.339978e-01 -5.517677e-01 -0.000000e+00
    outer loop
      vertex   5.372084e+01 5.814599e+01 2.000000e+00
      vertex   5.372084e+01 5.814599e+01 0.000000e+00
      vertex   5.384167e+01 5.796336e+01 2.000000e+00
    endloop
  endfacet
  facet normal -8.339978e-01 -5.517677e-01 -0.000000e+00
    outer loop
      vertex   5.384167e+01 5.796336e+01 2.000000e+00
      vertex   5.372084e+01 5.814599e+01 0.000000e+00
      vertex   5.384167e+01 5.796336e+01 0.000000e+00
    endloop
  endfacet
  facet normal -9.054482e-01 -4.244567e-01 -0.000000e+00
    outer loop
      vertex   5.384167e+01 5.796336e+01 2.000000e+00
      vertex   5.384167e+01 5.796336e+01 0.000000e+00
      vertex   5.393462e+01 5.776508e+01 2.000000e+00
    endloop
  endfacet
  facet normal -9.054482e-01 -4.244567e-01 -0.000000e+00
    outer loop
      vertex   5.393462e+01 5.776508e+01 2.000000e+00
      vertex   5.384167e+01 5.796336e+01 0.000000e+00
      vertex   5.393462e+01 5.776508e+01 0.000000e+00
    endloop
  endfacet
  facet normal -9.576006e-01 -2.880991e-01 -0.000000e+00
    outer loop
      vertex   5.393462e+01 5.776508e+01 2.000000e+00
      vertex   5.393462e+01 5.776508e+01 0.000000e+00
      vertex   5.399771e+01 5.755538e+01 2.000000e+00
    endloop
  endfacet
  facet normal -9.576006e-01 -2.880991e-01 -0.000000e+00
    outer loop
      vertex   5.399771e+01 5.755538e+01 2.000000e+00
      vertex   5.393462e+01 5.776508e+01 0.000000e+00
      vertex   5.399771e+01 5.755538e+01 0.000000e+00
    endloop
  endfacet
  facet normal -9.893434e-01 -1.456012e-01 -0.000000e+00
    outer loop
      vertex   5.399771e+01 5.755538e+01 2.000000e+00
      vertex   5.399771e+01 5.755538e+01 0.000000e+00
      vertex   5.402959e+01 5.733873e+01 2.000000e+00
    endloop
  endfacet
  facet normal -9.893434e-01 -1.456012e-01 -0.000000e+00
    outer loop
      vertex   5.402959e+01 5.733873e+01 2.000000e+00
      vertex   5.399771e+01 5.755538e+01 0.000000e+00
      vertex   5.402959e+01 5.733873e+01 0.000000e+00
    endloop
  endfacet
  facet normal -1.000000e+00 -0.000000e+00 -0.000000e+00
    outer loop
      vertex   5.402959e+01 5.733873e+01 2.000000e+00
      vertex   5.402959e+01 5.733873e+01 0.000000e+00
      vertex   5.402959e+01 5.711974e+01 2.000000e+00
    endloop
  endfacet
  facet normal -1.000000e+00 0.000000e+00 0.000000e+00
    outer loop
      vertex   5.402959e+01 5.711974e+01 2.000000e+00
      vertex   5.402959e+01 5.733873e+01 0.000000e+00
      vertex   5.402959e+01 5.711974e+01 0.000000e+00
    endloop
  endfacet
  facet normal -9.893434e-01 1.456012e-01 0.000000e+00
    outer loop
      vertex   5.402959e+01 5.711974e+01 2.000000e+00
      vertex   5.402959e+01 5.711974e+01 0.000000e+00
      vertex   5.399771e+01 5.690309e+01 2.000000e+00
    endloop
  endfacet
  facet normal -9.893434e-01 1.456012e-01 0.000000e+00
    outer loop
      vertex   5.399771e+01 5.690309e+01 2.000000e+00
      vertex   5.402959e+01 5.711974e+01 0.000000e+00
      vertex   5.399771e+01 5.690309e+01 0.000000e+00
    endloop
  endfacet
  facet normal -9.576006e-01 2.880991e-01 0.000000e+00
    outer loop
      vertex   5.399771e+01 5.690309e+01 2.000000e+00
      vertex   5.399771e+01 5.690309e+01 0.000000e+00
      vertex   5.393462e+01 5.669339e+01 2.000000e+00
    endloop
  endfacet
  facet normal -9.576006e-01 2.880991e-01 0.000000e+00
    outer loop
      vertex   5.393462e+01 5.669339e+01 2.000000e+00
      vertex   5.399771e+01 5.690309e+01 0.000000e+00
      vertex   5.393462e+01 5.669339e+01 0.000000e+00
    endloop
  endfacet
  facet normal -9.054482e-01 4.244567e-01 0.000000e+00
    outer loop
      vertex   5.393462e+01 5.669339e+01 2.000000e+00
      vertex   5.393462e+01 5.669339e+01 0.000000e+00
      vertex   5.384167e+01 5.649511e+01 2.000000e+00
    endloop
  endfacet
  facet normal -9.054482e-01 4.244567e-01 0.000000e+00
    outer loop
      vertex   5.384167e+01 5.649511e+01 2.000000e+00
      vertex   5.393462e+01 5.669339e+01 0.000000e+00
      vertex   5.384167e+01 5.649511e+01 0.000000e+00
    endloop
  endfacet
  facet normal -8.339978e-01 5.517677e-01 0.000000e+00
    outer loop
      vertex   5.384167e+01 5.649511e+01 2.000000e+00
      vertex   5.384167e+01 5.649511e+01 0.000000e+00
      vertex   5.372084e+01 5.631247e+01 2.000000e+00
    endloop
  endfacet
  facet normal -8.339978e-01 5.517677e-01 0.000000e+00
    outer loop
      vertex   5.372084e+01 5.631247e+01 2.000000e+00
      vertex   5.384167e+01 5.649511e+01 0.000000e+00
      vertex   5.372084e+01 5.631247e+01 0.000000e+00
    endloop
  endfacet
  facet normal -7.447722e-01 6.673188e-01 0.000000e+00
    outer loop
      vertex   5.372084e+01 5.631247e+01 2.000000e+00
      vertex   5.372084e+01 5.631247e+01 0.000000e+00
      vertex   5.357471e+01 5.614938e+01 2.000000e+00
    endloop
  endfacet
  facet normal -7.447722e-01 6.673188e-01 0.000000e+00
    outer loop
      vertex   5.357471e+01 5.614938e+01 2.000000e+00
      vertex   5.372084e+01 5.631247e+01 0.000000e+00
      vertex   5.357471e+01 5.614938e+01 0.000000e+00
    endloop
  endfacet
  facet normal -6.396730e-01 7.686471e-01 0.000000e+00
    outer loop
      vertex   5.357471e+01 5.614938e+01 2.000000e+00
      vertex   5.357471e+01 5.614938e+01 0.000000e+00
      vertex   5.340638e+01 5.600930e+01 2.000000e+00
    endloop
  endfacet
  facet normal -6.396730e-01 7.686471e-01 0.000000e+00
    outer loop
      vertex   5.340638e+01 5.600930e+01 2.000000e+00
      vertex   5.357471e+01 5.614938e+01 0.000000e+00
      vertex   5.340638e+01 5.600930e+01 0.000000e+00
    endloop
  endfacet
  facet normal -5.209403e-01 8.535931e-01 0.000000e+00
    outer loop
      vertex   5.340638e+01 5.600930e+01 2.000000e+00
      vertex   5.340638e+01 5.600930e+01 0.000000e+00
      vertex   5.321946e+01 5.589522e+01 2.000000e+00
    endloop
  endfacet
  facet normal -5.209403e-01 8.535931e-01 0.000000e+00
    outer loop
      vertex   5.321946e+01 5.589522e+01 2.000000e+00
      vertex   5.340638e+01 5.600930e+01 0.000000e+00
      vertex   5.321946e+01 5.589522e+01 0.000000e+00
    endloop
  endfacet
  facet normal -3.911047e-01 9.203462e-01 0.000000e+00
    outer loop
      vertex   5.321946e+01 5.589522e+01 2.000000e+00
      vertex   5.321946e+01 5.589522e+01 0.000000e+00
      vertex   5.301792e+01 5.580957e+01 2.000000e+00
    endloop
  endfacet
  facet normal -3.911047e-01 9.203462e-01 0.000000e+00
    outer loop
      vertex   5.301792e+01 5.580957e+01 2.000000e+00
      vertex   5.321946e+01 5.589522e+01 0.000000e+00
      vertex   5.301792e+01 5.580957e+01 0.000000e+00
    endloop
  endfacet
  facet normal -2.529334e-01 9.674837e-01 0.000000e+00
    outer loop
      vertex   5.301792e+01 5.580957e+01 2.000000e+00
      vertex   5.301792e+01 5.580957e+01 0.000000e+00
      vertex   5.280605e+01 5.575418e+01 2.000000e+00
    endloop
  endfacet
  facet normal -2.529334e-01 9.674837e-01 0.000000e+00
    outer loop
      vertex   5.280605e+01 5.575418e+01 2.000000e+00
      vertex   5.301792e+01 5.580957e+01 0.000000e+00
      vertex   5.280605e+01 5.575418e+01 0.000000e+00
    endloop
  endfacet
  facet normal -1.093712e-01 9.940010e-01 0.000000e+00
    outer loop
      vertex   5.280605e+01 5.575418e+01 2.000000e+00
      vertex   5.280605e+01 5.575418e+01 0.000000e+00
      vertex   5.258838e+01 5.573023e+01 2.000000e+00
    endloop
  endfacet
  facet normal -1.093712e-01 9.940010e-01 0.000000e+00
    outer loop
      vertex   5.258838e+01 5.573023e+01 2.000000e+00
      vertex   5.280605e+01 5.575418e+01 0.000000e+00
      vertex   5.258838e+01 5.573023e+01 0.000000e+00
    endloop
  endfacet
  facet normal 3.652202e-02 9.993328e-01 0.000000e+00
    outer loop
      vertex   5.258838e+01 5.573023e+01 2.000000e+00
      vertex   5.258838e+01 5.573023e+01 0.000000e+00
      vertex   5.236954e+01 5.573823e+01 2.000000e+00
    endloop
  endfacet
  facet normal 3.652202e-02 9.993328e-01 0.000000e+00
    outer loop
      vertex   5.236954e+01 5.573823e+01 2.000000e+00
      vertex   5.258838e+01 5.573023e+01 0.000000e+00
      vertex   5.236954e+01 5.573823e+01 0.000000e+00
    endloop
  endfacet
  facet normal 1.816369e-01 9.833657e-01 0.000000e+00
    outer loop
      vertex   5.236954e+01 5.573823e+01 2.000000e+00
      vertex   5.236954e+01 5.573823e+01 0.000000e+00
      vertex   5.215420e+01 5.577801e+01 2.000000e+00
    endloop
  endfacet
  facet normal 1.816369e-01 9.833657e-01 0.000000e+00
    outer loop
      vertex   5.215420e+01 5.577801e+01 2.000000e+00
      vertex   5.236954e+01 5.573823e+01 0.000000e+00
      vertex   5.215420e+01 5.577801e+01 0.000000e+00
    endloop
  endfacet
  facet normal 3.228804e-01 9.464398e-01 0.000000e+00
    outer loop
      vertex   5.215420e+01 5.577801e+01 2.000000e+00
      vertex   5.215420e+01 5.577801e+01 0.000000e+00
      vertex   5.194694e+01 5.584871e+01 2.000000e+00
    endloop
  endfacet
  facet normal 3.228804e-01 9.464398e-01 0.000000e+00
    outer loop
      vertex   5.194694e+01 5.584871e+01 2.000000e+00
      vertex   5.215420e+01 5.577801e+01 0.000000e+00
      vertex   5.194694e+01 5.584871e+01 0.000000e+00
    endloop
  endfacet
  facet normal 4.572423e-01 8.893421e-01 0.000000e+00
    outer loop
      vertex   5.194694e+01 5.584871e+01 2.000000e+00
      vertex   5.194694e+01 5.584871e+01 0.000000e+00
      vertex   5.175218e+01 5.594884e+01 2.000000e+00
    endloop
  endfacet
  facet normal 4.572423e-01 8.893421e-01 0.000000e+00
    outer loop
      vertex   5.175218e+01 5.594884e+01 2.000000e+00
      vertex   5.194694e+01 5.584871e+01 0.000000e+00
      vertex   5.175218e+01 5.594884e+01 0.000000e+00
    endloop
  endfacet
  facet normal 5.818589e-01 8.132897e-01 0.000000e+00
    outer loop
      vertex   5.175218e+01 5.594884e+01 2.000000e+00
      vertex   5.175218e+01 5.594884e+01 0.000000e+00
      vertex   5.157409e+01 5.607626e+01 2.000000e+00
    endloop
  endfacet
  facet normal 5.818589e-01 8.132897e-01 0.000000e+00
    outer loop
      vertex   5.157409e+01 5.607626e+01 2.000000e+00
      vertex   5.175218e+01 5.594884e+01 0.000000e+00
      vertex   5.157409e+01 5.607626e+01 0.000000e+00
    endloop
  endfacet
  facet normal 6.940742e-01 7.199035e-01 0.000000e+00
    outer loop
      vertex   5.157409e+01 5.607626e+01 2.000000e+00
      vertex   5.157409e+01 5.607626e+01 0.000000e+00
      vertex   5.141644e+01 5.622826e+01 2.000000e+00
    endloop
  endfacet
  facet normal 6.940742e-01 7.199035e-01 0.000000e+00
    outer loop
      vertex   5.141644e+01 5.622826e+01 2.000000e+00
      vertex   5.157409e+01 5.607626e+01 0.000000e+00
      vertex   5.141644e+01 5.622826e+01 0.000000e+00
    endloop
  endfacet
  facet normal 7.914965e-01 6.111737e-01 0.000000e+00
    outer loop
      vertex   5.141644e+01 5.622826e+01 2.000000e+00
      vertex   5.141644e+01 5.622826e+01 0.000000e+00
      vertex   5.128260e+01 5.640158e+01 2.000000e+00
    endloop
  endfacet
  facet normal 7.914965e-01 6.111737e-01 0.000000e+00
    outer loop
      vertex   5.128260e+01 5.640158e+01 2.000000e+00
      vertex   5.141644e+01 5.622826e+01 0.000000e+00
      vertex   5.128260e+01 5.640158e+01 0.000000e+00
    endloop
  endfacet
  facet normal 8.720494e-01 4.894178e-01 0.000000e+00
    outer loop
      vertex   5.128260e+01 5.640158e+01 2.000000e+00
      vertex   5.128260e+01 5.640158e+01 0.000000e+00
      vertex   5.117542e+01 5.659255e+01 2.000000e+00
    endloop
  endfacet
  facet normal 8.720494e-01 4.894178e-01 0.000000e+00
    outer loop
      vertex   5.117542e+01 5.659255e+01 2.000000e+00
      vertex   5.128260e+01 5.640158e+01 0.000000e+00
      vertex   5.117542e+01 5.659255e+01 0.000000e+00
    endloop
  endfacet
  facet normal 9.340161e-01 3.572309e-01 0.000000e+00
    outer loop
      vertex   5.117542e+01 5.659255e+01 2.000000e+00
      vertex   5.117542e+01 5.659255e+01 0.000000e+00
      vertex   5.109719e+01 5.679708e+01 2.000000e+00
    endloop
  endfacet
  facet normal 9.340161e-01 3.572309e-01 0.000000e+00
    outer loop
      vertex   5.109719e+01 5.679708e+01 2.000000e+00
      vertex   5.117542e+01 5.659255e+01 0.000000e+00
      vertex   5.109719e+01 5.679708e+01 0.000000e+00
    endloop
  endfacet
  facet normal 9.760759e-01 2.174302e-01 0.000000e+00
    outer loop
      vertex   5.109719e+01 5.679708e+01 2.000000e+00
      vertex   5.109719e+01 5.679708e+01 0.000000e+00
      vertex   5.104958e+01 5.701083e+01 2.000000e+00
    endloop
  endfacet
  facet normal 9.760759e-01 2.174302e-01 0.000000e+00
    outer loop
      vertex   5.104958e+01 5.701083e+01 2.000000e+00
      vertex   5.109719e+01 5.679708e+01 0.000000e+00
      vertex   5.104958e+01 5.701083e+01 0.000000e+00
    endloop
  endfacet
  facet normal 1.000000e+00 0.000000e+00 0.000000e+00
    outer loop
      vertex   6.003360e+01 5.172923e+01 -3.330669e-15
      vertex   6.003360e+01 6.272923e+01 -2.775558e-15
      vertex   6.003360e+01 5.172923e+01 2.000000e+00
    endloop
  endfacet
  facet normal 1.000000e+00 -0.000000e+00 0.000000e+00
    outer loop
      vertex   6.003360e+01 5.172923e+01 2.000000e+00
      vertex   6.003360e+01 6.272923e+01 -2.775558e-15
      vertex   6.003360e+01 6.272923e+01 2.000000e+00
    endloop
  endfacet
  facet normal 0.000000e+00 0.000000e+00 1.000000e+00
    outer loop
      vertex   5.104958e+01 5.744764e+01 2.000000e+00
      vertex   4.703360e+01 6.272923e+01 2.000000e+00
      vertex   5.103360e+01 5.722923e+01 2.000000e+00
    endloop
  endfacet
  facet normal 0.000000e+00 0.000000e+00 1.000000e+00
    outer loop
      vertex   5.103360e+01 5.722923e+01 2.000000e+00
      vertex   4.703360e+01 6.272923e+01 2.000000e+00
      vertex   4.703360e+01 5.172923e+01 2.000000e+00
    endloop
  endfacet
  facet normal 0.000000e+00 0.000000e+00 1.000000e+00
    outer loop
      vertex   5.103360e+01 5.722923e+01 2.000000e+00
      vertex   4.703360e+01 5.172923e+01 2.000000e+00
      vertex   5.104958e+01 5.701083e+01 2.000000e+00
    endloop
  endfacet
  facet normal 0.000000e+00 0.000000e+00 1.000000e+00
    outer loop
      vertex   5.104958e+01 5.701083e+01 2.000000e+00
      vertex   4.703360e+01 5.172923e+01 2.000000e+00
      vertex   5.109719e+01 5.679708e+01 2.000000e+00
    endloop
  endfacet
  facet normal 0.000000e+00 0.000000e+00 1.000000e+00
    outer loop
      vertex   5.109719e+01 5.679708e+01 2.000000e+00
      vertex   4.703360e+01 5.172923e+01 2.000000e+00
      vertex   5.117542e+01 5.659255e+01 2.000000e+00
    endloop
  endfacet
  facet normal 0.000000e+00 0.000000e+00 1.000000e+00
    outer loop
      vertex   5.117542e+01 5.659255e+01 2.000000e+00
      vertex   4.703360e+01 5.172923e+01 2.000000e+00
      vertex   5.128260e+01 5.640158e+01 2.000000e+00
    endloop
  endfacet
  facet normal 0.000000e+00 0.000000e+00 1.000000e+00
    outer loop
      vertex   5.128260e+01 5.640158e+01 2.000000e+00
      vertex   4.703360e+01 5.172923e+01 2.000000e+00
      vertex   5.141644e+01 5.622826e+01 2.000000e+00
    endloop
  endfacet
  facet normal 0.000000e+00 0.000000e+00 1.000000e+00
    outer loop
      vertex   5.141644e+01 5.622826e+01 2.000000e+00
      vertex   4.703360e+01 5.172923e+01 2.000000e+00
      vertex   5.157409e+01 5.607626e+01 2.000000e+00
    endloop
  endfacet
  facet normal 0.000000e+00 0.000000e+00 1.000000e+00
    outer loop
      vertex   5.157409e+01 5.607626e+01 2.000000e+00
      vertex   4.703360e+01 5.172923e+01 2.000000e+00
      vertex   5.175218e+01 5.594884e+01 2.000000e+00
    endloop
  endfacet
  facet normal 0.000000e+00 0.000000e+00 1.000000e+00
    outer loop
      vertex   5.175218e+01 5.594884e+01 2.000000e+00
      vertex   4.703360e+01 5.172923e+01 2.000000e+00
      vertex   5.194694e+01 5.584871e+01 2.000000e+00
    endloop
  endfacet
  facet normal 0.000000e+00 0.000000e+00 1.000000e+00
    outer loop
      vertex   5.194694e+01 5.584871e+01 2.000000e+00
      vertex   4.703360e+01 5.172923e+01 2.000000e+00
      vertex   5.215420e+01 5.577801e+01 2.000000e+00
    endloop
  endfacet
  facet normal 0.000000e+00 0.000000e+00 1.000000e+00
    outer loop
      vertex   5.215420e+01 5.577801e+01 2.000000e+00
      vertex   4.703360e+01 5.172923e+01 2.000000e+00
      vertex   5.236954e+01 5.573823e+01 2.000000e+00
    endloop
  endfacet
  facet normal 0.000000e+00 0.000000e+00 1.000000e+00
    outer loop
      vertex   5.236954e+01 5.573823e+01 2.000000e+00
      vertex   4.703360e+01 5.172923e+01 2.000000e+00
      vertex   5.258838e+01 5.573023e+01 2.000000e+00
    endloop
  endfacet
  facet normal 4.037175e-17 -5.605005e-17 1.000000e+00
    outer loop
      vertex   5.258838e+01 5.573023e+01 2.000000e+00
      vertex   4.703360e+01 5.172923e+01 2.000000e+00
      vertex   5.803360e+01 5.172923e+01 2.000000e+00
    endloop
  endfacet
  facet normal 1.062221e-17 -9.653809e-17 1.000000e+00
    outer loop
      vertex   5.258838e+01 5.573023e+01 2.000000e+00
      vertex   5.803360e+01 5.172923e+01 2.000000e+00
      vertex   5.280605e+01 5.575418e+01 2.000000e+00
    endloop
  endfacet
  facet normal 2.153348e-17 -8.236670e-17 1.000000e+00
    outer loop
      vertex   5.280605e+01 5.575418e+01 2.000000e+00
      vertex   5.803360e+01 5.172923e+01 2.000000e+00
      vertex   5.301792e+01 5.580957e+01 2.000000e+00
    endloop
  endfacet
  facet normal 3.038061e-17 -7.149154e-17 1.000000e+00
    outer loop
      vertex   5.301792e+01 5.580957e+01 2.000000e+00
      vertex   5.803360e+01 5.172923e+01 2.000000e+00
      vertex   5.321946e+01 5.589522e+01 2.000000e+00
    endloop
  endfacet
  facet normal 3.815080e-17 -6.251245e-17 1.000000e+00
    outer loop
      vertex   5.321946e+01 5.589522e+01 2.000000e+00
      vertex   5.803360e+01 5.172923e+01 2.000000e+00
      vertex   5.340638e+01 5.600930e+01 2.000000e+00
    endloop
  endfacet
  facet normal 4.545323e-17 -5.461774e-17 1.000000e+00
    outer loop
      vertex   5.340638e+01 5.600930e+01 2.000000e+00
      vertex   5.803360e+01 5.172923e+01 2.000000e+00
      vertex   5.357471e+01 5.614938e+01 2.000000e+00
    endloop
  endfacet
  facet normal 5.274622e-17 -4.726082e-17 1.000000e+00
    outer loop
      vertex   5.357471e+01 5.614938e+01 2.000000e+00
      vertex   5.803360e+01 5.172923e+01 2.000000e+00
      vertex   5.372084e+01 5.631247e+01 2.000000e+00
    endloop
  endfacet
  facet normal 6.046145e-17 -4.000092e-17 1.000000e+00
    outer loop
      vertex   5.372084e+01 5.631247e+01 2.000000e+00
      vertex   5.803360e+01 5.172923e+01 2.000000e+00
      vertex   5.384167e+01 5.649511e+01 2.000000e+00
    endloop
  endfacet
  facet normal 6.910738e-17 -3.239621e-17 1.000000e+00
    outer loop
      vertex   5.384167e+01 5.649511e+01 2.000000e+00
      vertex   5.803360e+01 5.172923e+01 2.000000e+00
      vertex   5.393462e+01 5.669339e+01 2.000000e+00
    endloop
  endfacet
  facet normal 7.940846e-17 -2.389045e-17 1.000000e+00
    outer loop
      vertex   5.393462e+01 5.669339e+01 2.000000e+00
      vertex   5.803360e+01 5.172923e+01 2.000000e+00
      vertex   5.399771e+01 5.690309e+01 2.000000e+00
    endloop
  endfacet
  facet normal -2.220446e-16 -2.590401e-16 1.000000e+00
    outer loop
      vertex   5.399771e+01 5.690309e+01 2.000000e+00
      vertex   5.803360e+01 5.172923e+01 2.000000e+00
      vertex   6.003360e+01 5.172923e+01 2.000000e+00
    endloop
  endfacet
  facet normal -0.000000e+00 0.000000e+00 1.000000e+00
    outer loop
      vertex   5.399771e+01 5.690309e+01 2.000000e+00
      vertex   6.003360e+01 5.172923e+01 2.000000e+00
      vertex   5.402959e+01 5.711974e+01 2.000000e+00
    endloop
  endfacet
  facet normal -0.000000e+00 0.000000e+00 1.000000e+00
    outer loop
      vertex   5.402959e+01 5.711974e+01 2.000000e+00
      vertex   6.003360e+01 5.172923e+01 2.000000e+00
      vertex   5.402959e+01 5.733873e+01 2.000000e+00
    endloop
  endfacet
  facet normal -0.000000e+00 0.000000e+00 1.000000e+00
    outer loop
      vertex   5.402959e+01 5.733873e+01 2.000000e+00
      vertex   6.003360e+01 5.172923e+01 2.000000e+00
      vertex   6.003360e+01 6.272923e+01 2.000000e+00
    endloop
  endfacet
  facet normal 0.000000e+00 -0.000000e+00 1.000000e+00
    outer loop
      vertex   5.402959e+01 5.733873e+01 2.000000e+00
      vertex   6.003360e+01 6.272923e+01 2.000000e+00
      vertex   5.399771e+01 5.755538e+01 2.000000e+00
    endloop
  endfacet
  facet normal 4.440892e-16 -5.180802e-16 1.000000e+00
    outer loop
      vertex   5.399771e+01 5.755538e+01 2.000000e+00
      vertex   6.003360e+01 6.272923e+01 2.000000e+00
      vertex   5.803360e+01 6.272923e+01 2.000000e+00
    endloop
  endfacet
  facet normal -1.588169e-16 -4.778089e-17 1.000000e+00
    outer loop
      vertex   5.399771e+01 5.755538e+01 2.000000e+00
      vertex   5.803360e+01 6.272923e+01 2.000000e+00
      vertex   5.393462e+01 5.776508e+01 2.000000e+00
    endloop
  endfacet
  facet normal -1.382148e-16 -6.479241e-17 1.000000e+00
    outer loop
      vertex   5.393462e+01 5.776508e+01 2.000000e+00
      vertex   5.803360e+01 6.272923e+01 2.000000e+00
      vertex   5.384167e+01 5.796336e+01 2.000000e+00
    endloop
  endfacet
  facet normal -1.209229e-16 -8.000183e-17 1.000000e+00
    outer loop
      vertex   5.384167e+01 5.796336e+01 2.000000e+00
      vertex   5.803360e+01 6.272923e+01 2.000000e+00
      vertex   5.372084e+01 5.814599e+01 2.000000e+00
    endloop
  endfacet
  facet normal -1.054924e-16 -9.452164e-17 1.000000e+00
    outer loop
      vertex   5.372084e+01 5.814599e+01 2.000000e+00
      vertex   5.803360e+01 6.272923e+01 2.000000e+00
      vertex   5.357471e+01 5.830909e+01 2.000000e+00
    endloop
  endfacet
  facet normal -9.090646e-17 -1.092355e-16 1.000000e+00
    outer loop
      vertex   5.357471e+01 5.830909e+01 2.000000e+00
      vertex   5.803360e+01 6.272923e+01 2.000000e+00
      vertex   5.340638e+01 5.844917e+01 2.000000e+00
    endloop
  endfacet
  facet normal -7.630160e-17 -1.250249e-16 1.000000e+00
    outer loop
      vertex   5.340638e+01 5.844917e+01 2.000000e+00
      vertex   5.803360e+01 6.272923e+01 2.000000e+00
      vertex   5.321946e+01 5.856325e+01 2.000000e+00
    endloop
  endfacet
  facet normal -6.076122e-17 -1.429831e-16 1.000000e+00
    outer loop
      vertex   5.321946e+01 5.856325e+01 2.000000e+00
      vertex   5.803360e+01 6.272923e+01 2.000000e+00
      vertex   5.301792e+01 5.864889e+01 2.000000e+00
    endloop
  endfacet
  facet normal -4.306696e-17 -1.647334e-16 1.000000e+00
    outer loop
      vertex   5.301792e+01 5.864889e+01 2.000000e+00
      vertex   5.803360e+01 6.272923e+01 2.000000e+00
      vertex   5.280605e+01 5.870428e+01 2.000000e+00
    endloop
  endfacet
  facet normal -2.124442e-17 -1.930762e-16 1.000000e+00
    outer loop
      vertex   5.280605e+01 5.870428e+01 2.000000e+00
      vertex   5.803360e+01 6.272923e+01 2.000000e+00
      vertex   5.258838e+01 5.872823e+01 2.000000e+00
    endloop
  endfacet
  facet normal -8.074349e-17 -1.121001e-16 1.000000e+00
    outer loop
      vertex   5.258838e+01 5.872823e+01 2.000000e+00
      vertex   5.803360e+01 6.272923e+01 2.000000e+00
      vertex   4.703360e+01 6.272923e+01 2.000000e+00
    endloop
  endfacet
  facet normal 0.000000e+00 0.000000e+00 1.000000e+00
    outer loop
      vertex   5.258838e+01 5.872823e+01 2.000000e+00
      vertex   4.703360e+01 6.272923e+01 2.000000e+00
      vertex   5.236954e+01 5.872023e+01 2.000000e+00
    endloop
  endfacet
  facet normal 0.000000e+00 0.000000e+00 1.000000e+00
    outer loop
      vertex   5.236954e+01 5.872023e+01 2.000000e+00
      vertex   4.703360e+01 6.272923e+01 2.000000e+00
      vertex   5.215420e+01 5.868046e+01 2.000000e+00
    endloop
  endfacet
  facet normal 0.000000e+00 0.000000e+00 1.000000e+00
    outer loop
      vertex   5.215420e+01 5.868046e+01 2.000000e+00
      vertex   4.703360e+01 6.272923e+01 2.000000e+00
      vertex   5.194694e+01 5.860975e+01 2.000000e+00
    endloop
  endfacet
  facet normal 0.000000e+00 0.000000e+00 1.000000e+00
    outer loop
      vertex   5.194694e+01 5.860975e+01 2.000000e+00
      vertex   4.703360e+01 6.272923e+01 2.000000e+00
      vertex   5.175218e+01 5.850962e+01 2.000000e+00
    endloop
  endfacet
  facet normal 0.000000e+00 0.000000e+00 1.000000e+00
    outer loop
      vertex   5.175218e+01 5.850962e+01 2.000000e+00
      vertex   4.703360e+01 6.272923e+01 2.000000e+00
      vertex   5.157409e+01 5.838220e+01 2.000000e+00
    endloop
  endfacet
  facet normal 0.000000e+00 0.000000e+00 1.000000e+00
    outer loop
      vertex   5.157409e+01 5.838220e+01 2.000000e+00
      vertex   4.703360e+01 6.272923e+01 2.000000e+00
      vertex   5.141644e+01 5.823021e+01 2.000000e+00
    endloop
  endfacet
  facet normal 0.000000e+00 0.000000e+00 1.000000e+00
    outer loop
      vertex   5.141644e+01 5.823021e+01 2.000000e+00
      vertex   4.703360e+01 6.272923e+01 2.000000e+00
      vertex   5.128260e+01 5.805689e+01 2.000000e+00
    endloop
  endfacet
  facet normal 0.000000e+00 0.000000e+00 1.000000e+00
    outer loop
      vertex   5.128260e+01 5.805689e+01 2.000000e+00
      vertex   4.703360e+01 6.272923e+01 2.000000e+00
      vertex   5.117542e+01 5.786592e+01 2.000000e+00
    endloop
  endfacet
  facet normal 0.000000e+00 0.000000e+00 1.000000e+00
    outer loop
      vertex   5.117542e+01 5.786592e+01 2.000000e+00
      vertex   4.703360e+01 6.272923e+01 2.000000e+00
      vertex   5.109719e+01 5.766138e+01 2.000000e+00
    endloop
  endfacet
  facet normal 0.000000e+00 0.000000e+00 1.000000e+00
    outer loop
      vertex   5.109719e+01 5.766138e+01 2.000000e+00
      vertex   4.703360e+01 6.272923e+01 2.000000e+00
      vertex   5.104958e+01 5.744764e+01 2.000000e+00
    endloop
  endfacet
  facet normal -0.000000e+00 0.000000e+00 -1.000000e+00
    outer loop
      vertex   5.104958e+01 5.701083e+01 0.000000e+00
      vertex   4.503360e+01 4.972923e+01 0.000000e+00
      vertex   5.103360e+01 5.722923e+01 0.000000e+00
    endloop
  endfacet
  facet normal -0.000000e+00 0.000000e+00 -1.000000e+00
    outer loop
      vertex   5.103360e+01 5.722923e+01 0.000000e+00
      vertex   4.503360e+01 4.972923e+01 0.000000e+00
      vertex   4.503360e+01 6.472923e+01 0.000000e+00
    endloop
  endfacet
  facet normal 0.000000e+00 0.000000e+00 -1.000000e+00
    outer loop
      vertex   5.103360e+01 5.722923e+01 0.000000e+00
      vertex   4.503360e+01 6.472923e+01 0.000000e+00
      vertex   5.104958e+01 5.744764e+01 0.000000e+00
    endloop
  endfacet
  facet normal 0.000000e+00 0.000000e+00 -1.000000e+00
    outer loop
      vertex   5.104958e+01 5.744764e+01 0.000000e+00
      vertex   4.503360e+01 6.472923e+01 0.000000e+00
      vertex   5.109719e+01 5.766138e+01 0.000000e+00
    endloop
  endfacet
  facet normal 0.000000e+00 0.000000e+00 -1.000000e+00
    outer loop
      vertex   5.109719e+01 5.766138e+01 0.000000e+00
      vertex   4.503360e+01 6.472923e+01 0.000000e+00
      vertex   5.117542e+01 5.786592e+01 0.000000e+00
    endloop
  endfacet
  facet normal 0.000000e+00 0.000000e+00 -1.000000e+00
    outer loop
      vertex   5.117542e+01 5.786592e+01 0.000000e+00
      vertex   4.503360e+01 6.472923e+01 0.000000e+00
      vertex   5.128260e+01 5.805689e+01 0.000000e+00
    endloop
  endfacet
  facet normal 0.000000e+00 0.000000e+00 -1.000000e+00
    outer loop
      vertex   5.128260e+01 5.805689e+01 0.000000e+00
      vertex   4.503360e+01 6.472923e+01 0.000000e+00
      vertex   5.141644e+01 5.823021e+01 0.000000e+00
    endloop
  endfacet
  facet normal 0.000000e+00 0.000000e+00 -1.000000e+00
    outer loop
      vertex   5.141644e+01 5.823021e+01 0.000000e+00
      vertex   4.503360e+01 6.472923e+01 0.000000e+00
      vertex   5.157409e+01 5.838220e+01 0.000000e+00
    endloop
  endfacet
  facet normal 0.000000e+00 0.000000e+00 -1.000000e+00
    outer loop
      vertex   5.157409e+01 5.838220e+01 0.000000e+00
      vertex   4.503360e+01 6.472923e+01 0.000000e+00
      vertex   5.175218e+01 5.850962e+01 0.000000e+00
    endloop
  endfacet
  facet normal 0.000000e+00 0.000000e+00 -1.000000e+00
    outer loop
      vertex   5.175218e+01 5.850962e+01 0.000000e+00
      vertex   4.503360e+01 6.472923e+01 0.000000e+00
      vertex   5.194694e+01 5.860975e+01 0.000000e+00
    endloop
  endfacet
  facet normal 0.000000e+00 0.000000e+00 -1.000000e+00
    outer loop
      vertex   5.194694e+01 5.860975e+01 0.000000e+00
      vertex   4.503360e+01 6.472923e+01 0.000000e+00
      vertex   5.215420e+01 5.868046e+01 0.000000e+00
    endloop
  endfacet
  facet normal 0.000000e+00 0.000000e+00 -1.000000e+00
    outer loop
      vertex   5.215420e+01 5.868046e+01 0.000000e+00
      vertex   4.503360e+01 6.472923e+01 0.000000e+00
      vertex   5.236954e+01 5.872023e+01 0.000000e+00
    endloop
  endfacet
  facet normal 0.000000e+00 0.000000e+00 -1.000000e+00
    outer loop
      vertex   5.236954e+01 5.872023e+01 0.000000e+00
      vertex   4.503360e+01 6.472923e+01 0.000000e+00
      vertex   5.258838e+01 5.872823e+01 0.000000e+00
    endloop
  endfacet
  facet normal -1.110223e-16 -1.397683e-16 -1.000000e+00
    outer loop
      vertex   5.258838e+01 5.872823e+01 0.000000e+00
      vertex   4.503360e+01 6.472923e+01 0.000000e+00
      vertex   6.003360e+01 6.472923e+01 -1.665335e-15
    endloop
  endfacet
  facet normal -2.686706e-17 -2.441765e-16 -1.000000e+00
    outer loop
      vertex   5.258838e+01 5.872823e+01 0.000000e+00
      vertex   6.003360e+01 6.472923e+01 -1.665335e-15
      vertex   5.280605e+01 5.870428e+01 0.000000e+00
    endloop
  endfacet
  facet normal -5.501000e-17 -2.104162e-16 -1.000000e+00
    outer loop
      vertex   5.280605e+01 5.870428e+01 0.000000e+00
      vertex   6.003360e+01 6.472923e+01 -1.665335e-15
      vertex   5.301792e+01 5.864889e+01 0.000000e+00
    endloop
  endfacet
  facet normal -7.184766e-16 5.551115e-16 -1.000000e+00
    outer loop
      vertex   5.301792e+01 5.864889e+01 0.000000e+00
      vertex   6.003360e+01 6.472923e+01 -1.665335e-15
      vertex   6.003360e+01 6.272923e+01 -2.775558e-15
    endloop
  endfacet
  facet normal -1.670260e-16 -3.930449e-16 -1.000000e+00
    outer loop
      vertex   5.301792e+01 5.864889e+01 0.000000e+00
      vertex   6.003360e+01 6.272923e+01 -2.775558e-15
      vertex   5.321946e+01 5.856325e+01 0.000000e+00
    endloop
  endfacet
  facet normal -2.034812e-16 -3.334166e-16 -1.000000e+00
    outer loop
      vertex   5.321946e+01 5.856325e+01 0.000000e+00
      vertex   6.003360e+01 6.272923e+01 -2.775558e-15
      vertex   5.340638e+01 5.844917e+01 0.000000e+00
    endloop
  endfacet
  facet normal -2.358114e-16 -2.833568e-16 -1.000000e+00
    outer loop
      vertex   5.340638e+01 5.844917e+01 0.000000e+00
      vertex   6.003360e+01 6.272923e+01 -2.775558e-15
      vertex   5.357471e+01 5.830909e+01 0.000000e+00
    endloop
  endfacet
  facet normal -2.663848e-16 -2.386818e-16 -1.000000e+00
    outer loop
      vertex   5.357471e+01 5.830909e+01 0.000000e+00
      vertex   6.003360e+01 6.272923e+01 -2.775558e-15
      vertex   5.372084e+01 5.814599e+01 0.000000e+00
    endloop
  endfacet
  facet normal -2.970100e-16 -1.964999e-16 -1.000000e+00
    outer loop
      vertex   5.372084e+01 5.814599e+01 0.000000e+00
      vertex   6.003360e+01 6.272923e+01 -2.775558e-15
      vertex   5.384167e+01 5.796336e+01 0.000000e+00
    endloop
  endfacet
  facet normal -3.294010e-16 -1.544168e-16 -1.000000e+00
    outer loop
      vertex   5.384167e+01 5.796336e+01 0.000000e+00
      vertex   6.003360e+01 6.272923e+01 -2.775558e-15
      vertex   5.393462e+01 5.776508e+01 0.000000e+00
    endloop
  endfacet
  facet normal -3.655673e-16 -1.099828e-16 -1.000000e+00
    outer loop
      vertex   5.393462e+01 5.776508e+01 0.000000e+00
      vertex   6.003360e+01 6.272923e+01 -2.775558e-15
      vertex   5.399771e+01 5.755538e+01 0.000000e+00
    endloop
  endfacet
  facet normal -4.083312e-16 -6.009389e-17 -1.000000e+00
    outer loop
      vertex   5.399771e+01 5.755538e+01 0.000000e+00
      vertex   6.003360e+01 6.272923e+01 -2.775558e-15
      vertex   5.402959e+01 5.733873e+01 0.000000e+00
    endloop
  endfacet
  facet normal -5.075928e-16 5.046468e-17 -1.000000e+00
    outer loop
      vertex   5.402959e+01 5.733873e+01 0.000000e+00
      vertex   6.003360e+01 6.272923e+01 -2.775558e-15
      vertex   6.003360e+01 5.172923e+01 -3.330669e-15
    endloop
  endfacet
  facet normal -5.547415e-16 -0.000000e+00 -1.000000e+00
    outer loop
      vertex   5.402959e+01 5.733873e+01 0.000000e+00
      vertex   6.003360e+01 5.172923e+01 -3.330669e-15
      vertex   5.402959e+01 5.711974e+01 0.000000e+00
    endloop
  endfacet
  facet normal -4.899974e-16 7.211267e-17 -1.000000e+00
    outer loop
      vertex   5.402959e+01 5.711974e+01 0.000000e+00
      vertex   6.003360e+01 5.172923e+01 -3.330669e-15
      vertex   5.399771e+01 5.690309e+01 0.000000e+00
    endloop
  endfacet
  facet normal -4.386807e-16 1.319794e-16 -1.000000e+00
    outer loop
      vertex   5.399771e+01 5.690309e+01 0.000000e+00
      vertex   6.003360e+01 5.172923e+01 -3.330669e-15
      vertex   5.393462e+01 5.669339e+01 0.000000e+00
    endloop
  endfacet
  facet normal -3.952812e-16 1.853002e-16 -1.000000e+00
    outer loop
      vertex   5.393462e+01 5.669339e+01 0.000000e+00
      vertex   6.003360e+01 5.172923e+01 -3.330669e-15
      vertex   5.384167e+01 5.649511e+01 0.000000e+00
    endloop
  endfacet
  facet normal -3.564120e-16 2.357999e-16 -1.000000e+00
    outer loop
      vertex   5.384167e+01 5.649511e+01 0.000000e+00
      vertex   6.003360e+01 5.172923e+01 -3.330669e-15
      vertex   5.372084e+01 5.631247e+01 0.000000e+00
    endloop
  endfacet
  facet normal -3.196617e-16 2.864181e-16 -1.000000e+00
    outer loop
      vertex   5.372084e+01 5.631247e+01 0.000000e+00
      vertex   6.003360e+01 5.172923e+01 -3.330669e-15
      vertex   5.357471e+01 5.614938e+01 0.000000e+00
    endloop
  endfacet
  facet normal -2.829736e-16 3.400282e-16 -1.000000e+00
    outer loop
      vertex   5.357471e+01 5.614938e+01 0.000000e+00
      vertex   6.003360e+01 5.172923e+01 -3.330669e-15
      vertex   5.340638e+01 5.600930e+01 0.000000e+00
    endloop
  endfacet
  facet normal -2.441774e-16 4.000999e-16 -1.000000e+00
    outer loop
      vertex   5.340638e+01 5.600930e+01 0.000000e+00
      vertex   6.003360e+01 5.172923e+01 -3.330669e-15
      vertex   5.321946e+01 5.589522e+01 0.000000e+00
    endloop
  endfacet
  facet normal -2.004312e-16 4.716539e-16 -1.000000e+00
    outer loop
      vertex   5.321946e+01 5.589522e+01 0.000000e+00
      vertex   6.003360e+01 5.172923e+01 -3.330669e-15
      vertex   5.301792e+01 5.580957e+01 0.000000e+00
    endloop
  endfacet
  facet normal -1.039742e-15 -9.714451e-16 -1.000000e+00
    outer loop
      vertex   5.301792e+01 5.580957e+01 0.000000e+00
      vertex   6.003360e+01 5.172923e+01 -3.330669e-15
      vertex   6.003360e+01 4.972923e+01 -1.387779e-15
    endloop
  endfacet
  facet normal -4.584167e-17 1.753468e-16 -1.000000e+00
    outer loop
      vertex   5.301792e+01 5.580957e+01 0.000000e+00
      vertex   6.003360e+01 4.972923e+01 -1.387779e-15
      vertex   5.280605e+01 5.575418e+01 0.000000e+00
    endloop
  endfacet
  facet normal -2.238921e-17 2.034804e-16 -1.000000e+00
    outer loop
      vertex   5.280605e+01 5.575418e+01 0.000000e+00
      vertex   6.003360e+01 4.972923e+01 -1.387779e-15
      vertex   5.258838e+01 5.573023e+01 0.000000e+00
    endloop
  endfacet
  facet normal -9.251859e-17 1.164735e-16 -1.000000e+00
    outer loop
      vertex   5.258838e+01 5.573023e+01 0.000000e+00
      vertex   6.003360e+01 4.972923e+01 -1.387779e-15
      vertex   4.503360e+01 4.972923e+01 0.000000e+00
    endloop
  endfacet
  facet normal -0.000000e+00 0.000000e+00 -1.000000e+00
    outer loop
      vertex   5.258838e+01 5.573023e+01 0.000000e+00
      vertex   4.503360e+01 4.972923e+01 0.000000e+00
      vertex   5.236954e+01 5.573823e+01 0.000000e+00
    endloop
  endfacet
  facet normal -0.000000e+00 0.000000e+00 -1.000000e+00
    outer loop
      vertex   5.236954e+01 5.573823e+01 0.000000e+00
      vertex   4.503360e+01 4.972923e+01 0.000000e+00
      vertex   5.215420e+01 5.577801e+01 0.000000e+00
    endloop
  endfacet
  facet normal -0.000000e+00 0.000000e+00 -1.000000e+00
    outer loop
      vertex   5.215420e+01 5.577801e+01 0.000000e+00
      vertex   4.503360e+01 4.972923e+01 0.000000e+00
      vertex   5.194694e+01 5.584871e+01 0.000000e+00
    endloop
  endfacet
  facet normal -0.000000e+00 0.000000e+00 -1.000000e+00
    outer loop
      vertex   5.194694e+01 5.584871e+01 0.000000e+00
      vertex   4.503360e+01 4.972923e+01 0.000000e+00
      vertex   5.175218e+01 5.594884e+01 0.000000e+00
    endloop
  endfacet
  facet normal -0.000000e+00 0.000000e+00 -1.000000e+00
    outer loop
      vertex   5.175218e+01 5.594884e+01 0.000000e+00
      vertex   4.503360e+01 4.972923e+01 0.000000e+00
      vertex   5.157409e+01 5.607626e+01 0.000000e+00
    endloop
  endfacet
  facet normal -0.000000e+00 0.000000e+00 -1.000000e+00
    outer loop
      vertex   5.157409e+01 5.607626e+01 0.000000e+00
      vertex   4.503360e+01 4.972923e+01 0.000000e+00
      vertex   5.141644e+01 5.622826e+01 0.000000e+00
    endloop
  endfacet
  facet normal -0.000000e+00 0.000000e+00 -1.000000e+00
    outer loop
      vertex   5.141644e+01 5.622826e+01 0.000000e+00
      vertex   4.503360e+01 4.972923e+01 0.000000e+00
      vertex   5.128260e+01 5.640158e+01 0.000000e+00
    endloop
  endfacet
  facet normal -0.000000e+00 0.000000e+00 -1.000000e+00
    outer loop
      vertex   5.128260e+01 5.640158e+01 0.000000e+00
      vertex   4.503360e+01 4.972923e+01 0.000000e+00
      vertex   5.117542e+01 5.659255e+01 0.000000e+00
    endloop
  endfacet
  facet normal -0.000000e+00 0.000000e+00 -1.000000e+00
    outer loop
      vertex   5.117542e+01 5.659255e+01 0.000000e+00
      vertex   4.503360e+01 4.972923e+01 0.000000e+00
      vertex   5.109719e+01 5.679708e+01 0.000000e+00
    endloop
  endfacet
  facet normal -0.000000e+00 0.000000e+00 -1.000000e+00
    outer loop
      vertex   5.109719e+01 5.679708e+01 0.000000e+00
      vertex   4.503360e+01 4.972923e+01 0.000000e+00
      vertex   5.104958e+01 5.701083e+01 0.000000e+00
    endloop
  endfacet
endsolid
