0
SECTION
2
HEADER
9
$INSUNITS
70
4
9
$ACADVER
1
AC1014
9
$HANDSEED
5
FFFF
0
ENDSEC
0
SECTION
2
TABLES
0
TABLE
2
VPORT
5
8
100
AcDbSymbolTable
0
ENDTAB
0
TABLE
2
LTYPE
5
5
100
AcDbSymbolTable
0
LTYPE
5
14
100
AcDbSymbolTableRecord
100
AcDbLinetypeTableRecord
2
BYBLOCK
70
0
0
LTYPE
5
15
100
AcDbSymbolTableRecord
100
AcDbLinetypeTableRecord
2
BYLAYER
70
0
0
ENDTAB
0
TABLE
2
LAYER
5
2
100
AcDbSymbolTable
70
2
0
LAYER
5
50
100
AcDbSymbolTableRecord
100
AcDbLayerTableRecord
2
0
70
0
6
CONTINUOUS
0
ENDTAB
0
TABLE
2
STYLE
5
3
100
AcDbSymbolTable
70
1
0
STYLE
5
11
100
AcDbSymbolTableRecord
100
AcDbTextStyleTableRecord
2
STANDARD
70
0
0
ENDTAB
0
TABLE
2
VIEW
5
6
100
AcDbSymbolTable
70
0
0
ENDTAB
0
TABLE
2
UCS
5
7
100
AcDbSymbolTable
70
0
0
ENDTAB
0
TABLE
2
APPID
5
9
100
AcDbSymbolTable
70
2
0
APPID
5
12
100
AcDbSymbolTableRecord
100
AcDbRegAppTableRecord
2
ACAD
70
0
0
ENDTAB
0
TABLE
2
DIMSTYLE
5
A
100
AcDbSymbolTable
70
1
0
ENDTAB
0
TABLE
2
BLOCK_RECORD
5
1
100
AcDbSymbolTable
70
1
0
BLOCK_RECORD
5
1F
100
AcDbSymbolTableRecord
100
AcDbBlockTableRecord
2
*MODEL_SPACE
0
BLOCK_RECORD
5
1B
100
AcDbSymbolTableRecord
100
AcDbBlockTableRecord
2
*PAPER_SPACE
0
ENDTAB
0
ENDSEC
0
SECTION
2
BLOCKS
0
BLOCK
5
20
100
AcDbEntity
100
AcDbBlockBegin
2
*MODEL_SPACE
0
ENDBLK
5
21
100
AcDbEntity
100
AcDbBlockEnd
0
BLOCK
5
1C
100
AcDbEntity
100
AcDbBlockBegin
2
*PAPER_SPACE
0
ENDBLK
5
1D
100
AcDbEntity
100
AcDbBlockEnd
0
ENDSEC
0
SECTION
2
ENTITIES
0
LWPOLYLINE
5
100
100
AcDbEntity
8
0
100
AcDbPolyline
90
3
70
1
43
0.0
10
190
20
165
10
155
20
215.00000000000003
10
225
20
215.00000000000003
0
LWPOLYLINE
5
101
100
AcDbEntity
8
0
100
AcDbPolyline
90
3
70
1
43
0.0
10
70.265926170713655
20
195.2519001639339
10
91.330219999409479
20
235.2519001639339
10
105.26592617071361
20
195.69892070649703
0
LWPOLYLINE
5
102
100
AcDbEntity
8
0
100
AcDbPolyline
90
3
70
1
43
0.0
10
129.10314084488235
20
171.48816397628218
10
152.43647417821569
20
204.55023633284
10
175.769807511549
20
171.55023633284
0
LWPOLYLINE
5
103
100
AcDbEntity
8
0
100
AcDbPolyline
90
4
70
1
43
0.0
10
191.59999999999999
20
214.54198195605744
10
188.40000000000001
20
214.54198195605744
10
188.40000000000001
20
204.34198195605742
10
191.59999999999999
20
204.34198195605742
0
LWPOLYLINE
5
104
100
AcDbEntity
8
0
100
AcDbPolyline
90
4
70
1
43
0.0
10
150.83647417821567
20
182.18150832837946
10
150.83647417821567
20
171.98150832837945
10
154.03647417821566
20
171.98150832837945
10
154.03647417821566
20
182.18150832837946
0
LINE
5
105
100
AcDbEntity
8
0
100
AcDbLine
10
27.861527464853175
20
187.85232918984553
30
0
11
97.861527464853168
21
187.85232918984553
31
0
0
LINE
5
106
100
AcDbEntity
8
0
100
AcDbLine
10
97.861527464853168
20
187.85232918984553
30
0
11
97.861527464853168
21
167.85232918984553
31
0
0
LINE
5
107
100
AcDbEntity
8
0
100
AcDbLine
10
97.861527464853168
20
167.85232918984553
30
0
11
27.861527464853175
21
167.85232918984553
31
0
0
LINE
5
108
100
AcDbEntity
8
0
100
AcDbLine
10
27.861527464853175
20
167.85232918984553
30
0
11
27.861527464853175
21
187.85232918984553
31
0
0
LINE
5
109
100
AcDbEntity
8
0
100
AcDbLine
10
27.861527464853175
20
177.65232918984555
30
0
11
27.861527464853175
21
187.85232918984553
31
0
0
LINE
5
110
100
AcDbEntity
8
0
100
AcDbLine
10
27.861527464853175
20
187.85232918984553
30
0
11
31.061527464853178
21
187.85232918984559
31
0
0
LINE
5
111
100
AcDbEntity
8
0
100
AcDbLine
10
31.061527464853178
20
187.85232918984559
30
0
11
31.061527464853178
21
177.65232918984555
31
0
0
LINE
5
112
100
AcDbEntity
8
0
100
AcDbLine
10
31.061527464853178
20
177.65232918984555
30
0
11
27.861527464853175
21
177.65232918984555
31
0
0
LWPOLYLINE
5
113
100
AcDbEntity
8
0
100
AcDbPolyline
90
4
70
1
43
0.0
10
40.58152746485316
20
177.65232918984555
10
43.781527464853163
20
177.65232918984555
10
43.781527464853163
20
187.85232918984559
10
40.58152746485316
20
187.85232918984553
0
LWPOLYLINE
5
114
100
AcDbEntity
8
0
100
AcDbPolyline
90
4
70
1
43
0.0
10
53.301527464853145
20
177.65232918984555
10
56.501527464853147
20
177.65232918984555
10
56.501527464853147
20
187.85232918984559
10
53.301527464853145
20
187.85232918984553
0
LWPOLYLINE
5
115
100
AcDbEntity
8
0
100
AcDbPolyline
90
4
70
1
43
0.0
10
66.021527464853136
20
177.65232918984555
10
69.221527464853125
20
177.65232918984555
10
69.221527464853125
20
187.85232918984559
10
66.021527464853136
20
187.85232918984553
0
LWPOLYLINE
5
116
100
AcDbEntity
8
0
100
AcDbPolyline
90
4
70
1
43
0.0
10
78.741527464853107
20
177.65232918984555
10
81.941527464853181
20
177.65232918984555
10
81.941527464853181
20
187.85232918984559
10
78.741527464853107
20
187.85232918984553
0
LINE
5
117
100
AcDbEntity
8
0
100
AcDbLine
10
95.934346703690665
20
178.03226662508263
30
0
11
92.541527464853161
21
178.05232918984547
31
0
0
LINE
5
118
100
AcDbEntity
8
0
100
AcDbLine
10
89.726985212112311
20
189.69154040136209
30
0
11
93.726985212112311
21
189.69154040136209
31
0
0
LINE
5
119
100
AcDbEntity
8
0
100
AcDbLine
10
65.447702844039924
20
305.43174291946576
30
0
11
100.44770284403988
21
296.57843014576991
31
0
0
LINE
5
120
100
AcDbEntity
8
0
100
AcDbLine
10
100.44770284403988
20
296.57843014576991
30
0
11
91.521214465550145
21
246.52806572668655
31
0
0
LINE
5
121
100
AcDbEntity
8
0
100
AcDbLine
10
91.521214465550145
20
246.52806572668655
30
0
11
65.275819874693497
21
235.43174291946573
31
0
0
LWPOLYLINE
5
122
100
AcDbEntity
8
0
100
AcDbPolyline
90
4
70
1
43
0.0
10
88.063846307129154
20
198.63834502621032
10
84.863846307129165
20
198.63834502621029
10
84.863846307129165
20
195.4383450262103
10
88.063846307129154
20
195.4383450262103
0
LINE
5
123
100
AcDbEntity
8
0
100
AcDbLine
10
65.447702844039924
20
305.43174291946576
30
0
11
65.447702844039924
21
235.59066130701436
31
0
0
LWPOLYLINE
5
124
100
AcDbEntity
8
0
100
AcDbPolyline
90
3
70
1
43
0.0
10
60.629479517366178
20
195.2519001639339
10
39.565185688670361
20
235.2519001639339
10
25.629479517366214
20
195.69892070649703
0
LWPOLYLINE
5
125
100
AcDbEntity
8
0
100
AcDbPolyline
90
4
70
1
43
0.0
10
42.831559380950672
20
195.4383450262103
10
42.831559380950672
20
198.63834502621032
10
46.031559380950675
20
198.63834502621029
10
46.031559380950675
20
195.4383450262103
0
LWPOLYLINE
5
126
100
AcDbEntity
8
0
100
AcDbPolyline
90
4
70
1
43
0.0
10
102.73866742561779
20
226.2810571317145
10
102.73866742561779
20
216.08105713171452
10
105.93866742561779
20
216.08105713171452
10
105.93866742561772
20
226.2810571317145
0
LWPOLYLINE
5
127
100
AcDbEntity
8
0
100
AcDbPolyline
90
4
70
1
43
0.0
10
152.73866742561779
20
226.49416985952425
10
149.5386674256178
20
226.49416985952425
10
149.53866742561772
20
216.29416985952423
10
152.73866742561779
20
216.2941698595242
0
LWPOLYLINE
5
128
100
AcDbEntity
8
0
100
AcDbPolyline
90
4
70
1
43
0.0
10
129.44011302742297
20
223.91138168298966
10
126.24011302742304
20
223.91138168298966
10
126.24011302742304
20
203.71138168298967
10
129.44011302742302
20
203.71138168298967
0
LWPOLYLINE
5
129
100
AcDbEntity
8
0
100
AcDbPolyline
90
3
70
1
43
0.0
10
127.73866742561779
20
179.11183945819676
10
92.738667425617791
20
239.73361772310741
10
162.73866742561779
20
239.7336177231075
0
LWPOLYLINE
5
130
100
AcDbEntity
8
0
100
AcDbPolyline
90
4
70
1
43
0.0
10
129.3386999947175
20
236.48697423706091
10
129.33869999471739
20
239.68697423705666
10
126.13869999471738
20
239.68697423706092
10
126.1386999947174
20
236.48697423706093
0
LWPOLYLINE
5
131
100
AcDbEntity
8
0
100
AcDbPolyline
90
4
70
1
43
0.0
10
63.847702844039915
20
235.58803542862108
10
67.047702844039918
20
235.58803542862108
10
67.04770284403989
20
245.78803542862107
10
63.847702844039915
20
245.78803542862107
0
LWPOLYLINE
5
132
100
AcDbEntity
8
0
100
AcDbPolyline
90
4
70
1
43
0.0
10
90.447702844039881
20
299.1079480811116
10
87.345946957377805
20
299.89478378159481
10
86.264743512001985
20
296.88297384242099
10
89.366499398664303
20
296.09613814193756
0
LWPOLYLINE
5
133
100
AcDbEntity
8
0
100
AcDbPolyline
90
4
70
1
43
0.0
10
43.549458730702035
20
299.89478378159481
10
44.630662176077855
20
296.88297384242099
10
41.528906289415524
20
296.09613814193756
10
40.447702844039952
20
299.1079480811116
0
LINE
5
134
100
AcDbEntity
8
0
100
AcDbLine
10
65.447702844039924
20
305.43174291946576
30
0
11
30.447702844039952
21
296.57843014576991
31
0
0
LINE
5
135
100
AcDbEntity
8
0
100
AcDbLine
10
39.374191222529689
20
246.52806572668655
30
0
11
65.619585813386323
21
235.43174291946573
31
0
0
LINE
5
136
100
AcDbEntity
8
0
100
AcDbLine
10
30.447702844039952
20
296.57843014576991
30
0
11
39.374191222529689
21
246.52806572668655
31
0
0
LWPOLYLINE
5
137
100
AcDbEntity
8
0
100
AcDbPolyline
90
3
70
1
43
0.0
10
76.365170147867929
20
212.3134977856916
10
64.698503481201215
20
195.64683111902491
10
53.031836814534579
20
212.31349778569157
0
LWPOLYLINE
5
138
100
AcDbEntity
8
0
100
AcDbPolyline
90
4
70
1
43
0.0
10
63.098503481201256
20
212.3134977856916
10
63.098503481201185
20
202.11349778569158
10
66.29850348120118
20
202.11349778569158
10
66.29850348120118
20
212.3134977856916
0
LINE
5
139
100
AcDbEntity
8
0
100
AcDbLine
10
27.938178267539779
20
7.8523291898455483
30
0
11
47.938178267539783
21
7.8523291898455483
31
0
0
LINE
5
140
100
AcDbEntity
8
0
100
AcDbLine
10
47.938178267539783
20
7.8523291898455483
30
0
11
47.938178267539783
21
157.85232918984553
31
0
0
LINE
5
141
100
AcDbEntity
8
0
100
AcDbLine
10
47.938178267539783
20
157.85232918984553
30
0
11
27.938178267539779
21
157.85232918984553
31
0
0
LINE
5
142
100
AcDbEntity
8
0
100
AcDbLine
10
27.938178267539779
20
157.85232918984553
30
0
11
27.938178267539779
21
7.8523291898455483
31
0
0
SPLINE
5
143
100
AcDbEntity
8
0
100
AcDbSpline
70
4
71
5
72
36
73
30
74
0
42
0.000000001
43
0.0000000001
44
0.0000000001
40
0
40
0
40
0
40
0
40
0
40
0
40
0.040000000000000001
40
0.080000000000000002
40
0.12
40
0.16
40
0.20000000000000001
40
0.24000000000000002
40
0.28000000000000003
40
0.32000000000000001
40
0.35999999999999999
40
0.39999999999999997
40
0.43999999999999995
40
0.47999999999999993
40
0.51999999999999991
40
0.55999999999999994
40
0.59999999999999998
40
0.64000000000000001
40
0.68000000000000005
40
0.72000000000000008
40
0.76000000000000012
40
0.80000000000000016
40
0.84000000000000019
40
0.88000000000000023
40
0.92000000000000026
40
0.9600000000000003
40
1
40
1
40
1
40
1
40
1
40
1
41
1
41
1
41
1
41
1
41
1
41
1
41
1
41
1
41
1
41
1
41
1
41
1
41
1
41
1
41
1
41
1
41
1
41
1
41
1
41
1
41
1
41
1
41
1
41
1
41
1
41
1
41
1
41
1
41
1
41
1
10
27.938178267539779
20
27.852040787792788
30
0
10
26.828098072708389
20
28.500264531485769
30
0
10
24.655486401376557
20
29.65268149619957
30
0
10
21.539197021695244
20
30.949201564965797
30
0
10
17.670340865685802
20
31.811643182466049
30
0
10
13.342631127491023
20
31.463919677919669
30
0
10
9.6125023797142539
20
29.768907076262053
30
0
10
6.6477539639710432
20
26.897326911980578
30
0
10
4.7352673316486307
20
23.160282213987816
30
0
10
4.2583442684234516
20
19.008937322404542
30
0
10
5.556847466690912
20
14.947808331684724
30
0
10
8.8249703860774424
20
11.472547045674675
30
0
10
13.965934034664292
20
8.9891837213128394
30
0
10
20.548973289007762
20
7.7701486540460794
30
0
10
27.942388201553499
20
7.9694652133079273
30
0
10
35.405727631634988
20
9.6232813066226353
30
0
10
42.195095895215474
20
12.654741672690793
30
0
10
47.665409683447265
20
16.874217879871331
30
0
10
51.367689270125396
20
21.981659165576396
30
0
10
53.169923749811126
20
27.560919629110032
30
0
10
53.193423174133024
20
33.124964519493759
30
0
10
51.719336594950946
20
38.168719471898569
30
0
10
49.105593562499941
20
42.220463107220361
30
0
10
45.707400094190767
20
44.890607688192446
30
0
10
41.781583104772352
20
45.932361457042525
30
0
10
37.478747515799064
20
45.21205344630539
30
0
10
33.79789552422649
20
43.181314851610786
30
0
10
30.915291250571837
20
40.836093604892
30
0
10
28.939551318090938
20
38.908126880063655
30
0
10
27.938178267539779
20
37.853022602073054
30
0
0
LINE
5
144
100
AcDbEntity
8
0
100
AcDbLine
10
27.938178267539779
20
7.8523291898455483
30
0
11
47.893064795137377
21
7.8523291898455483
31
0
0
LINE
5
145
100
AcDbEntity
8
0
100
AcDbLine
10
47.893064795137377
20
7.8523291898455483
30
0
11
47.893064795137377
21
4.8523291898455483
31
0
0
LINE
5
146
100
AcDbEntity
8
0
100
AcDbLine
10
47.893064795137377
20
4.8523291898455483
30
0
11
27.938178267539779
21
4.8523291898455483
31
0
0
LINE
5
147
100
AcDbEntity
8
0
100
AcDbLine
10
27.938178267539779
20
4.8523291898455483
30
0
11
27.938178267539779
21
7.8523291898455483
31
0
0
CIRCLE
5
148
100
AcDbEntity
8
0
100
AcDbCircle
10
327.86750619065936
20
110.74099162871151
30
0
40
20
210
0
220
0
230
1
0
LINE
5
149
100
AcDbEntity
8
0
100
AcDbLine
10
317.76750619065928
20
112.34099162871148
30
0
11
337.96750619065932
21
112.34099162871148
31
0
0
LWPOLYLINE
5
150
100
AcDbEntity
8
0
100
AcDbPolyline
90
4
70
1
43
0.0
10
338.55412671965269
20
109.14099162871148
10
338.55412671965269
20
112.34099162871148
10
317.76750619065928
20
112.34099162871148
10
317.76750619065928
20
109.14099162871148
0
LINE
5
151
100
AcDbEntity
8
0
100
AcDbLine
10
182.6418369332759
20
160.00882237744079
30
0
11
380
21
160.00882237744079
31
0
0
CIRCLE
5
152
100
AcDbEntity
8
0
100
AcDbCircle
10
83.434968428383343
20
279.24012015654131
30
0
40
5.0038633558928955
210
0
220
0
230
1
0
LWPOLYLINE
5
153
100
AcDbEntity
8
0
100
AcDbPolyline
90
4
70
1
43
0.0
10
80.44666122359601
20
283.24522885204937
10
75.446615711954593
20
274.24481299857968
10
86.447854018716157
20
275.24497699214623
10
93.447979300804391
20
284.24540253138048
0
LINE
5
154
100
AcDbEntity
8
0
100
AcDbLine
10
92.541527464853161
20
178.05232918984547
30
0
11
92.541527464853232
21
167.85232918984551
31
0
0
LINE
5
155
100
AcDbEntity
8
0
100
AcDbLine
10
95.934346703690665
20
178.03226662508263
30
0
11
95.934346703690665
21
167.85232918984553
31
0
0
LINE
5
156
100
AcDbEntity
8
0
100
AcDbLine
10
27.938178267539779
20
77.869289831379803
30
0
11
32.925272558551384
21
87.831911269759587
31
0
0
LINE
5
157
100
AcDbEntity
8
0
100
AcDbLine
10
32.925272558551384
20
87.831911269759587
30
0
11
37.913321185542699
21
77.852209745840938
31
0
0
LINE
5
158
100
AcDbEntity
8
0
100
AcDbLine
10
37.913321185542699
20
77.852209745840938
30
0
11
42.925106354258425
21
87.864155671225333
31
0
0
LINE
5
159
100
AcDbEntity
8
0
100
AcDbLine
10
42.925106354258425
20
87.864155671225333
30
0
11
47.938178267539783
21
77.834389493371518
31
0
0
LINE
5
160
100
AcDbEntity
8
0
100
AcDbLine
10
65.447702844039924
20
320.24517940335102
30
0
11
65.447702844039924
21
310.24517940335102
31
0
0
LWPOLYLINE
5
161
100
AcDbEntity
8
0
100
AcDbPolyline
90
4
70
1
43
0.0
10
37.447426387275442
20
284.24540253138048
10
50.448744464483823
20
283.24522885204937
10
55.448789976125248
20
274.24481299857968
10
44.447551669363676
20
275.24497699214623
0
CIRCLE
5
162
100
AcDbEntity
8
0
100
AcDbCircle
10
47.460437259696491
20
279.24012015654131
30
0
40
5.0038633558928955
210
0
220
0
230
1
0
CIRCLE
5
163
100
AcDbEntity
8
0
100
AcDbCircle
10
83.434968428383371
20
279.24012015654131
30
0
40
1.9999999999999929
210
0
220
0
230
1
0
CIRCLE
5
164
100
AcDbEntity
8
0
100
AcDbCircle
10
47.460437259696455
20
279.24012015654131
30
0
40
1.9999999999999929
210
0
220
0
230
1
0
CIRCLE
5
165
100
AcDbEntity
8
0
100
AcDbCircle
10
365
20
80
30
0
40
20
210
0
220
0
230
1
0
LWPOLYLINE
5
166
100
AcDbEntity
8
0
100
AcDbPolyline
90
4
70
1
43
0.0
10
375.56063533137348
20
81.599999999999966
10
354.90000000000009
20
81.599999999999966
10
354.89999999999998
20
78.399999999999963
10
375.56063533137348
20
78.399999999999963
0
LINE
5
167
100
AcDbEntity
8
0
100
AcDbLine
10
354.90000000000009
20
81.599999999999966
30
0
11
375.10000000000002
21
81.599999999999966
31
0
0
LINE
5
168
100
AcDbEntity
8
0
100
AcDbLine
10
56.893070591689082
20
140.85233117169997
30
0
11
56.893070591689082
21
150.85233117169994
31
0
0
LINE
5
169
100
AcDbEntity
8
0
100
AcDbLine
10
75.87281999783545
20
77.852209745840938
30
0
11
70.861034829119731
21
87.864155671225333
31
0
0
SPLINE
5
170
100
AcDbEntity
8
0
100
AcDbSpline
70
4
71
5
72
36
73
30
74
0
42
0.000000001
43
0.0000000001
44
0.0000000001
40
0
40
0
40
0
40
0
40
0
40
0
40
0.040000000000000001
40
0.080000000000000002
40
0.12
40
0.16
40
0.20000000000000001
40
0.24000000000000002
40
0.28000000000000003
40
0.32000000000000001
40
0.35999999999999999
40
0.39999999999999997
40
0.43999999999999995
40
0.47999999999999993
40
0.51999999999999991
40
0.55999999999999994
40
0.59999999999999998
40
0.64000000000000001
40
0.68000000000000005
40
0.72000000000000008
40
0.76000000000000012
40
0.80000000000000016
40
0.84000000000000019
40
0.88000000000000023
40
0.92000000000000026
40
0.9600000000000003
40
1
40
1
40
1
40
1
40
1
40
1
41
1
41
1
41
1
41
1
41
1
41
1
41
1
41
1
41
1
41
1
41
1
41
1
41
1
41
1
41
1
41
1
41
1
41
1
41
1
41
1
41
1
41
1
41
1
41
1
41
1
41
1
41
1
41
1
41
1
41
1
10
85.847962915838394
20
27.852040787792788
30
0
10
86.958043110669777
20
28.500264531485769
30
0
10
89.130654782002111
20
29.652681496199577
30
0
10
92.246944161685818
20
30.94920156496584
30
0
10
96.115800317697108
20
31.811643182466163
30
0
10
100.44351005589184
20
31.46391967791984
30
0
10
104.17363880366567
20
29.768907076262142
30
0
10
107.13838721940581
20
26.897326911980524
30
0
10
109.05087385172675
20
23.160282213987635
30
0
10
109.52779691495238
20
19.008937322404361
30
0
10
108.22929371668653
20
14.94780833168463
30
0
10
104.96117079730124
20
11.47254704567473
30
0
10
99.820207148714815
20
8.9891837213130117
30
0
10
93.237167894371225
20
7.7701486540462934
30
0
10
85.843752981824906
20
7.9694652133081059
30
0
10
78.380413551743104
20
9.6232813066227436
30
0
10
71.591045288162604
20
12.654741672690832
30
0
10
66.120731499930955
20
16.874217879871331
30
0
10
62.418451913252696
20
21.981659165576378
30
0
10
60.616217433566781
20
27.560919629110018
30
0
10
60.592718009244784
20
33.124964519493759
30
0
10
62.06680458842709
20
38.168719471898569
30
0
10
64.680547620878258
20
42.220463107220361
30
0
10
68.078741089187417
20
44.890607688192446
30
0
10
72.004558078605569
20
45.932361457042518
30
0
10
76.307393667578921
20
45.212053446305376
30
0
10
79.98824565915163
20
43.181314851610786
30
0
10
82.870849932806351
20
40.836093604892
30
0
10
84.846589865287228
20
38.908126880063655
30
0
10
85.847962915838394
20
37.853022602073054
30
0
0
LINE
5
171
100
AcDbEntity
8
0
100
AcDbLine
10
85.847962915838394
20
77.869289831379803
30
0
11
80.860868624826765
21
87.831911269759587
31
0
0
LWPOLYLINE
5
172
100
AcDbEntity
8
0
100
AcDbPolyline
90
8
70
1
43
0.0
10
65.84796291583838
20
7.8523291898455483
10
85.847962915838394
20
7.8523291898455483
10
85.847962915838394
20
4.8523291898455483
10
65.893076388240786
20
4.8523291898455483
10
65.893076388240786
20
7.8523291898455483
10
85.847962915838394
20
7.8523291898455483
10
85.847962915838394
20
157.85232918984553
10
65.84796291583838
20
157.85232918984553
0
LINE
5
173
100
AcDbEntity
8
0
100
AcDbLine
10
70.861034829119731
20
87.864155671225333
30
0
11
65.84796291583838
21
77.834389493371518
31
0
0
LINE
5
174
100
AcDbEntity
8
0
100
AcDbLine
10
80.860868624826765
20
87.831911269759587
30
0
11
75.87281999783545
21
77.852209745840938
31
0
0
LINE
5
175
100
AcDbEntity
8
0
100
AcDbLine
10
109.73243221046729
20
210.29955370387324
30
0
11
127.70738892976006
21
232.57278067229674
31
0
0
LINE
5
176
100
AcDbEntity
8
0
100
AcDbLine
10
127.70738892976006
20
232.57278067229674
30
0
11
145.72641307897493
21
210.26752884343753
31
0
0
LINE
5
177
100
AcDbEntity
8
0
100
AcDbLine
10
39.374191222529689
20
246.52806572668655
30
0
11
65.447702844039924
21
269.19284609524476
31
0
0
LINE
5
178
100
AcDbEntity
8
0
100
AcDbLine
10
91.521214465550145
20
246.52806572668655
30
0
11
65.447702844039924
21
269.19284609524476
31
0
0
LWPOLYLINE
5
179
100
AcDbEntity
8
0
100
AcDbPolyline
90
4
70
1
43
0.0
10
47.938178267539783
20
155.48279917507779
10
45.675436567742828
20
157.74554087487471
10
38.462947399640058
20
150.53305170677194
10
40.725689099437012
20
148.270310006975
0
LWPOLYLINE
5
180
100
AcDbEntity
8
0
100
AcDbPolyline
90
4
70
1
43
0.0
10
75.32319378373812
20
150.53305170677194
10
73.060452083941158
20
148.270310006975
10
65.847962915838394
20
155.48279917507779
10
68.110704615635342
20
157.74554087487471
0
LINE
5
181
100
AcDbEntity
8
0
100
AcDbLine
10
170
20
9.8070702675700439
30
0
11
380
21
9.8070702675700439
31
0
0
LINE
5
182
100
AcDbEntity
8
0
100
AcDbLine
10
142.94919024802371
20
152.9346572595307
30
0
11
157.09132587175469
21
167.07679288326165
31
0
0
LINE
5
183
100
AcDbEntity
8
0
100
AcDbLine
10
142.94919024802371
20
152.9346572595307
30
0
11
162.92893218813452
21
152.9346572595307
31
0
0
LINE
5
184
100
AcDbEntity
8
0
100
AcDbLine
10
157.09132587175469
20
167.07679288326165
30
0
11
159.21264621531432
21
164.95547253970204
31
0
0
LINE
5
185
100
AcDbEntity
8
0
100
AcDbLine
10
142.94919024802371
20
152.9346572595307
30
0
11
145.07051059158334
21
150.81333691597106
31
0
0
LINE
5
186
100
AcDbEntity
8
0
100
AcDbLine
10
159.21264621531432
20
164.95547253970204
30
0
11
229.73299128261473
21
150.06637625937461
31
0
0
LINE
5
187
100
AcDbEntity
8
0
100
AcDbLine
10
229.73299128261473
20
150.06637625937461
30
0
11
340.05256635371086
21
69.833958025850251
31
0
0
LINE
5
188
100
AcDbEntity
8
0
100
AcDbLine
10
340.05256635371086
20
69.833958025850251
30
0
11
360.06152893980425
21
9.8070702675700439
31
0
0
LINE
5
189
100
AcDbEntity
8
0
100
AcDbLine
10
145.07051059158334
20
150.81333691597106
30
0
11
157.48498166947596
21
96.79013116167539
31
0
0
LINE
5
190
100
AcDbEntity
8
0
100
AcDbLine
10
157.48498166947596
20
96.79013116167539
30
0
11
250.52621941056952
21
9.8070702675700439
31
0
0
LWPOLYLINE
5
191
100
AcDbEntity
8
0
100
AcDbPolyline
90
4
70
1
43
0.0
10
303.03481111824158
20
88.88323456073698
10
303.03481111824158
20
99.083234560736969
10
299.83481111824153
20
99.083234560736969
10
299.83481111824153
20
88.88323456073698
0
LINE
5
192
100
AcDbEntity
8
0
100
AcDbLine
10
175.21131452641436
20
80.218009726501847
30
0
11
185.03412660128473
21
109.99155872267102
31
0
0
LINE
5
193
100
AcDbEntity
8
0
100
AcDbLine
10
185.03412660128473
20
109.99155872267102
30
0
11
145.07051059158334
21
150.81333691597106
31
0
0
LWPOLYLINE
5
194
100
AcDbEntity
8
0
100
AcDbPolyline
90
3
70
1
43
0.0
10
184.70127187575187
20
20
10
114.70127187575194
20
20
10
150
20
40
0
LWPOLYLINE
5
195
100
AcDbEntity
8
0
100
AcDbPolyline
90
4
70
1
43
0.0
10
148.10127187575191
20
30.19999999999996
10
148.10127187575191
20
20
10
151.30127187575192
20
20
10
151.30127187575192
20
30.19999999999996
0
LWPOLYLINE
5
196
100
AcDbEntity
8
0
100
AcDbPolyline
90
4
70
1
43
0.0
10
124.70127187575194
20
23.200000000000003
10
124.70127187575194
20
20
10
127.90127187575195
20
20
10
127.90127187575195
20
23.200000000000003
0
LWPOLYLINE
5
197
100
AcDbEntity
8
0
100
AcDbPolyline
90
4
70
1
43
0.0
10
171.50127187575185
20
20
10
174.70127187575187
20
20
10
174.70127187575187
20
23.200000000000003
10
171.50127187575185
20
23.200000000000003
0
LINE
5
198
100
AcDbEntity
8
0
100
AcDbLine
10
515.32407292060475
20
80.000001192092896
30
0
11
535.48611107895226
21
59.837963166635916
31
0
0
LINE
5
199
100
AcDbEntity
8
0
100
AcDbLine
10
505.00000447034836
20
80.000001192092896
30
0
11
508.20000447034835
21
80.000001192092896
31
0
0
LINE
5
200
100
AcDbEntity
8
0
100
AcDbLine
10
508.20000447034835
20
80.000001192092896
30
0
11
508.20000447034835
21
76.800001192092893
31
0
0
LINE
5
201
100
AcDbEntity
8
0
100
AcDbLine
10
410.38348566121488
20
10.000000000000483
30
0
11
430.33837209413787
21
9.9999999999996287
31
0
0
LINE
5
202
100
AcDbEntity
8
0
100
AcDbLine
10
430.33837209413764
20
7.0000000000004832
30
0
11
410.38348566121488
21
7.0000000000004832
31
0
0
LINE
5
203
100
AcDbEntity
8
0
100
AcDbLine
10
515.32407292060475
20
80.000001192092896
30
0
11
513.86700817254916
21
80.000001192092896
31
0
0
LINE
5
204
100
AcDbEntity
8
0
100
AcDbLine
10
410.38348566121488
20
10.000000000000483
30
0
11
430.38348566121488
21
10.000000000000483
31
0
0
LINE
5
205
100
AcDbEntity
8
0
100
AcDbLine
10
505.00000447034836
20
76.800001192092893
30
0
11
505.00000447034836
21
80.000001192092896
31
0
0
LINE
5
206
100
AcDbEntity
8
0
100
AcDbLine
10
508.20000447034835
20
76.800001192092893
30
0
11
505.00000447034836
21
76.800001192092893
31
0
0
LINE
5
207
100
AcDbEntity
8
0
100
AcDbLine
10
458.38320305907268
20
41.281867671499768
30
0
11
478.2510885306454
21
71.083695878858805
31
0
0
LINE
5
208
100
AcDbEntity
8
0
100
AcDbLine
10
422.9381782675398
20
27.852040787792788
30
0
11
458.38320305907268
21
41.281867671499768
31
0
0
LINE
5
209
100
AcDbEntity
8
0
100
AcDbLine
10
505.00000447034836
20
80.000001192092896
30
0
11
515.32407292060475
21
80.000001192092896
31
0
0
LINE
5
210
100
AcDbEntity
8
0
100
AcDbLine
10
430.33837209413787
20
9.9999999999996287
30
0
11
430.33837209413764
21
7.0000000000004832
31
0
0
LINE
5
211
100
AcDbEntity
8
0
100
AcDbLine
10
478.2510885306454
20
71.083695878858805
30
0
11
505.00000447034836
21
80.000001192092896
31
0
0
LINE
5
212
100
AcDbEntity
8
0
100
AcDbLine
10
535.48611107895226
20
59.837963166635916
30
0
11
545
21
31.296296403492605
31
0
0
LINE
5
213
100
AcDbEntity
8
0
100
AcDbLine
10
410.38348566121488
20
7.0000000000004832
30
0
11
410.38348566121488
21
10.000000000000483
31
0
0
LINE
5
214
100
AcDbEntity
8
0
100
AcDbLine
10
545
20
31.296296403492605
30
0
11
545
21
10
31
0
0
LINE
5
215
100
AcDbEntity
8
0
100
AcDbLine
10
430.38348566121488
20
10.000000000000483
30
0
11
545
21
10
31
0
0
SPLINE
5
216
100
AcDbEntity
8
0
100
AcDbSpline
70
4
71
5
72
26
73
20
74
0
42
0.000000001
43
0.0000000001
44
0.0000000001
40
0
40
0
40
0
40
0
40
0
40
0
40
0.066666666666666666
40
0.13333333333333333
40
0.20000000000000001
40
0.26666666666666666
40
0.33333333333333331
40
0.39999999999999997
40
0.46666666666666662
40
0.53333333333333333
40
0.59999999999999998
40
0.66666666666666663
40
0.73333333333333328
40
0.79999999999999993
40
0.86666666666666659
40
0.93333333333333324
40
1
40
1
40
1
40
1
40
1
40
1
41
1
41
1
41
1
41
1
41
1
41
1
41
1
41
1
41
1
41
1
41
1
41
1
41
1
41
1
41
1
41
1
41
1
41
1
41
1
41
1
10
422.9381782675398
20
27.852040787792788
30
0
10
422.0763201019671
20
28.355316973802722
30
0
10
420.36884935803755
20
29.286110091290109
30
0
10
417.85638098627709
20
30.455023110342275
30
0
10
414.62032838973249
20
31.544248904610871
30
0
10
410.8629125939928
20
32.049145053245695
30
0
10
407.52308427871117
20
31.622717818015978
30
0
10
404.73812715901437
20
30.229812069756971
30
0
10
402.62736971313154
20
27.916790938836357
30
0
10
401.26428119654463
20
24.859876451774344
30
0
10
400.64824048530085
20
21.412391204872023
30
0
10
400.7269590440867
20
18.004521705677615
30
0
10
401.41383456882329
20
15.053717449575267
30
0
10
402.60367250912418
20
12.867616146905032
30
0
10
404.18610983825153
20
11.555892965930521
30
0
10
406.0579861604711
20
10.905829484557836
30
0
10
407.71826615903831
20
10.607294082371613
30
0
10
409.02834389175575
20
10.341463975192672
30
0
10
409.92748000182814
20
10.121022252845142
30
0
10
410.38348566121488
20
10.000000000000483
30
0
0
LINE
5
217
100
AcDbEntity
8
0
100
AcDbLine
10
409.99999999999994
20
39.999999999999993
30
0
11
470
21
80
31
0
0
LINE
5
218
100
AcDbEntity
8
0
100
AcDbLine
10
458.38320305907268
20
41.281867671499768
30
0
11
455.00000678002834
21
35.000000521540642
31
0
0
LINE
5
219
100
AcDbEntity
8
0
100
AcDbLine
10
455.00000678002834
20
35.000000521540642
30
0
11
460.00000685453415
21
33.000000491738319
31
0
0
LINE
5
220
100
AcDbEntity
8
0
100
AcDbLine
10
460.00000685453415
20
33.000000491738319
30
0
11
457.00000680983067
21
26.000000387430191
31
0
0
LINE
5
221
100
AcDbEntity
8
0
100
AcDbLine
10
457.00000680983067
20
26.000000387430191
30
0
11
462.00000688433647
21
23.000000342726707
31
0
0
LINE
5
222
100
AcDbEntity
8
0
100
AcDbLine
10
462.00000688433647
20
23.000000342726707
30
0
11
458.00000682473183
21
16.000000238418579
31
0
0
LINE
5
223
100
AcDbEntity
8
0
100
AcDbLine
10
458.00000682473183
20
16.000000238418579
30
0
11
461.00000686943531
21
12.000000178813934
31
0
0
LINE
5
224
100
AcDbEntity
8
0
100
AcDbLine
10
461.00000686943531
20
12.000000178813934
30
0
11
458.97658551138312
21
10.000000000000242
31
0
0
LINE
5
225
100
AcDbEntity
8
0
100
AcDbLine
10
476.5758548764918
20
148.20334747032675
30
0
11
453.88888898783938
21
167.96296292173363
31
0
0
LINE
5
226
100
AcDbEntity
8
0
100
AcDbLine
10
403.76923357638032
20
97.84616011839654
30
0
11
401.14484058130142
21
96.747617395122901
31
0
0
LINE
5
227
100
AcDbEntity
8
0
100
AcDbLine
10
453.88888898783938
20
167.96296292173363
30
0
11
434.23076923076934
21
176.15384615384619
31
0
0
LINE
5
228
100
AcDbEntity
8
0
100
AcDbLine
10
481.7384643582198
20
116.49231136028583
30
0
11
480.50769512745057
21
113.53846520643968
31
0
0
LINE
5
229
100
AcDbEntity
8
0
100
AcDbLine
10
406.30769515266786
20
93.538467746514613
30
0
11
403.76923357638032
21
97.84616011839654
31
0
0
LINE
5
230
100
AcDbEntity
8
0
100
AcDbLine
10
414.30769527187715
20
94.53846776141576
30
0
11
406.30769515266786
21
93.538467746514613
31
0
0
LINE
5
231
100
AcDbEntity
8
0
100
AcDbLine
10
480.50769512745057
20
113.53846520643968
30
0
11
483.46154128129672
21
112.30769597567044
31
0
0
LINE
5
232
100
AcDbEntity
8
0
100
AcDbLine
10
484.69231051206589
20
115.2615421295166
30
0
11
481.7384643582198
21
116.49231136028583
31
0
0
LINE
5
233
100
AcDbEntity
8
0
100
AcDbLine
10
483.46154128129672
20
112.30769597567044
30
0
11
487.43233683908761
21
121.83760531436859
31
0
0
LINE
5
234
100
AcDbEntity
8
0
100
AcDbLine
10
483.46154128129672
20
112.30769597567044
30
0
11
484.69231051206589
21
115.2615421295166
31
0
0
LINE
5
235
100
AcDbEntity
8
0
100
AcDbLine
10
429.79218671948928
20
84.168392180874903
30
0
11
422.69231078143309
21
83.461544519433659
31
0
0
LINE
5
236
100
AcDbEntity
8
0
100
AcDbLine
10
429.79218671948928
20
84.168392180874903
30
0
11
464.94306101534869
21
91.04573715180392
31
0
0
LINE
5
237
100
AcDbEntity
8
0
100
AcDbLine
10
422.69231078143309
20
83.461544519433659
30
0
11
422.76923385950232
21
88.846159984286075
31
0
0
LINE
5
238
100
AcDbEntity
8
0
100
AcDbLine
10
422.76923385950232
20
88.846159984286075
30
0
11
415.15384913063968
21
88.769236906216776
31
0
0
LINE
5
239
100
AcDbEntity
8
0
100
AcDbLine
10
415.15384913063968
20
88.769236906216776
30
0
11
414.30769527187715
21
94.53846776141576
31
0
0
LINE
5
240
100
AcDbEntity
8
0
100
AcDbLine
10
487.43233683908761
20
121.83760531436859
30
0
11
476.5758548764918
21
148.20334747032675
31
0
0
LINE
5
241
100
AcDbEntity
8
0
100
AcDbLine
10
464.94306101534869
20
91.04573715180392
30
0
11
483.46154128129672
21
112.30769597567044
31
0
0
LINE
5
242
100
AcDbEntity
8
0
100
AcDbLine
10
379.68595602354463
20
53.046294456505919
30
0
11
382.45518679277541
21
51.892448302659773
31
0
0
LINE
5
243
100
AcDbEntity
8
0
100
AcDbLine
10
403.76272159932398
20
56.615225790116511
30
0
11
429.79218671948928
21
84.168392180874903
31
0
0
LINE
5
244
100
AcDbEntity
8
0
100
AcDbLine
10
487.43233683908761
20
121.83760531436859
30
0
11
486.87192732060464
21
120.49262247000968
31
0
0
LINE
5
245
100
AcDbEntity
8
0
100
AcDbLine
10
390.13014311312958
20
70.312343471512136
30
0
11
387.36091234389954
21
71.4661896253577
31
0
0
LINE
5
246
100
AcDbEntity
8
0
100
AcDbLine
10
382.45518679277541
20
51.892448302659773
30
0
11
390.13014311312958
21
70.312343471512136
31
0
0
LINE
5
247
100
AcDbEntity
8
0
100
AcDbLine
10
387.36091234389954
20
71.4661896253577
30
0
11
379.68595602354463
21
53.046294456505919
31
0
0
LINE
5
248
100
AcDbEntity
8
0
100
AcDbLine
10
382.45518679277541
20
51.892448302659773
30
0
11
390.14749448508303
21
70.353986764198226
31
0
0
LINE
5
249
100
AcDbEntity
8
0
100
AcDbLine
10
390.14749448508303
20
70.353986764198226
30
0
11
434.23076923076934
21
176.15384615384619
31
0
0
SPLINE
5
250
100
AcDbEntity
8
0
100
AcDbSpline
70
4
71
5
72
26
73
20
74
0
42
0.000000001
43
0.0000000001
44
0.0000000001
40
0
40
0
40
0
40
0
40
0
40
0
40
0.066666666666666666
40
0.13333333333333333
40
0.20000000000000001
40
0.26666666666666666
40
0.33333333333333331
40
0.39999999999999997
40
0.46666666666666662
40
0.53333333333333333
40
0.59999999999999998
40
0.66666666666666663
40
0.73333333333333328
40
0.79999999999999993
40
0.86666666666666659
40
0.93333333333333324
40
1
40
1
40
1
40
1
40
1
40
1
41
1
41
1
41
1
41
1
41
1
41
1
41
1
41
1
41
1
41
1
41
1
41
1
41
1
41
1
41
1
41
1
41
1
41
1
41
1
41
1
10
403.76272159932398
20
56.615225790116455
30
0
10
403.89580032272829
20
55.626096642660912
30
0
10
404.09827445274374
20
53.69197244923086
30
0
10
404.21093709657634
20
50.923188944893383
30
0
10
403.97174067723023
20
47.517130473364375
30
0
10
402.99263873914708
20
43.854555835514333
30
0
10
401.31446424690364
20
40.935647865727276
30
0
10
398.95756774093502
20
38.900651196876055
30
0
10
396.01064152551487
20
37.841883220261394
30
0
10
392.66460949261659
20
37.759384007666554
30
0
10
389.24537668345909
20
38.516686907634679
30
0
10
386.12992736065877
20
39.900069230819497
30
0
10
383.67029094146301
20
41.669032890615725
30
0
10
382.10998125449851
20
43.608153028843546
30
0
10
381.50778959864795
20
45.573373325335922
30
0
10
381.62768343208074
20
47.551283577143479
30
0
10
381.99068152181928
20
49.198671038200246
30
0
10
382.24917593546849
20
50.510215909623568
30
0
10
382.39151284948321
20
51.424972981362558
30
0
10
382.45518679277541
20
51.892448302659773
30
0
0
LINE
5
251
100
AcDbEntity
8
0
100
AcDbLine
10
150
20
129.36201459191756
30
0
11
150
21
40
31
0
0
LWPOLYLINE
5
252
100
AcDbEntity
8
0
100
AcDbPolyline
90
4
70
1
43
0.0
10
380.97789463211001
20
123.73841714697633
10
380.97789463211001
20
126.93841714697633
10
360.1912741031166
20
126.93841714697633
10
360.1912741031166
20
123.73841714697633
0
LINE
5
253
100
AcDbEntity
8
0
100
AcDbLine
10
360.1912741031166
20
126.93841714697633
30
0
11
380.39127410311664
21
126.93841714697633
31
0
0
CIRCLE
5
254
100
AcDbEntity
8
0
100
AcDbCircle
10
370.29127410311668
20
125.33841714697637
30
0
40
20
210
0
220
0
230
1
0
LWPOLYLINE
5
255
100
AcDbEntity
8
0
100
AcDbPolyline
90
4
70
1
43
0.0
10
279.53591817244683
20
137.26623711370843
10
279.53591817244683
20
134.06623711370841
10
300.32253870144024
20
134.06623711370841
10
300.32253870144024
20
137.26623711370843
0
CIRCLE
5
256
100
AcDbEntity
8
0
100
AcDbCircle
10
289.63591817244685
20
135.66623711370846
30
0
40
20
210
0
220
0
230
1
0
LINE
5
257
100
AcDbEntity
8
0
100
AcDbLine
10
279.53591817244683
20
137.26623711370843
30
0
11
299.73591817244687
21
137.26623711370843
31
0
0
LINE
5
258
100
AcDbEntity
8
0
100
AcDbLine
10
83.434968428383371
20
279.24012015654131
30
0
11
86.038170673143071
21
283.51352471933728
31
0
0
LINE
5
259
100
AcDbEntity
8
0
100
AcDbLine
10
83.434968428383343
20
279.24012015654131
30
0
11
88.275510243863963
21
280.50811204020272
31
0
0
LINE
5
260
100
AcDbEntity
8
0
100
AcDbLine
10
47.460437259696526
20
279.24012015654154
30
0
11
50.063639504456212
21
283.51352471933745
31
0
0
LINE
5
261
100
AcDbEntity
8
0
100
AcDbLine
10
47.460437259696491
20
279.24012015654154
30
0
11
52.300979075177111
21
280.50811204020295
31
0
0
LWPOLYLINE
5
262
100
AcDbEntity
8
0
100
AcDbPolyline
90
4
70
1
43
0.0
10
411.80000000000001
20
185
10
211.80000000000001
20
185
10
211.80000000000001
20
165
10
411.80000000000001
20
165
0
LWPOLYLINE
5
263
100
AcDbEntity
8
0
100
AcDbPolyline
90
4
70
1
43
0.0
10
224.60000000000002
20
185.00000275671482
10
221.40000000000001
20
185.00000275671482
10
221.40000000000001
20
174.80000275671483
10
224.60000000000002
20
174.80000275671483
0
LWPOLYLINE
5
264
100
AcDbEntity
8
0
100
AcDbPolyline
90
4
70
1
43
0.0
10
237.40000000000003
20
174.80000275671483
10
237.40000000000003
20
185.00000275671482
10
234.20000000000002
20
185.00000275671482
10
234.20000000000002
20
174.80000275671483
0
LWPOLYLINE
5
265
100
AcDbEntity
8
0
100
AcDbPolyline
90
4
70
1
43
0.0
10
250.20000000000005
20
174.80000275671483
10
250.20000000000005
20
185.00000275671482
10
247.00000000000003
20
185.00000275671482
10
247.00000000000003
20
174.80000275671483
0
LWPOLYLINE
5
266
100
AcDbEntity
8
0
100
AcDbPolyline
90
4
70
1
43
0.0
10
263
20
174.80000275671483
10
263
20
185.00000275671482
10
259.80000000000001
20
185.00000275671482
10
259.80000000000001
20
174.80000275671483
0
LWPOLYLINE
5
267
100
AcDbEntity
8
0
100
AcDbPolyline
90
4
70
1
43
0.0
10
275.80000000000001
20
174.80000275671483
10
275.80000000000001
20
185.00000275671482
10
272.60000000000002
20
185.00000275671482
10
272.60000000000002
20
174.80000275671483
0
LWPOLYLINE
5
268
100
AcDbEntity
8
0
100
AcDbPolyline
90
4
70
1
43
0.0
10
288.60000000000002
20
174.80000275671483
10
288.60000000000002
20
185.00000275671482
10
285.40000000000003
20
185.00000275671482
10
285.40000000000003
20
174.80000275671483
0
LWPOLYLINE
5
269
100
AcDbEntity
8
0
100
AcDbPolyline
90
4
70
1
43
0.0
10
301.39999999999998
20
174.80000275671483
10
301.39999999999998
20
185.00000275671482
10
298.19999999999999
20
185.00000275671482
10
298.19999999999999
20
174.80000275671483
0
LWPOLYLINE
5
270
100
AcDbEntity
8
0
100
AcDbPolyline
90
4
70
1
43
0.0
10
314.20000000000005
20
174.80000275671483
10
314.20000000000005
20
185.00000275671482
10
311
20
185.00000275671482
10
311
20
174.80000275671483
0
LWPOLYLINE
5
271
100
AcDbEntity
8
0
100
AcDbPolyline
90
4
70
1
43
0.0
10
327
20
174.80000275671483
10
327
20
185.00000275671482
10
323.80000000000001
20
185.00000275671482
10
323.80000000000001
20
174.80000275671483
0
LWPOLYLINE
5
272
100
AcDbEntity
8
0
100
AcDbPolyline
90
4
70
1
43
0.0
10
339.80000000000007
20
174.80000275671483
10
339.80000000000007
20
185.00000275671482
10
336.60000000000002
20
185.00000275671482
10
336.60000000000002
20
174.80000275671483
0
LWPOLYLINE
5
273
100
AcDbEntity
8
0
100
AcDbPolyline
90
4
70
1
43
0.0
10
352.60000000000002
20
174.80000275671483
10
352.60000000000002
20
185.00000275671482
10
349.40000000000003
20
185.00000275671482
10
349.40000000000003
20
174.80000275671483
0
LWPOLYLINE
5
274
100
AcDbEntity
8
0
100
AcDbPolyline
90
4
70
1
43
0.0
10
365.40000000000009
20
174.80000275671483
10
365.39999999999998
20
185.00000275671482
10
362.19999999999999
20
185.00000275671482
10
362.19999999999999
20
174.80000275671483
0
LWPOLYLINE
5
275
100
AcDbEntity
8
0
100
AcDbPolyline
90
4
70
1
43
0.0
10
378.20000000000005
20
174.80000275671483
10
378.19999999999999
20
185.00000275671482
10
375
20
185.00000275671482
10
375
20
174.80000275671483
0
LWPOLYLINE
5
276
100
AcDbEntity
8
0
100
AcDbPolyline
90
4
70
1
43
0.0
10
391.00000000000011
20
174.80000275671483
10
391
20
185.00000275671482
10
387.80000000000001
20
185.00000275671482
10
387.80000000000001
20
174.80000275671483
0
CIRCLE
5
277
100
AcDbEntity
8
0
100
AcDbCircle
10
125.1504652637483
20
270.01123410346639
30
0
40
22.499999999999982
210
0
220
0
230
1
0
LWPOLYLINE
5
278
100
AcDbEntity
8
0
100
AcDbPolyline
90
4
70
1
43
0.0
10
123.55046526374829
20
247.56819509356399
10
126.7504652637483
20
247.56819509356399
10
126.7504652637483
20
257.56819509356399
10
123.55046526374829
20
257.56819509356399
0
LINE
5
279
100
AcDbEntity
8
0
100
AcDbLine
10
171.9504652637483
20
257.56819509356399
30
0
11
171.9504652637483
21
247.56819509356399
31
0
0
LINE
5
280
100
AcDbEntity
8
0
100
AcDbLine
10
168.75046526374831
20
247.56819509356399
30
0
11
168.75046526374831
21
257.56819509356399
31
0
0
CIRCLE
5
281
100
AcDbEntity
8
0
100
AcDbCircle
10
170.35046526374828
20
270.01123410346639
30
0
40
22.499999999999982
210
0
220
0
230
1
0
LINE
5
282
100
AcDbEntity
8
0
100
AcDbLine
10
168.75046526374831
20
257.56819509356399
30
0
11
171.9504652637483
21
257.56819509356399
31
0
0
LINE
5
283
100
AcDbEntity
8
0
100
AcDbLine
10
217.15046526374829
20
257.56819509356399
30
0
11
217.15046526374829
21
247.56819509356399
31
0
0
LINE
5
284
100
AcDbEntity
8
0
100
AcDbLine
10
213.95046526374827
20
247.56819509356399
30
0
11
213.95046526374827
21
257.56819509356399
31
0
0
CIRCLE
5
285
100
AcDbEntity
8
0
100
AcDbCircle
10
215.55046526374832
20
270.01123410346639
30
0
40
22.499999999999982
210
0
220
0
230
1
0
LINE
5
286
100
AcDbEntity
8
0
100
AcDbLine
10
213.95046526374827
20
257.56819509356399
30
0
11
217.15046526374829
21
257.56819509356399
31
0
0
LINE
5
287
100
AcDbEntity
8
0
100
AcDbLine
10
262.35046526374833
20
257.56819509356399
30
0
11
262.35046526374833
21
247.56819509356399
31
0
0
LINE
5
288
100
AcDbEntity
8
0
100
AcDbLine
10
259.15046526374829
20
247.56819509356399
30
0
11
259.15046526374829
21
257.56819509356399
31
0
0
CIRCLE
5
289
100
AcDbEntity
8
0
100
AcDbCircle
10
260.75046526374825
20
270.01123410346639
30
0
40
22.499999999999982
210
0
220
0
230
1
0
LINE
5
290
100
AcDbEntity
8
0
100
AcDbLine
10
259.15046526374829
20
257.56819509356399
30
0
11
262.35046526374833
21
257.56819509356399
31
0
0
LINE
5
291
100
AcDbEntity
8
0
100
AcDbLine
10
307.55046526374826
20
257.56819509356399
30
0
11
307.55046526374826
21
247.56819509356399
31
0
0
LINE
5
292
100
AcDbEntity
8
0
100
AcDbLine
10
304.35046526374828
20
247.56819509356399
30
0
11
304.35046526374828
21
257.56819509356399
31
0
0
CIRCLE
5
293
100
AcDbEntity
8
0
100
AcDbCircle
10
305.9504652637483
20
270.01123410346639
30
0
40
22.499999999999982
210
0
220
0
230
1
0
LINE
5
294
100
AcDbEntity
8
0
100
AcDbLine
10
304.35046526374828
20
257.56819509356399
30
0
11
307.55046526374826
21
257.56819509356399
31
0
0
LINE
5
295
100
AcDbEntity
8
0
100
AcDbLine
10
352.75046526374831
20
257.56819509356399
30
0
11
352.75046526374831
21
247.56819509356399
31
0
0
LINE
5
296
100
AcDbEntity
8
0
100
AcDbLine
10
349.55046526374826
20
247.56819509356399
30
0
11
349.55046526374826
21
257.56819509356399
31
0
0
CIRCLE
5
297
100
AcDbEntity
8
0
100
AcDbCircle
10
351.15046526374829
20
270.01123410346639
30
0
40
22.499999999999982
210
0
220
0
230
1
0
LINE
5
298
100
AcDbEntity
8
0
100
AcDbLine
10
349.55046526374826
20
257.56819509356399
30
0
11
352.75046526374831
21
257.56819509356399
31
0
0
LINE
5
299
100
AcDbEntity
8
0
100
AcDbLine
10
397.95046526374824
20
257.56819509356399
30
0
11
397.95046526374824
21
247.56819509356399
31
0
0
LINE
5
300
100
AcDbEntity
8
0
100
AcDbLine
10
394.75046526374825
20
247.56819509356399
30
0
11
394.75046526374825
21
257.56819509356399
31
0
0
CIRCLE
5
301
100
AcDbEntity
8
0
100
AcDbCircle
10
396.35046526374828
20
270.01123410346639
30
0
40
22.499999999999982
210
0
220
0
230
1
0
LINE
5
302
100
AcDbEntity
8
0
100
AcDbLine
10
394.75046526374825
20
257.56819509356399
30
0
11
397.95046526374824
21
257.56819509356399
31
0
0
LINE
5
303
100
AcDbEntity
8
0
100
AcDbLine
10
443.15046526374829
20
257.56819509356399
30
0
11
443.15046526374829
21
247.56819509356399
31
0
0
LINE
5
304
100
AcDbEntity
8
0
100
AcDbLine
10
439.9504652637483
20
247.56819509356399
30
0
11
439.9504652637483
21
257.56819509356399
31
0
0
CIRCLE
5
305
100
AcDbEntity
8
0
100
AcDbCircle
10
441.55046526374826
20
270.01123410346639
30
0
40
22.499999999999982
210
0
220
0
230
1
0
LINE
5
306
100
AcDbEntity
8
0
100
AcDbLine
10
439.9504652637483
20
257.56819509356399
30
0
11
443.15046526374829
21
257.56819509356399
31
0
0
CIRCLE
5
307
100
AcDbEntity
8
0
100
AcDbCircle
10
250
20
225
30
0
40
16.875
210
0
220
0
230
1
0
LINE
5
308
100
AcDbEntity
8
0
100
AcDbLine
10
248.40000000000018
20
208.20102309662877
30
0
11
248.40000000000009
21
223.20102309662894
31
0
0
LINE
5
309
100
AcDbEntity
8
0
100
AcDbLine
10
248.40000000000009
20
223.20102309662894
30
0
11
251.59999999999999
21
223.2010233164041
31
0
0
LINE
5
310
100
AcDbEntity
8
0
100
AcDbLine
10
251.59999999999999
20
223.2010233164041
30
0
11
251.59905866638383
21
208.20093346696123
31
0
0
CIRCLE
5
311
100
AcDbEntity
8
0
100
AcDbCircle
10
180.00000000000006
20
230
30
0
40
11.25
210
0
220
0
230
1
0
LINE
5
312
100
AcDbEntity
8
0
100
AcDbLine
10
181.60000000000011
20
228.86435902159195
30
0
11
181.60000000000011
21
218.86435902159201
31
0
0
LINE
5
313
100
AcDbEntity
8
0
100
AcDbLine
10
178.40000000000009
20
218.86435902159201
30
0
11
178.40000000000009
21
228.86435902159195
31
0
0
LINE
5
314
100
AcDbEntity
8
0
100
AcDbLine
10
178.40000000000009
20
228.86435902159195
30
0
11
181.60000000000011
21
228.86435902159195
31
0
0
LINE
5
315
100
AcDbEntity
8
0
100
AcDbLine
10
282.35000000000019
20
208.20102309662877
30
0
11
282.35000000000008
21
223.20102309662894
31
0
0
LINE
5
316
100
AcDbEntity
8
0
100
AcDbLine
10
282.35000000000008
20
223.20102309662894
30
0
11
285.55000000000001
21
223.2010233164041
31
0
0
LINE
5
317
100
AcDbEntity
8
0
100
AcDbLine
10
285.55000000000001
20
223.2010233164041
30
0
11
285.54905866638381
21
208.20093346696123
31
0
0
CIRCLE
5
318
100
AcDbEntity
8
0
100
AcDbCircle
10
283.94999999999999
20
225
30
0
40
16.875
210
0
220
0
230
1
0
LINE
5
319
100
AcDbEntity
8
0
100
AcDbLine
10
316.30000000000018
20
208.20102309662877
30
0
11
316.30000000000007
21
223.20102309662894
31
0
0
LINE
5
320
100
AcDbEntity
8
0
100
AcDbLine
10
316.30000000000007
20
223.20102309662894
30
0
11
319.5
21
223.2010233164041
31
0
0
LINE
5
321
100
AcDbEntity
8
0
100
AcDbLine
10
319.5
20
223.2010233164041
30
0
11
319.4990586663838
21
208.20093346696123
31
0
0
CIRCLE
5
322
100
AcDbEntity
8
0
100
AcDbCircle
10
317.89999999999998
20
225
30
0
40
16.875
210
0
220
0
230
1
0
LINE
5
323
100
AcDbEntity
8
0
100
AcDbLine
10
350.25000000000011
20
208.20102309662875
30
0
11
350.25000000000006
21
223.20102309662894
31
0
0
LINE
5
324
100
AcDbEntity
8
0
100
AcDbLine
10
350.25000000000006
20
223.20102309662894
30
0
11
353.44999999999999
21
223.2010233164041
31
0
0
LINE
5
325
100
AcDbEntity
8
0
100
AcDbLine
10
353.44999999999999
20
223.2010233164041
30
0
11
353.44905866638385
21
208.20093346696123
31
0
0
CIRCLE
5
326
100
AcDbEntity
8
0
100
AcDbCircle
10
351.84999999999997
20
225
30
0
40
16.875
210
0
220
0
230
1
0
CIRCLE
5
327
100
AcDbEntity
8
0
100
AcDbCircle
10
202.70000000000007
20
230
30
0
40
11.25
210
0
220
0
230
1
0
LINE
5
328
100
AcDbEntity
8
0
100
AcDbLine
10
201.10000000000011
20
218.86435902159201
30
0
11
201.10000000000011
21
228.86435902159195
31
0
0
LINE
5
329
100
AcDbEntity
8
0
100
AcDbLine
10
201.10000000000011
20
228.86435902159195
30
0
11
204.3000000000001
21
228.86435902159195
31
0
0
LINE
5
330
100
AcDbEntity
8
0
100
AcDbLine
10
204.3000000000001
20
228.86435902159195
30
0
11
204.3000000000001
21
218.86435902159201
31
0
0
LWPOLYLINE
5
331
100
AcDbEntity
8
0
100
AcDbPolyline
90
4
70
1
43
0.0
10
345.00752725405198
20
58.007070267570043
10
334.80752725405193
20
58.007070267570043
10
334.80752725405193
20
55.007070267570043
10
345.00752725405198
20
55.007070267570043
0
LWPOLYLINE
5
332
100
AcDbEntity
8
0
100
AcDbPolyline
90
4
70
1
43
0.0
10
91.000001356005669
20
233.00000347197056
10
103.24057453688617
20
197.03834502621027
10
87.500001303851604
20
201.50000300258398
10
72.009394703539712
20
197.03834502621027
0
LWPOLYLINE
5
333
100
AcDbEntity
8
0
100
AcDbPolyline
90
4
70
1
43
0.0
10
58.886010984540114
20
197.03834502621027
10
39.895404332074165
20
233.00000347197056
10
27.654831151193662
20
197.03834502621027
10
43.395404384228229
20
201.50000300258398
0
ENDSEC
0
SECTION
2
OBJECTS
0
DICTIONARY
5
C
100
AcDbDictionary
3
ACAD_GROUP
350
D
3
ACAD_MLINESTYLE
350
17
0
DICTIONARY
5
D
100
AcDbDictionary
0
DICTIONARY
5
1A
330
C
100
AcDbDictionary
0
DICTIONARY
5
17
100
AcDbDictionary
0
ENDSEC
0
EOF
