999
dxfrw 0.6.3
  0
SECTION
  2
HEADER
  9
$ACADVER
  1
AC1021
  9
$DWGCODEPAGE
  3
ANSI_1252
  9
$INSBASE
 10
0
 20
0
 30
0
  9
$EXTMIN
 10
-53.2661249812798
 20
0
 30
0
  9
$EXTMAX
 10
240
 20
75.60000000000001
 30
0
  9
$LIMMIN
 10
0
 20
0
  9
$LIMMAX
 10
420
 20
297
  9
$ORTHOMODE
 70
    0
  9
$REGENMODE
 70
    1
  9
$FILLMODE
 70
    1
  9
$QTEXTMODE
 70
    0
  9
$MIRRTEXT
 70
    0
  9
$LTSCALE
 40
1
  9
$ATTMODE
 70
    0
  9
$TEXTSIZE
 40
2.5
  9
$TRACEWID
 40
15.68
  9
$TEXTSTYLE
  7
STANDARD
  9
$CLAYER
  8
Holes
  9
$CELTYPE
  6
BYLAYER
  9
$CECOLOR
 62
  256
  9
$CELTSCALE
 40
1
  9
$DISPSILH
 70
    0
  9
$DIMSCALE
 40
1
  9
$DIMASZ
 40
2.5
  9
$DIMEXO
 40
0.625
  9
$DIMDLI
 40
3.75
  9
$DIMRND
 40
0
  9
$DIMDLE
 40
0
  9
$DIMEXE
 40
1.25
  9
$DIMTP
 40
0
  9
$DIMTM
 40
0
  9
$DIMTXT
 40
2.5
  9
$DIMCEN
 40
2.5
  9
$DIMTSZ
 40
0
  9
$DIMTOL
 70
    0
  9
$DIMLIM
 70
    0
  9
$DIMTIH
 70
    0
  9
$DIMTOH
 70
    0
  9
$DIMSE1
 70
    0
  9
$DIMSE2
 70
    0
  9
$DIMTAD
 70
    1
  9
$DIMZIN
 70
    8
  9
$DIMBLK
  1

  9
$DIMASO
 70
    1
  9
$DIMSHO
 70
    1
  9
$DIMPOST
  1

  9
$DIMAPOST
  1

  9
$DIMALT
 70
    0
  9
$DIMALTD
 70
    3
  9
$DIMALTF
 40
0.03937
  9
$DIMLFAC
 40
1
  9
$DIMTOFL
 70
    1
  9
$DIMTVP
 40
0
  9
$DIMTIX
 70
    0
  9
$DIMSOXD
 70
    0
  9
$DIMSAH
 70
    0
  9
$DIMBLK1
  1

  9
$DIMBLK2
  1

  9
$DIMSTYLE
  2
STANDARD
  9
$DIMCLRD
 70
    0
  9
$DIMCLRE
 70
    0
  9
$DIMCLRT
 70
    0
  9
$DIMTFAC
 40
1
  9
$DIMGAP
 40
0.625
  9
$DIMJUST
 70
    0
  9
$DIMSD1
 70
    0
  9
$DIMSD2
 70
    0
  9
$DIMTOLJ
 70
    0
  9
$DIMTZIN
 70
    8
  9
$DIMALTZ
 70
    0
  9
$DIMALTTZ
 70
    0
  9
$DIMUPT
 70
    0
  9
$DIMDEC
 70
    2
  9
$DIMTDEC
 70
    2
  9
$DIMALTU
 70
    2
  9
$DIMALTTD
 70
    3
  9
$DIMTXSTY
  7
STANDARD
  9
$DIMAUNIT
 70
    0
  9
$DIMADEC
 70
    0
  9
$DIMALTRND
 40
0
  9
$DIMAZIN
 70
    0
  9
$DIMDSEP
 70
   44
  9
$DIMATFIT
 70
    3
  9
$DIMFRAC
 70
    0
  9
$DIMLDRBLK
  1
STANDARD
  9
$DIMLUNIT
 70
    2
  9
$DIMLWD
 70
   -2
  9
$DIMLWE
 70
   -2
  9
$DIMTMOVE
 70
    0
  9
$DIMFXL
 40
1
  9
$DIMFXLON
 70
    0
  9
$DIMJOGANG
 40
0.7854
  9
$DIMTFILL
 70
    0
  9
$DIMTFILLCLR
 70
    0
  9
$DIMARCSYM
 70
    0
  9
$DIMLTYPE
  6

  9
$DIMLTEX1
  6

  9
$DIMLTEX2
  6

  9
$LUNITS
 70
    2
  9
$LUPREC
 70
    4
  9
$SKETCHINC
 40
1
  9
$FILLETRAD
 40
0
  9
$AUNITS
 70
    0
  9
$AUPREC
 70
    2
  9
$MENU
  1
.
  9
$ELEVATION
 40
0
  9
$PELEVATION
 40
0
  9
$THICKNESS
 40
0
  9
$LIMCHECK
 70
    0
  9
$CHAMFERA
 40
0
  9
$CHAMFERB
 40
0
  9
$CHAMFERC
 40
0
  9
$CHAMFERD
 40
0
  9
$SKPOLY
 70
    0
  9
$USRTIMER
 70
    1
  9
$ANGBASE
 50
0
  9
$ANGDIR
 70
    0
  9
$PDMODE
 70
   34
  9
$PDSIZE
 40
0
  9
$PLINEWID
 40
0
  9
$SPLFRAME
 70
    0
  9
$SPLINETYPE
 70
    2
  9
$SPLINESEGS
 70
    8
  9
$HANDSEED
  5
20000
  9
$SURFTAB1
 70
    6
  9
$SURFTAB2
 70
    6
  9
$SURFTYPE
 70
    6
  9
$SURFU
 70
    6
  9
$SURFV
 70
    6
  9
$UCSBASE
  2

  9
$UCSNAME
  2

  9
$UCSORG
 10
0
 20
0
 30
0
  9
$UCSXDIR
 10
1
 20
0
 30
0
  9
$UCSYDIR
 10
0
 20
1
 30
0
  9
$UCSORTHOREF
  2

  9
$UCSORTHOVIEW
 70
    0
  9
$UCSORGTOP
 10
0
 20
0
 30
0
  9
$UCSORGBOTTOM
 10
0
 20
0
 30
0
  9
$UCSORGLEFT
 10
0
 20
0
 30
0
  9
$UCSORGRIGHT
 10
0
 20
0
 30
0
  9
$UCSORGFRONT
 10
0
 20
0
 30
0
  9
$UCSORGBACK
 10
0
 20
0
 30
0
  9
$PUCSBASE
  2

  9
$PUCSNAME
  2

  9
$PUCSORG
 10
0
 20
0
 30
0
  9
$PUCSXDIR
 10
1
 20
0
 30
0
  9
$PUCSYDIR
 10
0
 20
1
 30
0
  9
$PUCSORTHOREF
  2

  9
$PUCSORTHOVIEW
 70
    0
  9
$PUCSORGTOP
 10
0
 20
0
 30
0
  9
$PUCSORGBOTTOM
 10
0
 20
0
 30
0
  9
$PUCSORGLEFT
 10
0
 20
0
 30
0
  9
$PUCSORGRIGHT
 10
0
 20
0
 30
0
  9
$PUCSORGFRONT
 10
0
 20
0
 30
0
  9
$PUCSORGBACK
 10
0
 20
0
 30
0
  9
$USERI1
 70
    0
  9
$USERI2
 70
    0
  9
$USERI3
 70
    0
  9
$USERI4
 70
    0
  9
$USERI5
 70
    0
  9
$USERR1
 40
0
  9
$USERR2
 40
0
  9
$USERR3
 40
0
  9
$USERR4
 40
0
  9
$USERR5
 40
0
  9
$WORLDVIEW
 70
    1
  9
$SHADEDGE
 70
    3
  9
$SHADEDIF
 70
   70
  9
$TILEMODE
 70
    1
  9
$MAXACTVP
 70
   64
  9
$PINSBASE
 10
0
 20
0
 30
0
  9
$PLIMCHECK
 70
    0
  9
$PEXTMIN
 10
0
 20
0
 30
0
  9
$PEXTMAX
 10
0
 20
0
 30
0
  9
$GRIDMODE
 70
    1
  9
$SNAPSTYLE
 70
    0
  9
$PLIMMIN
 10
0
 20
0
  9
$PLIMMAX
 10
210
 20
297
  9
$UNITMODE
 70
    0
  9
$VISRETAIN
 70
    1
  9
$PLINEGEN
 70
    0
  9
$PSLTSCALE
 70
    1
  9
$TREEDEPTH
 70
 3020
  9
$CMLSTYLE
  2
Standard
  9
$CMLJUST
 70
    0
  9
$CMLSCALE
 40
20
  9
$PROXYGRAPHICS
 70
    1
  9
$MEASUREMENT
 70
    1
  9
$CELWEIGHT
370
   -1
  9
$ENDCAPS
280
    0
  9
$JOINSTYLE
280
    0
  9
$LWDISPLAY
290
    0
  9
$INSUNITS
 70
    4
  9
$HYPERLINKBASE
  1

  9
$STYLESHEET
  1

  9
$XEDIT
290
    1
  9
$CEPSNTYPE
380
    0
  9
$PSTYLEMODE
290
    1
  9
$EXTNAMES
290
    1
  9
$PSVPSCALE
 40
1
  9
$OLESTARTUP
290
    0
  9
$SORTENTS
280
  127
  9
$INDEXCTL
280
    0
  9
$HIDETEXT
280
    1
  9
$XCLIPFRAME
290
    0
  9
$HALOGAP
280
    0
  9
$OBSCOLOR
 70
  257
  9
$OBSLTYPE
280
    0
  9
$INTERSECTIONDISPLAY
280
    0
  9
$INTERSECTIONCOLOR
 70
  257
  9
$DIMASSOC
280
    1
  9
$PROJECTNAME
  1

  9
$CAMERADISPLAY
290
    0
  9
$LENSLENGTH
 40
50
  9
$CAMERAHEIGHT
 40
0
  9
$STEPSPERSEC
 40
2
  9
$STEPSIZE
 40
50
  9
$3DDWFPREC
 40
2
  9
$PSOLWIDTH
 40
5
  9
$PSOLHEIGHT
 40
80
  9
$LOFTANG1
 40
1.570796326794897
  9
$LOFTANG2
 40
1.570796326794897
  9
$LOFTMAG1
 40
0
  9
$LOFTMAG2
 40
0
  9
$LOFTPARAM
 70
    7
  9
$LOFTNORMALS
280
    1
  9
$LATITUDE
 40
1
  9
$LONGITUDE
 40
1
  9
$NORTHDIRECTION
 40
0
  9
$TIMEZONE
 70
-8000
  9
$LIGHTGLYPHDISPLAY
280
    1
  9
$TILEMODELIGHTSYNCH
280
    1
  9
$SOLIDHIST
280
    1
  9
$SHOWHIST
280
    1
  9
$DWFFRAME
280
    2
  9
$DGNFRAME
280
    0
  9
$REALWORLDSCALE
290
    1
  9
$INTERFERECOLOR
 62
    1
  9
$CSHADOW
280
    0
  9
$SHADOWPLANELOCATION
 40
0
  0
ENDSEC
  0
SECTION
  2
CLASSES
  0
ENDSEC
  0
SECTION
  2
TABLES
  0
TABLE
  2
VPORT
  5
8
330
0
100
AcDbSymbolTable
 70
    1
  0
VPORT
  5
31
330
2
100
AcDbSymbolTableRecord
100
AcDbViewportTableRecord
  2
*ACTIVE
 70
    0
 10
0
 20
0
 11
1
 21
1
 12
136.2385700772268
 22
56.75801322592772
 13
0
 23
0
 14
10
 24
10
 15
10
 25
10
 16
0
 26
0
 36
1
 17
0
 27
0
 37
0
 40
171.7244148028068
 41
1.804054054054054
 42
50
 43
0
 44
0
 50
0
 51
0
 71
    0
 72
  100
 73
    1
 74
    3
 75
    0
 76
    1
 77
    0
 78
    0
281
    0
 65
    1
110
0
120
0
130
0
111
1
121
0
131
0
112
0
122
1
132
0
 79
    0
146
0
348
10020
 60
    7
 61
    5
292
1
282
    1
141
0
142
0
 63
  250
421
3358443
  0
ENDTAB
  0
TABLE
  2
LTYPE
  5
5
330
0
100
AcDbSymbolTable
 70
    4
  0
LTYPE
  5
14
330
5
100
AcDbSymbolTableRecord
100
AcDbLinetypeTableRecord
  2
ByBlock
 70
    0
  3

 72
   65
 73
    0
 40
0
  0
LTYPE
  5
15
330
5
100
AcDbSymbolTableRecord
100
AcDbLinetypeTableRecord
  2
ByLayer
 70
    0
  3

 72
   65
 73
    0
 40
0
  0
LTYPE
  5
16
330
5
100
AcDbSymbolTableRecord
100
AcDbLinetypeTableRecord
  2
Continuous
 70
    0
  3
Solid line
 72
   65
 73
    0
 40
0
  0
LTYPE
  5
32
330
5
100
AcDbSymbolTableRecord
100
AcDbLinetypeTableRecord
  2
DOT
 70
    0
  3
Dot . . . . . . . . . . . . . . . . . . . . . .
 72
   65
 73
    2
 40
6.35
 49
0
 74
    0
 49
-6.35
 74
    0
  0
LTYPE
  5
33
330
5
100
AcDbSymbolTableRecord
100
AcDbLinetypeTableRecord
  2
DOTTINY
 70
    0
  3
Dot (.15x) .....................................
 72
   65
 73
    2
 40
0.9525
 49
0
 74
    0
 49
-0.9525
 74
    0
  0
LTYPE
  5
34
330
5
100
AcDbSymbolTableRecord
100
AcDbLinetypeTableRecord
  2
DOT2
 70
    0
  3
Dot (.5x) .....................................
 72
   65
 73
    2
 40
3.175
 49
0
 74
    0
 49
-3.175
 74
    0
  0
LTYPE
  5
35
330
5
100
AcDbSymbolTableRecord
100
AcDbLinetypeTableRecord
  2
DOTX2
 70
    0
  3
Dot (2x) .  .  .  .  .  .  .  .  .  .  .  .  .
 72
   65
 73
    2
 40
12.7
 49
0
 74
    0
 49
-12.7
 74
    0
  0
LTYPE
  5
36
330
5
100
AcDbSymbolTableRecord
100
AcDbLinetypeTableRecord
  2
DASHED
 70
    0
  3
Dashed _ _ _ _ _ _ _ _ _ _ _ _ _ _ _ _ _
 72
   65
 73
    2
 40
19.05
 49
12.7
 74
    0
 49
-6.35
 74
    0
  0
LTYPE
  5
37
330
5
100
AcDbSymbolTableRecord
100
AcDbLinetypeTableRecord
  2
DASHEDTINY
 70
    0
  3
Dashed (.15x) _ _ _ _ _ _ _ _ _ _ _ _ _ _ _ _ _
 72
   65
 73
    2
 40
2.8575
 49
1.905
 74
    0
 49
-0.9525
 74
    0
  0
LTYPE
  5
38
330
5
100
AcDbSymbolTableRecord
100
AcDbLinetypeTableRecord
  2
DASHED2
 70
    0
  3
Dashed (.5x) _ _ _ _ _ _ _ _ _ _ _ _ _ _ _ _ _
 72
   65
 73
    2
 40
9.524999999999999
 49
6.35
 74
    0
 49
-3.175
 74
    0
  0
LTYPE
  5
39
330
5
100
AcDbSymbolTableRecord
100
AcDbLinetypeTableRecord
  2
DASHEDX2
 70
    0
  3
Dashed (2x) ____  ____  ____  ____  ____  ___
 72
   65
 73
    2
 40
38.09999999999999
 49
25.4
 74
    0
 49
-12.7
 74
    0
  0
LTYPE
  5
3A
330
5
100
AcDbSymbolTableRecord
100
AcDbLinetypeTableRecord
  2
DASHDOT
 70
    0
  3
Dash dot __ . __ . __ . __ . __ . __ . __ . __
 72
   65
 73
    4
 40
25.4
 49
12.7
 74
    0
 49
-6.35
 74
    0
 49
0
 74
    0
 49
-6.35
 74
    0
  0
LTYPE
  5
3B
330
5
100
AcDbSymbolTableRecord
100
AcDbLinetypeTableRecord
  2
DASHDOTTINY
 70
    0
  3
Dash dot (.15x) _._._._._._._._._._._._._._._.
 72
   65
 73
    4
 40
3.81
 49
1.905
 74
    0
 49
-0.9525
 74
    0
 49
0
 74
    0
 49
-0.9525
 74
    0
  0
LTYPE
  5
3C
330
5
100
AcDbSymbolTableRecord
100
AcDbLinetypeTableRecord
  2
DASHDOT2
 70
    0
  3
Dash dot (.5x) _._._._._._._._._._._._._._._.
 72
   65
 73
    4
 40
12.7
 49
6.35
 74
    0
 49
-3.175
 74
    0
 49
0
 74
    0
 49
-3.175
 74
    0
  0
LTYPE
  5
3D
330
5
100
AcDbSymbolTableRecord
100
AcDbLinetypeTableRecord
  2
DASHDOTX2
 70
    0
  3
Dash dot (2x) ____  .  ____  .  ____  .  ___
 72
   65
 73
    4
 40
50.8
 49
25.4
 74
    0
 49
-12.7
 74
    0
 49
0
 74
    0
 49
-12.7
 74
    0
  0
LTYPE
  5
3E
330
5
100
AcDbSymbolTableRecord
100
AcDbLinetypeTableRecord
  2
DIVIDE
 70
    0
  3
Divide ____ . . ____ . . ____ . . ____ . . ____
 72
   65
 73
    6
 40
31.75
 49
12.7
 74
    0
 49
-6.35
 74
    0
 49
0
 74
    0
 49
-6.35
 74
    0
 49
0
 74
    0
 49
-6.35
 74
    0
  0
LTYPE
  5
3F
330
5
100
AcDbSymbolTableRecord
100
AcDbLinetypeTableRecord
  2
DIVIDETINY
 70
    0
  3
Divide (.15x) __..__..__..__..__..__..__..__.._
 72
   65
 73
    6
 40
4.7625
 49
1.905
 74
    0
 49
-0.9525
 74
    0
 49
0
 74
    0
 49
-0.9525
 74
    0
 49
0
 74
    0
 49
-0.9525
 74
    0
  0
LTYPE
  5
40
330
5
100
AcDbSymbolTableRecord
100
AcDbLinetypeTableRecord
  2
DIVIDE2
 70
    0
  3
Divide (.5x) __..__..__..__..__..__..__..__.._
 72
   65
 73
    6
 40
15.875
 49
6.35
 74
    0
 49
-3.175
 74
    0
 49
0
 74
    0
 49
-3.175
 74
    0
 49
0
 74
    0
 49
-3.175
 74
    0
  0
LTYPE
  5
41
330
5
100
AcDbSymbolTableRecord
100
AcDbLinetypeTableRecord
  2
DIVIDEX2
 70
    0
  3
Divide (2x) ________  .  .  ________  .  .  _
 72
   65
 73
    6
 40
63.5
 49
25.4
 74
    0
 49
-12.7
 74
    0
 49
0
 74
    0
 49
-12.7
 74
    0
 49
0
 74
    0
 49
-12.7
 74
    0
  0
LTYPE
  5
42
330
5
100
AcDbSymbolTableRecord
100
AcDbLinetypeTableRecord
  2
BORDER
 70
    0
  3
Border __ __ . __ __ . __ __ . __ __ . __ __ .
 72
   65
 73
    6
 40
44.45
 49
12.7
 74
    0
 49
-6.35
 74
    0
 49
12.7
 74
    0
 49
-6.35
 74
    0
 49
0
 74
    0
 49
-6.35
 74
    0
  0
LTYPE
  5
43
330
5
100
AcDbSymbolTableRecord
100
AcDbLinetypeTableRecord
  2
BORDERTINY
 70
    0
  3
Border (.15x) __.__.__.__.__.__.__.__.__.__.__.
 72
   65
 73
    6
 40
6.6675
 49
1.905
 74
    0
 49
-0.9525
 74
    0
 49
1.905
 74
    0
 49
-0.9525
 74
    0
 49
0
 74
    0
 49
-0.9525
 74
    0
  0
LTYPE
  5
44
330
5
100
AcDbSymbolTableRecord
100
AcDbLinetypeTableRecord
  2
BORDER2
 70
    0
  3
Border (.5x) __.__.__.__.__.__.__.__.__.__.__.
 72
   65
 73
    6
 40
22.225
 49
6.35
 74
    0
 49
-3.175
 74
    0
 49
6.35
 74
    0
 49
-3.175
 74
    0
 49
0
 74
    0
 49
-3.175
 74
    0
  0
LTYPE
  5
45
330
5
100
AcDbSymbolTableRecord
100
AcDbLinetypeTableRecord
  2
BORDERX2
 70
    0
  3
Border (2x) ____  ____  .  ____  ____  .  ___
 72
   65
 73
    6
 40
88.89999999999999
 49
25.4
 74
    0
 49
-12.7
 74
    0
 49
25.4
 74
    0
 49
-12.7
 74
    0
 49
0
 74
    0
 49
-12.7
 74
    0
  0
LTYPE
  5
46
330
5
100
AcDbSymbolTableRecord
100
AcDbLinetypeTableRecord
  2
CENTER
 70
    0
  3
Center ____ _ ____ _ ____ _ ____ _ ____ _ ____
 72
   65
 73
    4
 40
50.8
 49
31.75
 74
    0
 49
-6.35
 74
    0
 49
6.35
 74
    0
 49
-6.35
 74
    0
  0
LTYPE
  5
47
330
5
100
AcDbSymbolTableRecord
100
AcDbLinetypeTableRecord
  2
CENTERTINY
 70
    0
  3
Center (.15x) ___ _ ___ _ ___ _ ___ _ ___ _ ___
 72
   65
 73
    4
 40
7.62
 49
4.7625
 74
    0
 49
-0.9525
 74
    0
 49
0.9525
 74
    0
 49
-0.9525
 74
    0
  0
LTYPE
  5
48
330
5
100
AcDbSymbolTableRecord
100
AcDbLinetypeTableRecord
  2
CENTER2
 70
    0
  3
Center (.5x) ___ _ ___ _ ___ _ ___ _ ___ _ ___
 72
   65
 73
    4
 40
28.575
 49
19.05
 74
    0
 49
-3.175
 74
    0
 49
3.175
 74
    0
 49
-3.175
 74
    0
  0
LTYPE
  5
49
330
5
100
AcDbSymbolTableRecord
100
AcDbLinetypeTableRecord
  2
CENTERX2
 70
    0
  3
Center (2x) ________  __  ________  __  _____
 72
   65
 73
    4
 40
101.6
 49
63.5
 74
    0
 49
-12.7
 74
    0
 49
12.7
 74
    0
 49
-12.7
 74
    0
  0
ENDTAB
  0
TABLE
  2
LAYER
  5
2
330
0
100
AcDbSymbolTable
 70
    1
  0
LAYER
  5
10
330
2
100
AcDbSymbolTableRecord
100
AcDbLayerTableRecord
  2
0
 70
    0
 62
    7
  6
CONTINUOUS
370
    0
390
F
  0
LAYER
  5
4A
330
2
100
AcDbSymbolTableRecord
100
AcDbLayerTableRecord
  2
Holes
 70
    0
 62
    7
  6
CONTINUOUS
370
    0
390
F
  0
LAYER
  5
4B
330
2
100
AcDbSymbolTableRecord
100
AcDbLayerTableRecord
  2
Ports
 70
    0
 62
    5
  6
CONTINUOUS
370
    0
390
F
  0
ENDTAB
  0
TABLE
  2
STYLE
  5
3
330
0
100
AcDbSymbolTable
 70
    3
  0
STYLE
  5
4C
330
2
100
AcDbSymbolTableRecord
100
AcDbTextStyleTableRecord
  2
Standard
 70
    0
 40
0
 41
1
 50
0
 71
    0
 42
1
  3
txt
  4

  0
ENDTAB
  0
TABLE
  2
VIEW
  5
6
330
0
100
AcDbSymbolTable
 70
    0
  0
ENDTAB
  0
TABLE
  2
UCS
  5
7
330
0
100
AcDbSymbolTable
 70
    0
  0
ENDTAB
  0
TABLE
  2
APPID
  5
9
330
0
100
AcDbSymbolTable
 70
    1
  0
APPID
  5
12
330
9
100
AcDbSymbolTableRecord
100
AcDbRegAppTableRecord
  2
ACAD
 70
    0
  0
APPID
  5
4D
330
9
100
AcDbSymbolTableRecord
100
AcDbRegAppTableRecord
  2
LibreCad
 70
    0
  0
ENDTAB
  0
TABLE
  2
DIMSTYLE
  5
A
330
0
100
AcDbSymbolTable
 70
    1
100
AcDbDimStyleTable
 71
    1
  0
DIMSTYLE
105
4E
330
A
100
AcDbSymbolTableRecord
100
AcDbDimStyleTableRecord
  2
Standard
 70
    0
 40
1
 41
2.5
 42
0.625
 43
0.38
 44
1.25
 45
0
 46
0
 47
0
 48
0
 49
1
140
2.5
141
0.09
142
0
143
25.4
144
1
145
0
146
1
147
0.625
148
0
 71
    0
 72
    0
 73
    0
 74
    1
 75
    0
 76
    0
 77
    0
 78
    8
 79
    0
170
    0
171
    2
172
    0
173
    0
174
    0
175
    0
176
    0
177
    0
178
    0
179
    0
271
    2
272
    4
273
    2
274
    2
275
    0
276
    0
277
    2
278
   44
279
    0
280
    0
281
    0
282
    0
283
    1
284
    0
285
    0
286
    0
288
    0
289
    3
340
STANDARD
341

371
   -2
372
   -2
  0
ENDTAB
  0
TABLE
  2
BLOCK_RECORD
  5
1
330
0
100
AcDbSymbolTable
 70
    2
  0
BLOCK_RECORD
  5
1F
330
1
100
AcDbSymbolTableRecord
100
AcDbBlockTableRecord
  2
*Model_Space
 70
    0
280
    1
281
    0
  0
BLOCK_RECORD
  5
1E
330
1
100
AcDbSymbolTableRecord
100
AcDbBlockTableRecord
  2
*Paper_Space
 70
    0
280
    1
281
    0
  0
ENDTAB
  0
ENDSEC
  0
SECTION
  2
BLOCKS
  0
BLOCK
  5
20
330
1F
100
AcDbEntity
  8
0
100
AcDbBlockBegin
  2
*Model_Space
 70
    0
 10
0
 20
0
 30
0
  3
*Model_Space
  1

  0
ENDBLK
  5
21
330
1F
100
AcDbEntity
  8
0
100
AcDbBlockEnd
  0
BLOCK
  5
1C
330
1B
100
AcDbEntity
  8
0
100
AcDbBlockBegin
  2
*Paper_Space
 70
    0
 10
0
 20
0
 30
0
  3
*Paper_Space
  1

  0
ENDBLK
  5
1D
330
1F
100
AcDbEntity
  8
0
100
AcDbBlockEnd
  0
ENDSEC
  0
SECTION
  2
ENTITIES
  0
LINE
  5
4F
100
AcDbEntity
  8
Ports
  6
ByLayer
 62
  256
370
   -1
100
AcDbLine
 10
123
 20
17
 11
48
 21
17
  0
LINE
  5
50
100
AcDbEntity
  8
Ports
  6
ByLayer
 62
  256
370
   -1
100
AcDbLine
 10
123
 20
20
 11
27
 21
20
  0
CIRCLE
  5
51
100
AcDbEntity
  8
Ports
  6
ByLayer
 62
  256
370
   -1
100
AcDbCircle
 10
23.5
 20
16.5
 40
3.5
  0
LINE
  5
52
100
AcDbEntity
  8
Ports
  6
ByLayer
 62
  256
370
   -1
100
AcDbLine
 10
47
 20
20
 11
34
 21
20
  0
LINE
  5
53
100
AcDbEntity
  8
Ports
  6
ByLayer
 62
  256
370
   -1
100
AcDbLine
 10
34
 20
20
 11
34
 21
10
  0
LINE
  5
54
100
AcDbEntity
  8
Ports
  6
ByLayer
 62
  256
370
   -1
100
AcDbLine
 10
34
 20
10
 11
38
 21
10
  0
LINE
  5
55
100
AcDbEntity
  8
Ports
  6
ByLayer
 62
  256
370
   -1
100
AcDbLine
 10
38
 20
10
 11
38
 21
5
  0
LINE
  5
56
100
AcDbEntity
  8
Ports
  6
ByLayer
 62
  256
370
   -1
100
AcDbLine
 10
38
 20
5
 11
43
 21
5
  0
LINE
  5
57
100
AcDbEntity
  8
Ports
  6
ByLayer
 62
  256
370
   -1
100
AcDbLine
 10
43
 20
5
 11
43
 21
10
  0
LINE
  5
58
100
AcDbEntity
  8
Ports
  6
ByLayer
 62
  256
370
   -1
100
AcDbLine
 10
43
 20
10
 11
47
 21
10
  0
LINE
  5
59
100
AcDbEntity
  8
Ports
  6
ByLayer
 62
  256
370
   -1
100
AcDbLine
 10
47
 20
10
 11
47
 21
20
  0
LINE
  5
5A
100
AcDbEntity
  8
Ports
  6
ByLayer
 62
  256
370
   -1
100
AcDbLine
 10
20
 20
13
 11
213
 21
13
  0
LINE
  5
5B
100
AcDbEntity
  8
Ports
  6
ByLayer
 62
  256
370
   -1
100
AcDbLine
 10
124
 20
18
 11
124
 21
20
  0
LINE
  5
5C
100
AcDbEntity
  8
Ports
  6
ByLayer
 62
  256
370
   -1
100
AcDbLine
 10
124
 20
20
 11
142
 21
20
  0
LINE
  5
5D
100
AcDbEntity
  8
Ports
  6
ByLayer
 62
  256
370
   -1
100
AcDbLine
 10
142
 20
20
 11
142
 21
18
  0
LINE
  5
5E
100
AcDbEntity
  8
Ports
  6
ByLayer
 62
  256
370
   -1
100
AcDbLine
 10
142
 20
9
 11
142
 21
7
  0
LINE
  5
5F
100
AcDbEntity
  8
Ports
  6
ByLayer
 62
  256
370
   -1
100
AcDbLine
 10
142
 20
7
 11
124
 21
7
  0
LINE
  5
60
100
AcDbEntity
  8
Ports
  6
ByLayer
 62
  256
370
   -1
100
AcDbLine
 10
124
 20
7
 11
124
 21
9
  0
LINE
  5
61
100
AcDbEntity
  8
Ports
  6
ByLayer
 62
  256
370
   -1
100
AcDbLine
 10
124
 20
18
 11
124
 21
20
  0
LINE
  5
62
100
AcDbEntity
  8
Ports
  6
ByLayer
 62
  256
370
   -1
100
AcDbLine
 10
124
 20
20
 11
142
 21
20
  0
LINE
  5
63
100
AcDbEntity
  8
Ports
  6
ByLayer
 62
  256
370
   -1
100
AcDbLine
 10
142
 20
20
 11
142
 21
18.00000000000001
  0
LINE
  5
64
100
AcDbEntity
  8
Ports
  6
ByLayer
 62
  256
370
   -1
100
AcDbLine
 10
142
 20
9
 11
142
 21
7
  0
LINE
  5
65
100
AcDbEntity
  8
Ports
  6
ByLayer
 62
  256
370
   -1
100
AcDbLine
 10
142
 20
7
 11
124
 21
7
  0
LINE
  5
66
100
AcDbEntity
  8
Ports
  6
ByLayer
 62
  256
370
   -1
100
AcDbLine
 10
124
 20
7
 11
124
 21
9
  0
LINE
  5
67
100
AcDbEntity
  8
Ports
  6
ByLayer
 62
  256
370
   -1
100
AcDbLine
 10
142
 20
18.00000000000001
 11
142.5
 21
18.00000000000001
  0
LINE
  5
68
100
AcDbEntity
  8
Ports
  6
ByLayer
 62
  256
370
   -1
100
AcDbLine
 10
143.5
 20
9
 11
142
 21
9
  0
LINE
  5
69
100
AcDbEntity
  8
Ports
  6
ByLayer
 62
  256
370
   -1
100
AcDbLine
 10
148
 20
12.50000000000001
 11
148
 21
13.5
  0
ARC
  5
6A
100
AcDbEntity
  8
Ports
  6
ByLayer
 62
  256
370
   -1
100
AcDbCircle
 10
143.5
 20
13.5
 40
4.5
100
AcDbArc
 50
270
 51
0
  0
LINE
  5
6B
100
AcDbEntity
  8
Ports
  6
ByLayer
 62
  256
370
   -1
100
AcDbLine
 10
142
 20
18
 11
143.5
 21
18
  0
ARC
  5
6C
100
AcDbEntity
  8
Ports
  6
ByLayer
 62
  256
370
   -1
100
AcDbCircle
 10
143.5
 20
13.5
 40
4.5
100
AcDbArc
 50
0
 51
90
  0
LINE
  5
6D
100
AcDbEntity
  8
Ports
  6
ByLayer
 62
  256
370
   -1
100
AcDbLine
 10
122.5
 20
9
 11
124
 21
9
  0
LINE
  5
6E
100
AcDbEntity
  8
Ports
  6
ByLayer
 62
  256
370
   -1
100
AcDbLine
 10
118
 20
12.50000000000001
 11
118
 21
13.5
  0
ARC
  5
6F
100
AcDbEntity
  8
Ports
  6
ByLayer
 62
  256
370
   -1
100
AcDbCircle
 10
122.5
 20
13.5
 40
4.5
100
AcDbArc
 50
180
 51
270
  0
LINE
  5
70
100
AcDbEntity
  8
Ports
  6
ByLayer
 62
  256
370
   -1
100
AcDbLine
 10
124
 20
18
 11
122.5
 21
18
  0
ARC
  5
71
100
AcDbEntity
  8
Ports
  6
ByLayer
 62
  256
370
   -1
100
AcDbCircle
 10
122.5
 20
13.5
 40
4.5
100
AcDbArc
 50
90
 51
180
  0
LINE
  5
72
100
AcDbEntity
  8
Ports
  6
ByLayer
 62
  256
370
   -1
100
AcDbLine
 10
153
 20
20
 11
167
 21
20
  0
LINE
  5
73
100
AcDbEntity
  8
Ports
  6
ByLayer
 62
  256
370
   -1
100
AcDbLine
 10
167
 20
20
 11
167
 21
17
  0
LINE
  5
74
100
AcDbEntity
  8
Ports
  6
ByLayer
 62
  256
370
   -1
100
AcDbLine
 10
167
 20
17
 11
166
 21
16
  0
LINE
  5
75
100
AcDbEntity
  8
Ports
  6
ByLayer
 62
  256
370
   -1
100
AcDbLine
 10
166
 20
16
 11
166
 21
15
  0
LINE
  5
76
100
AcDbEntity
  8
Ports
  6
ByLayer
 62
  256
370
   -1
100
AcDbLine
 10
166
 20
15
 11
154
 21
15
  0
LINE
  5
77
100
AcDbEntity
  8
Ports
  6
ByLayer
 62
  256
370
   -1
100
AcDbLine
 10
154
 20
15
 11
154
 21
16
  0
LINE
  5
78
100
AcDbEntity
  8
Ports
  6
ByLayer
 62
  256
370
   -1
100
AcDbLine
 10
154
 20
16
 11
153
 21
17
  0
LINE
  5
79
100
AcDbEntity
  8
Ports
  6
ByLayer
 62
  256
370
   -1
100
AcDbLine
 10
153
 20
17
 11
153
 21
20
  0
LINE
  5
7A
100
AcDbEntity
  8
Ports
  6
ByLayer
 62
  256
370
   -1
100
AcDbLine
 10
172
 20
20
 11
190
 21
20
  0
LINE
  5
7B
100
AcDbEntity
  8
Ports
  6
ByLayer
 62
  256
370
   -1
100
AcDbLine
 10
190
 20
20
 11
190
 21
15
  0
LINE
  5
7C
100
AcDbEntity
  8
Ports
  6
ByLayer
 62
  256
370
   -1
100
AcDbLine
 10
190
 20
15
 11
172
 21
15
  0
LINE
  5
7D
100
AcDbEntity
  8
Ports
  6
ByLayer
 62
  256
370
   -1
100
AcDbLine
 10
172
 20
15
 11
172
 21
20
  0
LINE
  5
7E
100
AcDbEntity
  8
Ports
  6
ByLayer
 62
  256
370
   -1
100
AcDbLine
 10
195
 20
20
 11
213
 21
20
  0
LINE
  5
7F
100
AcDbEntity
  8
Ports
  6
ByLayer
 62
  256
370
   -1
100
AcDbLine
 10
213
 20
20
 11
213
 21
15
  0
LINE
  5
80
100
AcDbEntity
  8
Ports
  6
ByLayer
 62
  256
370
   -1
100
AcDbLine
 10
213
 20
15
 11
195
 21
15
  0
LINE
  5
81
100
AcDbEntity
  8
Ports
  6
ByLayer
 62
  256
370
   -1
100
AcDbLine
 10
195
 20
15
 11
195
 21
20
  0
LINE
  5
82
100
AcDbEntity
  8
Holes
  6
ByLayer
 62
  256
370
   -1
100
AcDbLine
 10
50
 20
4
 11
115
 21
4
  0
LINE
  5
83
100
AcDbEntity
  8
Holes
  6
ByLayer
 62
  256
370
   -1
100
AcDbLine
 10
40.24438705884553
 20
40.01907818281155
 11
41.31770376248591
 21
44.58065589821732
  0
LINE
  5
84
100
AcDbEntity
  8
Holes
  6
ByLayer
 62
  256
370
   -1
100
AcDbLine
 10
42.58779209935082
 20
46.5126174963242
 11
44.89541612157904
 21
48.60557506207541
  0
LINE
  5
85
100
AcDbEntity
  8
Holes
  6
ByLayer
 62
  256
370
   -1
100
AcDbLine
 10
46.70663194231763
 20
49.45527927573228
 11
49.74321282298722
 21
50.09031986904259
  0
LINE
  5
86
100
AcDbEntity
  8
Holes
  6
ByLayer
 62
  256
370
   -1
100
AcDbLine
 10
56.36241941168758
 20
48.03223699021927
 11
52.05083484794049
 21
49.94720945729491
  0
LINE
  5
87
100
AcDbEntity
  8
Holes
  6
ByLayer
 62
  256
370
   -1
100
AcDbLine
 10
49.36754808202694
 20
44.13343511252771
 11
52.05083085339058
 21
45.47507350229711
  0
LINE
  5
88
100
AcDbEntity
  8
Holes
  6
ByLayer
 62
  256
370
   -1
100
AcDbLine
 10
46.70668812518434
 20
49.45516690974795
 11
49.36754808202694
 21
44.13343511252771
  0
LINE
  5
89
100
AcDbEntity
  8
Holes
  6
ByLayer
 62
  256
370
   -1
100
AcDbLine
 10
52.05083085339058
 20
45.47507350229711
 11
49.74090905549847
 21
50.09492741430883
  0
LINE
  5
8A
100
AcDbEntity
  8
Holes
  6
ByLayer
 62
  256
370
   -1
100
AcDbLine
 10
47.57869290111783
 20
43.23900951934812
 11
44.89541612157904
 21
48.60557506207541
  0
LINE
  5
8B
100
AcDbEntity
  8
Holes
  6
ByLayer
 62
  256
370
   -1
100
AcDbLine
 10
42.5854883318621
 20
46.51722504159038
 11
44.89541012975418
 21
41.89737112957872
  0
LINE
  5
8C
100
AcDbEntity
  8
Holes
  6
ByLayer
 62
  256
370
   -1
100
AcDbLine
 10
44.89541012975418
 20
41.89737112957872
 11
47.57869290111783
 21
43.23900951934812
  0
LINE
  5
8D
100
AcDbEntity
  8
Holes
  6
ByLayer
 62
  256
370
   -1
100
AcDbLine
 10
41.31769777066103
 20
37.87245196572063
 11
44.00098054202468
 21
39.21409035549002
  0
LINE
  5
8E
100
AcDbEntity
  8
Holes
  6
ByLayer
 62
  256
370
   -1
100
AcDbLine
 10
44.00098054202468
 20
39.21409035549002
 11
41.31770376248586
 21
44.58065589821737
  0
LINE
  5
8F
100
AcDbEntity
  8
Holes
  6
ByLayer
 62
  256
370
   -1
100
AcDbLine
 10
40.26276797724748
 20
39.98231626391751
 11
41.31769777066103
 21
37.87245196572063
  0
LINE
  5
90
100
AcDbEntity
  8
Holes
  6
ByLayer
 62
  256
370
   -1
100
AcDbLine
 10
57.41739439884293
 20
45.922282304337
 11
56.36246460542933
 21
48.03214660253396
  0
LINE
  5
91
100
AcDbEntity
  8
Holes
  6
ByLayer
 62
  256
370
   -1
100
AcDbLine
 10
54.73411162747928
 20
44.5806439145676
 11
57.41739439884293
 21
45.922282304337
  0
LINE
  5
92
100
AcDbEntity
  8
Holes
  6
ByLayer
 62
  256
370
   -1
100
AcDbLine
 10
52.05083484794049
 20
49.9472094572949
 11
54.73411162747928
 21
44.5806439145676
  0
LINE
  5
93
100
AcDbEntity
  8
Holes
  6
ByLayer
 62
  256
370
   -1
100
AcDbLine
 10
59.68757969768144
 20
41.25582646487741
 11
55.95998583901114
 21
38.36412713320352
  0
LINE
  5
94
100
AcDbEntity
  8
Holes
  6
ByLayer
 62
  256
370
   -1
100
AcDbLine
 10
55.95998583901114
 20
38.3641271332035
 11
62.33288098840254
 21
37.78639512877766
  0
LINE
  5
95
100
AcDbEntity
  8
Holes
  6
ByLayer
 62
  256
370
   -1
100
AcDbLine
 10
62.33288098840254
 20
37.78639512877766
 11
62.33288368304491
 21
40.94867278894489
  0
LINE
  5
96
100
AcDbEntity
  8
Holes
  6
ByLayer
 62
  256
370
   -1
100
AcDbLine
 10
62.33288368304491
 20
40.94867278894489
 11
59.68768071048975
 21
41.25582349494351
  0
LINE
  5
97
100
AcDbEntity
  8
Holes
  6
ByLayer
 62
  256
370
   -1
100
AcDbLine
 10
119.7556129411545
 20
40.01907818281155
 11
118.6822962375141
 21
44.58065589821732
  0
LINE
  5
98
100
AcDbEntity
  8
Holes
  6
ByLayer
 62
  256
370
   -1
100
AcDbLine
 10
117.4122079006492
 20
46.5126174963242
 11
115.104583878421
 21
48.60557506207541
  0
LINE
  5
99
100
AcDbEntity
  8
Holes
  6
ByLayer
 62
  256
370
   -1
100
AcDbLine
 10
113.2933680576824
 20
49.45527927573228
 11
110.2567871770128
 21
50.09031986904259
  0
LINE
  5
9A
100
AcDbEntity
  8
Holes
  6
ByLayer
 62
  256
370
   -1
100
AcDbLine
 10
103.6375805883124
 20
48.03223699021927
 11
107.9491651520595
 21
49.94720945729491
  0
LINE
  5
9B
100
AcDbEntity
  8
Holes
  6
ByLayer
 62
  256
370
   -1
100
AcDbLine
 10
110.6324519179731
 20
44.13343511252771
 11
107.9491691466094
 21
45.47507350229711
  0
LINE
  5
9C
100
AcDbEntity
  8
Holes
  6
ByLayer
 62
  256
370
   -1
100
AcDbLine
 10
113.2933118748157
 20
49.45516690974795
 11
110.6324519179731
 21
44.13343511252771
  0
LINE
  5
9D
100
AcDbEntity
  8
Holes
  6
ByLayer
 62
  256
370
   -1
100
AcDbLine
 10
107.9491691466094
 20
45.47507350229711
 11
110.2590909445015
 21
50.09492741430883
  0
LINE
  5
9E
100
AcDbEntity
  8
Holes
  6
ByLayer
 62
  256
370
   -1
100
AcDbLine
 10
112.4213070988822
 20
43.23900951934812
 11
115.104583878421
 21
48.60557506207541
  0
LINE
  5
9F
100
AcDbEntity
  8
Holes
  6
ByLayer
 62
  256
370
   -1
100
AcDbLine
 10
117.4145116681379
 20
46.51722504159038
 11
115.1045898702458
 21
41.89737112957872
  0
LINE
  5
A0
100
AcDbEntity
  8
Holes
  6
ByLayer
 62
  256
370
   -1
100
AcDbLine
 10
115.1045898702458
 20
41.89737112957872
 11
112.4213070988822
 21
43.23900951934812
  0
LINE
  5
A1
100
AcDbEntity
  8
Holes
  6
ByLayer
 62
  256
370
   -1
100
AcDbLine
 10
118.682302229339
 20
37.87245196572063
 11
115.9990194579753
 21
39.21409035549002
  0
LINE
  5
A2
100
AcDbEntity
  8
Holes
  6
ByLayer
 62
  256
370
   -1
100
AcDbLine
 10
115.9990194579753
 20
39.21409035549002
 11
118.6822962375141
 21
44.58065589821737
  0
LINE
  5
A3
100
AcDbEntity
  8
Holes
  6
ByLayer
 62
  256
370
   -1
100
AcDbLine
 10
119.7372320227525
 20
39.98231626391751
 11
118.682302229339
 21
37.87245196572063
  0
LINE
  5
A4
100
AcDbEntity
  8
Holes
  6
ByLayer
 62
  256
370
   -1
100
AcDbLine
 10
102.5826056011571
 20
45.922282304337
 11
103.6375353945707
 21
48.03214660253396
  0
LINE
  5
A5
100
AcDbEntity
  8
Holes
  6
ByLayer
 62
  256
370
   -1
100
AcDbLine
 10
105.2658883725207
 20
44.5806439145676
 11
102.5826056011571
 21
45.922282304337
  0
LINE
  5
A6
100
AcDbEntity
  8
Holes
  6
ByLayer
 62
  256
370
   -1
100
AcDbLine
 10
107.9491651520595
 20
49.9472094572949
 11
105.2658883725207
 21
44.5806439145676
  0
LINE
  5
A7
100
AcDbEntity
  8
Holes
  6
ByLayer
 62
  256
370
   -1
100
AcDbLine
 10
100.3124203023186
 20
41.25582646487741
 11
104.0400141609889
 21
38.36412713320352
  0
LINE
  5
A8
100
AcDbEntity
  8
Holes
  6
ByLayer
 62
  256
370
   -1
100
AcDbLine
 10
104.0400141609889
 20
38.3641271332035
 11
97.66711901159746
 21
37.78639512877766
  0
LINE
  5
A9
100
AcDbEntity
  8
Holes
  6
ByLayer
 62
  256
370
   -1
100
AcDbLine
 10
97.66711901159746
 20
37.78639512877766
 11
97.66711631695509
 21
40.94867278894489
  0
LINE
  5
AA
100
AcDbEntity
  8
Holes
  6
ByLayer
 62
  256
370
   -1
100
AcDbLine
 10
97.66711631695509
 20
40.94867278894489
 11
100.3123192895102
 21
41.25582349494351
  0
LWPOLYLINE
  5
AB
100
AcDbEntity
  8
0
  6
ByLayer
 62
  256
370
   -1
100
AcDbPolyline
 90
    4
 70
    1
 43
0
 10
0
 20
0
 10
240
 20
0
 10
240
 20
70
 10
0
 20
70
  0
ARC
  5
AC
100
AcDbEntity
  8
Holes
  6
ByLayer
 62
  256
370
   -1
100
AcDbCircle
 10
49.17679722825852
 20
32.86187902540958
 40
0.5
100
AcDbArc
 50
124.3323
 51
244.3322999999999
  0
LINE
  5
AD
100
AcDbEntity
  8
Holes
  6
ByLayer
 62
  256
370
   -1
100
AcDbLine
 10
51.50998928051306
 20
35.06089064402809
 11
48.89480139569159
 21
33.27476926556414
  0
ARC
  5
AE
100
AcDbEntity
  8
Holes
  6
ByLayer
 62
  256
370
   -1
100
AcDbCircle
 10
51.79198511307999
 20
34.64800040387353
 40
0.5
100
AcDbArc
 50
4.332299999999818
 51
124.3323
  0
LINE
  5
AF
100
AcDbEntity
  8
Holes
  6
ByLayer
 62
  256
370
   -1
100
AcDbLine
 10
52.56249916784441
 20
31.09611554790583
 11
52.29055646631195
 21
34.68577083856055
  0
LINE
  5
B0
100
AcDbEntity
  8
Holes
  6
ByLayer
 62
  256
370
   -1
100
AcDbLine
 10
48.96022170759348
 20
32.41121835056802
 11
52.20492573089591
 21
30.85189999314153
  0
ARC
  5
B1
100
AcDbEntity
  8
Holes
  6
ByLayer
 62
  256
370
   -1
100
AcDbCircle
 10
52.31321349122842
 20
31.07723033056231
 40
0.25
100
AcDbArc
 50
244.3322999999999
 51
4.33230000000114
  0
ARC
  5
B2
100
AcDbEntity
  8
Holes
  6
ByLayer
 62
  256
370
   -1
100
AcDbCircle
 10
49.17679722825852
 20
25.86187902540958
 40
0.5
100
AcDbArc
 50
124.3323
 51
244.3322999999999
  0
LINE
  5
B3
100
AcDbEntity
  8
Holes
  6
ByLayer
 62
  256
370
   -1
100
AcDbLine
 10
51.50998928051306
 20
28.06089064402809
 11
48.89480139569159
 21
26.27476926556414
  0
ARC
  5
B4
100
AcDbEntity
  8
Holes
  6
ByLayer
 62
  256
370
   -1
100
AcDbCircle
 10
51.79198511307999
 20
27.64800040387353
 40
0.5
100
AcDbArc
 50
4.332299999999818
 51
124.3323
  0
LINE
  5
B5
100
AcDbEntity
  8
Holes
  6
ByLayer
 62
  256
370
   -1
100
AcDbLine
 10
52.56249916784441
 20
24.09611554790583
 11
52.29055646631195
 21
27.68577083856055
  0
LINE
  5
B6
100
AcDbEntity
  8
Holes
  6
ByLayer
 62
  256
370
   -1
100
AcDbLine
 10
48.96022170759348
 20
25.41121835056802
 11
52.20492573089591
 21
23.85189999314153
  0
ARC
  5
B7
100
AcDbEntity
  8
Holes
  6
ByLayer
 62
  256
370
   -1
100
AcDbCircle
 10
52.31321349122842
 20
24.07723033056231
 40
0.25
100
AcDbArc
 50
244.3322999999999
 51
4.33230000000114
  0
ARC
  5
B8
100
AcDbEntity
  8
Holes
  6
ByLayer
 62
  256
370
   -1
100
AcDbCircle
 10
56.17679722825852
 20
26.86187902540958
 40
0.5
100
AcDbArc
 50
124.3323
 51
244.3322999999999
  0
LINE
  5
B9
100
AcDbEntity
  8
Holes
  6
ByLayer
 62
  256
370
   -1
100
AcDbLine
 10
58.50998928051306
 20
29.06089064402809
 11
55.89480139569159
 21
27.27476926556414
  0
ARC
  5
BA
100
AcDbEntity
  8
Holes
  6
ByLayer
 62
  256
370
   -1
100
AcDbCircle
 10
58.79198511307999
 20
28.64800040387353
 40
0.5
100
AcDbArc
 50
4.332299999999818
 51
124.3323
  0
LINE
  5
BB
100
AcDbEntity
  8
Holes
  6
ByLayer
 62
  256
370
   -1
100
AcDbLine
 10
59.56249916784441
 20
25.09611554790583
 11
59.29055646631195
 21
28.68577083856055
  0
LINE
  5
BC
100
AcDbEntity
  8
Holes
  6
ByLayer
 62
  256
370
   -1
100
AcDbLine
 10
55.96022170759348
 20
26.41121835056802
 11
59.20492573089591
 21
24.85189999314153
  0
ARC
  5
BD
100
AcDbEntity
  8
Holes
  6
ByLayer
 62
  256
370
   -1
100
AcDbCircle
 10
59.31321349122842
 20
25.07723033056231
 40
0.25
100
AcDbArc
 50
244.3322999999999
 51
4.33230000000114
  0
ARC
  5
BE
100
AcDbEntity
  8
Holes
  6
ByLayer
 62
  256
370
   -1
100
AcDbCircle
 10
55.17679722825852
 20
19.86187902540958
 40
0.5
100
AcDbArc
 50
124.3323
 51
244.3322999999999
  0
LINE
  5
BF
100
AcDbEntity
  8
Holes
  6
ByLayer
 62
  256
370
   -1
100
AcDbLine
 10
57.50998928051306
 20
22.06089064402809
 11
54.89480139569159
 21
20.27476926556414
  0
ARC
  5
C0
100
AcDbEntity
  8
Holes
  6
ByLayer
 62
  256
370
   -1
100
AcDbCircle
 10
57.79198511307999
 20
21.64800040387353
 40
0.5
100
AcDbArc
 50
4.332299999999818
 51
124.3323
  0
LINE
  5
C1
100
AcDbEntity
  8
Holes
  6
ByLayer
 62
  256
370
   -1
100
AcDbLine
 10
58.56249916784441
 20
18.09611554790583
 11
58.29055646631195
 21
21.68577083856055
  0
LINE
  5
C2
100
AcDbEntity
  8
Holes
  6
ByLayer
 62
  256
370
   -1
100
AcDbLine
 10
54.96022170759348
 20
19.41121835056802
 11
58.20492573089591
 21
17.85189999314153
  0
ARC
  5
C3
100
AcDbEntity
  8
Holes
  6
ByLayer
 62
  256
370
   -1
100
AcDbCircle
 10
58.31321349122842
 20
18.07723033056231
 40
0.25
100
AcDbArc
 50
244.3322999999999
 51
4.33230000000114
  0
LINE
  5
C4
100
AcDbEntity
  8
Holes
  6
ByLayer
 62
  256
370
   -1
100
AcDbLine
 10
50
 20
4
 11
50
 21
11
  0
LINE
  5
C5
100
AcDbEntity
  8
Holes
  6
ByLayer
 62
  256
370
   -1
100
AcDbLine
 10
50
 20
11
 11
54
 21
11
  0
LINE
  5
C6
100
AcDbEntity
  8
Holes
  6
ByLayer
 62
  256
370
   -1
100
AcDbLine
 10
54
 20
11
 11
54
 21
7
  0
LINE
  5
C7
100
AcDbEntity
  8
Holes
  6
ByLayer
 62
  256
370
   -1
100
AcDbLine
 10
54
 20
7
 11
56
 21
7
  0
LINE
  5
C8
100
AcDbEntity
  8
Holes
  6
ByLayer
 62
  256
370
   -1
100
AcDbLine
 10
56
 20
7
 11
56
 21
13
  0
LINE
  5
C9
100
AcDbEntity
  8
Holes
  6
ByLayer
 62
  256
370
   -1
100
AcDbLine
 10
56
 20
13
 11
59
 21
13
  0
LINE
  5
CA
100
AcDbEntity
  8
Holes
  6
ByLayer
 62
  256
370
   -1
100
AcDbLine
 10
59
 20
13
 11
59
 21
9
  0
LINE
  5
CB
100
AcDbEntity
  8
Holes
  6
ByLayer
 62
  256
370
   -1
100
AcDbLine
 10
59
 20
9
 11
61
 21
9
  0
LINE
  5
CC
100
AcDbEntity
  8
Holes
  6
ByLayer
 62
  256
370
   -1
100
AcDbLine
 10
61
 20
9
 11
61
 21
16
  0
LINE
  5
CD
100
AcDbEntity
  8
Holes
  6
ByLayer
 62
  256
370
   -1
100
AcDbLine
 10
61
 20
16
 11
63
 21
16
  0
LINE
  5
CE
100
AcDbEntity
  8
Holes
  6
ByLayer
 62
  256
370
   -1
100
AcDbLine
 10
63
 20
16
 11
63
 21
21
  0
LINE
  5
CF
100
AcDbEntity
  8
Holes
  6
ByLayer
 62
  256
370
   -1
100
AcDbLine
 10
63
 20
21
 11
65
 21
21
  0
LINE
  5
D0
100
AcDbEntity
  8
Holes
  6
ByLayer
 62
  256
370
   -1
100
AcDbLine
 10
65
 20
21
 11
65
 21
10
  0
LINE
  5
D1
100
AcDbEntity
  8
Holes
  6
ByLayer
 62
  256
370
   -1
100
AcDbLine
 10
65
 20
10
 11
67
 21
10
  0
LINE
  5
D2
100
AcDbEntity
  8
Holes
  6
ByLayer
 62
  256
370
   -1
100
AcDbLine
 10
67
 20
10
 11
67
 21
18
  0
LINE
  5
D3
100
AcDbEntity
  8
Holes
  6
ByLayer
 62
  256
370
   -1
100
AcDbLine
 10
67
 20
18
 11
68
 21
18
  0
LINE
  5
D4
100
AcDbEntity
  8
Holes
  6
ByLayer
 62
  256
370
   -1
100
AcDbLine
 10
68
 20
18
 11
68
 21
16
  0
LINE
  5
D5
100
AcDbEntity
  8
Holes
  6
ByLayer
 62
  256
370
   -1
100
AcDbLine
 10
68
 20
16
 11
70
 21
16
  0
LINE
  5
D6
100
AcDbEntity
  8
Holes
  6
ByLayer
 62
  256
370
   -1
100
AcDbLine
 10
70
 20
16
 11
70
 21
12
  0
LINE
  5
D7
100
AcDbEntity
  8
Holes
  6
ByLayer
 62
  256
370
   -1
100
AcDbLine
 10
70
 20
12
 11
72
 21
12
  0
LINE
  5
D8
100
AcDbEntity
  8
Holes
  6
ByLayer
 62
  256
370
   -1
100
AcDbLine
 10
72
 20
12
 11
72
 21
9
  0
LINE
  5
D9
100
AcDbEntity
  8
Holes
  6
ByLayer
 62
  256
370
   -1
100
AcDbLine
 10
72
 20
9
 11
75
 21
9
  0
LINE
  5
DA
100
AcDbEntity
  8
Holes
  6
ByLayer
 62
  256
370
   -1
100
AcDbLine
 10
75
 20
9
 11
75
 21
18
  0
LINE
  5
DB
100
AcDbEntity
  8
Holes
  6
ByLayer
 62
  256
370
   -1
100
AcDbLine
 10
75
 20
18
 11
78
 21
18
  0
LINE
  5
DC
100
AcDbEntity
  8
Holes
  6
ByLayer
 62
  256
370
   -1
100
AcDbLine
 10
78
 20
18
 11
78
 21
16
  0
LINE
  5
DD
100
AcDbEntity
  8
Holes
  6
ByLayer
 62
  256
370
   -1
100
AcDbLine
 10
78
 20
16
 11
80
 21
16
  0
LINE
  5
DE
100
AcDbEntity
  8
Holes
  6
ByLayer
 62
  256
370
   -1
100
AcDbLine
 10
80
 20
16
 11
80
 21
23
  0
LINE
  5
DF
100
AcDbEntity
  8
Holes
  6
ByLayer
 62
  256
370
   -1
100
AcDbLine
 10
80
 20
23
 11
83
 21
23
  0
LINE
  5
E0
100
AcDbEntity
  8
Holes
  6
ByLayer
 62
  256
370
   -1
100
AcDbLine
 10
83
 20
23
 11
83
 21
12
  0
LINE
  5
E1
100
AcDbEntity
  8
Holes
  6
ByLayer
 62
  256
370
   -1
100
AcDbLine
 10
83
 20
12
 11
86
 21
12
  0
LINE
  5
E2
100
AcDbEntity
  8
Holes
  6
ByLayer
 62
  256
370
   -1
100
AcDbLine
 10
86
 20
12
 11
86
 21
19
  0
LINE
  5
E3
100
AcDbEntity
  8
Holes
  6
ByLayer
 62
  256
370
   -1
100
AcDbLine
 10
86
 20
19
 11
88
 21
19
  0
LINE
  5
E4
100
AcDbEntity
  8
Holes
  6
ByLayer
 62
  256
370
   -1
100
AcDbLine
 10
88
 20
19
 11
88
 21
16
  0
LINE
  5
E5
100
AcDbEntity
  8
Holes
  6
ByLayer
 62
  256
370
   -1
100
AcDbLine
 10
88
 20
16
 11
90
 21
16
  0
LINE
  5
E6
100
AcDbEntity
  8
Holes
  6
ByLayer
 62
  256
370
   -1
100
AcDbLine
 10
90
 20
16
 11
90
 21
11
  0
LINE
  5
E7
100
AcDbEntity
  8
Holes
  6
ByLayer
 62
  256
370
   -1
100
AcDbLine
 10
90
 20
11
 11
92
 21
11
  0
LINE
  5
E8
100
AcDbEntity
  8
Holes
  6
ByLayer
 62
  256
370
   -1
100
AcDbLine
 10
92
 20
11
 11
92
 21
9
  0
LINE
  5
E9
100
AcDbEntity
  8
Holes
  6
ByLayer
 62
  256
370
   -1
100
AcDbLine
 10
92
 20
9
 11
94
 21
9
  0
LINE
  5
EA
100
AcDbEntity
  8
Holes
  6
ByLayer
 62
  256
370
   -1
100
AcDbLine
 10
94
 20
9
 11
94
 21
20
  0
LINE
  5
EB
100
AcDbEntity
  8
Holes
  6
ByLayer
 62
  256
370
   -1
100
AcDbLine
 10
94
 20
20
 11
96
 21
20
  0
LINE
  5
EC
100
AcDbEntity
  8
Holes
  6
ByLayer
 62
  256
370
   -1
100
AcDbLine
 10
96
 20
20
 11
96
 21
18
  0
LINE
  5
ED
100
AcDbEntity
  8
Holes
  6
ByLayer
 62
  256
370
   -1
100
AcDbLine
 10
96
 20
18
 11
98
 21
18
  0
LINE
  5
EE
100
AcDbEntity
  8
Holes
  6
ByLayer
 62
  256
370
   -1
100
AcDbLine
 10
98
 20
18
 11
98
 21
12
  0
LINE
  5
EF
100
AcDbEntity
  8
Holes
  6
ByLayer
 62
  256
370
   -1
100
AcDbLine
 10
98
 20
12
 11
100
 21
12
  0
LINE
  5
F0
100
AcDbEntity
  8
Holes
  6
ByLayer
 62
  256
370
   -1
100
AcDbLine
 10
100
 20
12
 11
100
 21
9
  0
LINE
  5
F1
100
AcDbEntity
  8
Holes
  6
ByLayer
 62
  256
370
   -1
100
AcDbLine
 10
100
 20
9
 11
102
 21
9
  0
LINE
  5
F2
100
AcDbEntity
  8
Holes
  6
ByLayer
 62
  256
370
   -1
100
AcDbLine
 10
102
 20
9
 11
102
 21
20
  0
LINE
  5
F3
100
AcDbEntity
  8
Holes
  6
ByLayer
 62
  256
370
   -1
100
AcDbLine
 10
102
 20
20
 11
104
 21
20
  0
LINE
  5
F4
100
AcDbEntity
  8
Holes
  6
ByLayer
 62
  256
370
   -1
100
AcDbLine
 10
104
 20
20
 11
104
 21
10
  0
LINE
  5
F5
100
AcDbEntity
  8
Holes
  6
ByLayer
 62
  256
370
   -1
100
AcDbLine
 10
104
 20
10
 11
106
 21
10
  0
LINE
  5
F6
100
AcDbEntity
  8
Holes
  6
ByLayer
 62
  256
370
   -1
100
AcDbLine
 10
106
 20
10
 11
106
 21
15
  0
LINE
  5
F7
100
AcDbEntity
  8
Holes
  6
ByLayer
 62
  256
370
   -1
100
AcDbLine
 10
106
 20
15
 11
108
 21
15
  0
LINE
  5
F8
100
AcDbEntity
  8
Holes
  6
ByLayer
 62
  256
370
   -1
100
AcDbLine
 10
108
 20
15
 11
108
 21
13
  0
LINE
  5
F9
100
AcDbEntity
  8
Holes
  6
ByLayer
 62
  256
370
   -1
100
AcDbLine
 10
108
 20
13
 11
110
 21
13
  0
LINE
  5
FA
100
AcDbEntity
  8
Holes
  6
ByLayer
 62
  256
370
   -1
100
AcDbLine
 10
110
 20
13
 11
110
 21
8
  0
LINE
  5
FB
100
AcDbEntity
  8
Holes
  6
ByLayer
 62
  256
370
   -1
100
AcDbLine
 10
110
 20
8
 11
112
 21
8
  0
LINE
  5
FC
100
AcDbEntity
  8
Holes
  6
ByLayer
 62
  256
370
   -1
100
AcDbLine
 10
112
 20
8
 11
112
 21
14
  0
LINE
  5
FD
100
AcDbEntity
  8
Holes
  6
ByLayer
 62
  256
370
   -1
100
AcDbLine
 10
112
 20
14
 11
115
 21
14
  0
LINE
  5
FE
100
AcDbEntity
  8
Holes
  6
ByLayer
 62
  256
370
   -1
100
AcDbLine
 10
115
 20
14
 11
115
 21
4
  0
ARC
  5
FF
100
AcDbEntity
  8
Holes
  6
ByLayer
 62
  256
370
   -1
100
AcDbCircle
 10
110.8232027717415
 20
32.86187902540958
 40
0.5
100
AcDbArc
 50
295.6677
 51
55.66770000000001
  0
LINE
  5
100
100
AcDbEntity
  8
Holes
  6
ByLayer
 62
  256
370
   -1
100
AcDbLine
 10
108.4900107194869
 20
35.06089064402809
 11
111.1051986043084
 21
33.27476926556414
  0
ARC
  5
101
100
AcDbEntity
  8
Holes
  6
ByLayer
 62
  256
370
   -1
100
AcDbCircle
 10
108.20801488692
 20
34.64800040387353
 40
0.5
100
AcDbArc
 50
55.66770000000001
 51
175.6677000000002
  0
LINE
  5
102
100
AcDbEntity
  8
Holes
  6
ByLayer
 62
  256
370
   -1
100
AcDbLine
 10
107.4375008321556
 20
31.09611554790583
 11
107.709443533688
 21
34.68577083856055
  0
LINE
  5
103
100
AcDbEntity
  8
Holes
  6
ByLayer
 62
  256
370
   -1
100
AcDbLine
 10
111.0397782924065
 20
32.41121835056802
 11
107.7950742691041
 21
30.85189999314153
  0
ARC
  5
104
100
AcDbEntity
  8
Holes
  6
ByLayer
 62
  256
370
   -1
100
AcDbCircle
 10
107.6867865087716
 20
31.07723033056231
 40
0.25
100
AcDbArc
 50
175.6676999999989
 51
295.6677
  0
ARC
  5
105
100
AcDbEntity
  8
Holes
  6
ByLayer
 62
  256
370
   -1
100
AcDbCircle
 10
110.8232027717415
 20
25.86187902540958
 40
0.5
100
AcDbArc
 50
295.6677
 51
55.66770000000001
  0
LINE
  5
106
100
AcDbEntity
  8
Holes
  6
ByLayer
 62
  256
370
   -1
100
AcDbLine
 10
108.4900107194869
 20
28.06089064402809
 11
111.1051986043084
 21
26.27476926556414
  0
ARC
  5
107
100
AcDbEntity
  8
Holes
  6
ByLayer
 62
  256
370
   -1
100
AcDbCircle
 10
108.20801488692
 20
27.64800040387353
 40
0.5
100
AcDbArc
 50
55.66770000000001
 51
175.6677000000002
  0
LINE
  5
108
100
AcDbEntity
  8
Holes
  6
ByLayer
 62
  256
370
   -1
100
AcDbLine
 10
107.4375008321556
 20
24.09611554790583
 11
107.709443533688
 21
27.68577083856055
  0
LINE
  5
109
100
AcDbEntity
  8
Holes
  6
ByLayer
 62
  256
370
   -1
100
AcDbLine
 10
111.0397782924065
 20
25.41121835056802
 11
107.7950742691041
 21
23.85189999314153
  0
ARC
  5
10A
100
AcDbEntity
  8
Holes
  6
ByLayer
 62
  256
370
   -1
100
AcDbCircle
 10
107.6867865087716
 20
24.07723033056231
 40
0.25
100
AcDbArc
 50
175.6676999999989
 51
295.6677
  0
ARC
  5
10B
100
AcDbEntity
  8
Holes
  6
ByLayer
 62
  256
370
   -1
100
AcDbCircle
 10
103.8232027717415
 20
26.86187902540958
 40
0.5
100
AcDbArc
 50
295.6677
 51
55.66770000000001
  0
LINE
  5
10C
100
AcDbEntity
  8
Holes
  6
ByLayer
 62
  256
370
   -1
100
AcDbLine
 10
101.4900107194869
 20
29.06089064402809
 11
104.1051986043084
 21
27.27476926556414
  0
ARC
  5
10D
100
AcDbEntity
  8
Holes
  6
ByLayer
 62
  256
370
   -1
100
AcDbCircle
 10
101.20801488692
 20
28.64800040387353
 40
0.5
100
AcDbArc
 50
55.66770000000001
 51
175.6677000000002
  0
LINE
  5
10E
100
AcDbEntity
  8
Holes
  6
ByLayer
 62
  256
370
   -1
100
AcDbLine
 10
100.4375008321556
 20
25.09611554790583
 11
100.709443533688
 21
28.68577083856055
  0
LINE
  5
10F
100
AcDbEntity
  8
Holes
  6
ByLayer
 62
  256
370
   -1
100
AcDbLine
 10
104.0397782924065
 20
26.41121835056802
 11
100.7950742691041
 21
24.85189999314153
  0
ARC
  5
110
100
AcDbEntity
  8
Holes
  6
ByLayer
 62
  256
370
   -1
100
AcDbCircle
 10
100.6867865087716
 20
25.07723033056231
 40
0.25
100
AcDbArc
 50
175.6676999999989
 51
295.6677
  0
ARC
  5
111
100
AcDbEntity
  8
Holes
  6
ByLayer
 62
  256
370
   -1
100
AcDbCircle
 10
97.82320277174148
 20
25.86187902540958
 40
0.5
100
AcDbArc
 50
295.6677
 51
55.66770000000001
  0
LINE
  5
112
100
AcDbEntity
  8
Holes
  6
ByLayer
 62
  256
370
   -1
100
AcDbLine
 10
95.49001071948695
 20
28.06089064402809
 11
98.10519860430841
 21
26.27476926556414
  0
ARC
  5
113
100
AcDbEntity
  8
Holes
  6
ByLayer
 62
  256
370
   -1
100
AcDbCircle
 10
95.20801488692001
 20
27.64800040387353
 40
0.5
100
AcDbArc
 50
55.66770000000001
 51
175.6677000000002
  0
LINE
  5
114
100
AcDbEntity
  8
Holes
  6
ByLayer
 62
  256
370
   -1
100
AcDbLine
 10
94.43750083215559
 20
24.09611554790583
 11
94.70944353368805
 21
27.68577083856055
  0
LINE
  5
115
100
AcDbEntity
  8
Holes
  6
ByLayer
 62
  256
370
   -1
100
AcDbLine
 10
98.03977829240651
 20
25.41121835056802
 11
94.79507426910409
 21
23.85189999314153
  0
ARC
  5
116
100
AcDbEntity
  8
Holes
  6
ByLayer
 62
  256
370
   -1
100
AcDbCircle
 10
94.68678650877158
 20
24.07723033056231
 40
0.25
100
AcDbArc
 50
175.6676999999989
 51
295.6677
  0
ARC
  5
117
100
AcDbEntity
  8
Holes
  6
ByLayer
 62
  256
370
   -1
100
AcDbCircle
 10
85.75420532867057
 20
36.9855340400126
 40
0.5
100
AcDbArc
 50
328.5729000000001
 51
88.57290000000002
  0
LINE
  5
118
100
AcDbEntity
  8
Holes
  6
ByLayer
 62
  256
370
   -1
100
AcDbLine
 10
82.6007114717396
 20
37.56425136809396
 11
85.76665783788995
 21
37.48537895097413
  0
ARC
  5
119
100
AcDbEntity
  8
Holes
  6
ByLayer
 62
  256
370
   -1
100
AcDbCircle
 10
82.5882589625202
 20
37.06440645713242
 40
0.5
100
AcDbArc
 50
88.57290000000002
 51
208.5729000000002
  0
LINE
  5
11A
100
AcDbEntity
  8
Holes
  6
ByLayer
 62
  256
370
   -1
100
AcDbLine
 10
83.87092179676497
 20
33.6637662244278
 11
82.14915431706545
 21
36.8252681909765
  0
LINE
  5
11B
100
AcDbEntity
  8
Holes
  6
ByLayer
 62
  256
370
   -1
100
AcDbLine
 10
86.1808574649059
 20
36.72482739520699
 11
84.30380018761004
 21
33.65298203510294
  0
ARC
  5
11C
100
AcDbEntity
  8
Holes
  6
ByLayer
 62
  256
370
   -1
100
AcDbCircle
 10
84.09047411949236
 20
33.78333535750575
 40
0.25
100
AcDbArc
 50
208.5728999999988
 51
328.5729000000001
  0
ARC
  5
11D
100
AcDbEntity
  8
Holes
  6
ByLayer
 62
  256
370
   -1
100
AcDbCircle
 10
81.95145078430369
 20
29.86252798890322
 40
0.5
100
AcDbArc
 50
328.5729000000001
 51
88.57290000000002
  0
LINE
  5
11E
100
AcDbEntity
  8
Holes
  6
ByLayer
 62
  256
370
   -1
100
AcDbLine
 10
78.79795692737272
 20
30.44124531698459
 11
81.96390329352307
 21
30.36237289986476
  0
ARC
  5
11F
100
AcDbEntity
  8
Holes
  6
ByLayer
 62
  256
370
   -1
100
AcDbCircle
 10
78.78550441815332
 20
29.94140040602305
 40
0.5
100
AcDbArc
 50
88.57290000000002
 51
208.5729000000002
  0
LINE
  5
120
100
AcDbEntity
  8
Holes
  6
ByLayer
 62
  256
370
   -1
100
AcDbLine
 10
80.0681672523981
 20
26.54076017331843
 11
78.34639977269858
 21
29.70226213986714
  0
LINE
  5
121
100
AcDbEntity
  8
Holes
  6
ByLayer
 62
  256
370
   -1
100
AcDbLine
 10
82.37810292053902
 20
29.60182134409762
 11
80.50104564324316
 21
26.52997598399357
  0
ARC
  5
122
100
AcDbEntity
  8
Holes
  6
ByLayer
 62
  256
370
   -1
100
AcDbCircle
 10
80.28771957512548
 20
26.66032930639637
 40
0.25
100
AcDbArc
 50
208.5728999999988
 51
328.5729000000001
  0
ARC
  5
123
100
AcDbEntity
  8
Holes
  6
ByLayer
 62
  256
370
   -1
100
AcDbCircle
 10
78.33396073058466
 20
36.02235005977295
 40
0.5
100
AcDbArc
 50
328.5729000000001
 51
88.57290000000002
  0
LINE
  5
124
100
AcDbEntity
  8
Holes
  6
ByLayer
 62
  256
370
   -1
100
AcDbLine
 10
75.1804668736537
 20
36.60106738785432
 11
78.34641323980405
 21
36.52219497073449
  0
ARC
  5
125
100
AcDbEntity
  8
Holes
  6
ByLayer
 62
  256
370
   -1
100
AcDbCircle
 10
75.16801436443431
 20
36.10122247689278
 40
0.5
100
AcDbArc
 50
88.57290000000002
 51
208.5729000000002
  0
LINE
  5
126
100
AcDbEntity
  8
Holes
  6
ByLayer
 62
  256
370
   -1
100
AcDbLine
 10
76.45067719867907
 20
32.70058224418815
 11
74.72890971897957
 21
35.86208421073686
  0
LINE
  5
127
100
AcDbEntity
  8
Holes
  6
ByLayer
 62
  256
370
   -1
100
AcDbLine
 10
78.76061286682001
 20
35.76164341496735
 11
76.88355558952414
 21
32.6897980548633
  0
ARC
  5
128
100
AcDbEntity
  8
Holes
  6
ByLayer
 62
  256
370
   -1
100
AcDbCircle
 10
76.67022952140645
 20
32.82015137726611
 40
0.25
100
AcDbArc
 50
208.5728999999988
 51
328.5729000000001
  0
ARC
  5
129
100
AcDbEntity
  8
Holes
  6
ByLayer
 62
  256
370
   -1
100
AcDbCircle
 10
23
 20
53
 40
6
100
AcDbArc
 50
0
 51
180
  0
LINE
  5
12A
100
AcDbEntity
  8
Holes
  6
ByLayer
 62
  256
370
   -1
100
AcDbLine
 10
17
 20
53
 11
29
 21
53
  0
ARC
  5
12B
100
AcDbEntity
  8
Holes
  6
ByLayer
 62
  256
370
   -1
100
AcDbCircle
 10
23
 20
50
 40
2
100
AcDbArc
 50
180
 51
360
  0
ARC
  5
12C
100
AcDbEntity
  8
Holes
  6
ByLayer
 62
  256
370
   -1
100
AcDbCircle
 10
28
 20
50
 40
2
100
AcDbArc
 50
180
 51
360
  0
ARC
  5
12D
100
AcDbEntity
  8
Holes
  6
ByLayer
 62
  256
370
   -1
100
AcDbCircle
 10
18
 20
50
 40
2
100
AcDbArc
 50
180
 51
360
  0
ARC
  5
12E
100
AcDbEntity
  8
Holes
  6
ByLayer
 62
  256
370
   -1
100
AcDbCircle
 10
16
 20
51
 40
1
100
AcDbArc
 50
90
 51
180
  0
ARC
  5
12F
100
AcDbEntity
  8
Holes
  6
ByLayer
 62
  256
370
   -1
100
AcDbCircle
 10
30
 20
51
 40
1
100
AcDbArc
 50
0
 51
90
  0
LINE
  5
130
100
AcDbEntity
  8
Holes
  6
ByLayer
 62
  256
370
   -1
100
AcDbLine
 10
16
 20
52
 11
30
 21
52
  0
LINE
  5
131
100
AcDbEntity
  8
Holes
  6
ByLayer
 62
  256
370
   -1
100
AcDbLine
 10
31
 20
51
 11
15
 21
51
  0
LINE
  5
132
100
AcDbEntity
  8
Holes
  6
ByLayer
 62
  256
370
   -1
100
AcDbLine
 10
16
 20
50
 11
20
 21
50
  0
LINE
  5
133
100
AcDbEntity
  8
Holes
  6
ByLayer
 62
  256
370
   -1
100
AcDbLine
 10
21
 20
50
 11
25
 21
50
  0
LINE
  5
134
100
AcDbEntity
  8
Holes
  6
ByLayer
 62
  256
370
   -1
100
AcDbLine
 10
26
 20
50
 11
30
 21
50
  0
ARC
  5
135
100
AcDbEntity
  8
Holes
  6
ByLayer
 62
  256
370
   -1
100
AcDbCircle
 10
134.5267682375336
 20
41.76612498127981
 40
0.5
100
AcDbArc
 50
45
 51
165
  0
LINE
  5
136
100
AcDbEntity
  8
Holes
  6
ByLayer
 62
  256
370
   -1
100
AcDbLine
 10
137.1196783718731
 20
39.88032162812691
 11
134.8803216281269
 21
42.11967837187309
  0
ARC
  5
137
100
AcDbEntity
  8
Holes
  6
ByLayer
 62
  256
370
   -1
100
AcDbCircle
 10
136.7661249812798
 20
39.52676823753364
 40
0.5
100
AcDbArc
 50
284.9999999999998
 51
45
  0
LINE
  5
138
100
AcDbEntity
  8
Holes
  6
ByLayer
 62
  256
370
   -1
100
AcDbLine
 10
133.4182581518689
 20
38.112071934021
 11
136.8955345038311
 21
39.04380532438911
  0
LINE
  5
139
100
AcDbEntity
  8
Holes
  6
ByLayer
 62
  256
370
   -1
100
AcDbLine
 10
134.0438053243891
 20
41.89553450383107
 11
133.112071934021
 21
38.4182581518689
  0
ARC
  5
13A
100
AcDbEntity
  8
Holes
  6
ByLayer
 62
  256
370
   -1
100
AcDbCircle
 10
133.3535533905933
 20
38.35355339059327
 40
0.25
100
AcDbArc
 50
165
 51
285.0000000000011
  0
ARC
  5
13B
100
AcDbEntity
  8
Holes
  6
ByLayer
 62
  256
370
   -1
100
AcDbCircle
 10
144.5267682375336
 20
41.76612498127981
 40
0.5
100
AcDbArc
 50
45
 51
165
  0
LINE
  5
13C
100
AcDbEntity
  8
Holes
  6
ByLayer
 62
  256
370
   -1
100
AcDbLine
 10
147.1196783718731
 20
39.88032162812691
 11
144.8803216281269
 21
42.11967837187309
  0
ARC
  5
13D
100
AcDbEntity
  8
Holes
  6
ByLayer
 62
  256
370
   -1
100
AcDbCircle
 10
146.7661249812798
 20
39.52676823753364
 40
0.5
100
AcDbArc
 50
284.9999999999998
 51
45
  0
LINE
  5
13E
100
AcDbEntity
  8
Holes
  6
ByLayer
 62
  256
370
   -1
100
AcDbLine
 10
143.4182581518689
 20
38.112071934021
 11
146.8955345038311
 21
39.04380532438911
  0
LINE
  5
13F
100
AcDbEntity
  8
Holes
  6
ByLayer
 62
  256
370
   -1
100
AcDbLine
 10
144.0438053243891
 20
41.89553450383107
 11
143.112071934021
 21
38.4182581518689
  0
ARC
  5
140
100
AcDbEntity
  8
Holes
  6
ByLayer
 62
  256
370
   -1
100
AcDbCircle
 10
143.3535533905933
 20
38.35355339059327
 40
0.25
100
AcDbArc
 50
165
 51
285.0000000000011
  0
ARC
  5
141
100
AcDbEntity
  8
Holes
  6
ByLayer
 62
  256
370
   -1
100
AcDbCircle
 10
154.5267682375336
 20
41.76612498127981
 40
0.5
100
AcDbArc
 50
45
 51
165
  0
LINE
  5
142
100
AcDbEntity
  8
Holes
  6
ByLayer
 62
  256
370
   -1
100
AcDbLine
 10
157.1196783718731
 20
39.88032162812691
 11
154.8803216281269
 21
42.11967837187309
  0
ARC
  5
143
100
AcDbEntity
  8
Holes
  6
ByLayer
 62
  256
370
   -1
100
AcDbCircle
 10
156.7661249812798
 20
39.52676823753364
 40
0.5
100
AcDbArc
 50
284.9999999999998
 51
45
  0
LINE
  5
144
100
AcDbEntity
  8
Holes
  6
ByLayer
 62
  256
370
   -1
100
AcDbLine
 10
153.4182581518689
 20
38.112071934021
 11
156.8955345038311
 21
39.04380532438911
  0
LINE
  5
145
100
AcDbEntity
  8
Holes
  6
ByLayer
 62
  256
370
   -1
100
AcDbLine
 10
154.0438053243891
 20
41.89553450383107
 11
153.112071934021
 21
38.4182581518689
  0
ARC
  5
146
100
AcDbEntity
  8
Holes
  6
ByLayer
 62
  256
370
   -1
100
AcDbCircle
 10
153.3535533905933
 20
38.35355339059327
 40
0.25
100
AcDbArc
 50
165
 51
285.0000000000011
  0
ARC
  5
147
100
AcDbEntity
  8
Holes
  6
ByLayer
 62
  256
370
   -1
100
AcDbCircle
 10
164.5267682375336
 20
41.76612498127981
 40
0.5
100
AcDbArc
 50
45
 51
165
  0
LINE
  5
148
100
AcDbEntity
  8
Holes
  6
ByLayer
 62
  256
370
   -1
100
AcDbLine
 10
167.1196783718731
 20
39.88032162812691
 11
164.8803216281269
 21
42.11967837187309
  0
ARC
  5
149
100
AcDbEntity
  8
Holes
  6
ByLayer
 62
  256
370
   -1
100
AcDbCircle
 10
166.7661249812798
 20
39.52676823753364
 40
0.5
100
AcDbArc
 50
284.9999999999998
 51
45
  0
LINE
  5
14A
100
AcDbEntity
  8
Holes
  6
ByLayer
 62
  256
370
   -1
100
AcDbLine
 10
163.4182581518689
 20
38.112071934021
 11
166.8955345038311
 21
39.04380532438911
  0
LINE
  5
14B
100
AcDbEntity
  8
Holes
  6
ByLayer
 62
  256
370
   -1
100
AcDbLine
 10
164.0438053243891
 20
41.89553450383107
 11
163.112071934021
 21
38.4182581518689
  0
ARC
  5
14C
100
AcDbEntity
  8
Holes
  6
ByLayer
 62
  256
370
   -1
100
AcDbCircle
 10
163.3535533905933
 20
38.35355339059327
 40
0.25
100
AcDbArc
 50
165
 51
285.0000000000011
  0
ARC
  5
14D
100
AcDbEntity
  8
Holes
  6
ByLayer
 62
  256
370
   -1
100
AcDbCircle
 10
174.5267682375336
 20
41.76612498127981
 40
0.5
100
AcDbArc
 50
45
 51
165
  0
LINE
  5
14E
100
AcDbEntity
  8
Holes
  6
ByLayer
 62
  256
370
   -1
100
AcDbLine
 10
177.1196783718731
 20
39.88032162812691
 11
174.8803216281269
 21
42.11967837187309
  0
ARC
  5
14F
100
AcDbEntity
  8
Holes
  6
ByLayer
 62
  256
370
   -1
100
AcDbCircle
 10
176.7661249812798
 20
39.52676823753364
 40
0.5
100
AcDbArc
 50
284.9999999999998
 51
45
  0
LINE
  5
150
100
AcDbEntity
  8
Holes
  6
ByLayer
 62
  256
370
   -1
100
AcDbLine
 10
173.4182581518689
 20
38.112071934021
 11
176.8955345038311
 21
39.04380532438911
  0
LINE
  5
151
100
AcDbEntity
  8
Holes
  6
ByLayer
 62
  256
370
   -1
100
AcDbLine
 10
174.0438053243891
 20
41.89553450383107
 11
173.112071934021
 21
38.4182581518689
  0
ARC
  5
152
100
AcDbEntity
  8
Holes
  6
ByLayer
 62
  256
370
   -1
100
AcDbCircle
 10
173.3535533905933
 20
38.35355339059327
 40
0.25
100
AcDbArc
 50
165
 51
285.0000000000011
  0
ARC
  5
153
100
AcDbEntity
  8
Holes
  6
ByLayer
 62
  256
370
   -1
100
AcDbCircle
 10
184.5267682375336
 20
41.76612498127981
 40
0.5
100
AcDbArc
 50
45
 51
165
  0
LINE
  5
154
100
AcDbEntity
  8
Holes
  6
ByLayer
 62
  256
370
   -1
100
AcDbLine
 10
187.1196783718731
 20
39.88032162812691
 11
184.8803216281269
 21
42.11967837187309
  0
ARC
  5
155
100
AcDbEntity
  8
Holes
  6
ByLayer
 62
  256
370
   -1
100
AcDbCircle
 10
186.7661249812798
 20
39.52676823753364
 40
0.5
100
AcDbArc
 50
284.9999999999998
 51
45
  0
LINE
  5
156
100
AcDbEntity
  8
Holes
  6
ByLayer
 62
  256
370
   -1
100
AcDbLine
 10
183.4182581518689
 20
38.112071934021
 11
186.8955345038311
 21
39.04380532438911
  0
LINE
  5
157
100
AcDbEntity
  8
Holes
  6
ByLayer
 62
  256
370
   -1
100
AcDbLine
 10
184.0438053243891
 20
41.89553450383107
 11
183.112071934021
 21
38.4182581518689
  0
ARC
  5
158
100
AcDbEntity
  8
Holes
  6
ByLayer
 62
  256
370
   -1
100
AcDbCircle
 10
183.3535533905933
 20
38.35355339059327
 40
0.25
100
AcDbArc
 50
165
 51
285.0000000000011
  0
ARC
  5
159
100
AcDbEntity
  8
Holes
  6
ByLayer
 62
  256
370
   -1
100
AcDbCircle
 10
194.5267682375336
 20
41.76612498127981
 40
0.5
100
AcDbArc
 50
45
 51
165
  0
LINE
  5
15A
100
AcDbEntity
  8
Holes
  6
ByLayer
 62
  256
370
   -1
100
AcDbLine
 10
197.1196783718731
 20
39.88032162812691
 11
194.8803216281269
 21
42.11967837187309
  0
ARC
  5
15B
100
AcDbEntity
  8
Holes
  6
ByLayer
 62
  256
370
   -1
100
AcDbCircle
 10
196.7661249812798
 20
39.52676823753364
 40
0.5
100
AcDbArc
 50
284.9999999999998
 51
45
  0
LINE
  5
15C
100
AcDbEntity
  8
Holes
  6
ByLayer
 62
  256
370
   -1
100
AcDbLine
 10
193.4182581518689
 20
38.112071934021
 11
196.8955345038311
 21
39.04380532438911
  0
LINE
  5
15D
100
AcDbEntity
  8
Holes
  6
ByLayer
 62
  256
370
   -1
100
AcDbLine
 10
194.0438053243891
 20
41.89553450383107
 11
193.112071934021
 21
38.4182581518689
  0
ARC
  5
15E
100
AcDbEntity
  8
Holes
  6
ByLayer
 62
  256
370
   -1
100
AcDbCircle
 10
193.3535533905933
 20
38.35355339059327
 40
0.25
100
AcDbArc
 50
165
 51
285.0000000000011
  0
ARC
  5
15F
100
AcDbEntity
  8
Holes
  6
ByLayer
 62
  256
370
   -1
100
AcDbCircle
 10
204.5267682375336
 20
41.76612498127981
 40
0.5
100
AcDbArc
 50
45
 51
165
  0
LINE
  5
160
100
AcDbEntity
  8
Holes
  6
ByLayer
 62
  256
370
   -1
100
AcDbLine
 10
207.1196783718731
 20
39.88032162812691
 11
204.8803216281269
 21
42.11967837187309
  0
ARC
  5
161
100
AcDbEntity
  8
Holes
  6
ByLayer
 62
  256
370
   -1
100
AcDbCircle
 10
206.7661249812798
 20
39.52676823753364
 40
0.5
100
AcDbArc
 50
284.9999999999998
 51
45
  0
LINE
  5
162
100
AcDbEntity
  8
Holes
  6
ByLayer
 62
  256
370
   -1
100
AcDbLine
 10
203.4182581518689
 20
38.112071934021
 11
206.8955345038311
 21
39.04380532438911
  0
LINE
  5
163
100
AcDbEntity
  8
Holes
  6
ByLayer
 62
  256
370
   -1
100
AcDbLine
 10
204.0438053243891
 20
41.89553450383107
 11
203.112071934021
 21
38.4182581518689
  0
ARC
  5
164
100
AcDbEntity
  8
Holes
  6
ByLayer
 62
  256
370
   -1
100
AcDbCircle
 10
203.3535533905933
 20
38.35355339059327
 40
0.25
100
AcDbArc
 50
165
 51
285.0000000000011
  0
ARC
  5
165
100
AcDbEntity
  8
Holes
  6
ByLayer
 62
  256
370
   -1
100
AcDbCircle
 10
214.5267682375336
 20
41.76612498127981
 40
0.5
100
AcDbArc
 50
45
 51
165
  0
LINE
  5
166
100
AcDbEntity
  8
Holes
  6
ByLayer
 62
  256
370
   -1
100
AcDbLine
 10
217.1196783718731
 20
39.88032162812691
 11
214.8803216281269
 21
42.11967837187309
  0
ARC
  5
167
100
AcDbEntity
  8
Holes
  6
ByLayer
 62
  256
370
   -1
100
AcDbCircle
 10
216.7661249812798
 20
39.52676823753364
 40
0.5
100
AcDbArc
 50
284.9999999999998
 51
45
  0
LINE
  5
168
100
AcDbEntity
  8
Holes
  6
ByLayer
 62
  256
370
   -1
100
AcDbLine
 10
213.4182581518689
 20
38.112071934021
 11
216.8955345038311
 21
39.04380532438911
  0
LINE
  5
169
100
AcDbEntity
  8
Holes
  6
ByLayer
 62
  256
370
   -1
100
AcDbLine
 10
214.0438053243891
 20
41.89553450383107
 11
213.112071934021
 21
38.4182581518689
  0
ARC
  5
16A
100
AcDbEntity
  8
Holes
  6
ByLayer
 62
  256
370
   -1
100
AcDbCircle
 10
213.3535533905933
 20
38.35355339059327
 40
0.25
100
AcDbArc
 50
165
 51
285.0000000000011
  0
ARC
  5
16B
100
AcDbEntity
  8
Holes
  6
ByLayer
 62
  256
370
   -1
100
AcDbCircle
 10
224.5267682375336
 20
41.76612498127981
 40
0.5
100
AcDbArc
 50
45
 51
165
  0
LINE
  5
16C
100
AcDbEntity
  8
Holes
  6
ByLayer
 62
  256
370
   -1
100
AcDbLine
 10
227.1196783718731
 20
39.88032162812691
 11
224.8803216281269
 21
42.11967837187309
  0
ARC
  5
16D
100
AcDbEntity
  8
Holes
  6
ByLayer
 62
  256
370
   -1
100
AcDbCircle
 10
226.7661249812798
 20
39.52676823753364
 40
0.5
100
AcDbArc
 50
284.9999999999998
 51
45
  0
LINE
  5
16E
100
AcDbEntity
  8
Holes
  6
ByLayer
 62
  256
370
   -1
100
AcDbLine
 10
223.4182581518689
 20
38.112071934021
 11
226.8955345038311
 21
39.04380532438911
  0
LINE
  5
16F
100
AcDbEntity
  8
Holes
  6
ByLayer
 62
  256
370
   -1
100
AcDbLine
 10
224.0438053243891
 20
41.89553450383107
 11
223.112071934021
 21
38.4182581518689
  0
ARC
  5
170
100
AcDbEntity
  8
Holes
  6
ByLayer
 62
  256
370
   -1
100
AcDbCircle
 10
223.3535533905933
 20
38.35355339059327
 40
0.25
100
AcDbArc
 50
165
 51
285.0000000000011
  0
ARC
  5
171
100
AcDbEntity
  8
Holes
  6
ByLayer
 62
  256
370
   -1
100
AcDbCircle
 10
73.75420532867057
 20
30.9855340400126
 40
0.5
100
AcDbArc
 50
328.5729000000001
 51
88.57290000000002
  0
LINE
  5
172
100
AcDbEntity
  8
Holes
  6
ByLayer
 62
  256
370
   -1
100
AcDbLine
 10
70.6007114717396
 20
31.56425136809396
 11
73.76665783788995
 21
31.48537895097413
  0
ARC
  5
173
100
AcDbEntity
  8
Holes
  6
ByLayer
 62
  256
370
   -1
100
AcDbCircle
 10
70.5882589625202
 20
31.06440645713242
 40
0.5
100
AcDbArc
 50
88.57290000000002
 51
208.5729000000002
  0
LINE
  5
174
100
AcDbEntity
  8
Holes
  6
ByLayer
 62
  256
370
   -1
100
AcDbLine
 10
71.87092179676497
 20
27.6637662244278
 11
70.14915431706545
 21
30.8252681909765
  0
LINE
  5
175
100
AcDbEntity
  8
Holes
  6
ByLayer
 62
  256
370
   -1
100
AcDbLine
 10
74.1808574649059
 20
30.72482739520699
 11
72.30380018761004
 21
27.65298203510294
  0
ARC
  5
176
100
AcDbEntity
  8
Holes
  6
ByLayer
 62
  256
370
   -1
100
AcDbCircle
 10
72.09047411949236
 20
27.78333535750575
 40
0.25
100
AcDbArc
 50
208.5728999999988
 51
328.5729000000001
  0
ARC
  5
177
100
AcDbEntity
  8
Holes
  6
ByLayer
 62
  256
370
   -1
100
AcDbCircle
 10
76.95145078430369
 20
24.86252798890322
 40
0.5
100
AcDbArc
 50
328.5729000000001
 51
88.57290000000002
  0
LINE
  5
178
100
AcDbEntity
  8
Holes
  6
ByLayer
 62
  256
370
   -1
100
AcDbLine
 10
73.79795692737272
 20
25.44124531698459
 11
76.96390329352307
 21
25.36237289986476
  0
ARC
  5
179
100
AcDbEntity
  8
Holes
  6
ByLayer
 62
  256
370
   -1
100
AcDbCircle
 10
73.78550441815332
 20
24.94140040602305
 40
0.5
100
AcDbArc
 50
88.57290000000002
 51
208.5729000000002
  0
LINE
  5
17A
100
AcDbEntity
  8
Holes
  6
ByLayer
 62
  256
370
   -1
100
AcDbLine
 10
75.0681672523981
 20
21.54076017331843
 11
73.34639977269858
 21
24.70226213986714
  0
LINE
  5
17B
100
AcDbEntity
  8
Holes
  6
ByLayer
 62
  256
370
   -1
100
AcDbLine
 10
77.37810292053902
 20
24.60182134409762
 11
75.50104564324316
 21
21.52997598399357
  0
ARC
  5
17C
100
AcDbEntity
  8
Holes
  6
ByLayer
 62
  256
370
   -1
100
AcDbCircle
 10
75.28771957512548
 20
21.66032930639637
 40
0.25
100
AcDbArc
 50
208.5728999999988
 51
328.5729000000001
  0
ARC
  5
17D
100
AcDbEntity
  8
Holes
  6
ByLayer
 62
  256
370
   -1
100
AcDbCircle
 10
68.82320277174148
 20
33.86187902540958
 40
0.5
100
AcDbArc
 50
295.6677
 51
55.66770000000001
  0
LINE
  5
17E
100
AcDbEntity
  8
Holes
  6
ByLayer
 62
  256
370
   -1
100
AcDbLine
 10
66.49001071948695
 20
36.06089064402809
 11
69.10519860430841
 21
34.27476926556414
  0
ARC
  5
17F
100
AcDbEntity
  8
Holes
  6
ByLayer
 62
  256
370
   -1
100
AcDbCircle
 10
66.20801488692001
 20
35.64800040387353
 40
0.5
100
AcDbArc
 50
55.66770000000001
 51
175.6677000000002
  0
LINE
  5
180
100
AcDbEntity
  8
Holes
  6
ByLayer
 62
  256
370
   -1
100
AcDbLine
 10
65.43750083215559
 20
32.09611554790583
 11
65.70944353368805
 21
35.68577083856055
  0
LINE
  5
181
100
AcDbEntity
  8
Holes
  6
ByLayer
 62
  256
370
   -1
100
AcDbLine
 10
69.03977829240651
 20
33.41121835056802
 11
65.79507426910409
 21
31.85189999314153
  0
ARC
  5
182
100
AcDbEntity
  8
Holes
  6
ByLayer
 62
  256
370
   -1
100
AcDbCircle
 10
65.68678650877158
 20
32.07723033056231
 40
0.25
100
AcDbArc
 50
175.6676999999989
 51
295.6677
  0
ARC
  5
183
100
AcDbEntity
  8
Holes
  6
ByLayer
 62
  256
370
   -1
100
AcDbCircle
 10
90.95145078430369
 20
28.86252798890322
 40
0.5
100
AcDbArc
 50
328.5729000000001
 51
88.57290000000002
  0
LINE
  5
184
100
AcDbEntity
  8
Holes
  6
ByLayer
 62
  256
370
   -1
100
AcDbLine
 10
87.79795692737272
 20
29.44124531698459
 11
90.96390329352307
 21
29.36237289986476
  0
ARC
  5
185
100
AcDbEntity
  8
Holes
  6
ByLayer
 62
  256
370
   -1
100
AcDbCircle
 10
87.78550441815332
 20
28.94140040602305
 40
0.5
100
AcDbArc
 50
88.57290000000002
 51
208.5729000000002
  0
LINE
  5
186
100
AcDbEntity
  8
Holes
  6
ByLayer
 62
  256
370
   -1
100
AcDbLine
 10
89.0681672523981
 20
25.54076017331843
 11
87.34639977269858
 21
28.70226213986714
  0
LINE
  5
187
100
AcDbEntity
  8
Holes
  6
ByLayer
 62
  256
370
   -1
100
AcDbLine
 10
91.37810292053902
 20
28.60182134409762
 11
89.50104564324316
 21
25.52997598399357
  0
ARC
  5
188
100
AcDbEntity
  8
Holes
  6
ByLayer
 62
  256
370
   -1
100
AcDbCircle
 10
89.28771957512548
 20
25.66032930639637
 40
0.25
100
AcDbArc
 50
208.5728999999988
 51
328.5729000000001
  0
LINE
  5
189
100
AcDbEntity
  8
Holes
  6
ByLayer
 62
  256
370
   -1
100
AcDbLine
 10
71
 20
41
 11
74
 21
41
  0
LINE
  5
18A
100
AcDbEntity
  8
Holes
  6
ByLayer
 62
  256
370
   -1
100
AcDbLine
 10
76
 20
41
 11
79
 21
41
  0
LINE
  5
18B
100
AcDbEntity
  8
Holes
  6
ByLayer
 62
  256
370
   -1
100
AcDbLine
 10
79
 20
41
 11
79
 21
51
  0
LINE
  5
18C
100
AcDbEntity
  8
Holes
  6
ByLayer
 62
  256
370
   -1
100
AcDbLine
 10
81
 20
41
 11
84
 21
41
  0
LINE
  5
18D
100
AcDbEntity
  8
Holes
  6
ByLayer
 62
  256
370
   -1
100
AcDbLine
 10
86
 20
41
 11
89
 21
41
  0
LINE
  5
18E
100
AcDbEntity
  8
Holes
  6
ByLayer
 62
  256
370
   -1
100
AcDbLine
 10
71
 20
45.35889894354069
 11
71
 21
41
  0
LINE
  5
18F
100
AcDbEntity
  8
Holes
  6
ByLayer
 62
  256
370
   -1
100
AcDbLine
 10
76
 20
50.16515138991167
 11
76
 21
41
  0
LINE
  5
190
100
AcDbEntity
  8
Holes
  6
ByLayer
 62
  256
370
   -1
100
AcDbLine
 10
81
 20
50.94987437106644
 11
81
 21
41
  0
LINE
  5
191
100
AcDbEntity
  8
Holes
  6
ByLayer
 62
  256
370
   -1
100
AcDbLine
 10
84
 20
41
 11
84
 21
50.16515138991173
  0
LINE
  5
192
100
AcDbEntity
  8
Holes
  6
ByLayer
 62
  256
370
   -1
100
AcDbLine
 10
86
 20
49
 11
86
 21
41
  0
LINE
  5
193
100
AcDbEntity
  8
Holes
  6
ByLayer
 62
  256
370
   -1
100
AcDbLine
 10
89
 20
41
 11
89
 21
45.35889894354077
  0
LINE
  5
194
100
AcDbEntity
  8
Holes
  6
ByLayer
 62
  256
370
   -1
100
AcDbLine
 10
74
 20
41
 11
74
 21
49.00000000000006
  0
LINE
  5
195
100
AcDbEntity
  8
Holes
  6
ByLayer
 62
  256
370
   -1
100
AcDbLine
 10
71.00000000000001
 20
45.4
 11
74.00000000000001
 21
49
  0
LINE
  5
196
100
AcDbEntity
  8
Holes
  6
ByLayer
 62
  256
370
   -1
100
AcDbLine
 10
76
 20
50.16
 11
79
 21
51
  0
LINE
  5
197
100
AcDbEntity
  8
Holes
  6
ByLayer
 62
  256
370
   -1
100
AcDbLine
 10
81
 20
50.95
 11
84
 21
50.16
  0
LINE
  5
198
100
AcDbEntity
  8
Holes
  6
ByLayer
 62
  256
370
   -1
100
AcDbLine
 10
88.99999999999999
 20
45.359
 11
86.00000000000001
 21
49
  0
LINE
  5
199
100
AcDbEntity
  8
Holes
  6
ByLayer
 62
  256
370
   -1
100
AcDbLine
 10
68.00000000000001
 20
66.40000000000001
 11
68.00000000000001
 21
66.60000000000001
  0
LINE
  5
19A
100
AcDbEntity
  8
Holes
  6
ByLayer
 62
  256
370
   -1
100
AcDbLine
 10
68.00000000000003
 20
66
 11
68.00000000000003
 21
66.20000000000002
  0
LINE
  5
19B
100
AcDbEntity
  8
Holes
  6
ByLayer
 62
  256
370
   -1
100
AcDbLine
 10
68.00000000000004
 20
65.60000000000001
 11
68.00000000000004
 21
65.80000000000001
  0
LINE
  5
19C
100
AcDbEntity
  8
Holes
  6
ByLayer
 62
  256
370
   -1
100
AcDbLine
 10
68.00000000000006
 20
65.20000000000002
 11
68.00000000000006
 21
65.40000000000001
  0
LINE
  5
19D
100
AcDbEntity
  8
Holes
  6
ByLayer
 62
  256
370
   -1
100
AcDbLine
 10
68.00000000000007
 20
64.80000000000001
 11
68.00000000000007
 21
65.00000000000001
  0
LINE
  5
19E
100
AcDbEntity
  8
Holes
  6
ByLayer
 62
  256
370
   -1
100
AcDbLine
 10
68.00000000000009
 20
64.40000000000001
 11
68.00000000000009
 21
64.60000000000002
  0
LINE
  5
19F
100
AcDbEntity
  8
Holes
  6
ByLayer
 62
  256
370
   -1
100
AcDbLine
 10
68.0000000000001
 20
64.00000000000001
 11
68.0000000000001
 21
64.20000000000002
  0
LINE
  5
1A0
100
AcDbEntity
  8
Holes
  6
ByLayer
 62
  256
370
   -1
100
AcDbLine
 10
68.00000000000011
 20
63.60000000000002
 11
68.00000000000011
 21
63.80000000000001
  0
LINE
  5
1A1
100
AcDbEntity
  8
Holes
  6
ByLayer
 62
  256
370
   -1
100
AcDbLine
 10
68.00000000000013
 20
63.20000000000002
 11
68.00000000000013
 21
63.40000000000002
  0
LINE
  5
1A2
100
AcDbEntity
  8
Holes
  6
ByLayer
 62
  256
370
   -1
100
AcDbLine
 10
68.00000000000014
 20
62.80000000000001
 11
68.00000000000014
 21
63.00000000000003
  0
LINE
  5
1A3
100
AcDbEntity
  8
Holes
  6
ByLayer
 62
  256
370
   -1
100
AcDbLine
 10
68.00000000000016
 20
62.40000000000002
 11
68.00000000000016
 21
62.60000000000002
  0
LINE
  5
1A4
100
AcDbEntity
  8
Holes
  6
ByLayer
 62
  256
370
   -1
100
AcDbLine
 10
68.00000000000017
 20
62.00000000000003
 11
68.00000000000017
 21
62.20000000000002
  0
LINE
  5
1A5
100
AcDbEntity
  8
Holes
  6
ByLayer
 62
  256
370
   -1
100
AcDbLine
 10
68.00000000000018
 20
61.60000000000002
 11
68.00000000000018
 21
61.80000000000003
  0
LINE
  5
1A6
100
AcDbEntity
  8
Holes
  6
ByLayer
 62
  256
370
   -1
100
AcDbLine
 10
68.0000000000002
 20
61.20000000000002
 11
68.0000000000002
 21
61.40000000000003
  0
LINE
  5
1A7
100
AcDbEntity
  8
Holes
  6
ByLayer
 62
  256
370
   -1
100
AcDbLine
 10
68.00000000000021
 20
61.00000000000003
 11
77.00000000000021
 21
61.00000000000003
  0
LINE
  5
1A8
100
AcDbEntity
  8
Holes
  6
ByLayer
 62
  256
370
   -1
100
AcDbLine
 10
77.00000000000021
 20
61.00000000000003
 11
77.00000000000021
 21
60.80000000000003
  0
LINE
  5
1A9
100
AcDbEntity
  8
Holes
  6
ByLayer
 62
  256
370
   -1
100
AcDbLine
 10
77.00000000000021
 20
60.80000000000003
 11
68.00000000000021
 21
60.80000000000003
  0
LINE
  5
1AA
100
AcDbEntity
  8
Holes
  6
ByLayer
 62
  256
370
   -1
100
AcDbLine
 10
68.00000000000021
 20
60.80000000000003
 11
68.00000000000021
 21
61.00000000000003
  0
LINE
  5
1AB
100
AcDbEntity
  8
Holes
  6
ByLayer
 62
  256
370
   -1
100
AcDbLine
 10
68.00000000000023
 20
60.60000000000002
 11
77.00000000000023
 21
60.60000000000002
  0
LINE
  5
1AC
100
AcDbEntity
  8
Holes
  6
ByLayer
 62
  256
370
   -1
100
AcDbLine
 10
77.00000000000023
 20
60.60000000000002
 11
77.00000000000023
 21
60.40000000000003
  0
LINE
  5
1AD
100
AcDbEntity
  8
Holes
  6
ByLayer
 62
  256
370
   -1
100
AcDbLine
 10
77.00000000000023
 20
60.40000000000003
 11
68.00000000000023
 21
60.40000000000003
  0
LINE
  5
1AE
100
AcDbEntity
  8
Holes
  6
ByLayer
 62
  256
370
   -1
100
AcDbLine
 10
68.00000000000023
 20
60.40000000000003
 11
68.00000000000023
 21
60.60000000000002
  0
LINE
  5
1AF
100
AcDbEntity
  8
Holes
  6
ByLayer
 62
  256
370
   -1
100
AcDbLine
 10
68.00000000000024
 20
60.20000000000003
 11
77.00000000000024
 21
60.20000000000003
  0
LINE
  5
1B0
100
AcDbEntity
  8
Holes
  6
ByLayer
 62
  256
370
   -1
100
AcDbLine
 10
77.00000000000024
 20
60.20000000000003
 11
77.00000000000024
 21
60.00000000000003
  0
LINE
  5
1B1
100
AcDbEntity
  8
Holes
  6
ByLayer
 62
  256
370
   -1
100
AcDbLine
 10
77.00000000000024
 20
60.00000000000003
 11
68.00000000000024
 21
60.00000000000003
  0
LINE
  5
1B2
100
AcDbEntity
  8
Holes
  6
ByLayer
 62
  256
370
   -1
100
AcDbLine
 10
68.00000000000024
 20
60.00000000000003
 11
68.00000000000024
 21
60.20000000000003
  0
LINE
  5
1B3
100
AcDbEntity
  8
Holes
  6
ByLayer
 62
  256
370
   -1
100
AcDbLine
 10
68.00000000000026
 20
59.80000000000004
 11
77.00000000000026
 21
59.80000000000004
  0
LINE
  5
1B4
100
AcDbEntity
  8
Holes
  6
ByLayer
 62
  256
370
   -1
100
AcDbLine
 10
77.00000000000026
 20
59.80000000000004
 11
77.00000000000026
 21
59.60000000000002
  0
LINE
  5
1B5
100
AcDbEntity
  8
Holes
  6
ByLayer
 62
  256
370
   -1
100
AcDbLine
 10
77.00000000000026
 20
59.60000000000002
 11
68.00000000000026
 21
59.60000000000002
  0
LINE
  5
1B6
100
AcDbEntity
  8
Holes
  6
ByLayer
 62
  256
370
   -1
100
AcDbLine
 10
68.00000000000026
 20
59.60000000000002
 11
68.00000000000026
 21
59.80000000000004
  0
LINE
  5
1B7
100
AcDbEntity
  8
Holes
  6
ByLayer
 62
  256
370
   -1
100
AcDbLine
 10
68.00000000000027
 20
59.40000000000003
 11
77.00000000000027
 21
59.40000000000003
  0
LINE
  5
1B8
100
AcDbEntity
  8
Holes
  6
ByLayer
 62
  256
370
   -1
100
AcDbLine
 10
77.00000000000027
 20
59.40000000000003
 11
77.00000000000027
 21
59.20000000000003
  0
LINE
  5
1B9
100
AcDbEntity
  8
Holes
  6
ByLayer
 62
  256
370
   -1
100
AcDbLine
 10
77.00000000000027
 20
59.20000000000003
 11
68.00000000000027
 21
59.20000000000003
  0
LINE
  5
1BA
100
AcDbEntity
  8
Holes
  6
ByLayer
 62
  256
370
   -1
100
AcDbLine
 10
68.00000000000027
 20
59.20000000000003
 11
68.00000000000027
 21
59.40000000000003
  0
LINE
  5
1BB
100
AcDbEntity
  8
Holes
  6
ByLayer
 62
  256
370
   -1
100
AcDbLine
 10
68.00000000000028
 20
59.00000000000003
 11
77.00000000000028
 21
59.00000000000003
  0
LINE
  5
1BC
100
AcDbEntity
  8
Holes
  6
ByLayer
 62
  256
370
   -1
100
AcDbLine
 10
77.00000000000028
 20
59.00000000000003
 11
77.00000000000028
 21
58.80000000000004
  0
LINE
  5
1BD
100
AcDbEntity
  8
Holes
  6
ByLayer
 62
  256
370
   -1
100
AcDbLine
 10
77.00000000000028
 20
58.80000000000004
 11
68.00000000000028
 21
58.80000000000004
  0
LINE
  5
1BE
100
AcDbEntity
  8
Holes
  6
ByLayer
 62
  256
370
   -1
100
AcDbLine
 10
68.00000000000028
 20
58.80000000000004
 11
68.00000000000028
 21
59.00000000000003
  0
LINE
  5
1BF
100
AcDbEntity
  8
Holes
  6
ByLayer
 62
  256
370
   -1
100
AcDbLine
 10
68.14888542944406
 20
65.60000000000001
 11
68.00000000000004
 21
65.60000000000001
  0
LINE
  5
1C0
100
AcDbEntity
  8
Holes
  6
ByLayer
 62
  256
370
   -1
100
AcDbLine
 10
68.00000000000006
 20
65.40000000000001
 11
68.2643681576748
 21
65.40000000000001
  0
LINE
  5
1C1
100
AcDbEntity
  8
Holes
  6
ByLayer
 62
  256
370
   -1
100
AcDbLine
 10
68.38685347573033
 20
65.2
 11
68.00000000000006
 21
65.20000000000002
  0
LINE
  5
1C2
100
AcDbEntity
  8
Holes
  6
ByLayer
 62
  256
370
   -1
100
AcDbLine
 10
68.00000000000007
 20
65.00000000000001
 11
68.51668522645247
 21
65
  0
LINE
  5
1C3
100
AcDbEntity
  8
Holes
  6
ByLayer
 62
  256
370
   -1
100
AcDbLine
 10
68.65425293111717
 20
64.80000000000001
 11
68.00000000000007
 21
64.80000000000001
  0
LINE
  5
1C4
100
AcDbEntity
  8
Holes
  6
ByLayer
 62
  256
370
   -1
100
AcDbLine
 10
68.00000000000009
 20
64.60000000000002
 11
68.80000000000025
 21
64.60000000000002
  0
LINE
  5
1C5
100
AcDbEntity
  8
Holes
  6
ByLayer
 62
  256
370
   -1
100
AcDbLine
 10
68.95443401847668
 20
64.40000000000001
 11
68.00000000000009
 21
64.40000000000001
  0
LINE
  5
1C6
100
AcDbEntity
  8
Holes
  6
ByLayer
 62
  256
370
   -1
100
AcDbLine
 10
68.0000000000001
 20
64.20000000000002
 11
69.11813978636627
 21
64.20000000000002
  0
LINE
  5
1C7
100
AcDbEntity
  8
Holes
  6
ByLayer
 62
  256
370
   -1
100
AcDbLine
 10
69.2917960675008
 20
64
 11
68.0000000000001
 21
64.00000000000001
  0
LINE
  5
1C8
100
AcDbEntity
  8
Holes
  6
ByLayer
 62
  256
370
   -1
100
AcDbLine
 10
68.00000000000016
 20
62.60000000000002
 11
70.8775006100536
 21
62.60000000000002
  0
LINE
  5
1C9
100
AcDbEntity
  8
Holes
  6
ByLayer
 62
  256
370
   -1
100
AcDbLine
 10
70.60000000000005
 20
62.80000000000001
 11
68.00000000000014
 21
62.80000000000001
  0
LINE
  5
1CA
100
AcDbEntity
  8
Holes
  6
ByLayer
 62
  256
370
   -1
100
AcDbLine
 10
68.00000000000014
 20
63.00000000000003
 11
70.343145750508
 21
63.00000000000001
  0
LINE
  5
1CB
100
AcDbEntity
  8
Holes
  6
ByLayer
 62
  256
370
   -1
100
AcDbLine
 10
70.10423881080662
 20
63.20000000000002
 11
68.00000000000013
 21
63.20000000000002
  0
LINE
  5
1CC
100
AcDbEntity
  8
Holes
  6
ByLayer
 62
  256
370
   -1
100
AcDbLine
 10
68.00000000000013
 20
63.40000000000002
 11
69.88117658368863
 21
63.40000000000002
  0
LINE
  5
1CD
100
AcDbEntity
  8
Holes
  6
ByLayer
 62
  256
370
   -1
100
AcDbLine
 10
69.67228319217753
 20
63.60000000000002
 11
68.00000000000011
 21
63.60000000000002
  0
LINE
  5
1CE
100
AcDbEntity
  8
Holes
  6
ByLayer
 62
  256
370
   -1
100
AcDbLine
 10
68.00000000000011
 20
63.80000000000001
 11
69.47619742787977
 21
63.80000000000001
  0
LINE
  5
1CF
100
AcDbEntity
  8
Holes
  6
ByLayer
 62
  256
370
   -1
100
AcDbLine
 10
74.11320377358786
 20
61.20000000000002
 11
68.0000000000002
 21
61.20000000000002
  0
LINE
  5
1D0
100
AcDbEntity
  8
Holes
  6
ByLayer
 62
  256
370
   -1
100
AcDbLine
 10
68.0000000000002
 20
61.40000000000003
 11
73.34670016771656
 21
61.40000000000003
  0
LINE
  5
1D1
100
AcDbEntity
  8
Holes
  6
ByLayer
 62
  256
370
   -1
100
AcDbLine
 10
72.76890111571973
 20
61.60000000000002
 11
68.00000000000018
 21
61.60000000000002
  0
LINE
  5
1D2
100
AcDbEntity
  8
Holes
  6
ByLayer
 62
  256
370
   -1
100
AcDbLine
 10
68.00000000000018
 20
61.80000000000003
 11
72.29055260180245
 21
61.80000000000001
  0
LINE
  5
1D3
100
AcDbEntity
  8
Holes
  6
ByLayer
 62
  256
370
   -1
100
AcDbLine
 10
71.87689437438252
 20
62.00000000000001
 11
68.00000000000017
 21
62.00000000000003
  0
LINE
  5
1D4
100
AcDbEntity
  8
Holes
  6
ByLayer
 62
  256
370
   -1
100
AcDbLine
 10
68.00000000000017
 20
62.20000000000002
 11
71.51001113587137
 21
62.20000000000002
  0
LINE
  5
1D5
100
AcDbEntity
  8
Holes
  6
ByLayer
 62
  256
370
   -1
100
AcDbLine
 10
71.17921168272275
 20
62.40000000000002
 11
68.00000000000016
 21
62.40000000000002
  0
LINE
  5
1D6
100
AcDbEntity
  8
Holes
  6
ByLayer
 62
  256
370
   -1
100
AcDbLine
 10
68.00000000000004
 20
65.80000000000001
 11
68.04010050314723
 21
65.80000000000001
  0
LINE
  5
1D7
100
AcDbEntity
  8
Holes
  6
ByLayer
 62
  256
370
   -1
100
AcDbLine
 10
91.99999999999999
 20
66.40000000000001
 11
91.99999999999999
 21
66.60000000000001
  0
LINE
  5
1D8
100
AcDbEntity
  8
Holes
  6
ByLayer
 62
  256
370
   -1
100
AcDbLine
 10
91.99999999999997
 20
66
 11
91.99999999999997
 21
66.20000000000002
  0
LINE
  5
1D9
100
AcDbEntity
  8
Holes
  6
ByLayer
 62
  256
370
   -1
100
AcDbLine
 10
91.99999999999996
 20
65.60000000000001
 11
91.99999999999996
 21
65.80000000000001
  0
LINE
  5
1DA
100
AcDbEntity
  8
Holes
  6
ByLayer
 62
  256
370
   -1
100
AcDbLine
 10
91.99999999999994
 20
65.20000000000002
 11
91.99999999999994
 21
65.40000000000001
  0
LINE
  5
1DB
100
AcDbEntity
  8
Holes
  6
ByLayer
 62
  256
370
   -1
100
AcDbLine
 10
91.99999999999993
 20
64.80000000000001
 11
91.99999999999993
 21
65.00000000000001
  0
LINE
  5
1DC
100
AcDbEntity
  8
Holes
  6
ByLayer
 62
  256
370
   -1
100
AcDbLine
 10
91.99999999999991
 20
64.40000000000001
 11
91.99999999999991
 21
64.60000000000002
  0
LINE
  5
1DD
100
AcDbEntity
  8
Holes
  6
ByLayer
 62
  256
370
   -1
100
AcDbLine
 10
91.9999999999999
 20
64.00000000000001
 11
91.9999999999999
 21
64.20000000000002
  0
LINE
  5
1DE
100
AcDbEntity
  8
Holes
  6
ByLayer
 62
  256
370
   -1
100
AcDbLine
 10
91.99999999999989
 20
63.60000000000002
 11
91.99999999999989
 21
63.80000000000001
  0
LINE
  5
1DF
100
AcDbEntity
  8
Holes
  6
ByLayer
 62
  256
370
   -1
100
AcDbLine
 10
91.99999999999987
 20
63.20000000000002
 11
91.99999999999987
 21
63.40000000000002
  0
LINE
  5
1E0
100
AcDbEntity
  8
Holes
  6
ByLayer
 62
  256
370
   -1
100
AcDbLine
 10
91.99999999999986
 20
62.80000000000001
 11
91.99999999999986
 21
63.00000000000003
  0
LINE
  5
1E1
100
AcDbEntity
  8
Holes
  6
ByLayer
 62
  256
370
   -1
100
AcDbLine
 10
91.99999999999984
 20
62.40000000000002
 11
91.99999999999984
 21
62.60000000000002
  0
LINE
  5
1E2
100
AcDbEntity
  8
Holes
  6
ByLayer
 62
  256
370
   -1
100
AcDbLine
 10
91.99999999999983
 20
62.00000000000003
 11
91.99999999999983
 21
62.20000000000002
  0
LINE
  5
1E3
100
AcDbEntity
  8
Holes
  6
ByLayer
 62
  256
370
   -1
100
AcDbLine
 10
91.99999999999982
 20
61.60000000000002
 11
91.99999999999982
 21
61.80000000000003
  0
LINE
  5
1E4
100
AcDbEntity
  8
Holes
  6
ByLayer
 62
  256
370
   -1
100
AcDbLine
 10
91.9999999999998
 20
61.20000000000002
 11
91.9999999999998
 21
61.40000000000003
  0
LINE
  5
1E5
100
AcDbEntity
  8
Holes
  6
ByLayer
 62
  256
370
   -1
100
AcDbLine
 10
91.99999999999979
 20
61.00000000000003
 11
82.99999999999979
 21
61.00000000000003
  0
LINE
  5
1E6
100
AcDbEntity
  8
Holes
  6
ByLayer
 62
  256
370
   -1
100
AcDbLine
 10
82.99999999999979
 20
61.00000000000003
 11
82.99999999999979
 21
60.80000000000003
  0
LINE
  5
1E7
100
AcDbEntity
  8
Holes
  6
ByLayer
 62
  256
370
   -1
100
AcDbLine
 10
82.99999999999979
 20
60.80000000000003
 11
91.99999999999979
 21
60.80000000000003
  0
LINE
  5
1E8
100
AcDbEntity
  8
Holes
  6
ByLayer
 62
  256
370
   -1
100
AcDbLine
 10
91.99999999999979
 20
60.80000000000003
 11
91.99999999999979
 21
61.00000000000003
  0
LINE
  5
1E9
100
AcDbEntity
  8
Holes
  6
ByLayer
 62
  256
370
   -1
100
AcDbLine
 10
91.99999999999977
 20
60.60000000000002
 11
82.99999999999977
 21
60.60000000000002
  0
LINE
  5
1EA
100
AcDbEntity
  8
Holes
  6
ByLayer
 62
  256
370
   -1
100
AcDbLine
 10
82.99999999999977
 20
60.60000000000002
 11
82.99999999999977
 21
60.40000000000003
  0
LINE
  5
1EB
100
AcDbEntity
  8
Holes
  6
ByLayer
 62
  256
370
   -1
100
AcDbLine
 10
82.99999999999977
 20
60.40000000000003
 11
91.99999999999977
 21
60.40000000000003
  0
LINE
  5
1EC
100
AcDbEntity
  8
Holes
  6
ByLayer
 62
  256
370
   -1
100
AcDbLine
 10
91.99999999999977
 20
60.40000000000003
 11
91.99999999999977
 21
60.60000000000002
  0
LINE
  5
1ED
100
AcDbEntity
  8
Holes
  6
ByLayer
 62
  256
370
   -1
100
AcDbLine
 10
91.99999999999976
 20
60.20000000000003
 11
82.99999999999976
 21
60.20000000000003
  0
LINE
  5
1EE
100
AcDbEntity
  8
Holes
  6
ByLayer
 62
  256
370
   -1
100
AcDbLine
 10
82.99999999999976
 20
60.20000000000003
 11
82.99999999999976
 21
60.00000000000003
  0
LINE
  5
1EF
100
AcDbEntity
  8
Holes
  6
ByLayer
 62
  256
370
   -1
100
AcDbLine
 10
82.99999999999976
 20
60.00000000000003
 11
91.99999999999976
 21
60.00000000000003
  0
LINE
  5
1F0
100
AcDbEntity
  8
Holes
  6
ByLayer
 62
  256
370
   -1
100
AcDbLine
 10
91.99999999999976
 20
60.00000000000003
 11
91.99999999999976
 21
60.20000000000003
  0
LINE
  5
1F1
100
AcDbEntity
  8
Holes
  6
ByLayer
 62
  256
370
   -1
100
AcDbLine
 10
91.99999999999974
 20
59.80000000000004
 11
82.99999999999974
 21
59.80000000000004
  0
LINE
  5
1F2
100
AcDbEntity
  8
Holes
  6
ByLayer
 62
  256
370
   -1
100
AcDbLine
 10
82.99999999999974
 20
59.80000000000004
 11
82.99999999999974
 21
59.60000000000002
  0
LINE
  5
1F3
100
AcDbEntity
  8
Holes
  6
ByLayer
 62
  256
370
   -1
100
AcDbLine
 10
82.99999999999974
 20
59.60000000000002
 11
91.99999999999974
 21
59.60000000000002
  0
LINE
  5
1F4
100
AcDbEntity
  8
Holes
  6
ByLayer
 62
  256
370
   -1
100
AcDbLine
 10
91.99999999999974
 20
59.60000000000002
 11
91.99999999999974
 21
59.80000000000004
  0
LINE
  5
1F5
100
AcDbEntity
  8
Holes
  6
ByLayer
 62
  256
370
   -1
100
AcDbLine
 10
91.99999999999973
 20
59.40000000000003
 11
82.99999999999973
 21
59.40000000000003
  0
LINE
  5
1F6
100
AcDbEntity
  8
Holes
  6
ByLayer
 62
  256
370
   -1
100
AcDbLine
 10
82.99999999999973
 20
59.40000000000003
 11
82.99999999999973
 21
59.20000000000003
  0
LINE
  5
1F7
100
AcDbEntity
  8
Holes
  6
ByLayer
 62
  256
370
   -1
100
AcDbLine
 10
82.99999999999973
 20
59.20000000000003
 11
91.99999999999973
 21
59.20000000000003
  0
LINE
  5
1F8
100
AcDbEntity
  8
Holes
  6
ByLayer
 62
  256
370
   -1
100
AcDbLine
 10
91.99999999999973
 20
59.20000000000003
 11
91.99999999999973
 21
59.40000000000003
  0
LINE
  5
1F9
100
AcDbEntity
  8
Holes
  6
ByLayer
 62
  256
370
   -1
100
AcDbLine
 10
91.99999999999972
 20
59.00000000000003
 11
82.99999999999972
 21
59.00000000000003
  0
LINE
  5
1FA
100
AcDbEntity
  8
Holes
  6
ByLayer
 62
  256
370
   -1
100
AcDbLine
 10
82.99999999999972
 20
59.00000000000003
 11
82.99999999999972
 21
58.80000000000004
  0
LINE
  5
1FB
100
AcDbEntity
  8
Holes
  6
ByLayer
 62
  256
370
   -1
100
AcDbLine
 10
82.99999999999972
 20
58.80000000000004
 11
91.99999999999972
 21
58.80000000000004
  0
LINE
  5
1FC
100
AcDbEntity
  8
Holes
  6
ByLayer
 62
  256
370
   -1
100
AcDbLine
 10
91.99999999999972
 20
58.80000000000004
 11
91.99999999999972
 21
59.00000000000003
  0
LINE
  5
1FD
100
AcDbEntity
  8
Holes
  6
ByLayer
 62
  256
370
   -1
100
AcDbLine
 10
91.85111457055594
 20
65.60000000000001
 11
91.99999999999996
 21
65.60000000000001
  0
LINE
  5
1FE
100
AcDbEntity
  8
Holes
  6
ByLayer
 62
  256
370
   -1
100
AcDbLine
 10
91.99999999999994
 20
65.40000000000001
 11
91.7356318423252
 21
65.40000000000001
  0
LINE
  5
1FF
100
AcDbEntity
  8
Holes
  6
ByLayer
 62
  256
370
   -1
100
AcDbLine
 10
91.61314652426967
 20
65.2
 11
91.99999999999994
 21
65.20000000000002
  0
LINE
  5
200
100
AcDbEntity
  8
Holes
  6
ByLayer
 62
  256
370
   -1
100
AcDbLine
 10
91.99999999999993
 20
65.00000000000001
 11
91.48331477354753
 21
65
  0
LINE
  5
201
100
AcDbEntity
  8
Holes
  6
ByLayer
 62
  256
370
   -1
100
AcDbLine
 10
91.34574706888283
 20
64.80000000000001
 11
91.99999999999993
 21
64.80000000000001
  0
LINE
  5
202
100
AcDbEntity
  8
Holes
  6
ByLayer
 62
  256
370
   -1
100
AcDbLine
 10
91.99999999999991
 20
64.60000000000002
 11
91.19999999999975
 21
64.60000000000002
  0
LINE
  5
203
100
AcDbEntity
  8
Holes
  6
ByLayer
 62
  256
370
   -1
100
AcDbLine
 10
91.04556598152332
 20
64.40000000000001
 11
91.99999999999991
 21
64.40000000000001
  0
LINE
  5
204
100
AcDbEntity
  8
Holes
  6
ByLayer
 62
  256
370
   -1
100
AcDbLine
 10
91.9999999999999
 20
64.20000000000002
 11
90.88186021363373
 21
64.20000000000002
  0
LINE
  5
205
100
AcDbEntity
  8
Holes
  6
ByLayer
 62
  256
370
   -1
100
AcDbLine
 10
90.7082039324992
 20
64
 11
91.9999999999999
 21
64.00000000000001
  0
LINE
  5
206
100
AcDbEntity
  8
Holes
  6
ByLayer
 62
  256
370
   -1
100
AcDbLine
 10
91.99999999999984
 20
62.60000000000002
 11
89.1224993899464
 21
62.60000000000002
  0
LINE
  5
207
100
AcDbEntity
  8
Holes
  6
ByLayer
 62
  256
370
   -1
100
AcDbLine
 10
89.39999999999995
 20
62.80000000000001
 11
91.99999999999986
 21
62.80000000000001
  0
LINE
  5
208
100
AcDbEntity
  8
Holes
  6
ByLayer
 62
  256
370
   -1
100
AcDbLine
 10
91.99999999999986
 20
63.00000000000003
 11
89.656854249492
 21
63.00000000000001
  0
LINE
  5
209
100
AcDbEntity
  8
Holes
  6
ByLayer
 62
  256
370
   -1
100
AcDbLine
 10
89.89576118919338
 20
63.20000000000002
 11
91.99999999999987
 21
63.20000000000002
  0
LINE
  5
20A
100
AcDbEntity
  8
Holes
  6
ByLayer
 62
  256
370
   -1
100
AcDbLine
 10
91.99999999999987
 20
63.40000000000002
 11
90.11882341631137
 21
63.40000000000002
  0
LINE
  5
20B
100
AcDbEntity
  8
Holes
  6
ByLayer
 62
  256
370
   -1
100
AcDbLine
 10
90.32771680782247
 20
63.60000000000002
 11
91.99999999999989
 21
63.60000000000002
  0
LINE
  5
20C
100
AcDbEntity
  8
Holes
  6
ByLayer
 62
  256
370
   -1
100
AcDbLine
 10
91.99999999999989
 20
63.80000000000001
 11
90.52380257212023
 21
63.80000000000001
  0
LINE
  5
20D
100
AcDbEntity
  8
Holes
  6
ByLayer
 62
  256
370
   -1
100
AcDbLine
 10
85.88679622641214
 20
61.20000000000002
 11
91.9999999999998
 21
61.20000000000002
  0
LINE
  5
20E
100
AcDbEntity
  8
Holes
  6
ByLayer
 62
  256
370
   -1
100
AcDbLine
 10
91.9999999999998
 20
61.40000000000003
 11
86.65329983228344
 21
61.40000000000003
  0
LINE
  5
20F
100
AcDbEntity
  8
Holes
  6
ByLayer
 62
  256
370
   -1
100
AcDbLine
 10
87.23109888428027
 20
61.60000000000002
 11
91.99999999999982
 21
61.60000000000002
  0
LINE
  5
210
100
AcDbEntity
  8
Holes
  6
ByLayer
 62
  256
370
   -1
100
AcDbLine
 10
91.99999999999982
 20
61.80000000000003
 11
87.70944739819755
 21
61.80000000000001
  0
LINE
  5
211
100
AcDbEntity
  8
Holes
  6
ByLayer
 62
  256
370
   -1
100
AcDbLine
 10
88.12310562561748
 20
62.00000000000001
 11
91.99999999999983
 21
62.00000000000003
  0
LINE
  5
212
100
AcDbEntity
  8
Holes
  6
ByLayer
 62
  256
370
   -1
100
AcDbLine
 10
91.99999999999983
 20
62.20000000000002
 11
88.48998886412863
 21
62.20000000000002
  0
LINE
  5
213
100
AcDbEntity
  8
Holes
  6
ByLayer
 62
  256
370
   -1
100
AcDbLine
 10
88.82078831727725
 20
62.40000000000002
 11
91.99999999999984
 21
62.40000000000002
  0
LINE
  5
214
100
AcDbEntity
  8
Holes
  6
ByLayer
 62
  256
370
   -1
100
AcDbLine
 10
91.99999999999996
 20
65.80000000000001
 11
91.95989949685277
 21
65.80000000000001
  0
ARC
  5
215
100
AcDbEntity
  8
Holes
  6
ByLayer
 62
  256
370
   -1
100
AcDbCircle
 10
149.5267682375336
 20
47.76612498127981
 40
0.5
100
AcDbArc
 50
45
 51
165
  0
LINE
  5
216
100
AcDbEntity
  8
Holes
  6
ByLayer
 62
  256
370
   -1
100
AcDbLine
 10
152.1196783718731
 20
45.88032162812691
 11
149.8803216281269
 21
48.11967837187309
  0
ARC
  5
217
100
AcDbEntity
  8
Holes
  6
ByLayer
 62
  256
370
   -1
100
AcDbCircle
 10
151.7661249812798
 20
45.52676823753364
 40
0.5
100
AcDbArc
 50
284.9999999999998
 51
45
  0
LINE
  5
218
100
AcDbEntity
  8
Holes
  6
ByLayer
 62
  256
370
   -1
100
AcDbLine
 10
148.4182581518689
 20
44.112071934021
 11
151.8955345038311
 21
45.04380532438911
  0
LINE
  5
219
100
AcDbEntity
  8
Holes
  6
ByLayer
 62
  256
370
   -1
100
AcDbLine
 10
149.0438053243891
 20
47.89553450383107
 11
148.112071934021
 21
44.4182581518689
  0
ARC
  5
21A
100
AcDbEntity
  8
Holes
  6
ByLayer
 62
  256
370
   -1
100
AcDbCircle
 10
148.3535533905933
 20
44.35355339059327
 40
0.25
100
AcDbArc
 50
165
 51
285.0000000000011
  0
ARC
  5
21B
100
AcDbEntity
  8
Holes
  6
ByLayer
 62
  256
370
   -1
100
AcDbCircle
 10
179.5267682375336
 20
47.76612498127981
 40
0.5
100
AcDbArc
 50
45
 51
165
  0
LINE
  5
21C
100
AcDbEntity
  8
Holes
  6
ByLayer
 62
  256
370
   -1
100
AcDbLine
 10
182.1196783718731
 20
45.88032162812691
 11
179.8803216281269
 21
48.11967837187309
  0
ARC
  5
21D
100
AcDbEntity
  8
Holes
  6
ByLayer
 62
  256
370
   -1
100
AcDbCircle
 10
181.7661249812798
 20
45.52676823753364
 40
0.5
100
AcDbArc
 50
284.9999999999998
 51
45
  0
LINE
  5
21E
100
AcDbEntity
  8
Holes
  6
ByLayer
 62
  256
370
   -1
100
AcDbLine
 10
178.4182581518689
 20
44.112071934021
 11
181.8955345038311
 21
45.04380532438911
  0
LINE
  5
21F
100
AcDbEntity
  8
Holes
  6
ByLayer
 62
  256
370
   -1
100
AcDbLine
 10
179.0438053243891
 20
47.89553450383107
 11
178.112071934021
 21
44.4182581518689
  0
ARC
  5
220
100
AcDbEntity
  8
Holes
  6
ByLayer
 62
  256
370
   -1
100
AcDbCircle
 10
178.3535533905933
 20
44.35355339059327
 40
0.25
100
AcDbArc
 50
165
 51
285.0000000000011
  0
ARC
  5
221
100
AcDbEntity
  8
Holes
  6
ByLayer
 62
  256
370
   -1
100
AcDbCircle
 10
209.5267682375336
 20
47.76612498127981
 40
0.5
100
AcDbArc
 50
45
 51
165
  0
LINE
  5
222
100
AcDbEntity
  8
Holes
  6
ByLayer
 62
  256
370
   -1
100
AcDbLine
 10
212.1196783718731
 20
45.88032162812691
 11
209.8803216281269
 21
48.11967837187309
  0
ARC
  5
223
100
AcDbEntity
  8
Holes
  6
ByLayer
 62
  256
370
   -1
100
AcDbCircle
 10
211.7661249812798
 20
45.52676823753364
 40
0.5
100
AcDbArc
 50
284.9999999999998
 51
45
  0
LINE
  5
224
100
AcDbEntity
  8
Holes
  6
ByLayer
 62
  256
370
   -1
100
AcDbLine
 10
208.4182581518689
 20
44.112071934021
 11
211.8955345038311
 21
45.04380532438911
  0
LINE
  5
225
100
AcDbEntity
  8
Holes
  6
ByLayer
 62
  256
370
   -1
100
AcDbLine
 10
209.0438053243891
 20
47.89553450383107
 11
208.112071934021
 21
44.4182581518689
  0
ARC
  5
226
100
AcDbEntity
  8
Holes
  6
ByLayer
 62
  256
370
   -1
100
AcDbCircle
 10
208.3535533905933
 20
44.35355339059327
 40
0.25
100
AcDbArc
 50
165
 51
285.0000000000011
  0
ARC
  5
227
100
AcDbEntity
  8
Holes
  6
ByLayer
 62
  256
370
   -1
100
AcDbCircle
 10
219.5267682375336
 20
47.76612498127981
 40
0.5
100
AcDbArc
 50
45
 51
165
  0
LINE
  5
228
100
AcDbEntity
  8
Holes
  6
ByLayer
 62
  256
370
   -1
100
AcDbLine
 10
222.1196783718731
 20
45.88032162812691
 11
219.8803216281269
 21
48.11967837187309
  0
ARC
  5
229
100
AcDbEntity
  8
Holes
  6
ByLayer
 62
  256
370
   -1
100
AcDbCircle
 10
221.7661249812798
 20
45.52676823753364
 40
0.5
100
AcDbArc
 50
284.9999999999998
 51
45
  0
LINE
  5
22A
100
AcDbEntity
  8
Holes
  6
ByLayer
 62
  256
370
   -1
100
AcDbLine
 10
218.4182581518689
 20
44.112071934021
 11
221.8955345038311
 21
45.04380532438911
  0
LINE
  5
22B
100
AcDbEntity
  8
Holes
  6
ByLayer
 62
  256
370
   -1
100
AcDbLine
 10
219.0438053243891
 20
47.89553450383107
 11
218.112071934021
 21
44.4182581518689
  0
ARC
  5
22C
100
AcDbEntity
  8
Holes
  6
ByLayer
 62
  256
370
   -1
100
AcDbCircle
 10
218.3535533905933
 20
44.35355339059327
 40
0.25
100
AcDbArc
 50
165
 51
285.0000000000011
  0
ARC
  5
22D
100
AcDbEntity
  8
Holes
  6
ByLayer
 62
  256
370
   -1
100
AcDbCircle
 10
154.5267682375336
 20
53.76612498127981
 40
0.5
100
AcDbArc
 50
45
 51
165
  0
LINE
  5
22E
100
AcDbEntity
  8
Holes
  6
ByLayer
 62
  256
370
   -1
100
AcDbLine
 10
157.1196783718731
 20
51.88032162812691
 11
154.8803216281269
 21
54.11967837187309
  0
ARC
  5
22F
100
AcDbEntity
  8
Holes
  6
ByLayer
 62
  256
370
   -1
100
AcDbCircle
 10
156.7661249812798
 20
51.52676823753364
 40
0.5
100
AcDbArc
 50
284.9999999999998
 51
45
  0
LINE
  5
230
100
AcDbEntity
  8
Holes
  6
ByLayer
 62
  256
370
   -1
100
AcDbLine
 10
153.4182581518689
 20
50.112071934021
 11
156.8955345038311
 21
51.04380532438911
  0
LINE
  5
231
100
AcDbEntity
  8
Holes
  6
ByLayer
 62
  256
370
   -1
100
AcDbLine
 10
154.0438053243891
 20
53.89553450383107
 11
153.112071934021
 21
50.4182581518689
  0
ARC
  5
232
100
AcDbEntity
  8
Holes
  6
ByLayer
 62
  256
370
   -1
100
AcDbCircle
 10
153.3535533905933
 20
50.35355339059327
 40
0.25
100
AcDbArc
 50
165
 51
285.0000000000011
  0
ARC
  5
233
100
AcDbEntity
  8
Holes
  6
ByLayer
 62
  256
370
   -1
100
AcDbCircle
 10
184.5267682375336
 20
53.76612498127981
 40
0.5
100
AcDbArc
 50
45
 51
165
  0
LINE
  5
234
100
AcDbEntity
  8
Holes
  6
ByLayer
 62
  256
370
   -1
100
AcDbLine
 10
187.1196783718731
 20
51.88032162812691
 11
184.8803216281269
 21
54.11967837187309
  0
ARC
  5
235
100
AcDbEntity
  8
Holes
  6
ByLayer
 62
  256
370
   -1
100
AcDbCircle
 10
186.7661249812798
 20
51.52676823753364
 40
0.5
100
AcDbArc
 50
284.9999999999998
 51
45
  0
LINE
  5
236
100
AcDbEntity
  8
Holes
  6
ByLayer
 62
  256
370
   -1
100
AcDbLine
 10
183.4182581518689
 20
50.112071934021
 11
186.8955345038311
 21
51.04380532438911
  0
LINE
  5
237
100
AcDbEntity
  8
Holes
  6
ByLayer
 62
  256
370
   -1
100
AcDbLine
 10
184.0438053243891
 20
53.89553450383107
 11
183.112071934021
 21
50.4182581518689
  0
ARC
  5
238
100
AcDbEntity
  8
Holes
  6
ByLayer
 62
  256
370
   -1
100
AcDbCircle
 10
183.3535533905933
 20
50.35355339059327
 40
0.25
100
AcDbArc
 50
165
 51
285.0000000000011
  0
ARC
  5
239
100
AcDbEntity
  8
Holes
  6
ByLayer
 62
  256
370
   -1
100
AcDbCircle
 10
214.5267682375336
 20
53.76612498127981
 40
0.5
100
AcDbArc
 50
45
 51
165
  0
LINE
  5
23A
100
AcDbEntity
  8
Holes
  6
ByLayer
 62
  256
370
   -1
100
AcDbLine
 10
217.1196783718731
 20
51.88032162812691
 11
214.8803216281269
 21
54.11967837187309
  0
ARC
  5
23B
100
AcDbEntity
  8
Holes
  6
ByLayer
 62
  256
370
   -1
100
AcDbCircle
 10
216.7661249812798
 20
51.52676823753364
 40
0.5
100
AcDbArc
 50
284.9999999999998
 51
45
  0
LINE
  5
23C
100
AcDbEntity
  8
Holes
  6
ByLayer
 62
  256
370
   -1
100
AcDbLine
 10
213.4182581518689
 20
50.112071934021
 11
216.8955345038311
 21
51.04380532438911
  0
LINE
  5
23D
100
AcDbEntity
  8
Holes
  6
ByLayer
 62
  256
370
   -1
100
AcDbLine
 10
214.0438053243891
 20
53.89553450383107
 11
213.112071934021
 21
50.4182581518689
  0
ARC
  5
23E
100
AcDbEntity
  8
Holes
  6
ByLayer
 62
  256
370
   -1
100
AcDbCircle
 10
213.3535533905933
 20
50.35355339059327
 40
0.25
100
AcDbArc
 50
165
 51
285.0000000000011
  0
ARC
  5
23F
100
AcDbEntity
  8
Holes
  6
ByLayer
 62
  256
370
   -1
100
AcDbCircle
 10
224.5267682375336
 20
53.76612498127981
 40
0.5
100
AcDbArc
 50
45
 51
165
  0
LINE
  5
240
100
AcDbEntity
  8
Holes
  6
ByLayer
 62
  256
370
   -1
100
AcDbLine
 10
227.1196783718731
 20
51.88032162812691
 11
224.8803216281269
 21
54.11967837187309
  0
ARC
  5
241
100
AcDbEntity
  8
Holes
  6
ByLayer
 62
  256
370
   -1
100
AcDbCircle
 10
226.7661249812798
 20
51.52676823753364
 40
0.5
100
AcDbArc
 50
284.9999999999998
 51
45
  0
LINE
  5
242
100
AcDbEntity
  8
Holes
  6
ByLayer
 62
  256
370
   -1
100
AcDbLine
 10
223.4182581518689
 20
50.112071934021
 11
226.8955345038311
 21
51.04380532438911
  0
LINE
  5
243
100
AcDbEntity
  8
Holes
  6
ByLayer
 62
  256
370
   -1
100
AcDbLine
 10
224.0438053243891
 20
53.89553450383107
 11
223.112071934021
 21
50.4182581518689
  0
ARC
  5
244
100
AcDbEntity
  8
Holes
  6
ByLayer
 62
  256
370
   -1
100
AcDbCircle
 10
223.3535533905933
 20
50.35355339059327
 40
0.25
100
AcDbArc
 50
165
 51
285.0000000000011
  0
ARC
  5
245
100
AcDbEntity
  8
Holes
  6
ByLayer
 62
  256
370
   -1
100
AcDbCircle
 10
129.5267682375336
 20
47.76612498127981
 40
0.5
100
AcDbArc
 50
45
 51
165
  0
LINE
  5
246
100
AcDbEntity
  8
Holes
  6
ByLayer
 62
  256
370
   -1
100
AcDbLine
 10
132.1196783718731
 20
45.88032162812691
 11
129.8803216281269
 21
48.11967837187309
  0
ARC
  5
247
100
AcDbEntity
  8
Holes
  6
ByLayer
 62
  256
370
   -1
100
AcDbCircle
 10
131.7661249812798
 20
45.52676823753364
 40
0.5
100
AcDbArc
 50
284.9999999999998
 51
45
  0
LINE
  5
248
100
AcDbEntity
  8
Holes
  6
ByLayer
 62
  256
370
   -1
100
AcDbLine
 10
128.4182581518689
 20
44.112071934021
 11
131.8955345038311
 21
45.04380532438911
  0
LINE
  5
249
100
AcDbEntity
  8
Holes
  6
ByLayer
 62
  256
370
   -1
100
AcDbLine
 10
129.0438053243891
 20
47.89553450383107
 11
128.112071934021
 21
44.4182581518689
  0
ARC
  5
24A
100
AcDbEntity
  8
Holes
  6
ByLayer
 62
  256
370
   -1
100
AcDbCircle
 10
128.3535533905933
 20
44.35355339059327
 40
0.25
100
AcDbArc
 50
165
 51
285.0000000000011
  0
ARC
  5
24B
100
AcDbEntity
  8
Holes
  6
ByLayer
 62
  256
370
   -1
100
AcDbCircle
 10
139.5267682375336
 20
47.76612498127981
 40
0.5
100
AcDbArc
 50
45
 51
165
  0
LINE
  5
24C
100
AcDbEntity
  8
Holes
  6
ByLayer
 62
  256
370
   -1
100
AcDbLine
 10
142.1196783718731
 20
45.88032162812691
 11
139.8803216281269
 21
48.11967837187309
  0
ARC
  5
24D
100
AcDbEntity
  8
Holes
  6
ByLayer
 62
  256
370
   -1
100
AcDbCircle
 10
141.7661249812798
 20
45.52676823753364
 40
0.5
100
AcDbArc
 50
284.9999999999998
 51
45
  0
LINE
  5
24E
100
AcDbEntity
  8
Holes
  6
ByLayer
 62
  256
370
   -1
100
AcDbLine
 10
138.4182581518689
 20
44.112071934021
 11
141.8955345038311
 21
45.04380532438911
  0
LINE
  5
24F
100
AcDbEntity
  8
Holes
  6
ByLayer
 62
  256
370
   -1
100
AcDbLine
 10
139.0438053243891
 20
47.89553450383107
 11
138.112071934021
 21
44.4182581518689
  0
ARC
  5
250
100
AcDbEntity
  8
Holes
  6
ByLayer
 62
  256
370
   -1
100
AcDbCircle
 10
138.3535533905933
 20
44.35355339059327
 40
0.25
100
AcDbArc
 50
165
 51
285.0000000000011
  0
ARC
  5
251
100
AcDbEntity
  8
Holes
  6
ByLayer
 62
  256
370
   -1
100
AcDbCircle
 10
134.5267682375336
 20
53.76612498127981
 40
0.5
100
AcDbArc
 50
45
 51
165
  0
LINE
  5
252
100
AcDbEntity
  8
Holes
  6
ByLayer
 62
  256
370
   -1
100
AcDbLine
 10
137.1196783718731
 20
51.88032162812691
 11
134.8803216281269
 21
54.11967837187309
  0
ARC
  5
253
100
AcDbEntity
  8
Holes
  6
ByLayer
 62
  256
370
   -1
100
AcDbCircle
 10
136.7661249812798
 20
51.52676823753364
 40
0.5
100
AcDbArc
 50
284.9999999999998
 51
45
  0
LINE
  5
254
100
AcDbEntity
  8
Holes
  6
ByLayer
 62
  256
370
   -1
100
AcDbLine
 10
133.4182581518689
 20
50.112071934021
 11
136.8955345038311
 21
51.04380532438911
  0
LINE
  5
255
100
AcDbEntity
  8
Holes
  6
ByLayer
 62
  256
370
   -1
100
AcDbLine
 10
134.0438053243891
 20
53.89553450383107
 11
133.112071934021
 21
50.4182581518689
  0
ARC
  5
256
100
AcDbEntity
  8
Holes
  6
ByLayer
 62
  256
370
   -1
100
AcDbCircle
 10
133.3535533905933
 20
50.35355339059327
 40
0.25
100
AcDbArc
 50
165
 51
285.0000000000011
  0
ARC
  5
257
100
AcDbEntity
  8
Holes
  6
ByLayer
 62
  256
370
   -1
100
AcDbCircle
 10
139.5267682375336
 20
59.76612498127981
 40
0.5
100
AcDbArc
 50
45
 51
165
  0
LINE
  5
258
100
AcDbEntity
  8
Holes
  6
ByLayer
 62
  256
370
   -1
100
AcDbLine
 10
142.1196783718731
 20
57.88032162812691
 11
139.8803216281269
 21
60.11967837187309
  0
ARC
  5
259
100
AcDbEntity
  8
Holes
  6
ByLayer
 62
  256
370
   -1
100
AcDbCircle
 10
141.7661249812798
 20
57.52676823753364
 40
0.5
100
AcDbArc
 50
284.9999999999998
 51
45
  0
LINE
  5
25A
100
AcDbEntity
  8
Holes
  6
ByLayer
 62
  256
370
   -1
100
AcDbLine
 10
138.4182581518689
 20
56.112071934021
 11
141.8955345038311
 21
57.04380532438911
  0
LINE
  5
25B
100
AcDbEntity
  8
Holes
  6
ByLayer
 62
  256
370
   -1
100
AcDbLine
 10
139.0438053243891
 20
59.89553450383107
 11
138.112071934021
 21
56.4182581518689
  0
ARC
  5
25C
100
AcDbEntity
  8
Holes
  6
ByLayer
 62
  256
370
   -1
100
AcDbCircle
 10
138.3535533905933
 20
56.35355339059327
 40
0.25
100
AcDbArc
 50
165
 51
285.0000000000011
  0
ARC
  5
25D
100
AcDbEntity
  8
Holes
  6
ByLayer
 62
  256
370
   -1
100
AcDbCircle
 10
189.5267682375336
 20
47.76612498127981
 40
0.5
100
AcDbArc
 50
45
 51
165
  0
LINE
  5
25E
100
AcDbEntity
  8
Holes
  6
ByLayer
 62
  256
370
   -1
100
AcDbLine
 10
192.1196783718731
 20
45.88032162812691
 11
189.8803216281269
 21
48.11967837187309
  0
ARC
  5
25F
100
AcDbEntity
  8
Holes
  6
ByLayer
 62
  256
370
   -1
100
AcDbCircle
 10
191.7661249812798
 20
45.52676823753364
 40
0.5
100
AcDbArc
 50
284.9999999999998
 51
45
  0
LINE
  5
260
100
AcDbEntity
  8
Holes
  6
ByLayer
 62
  256
370
   -1
100
AcDbLine
 10
188.4182581518689
 20
44.112071934021
 11
191.8955345038311
 21
45.04380532438911
  0
LINE
  5
261
100
AcDbEntity
  8
Holes
  6
ByLayer
 62
  256
370
   -1
100
AcDbLine
 10
189.0438053243891
 20
47.89553450383107
 11
188.112071934021
 21
44.4182581518689
  0
ARC
  5
262
100
AcDbEntity
  8
Holes
  6
ByLayer
 62
  256
370
   -1
100
AcDbCircle
 10
188.3535533905933
 20
44.35355339059327
 40
0.25
100
AcDbArc
 50
165
 51
285.0000000000011
  0
ARC
  5
263
100
AcDbEntity
  8
Holes
  6
ByLayer
 62
  256
370
   -1
100
AcDbCircle
 10
199.5267682375336
 20
47.76612498127981
 40
0.5
100
AcDbArc
 50
45
 51
165
  0
LINE
  5
264
100
AcDbEntity
  8
Holes
  6
ByLayer
 62
  256
370
   -1
100
AcDbLine
 10
202.1196783718731
 20
45.88032162812691
 11
199.8803216281269
 21
48.11967837187309
  0
ARC
  5
265
100
AcDbEntity
  8
Holes
  6
ByLayer
 62
  256
370
   -1
100
AcDbCircle
 10
201.7661249812798
 20
45.52676823753364
 40
0.5
100
AcDbArc
 50
284.9999999999998
 51
45
  0
LINE
  5
266
100
AcDbEntity
  8
Holes
  6
ByLayer
 62
  256
370
   -1
100
AcDbLine
 10
198.4182581518689
 20
44.112071934021
 11
201.8955345038311
 21
45.04380532438911
  0
LINE
  5
267
100
AcDbEntity
  8
Holes
  6
ByLayer
 62
  256
370
   -1
100
AcDbLine
 10
199.0438053243891
 20
47.89553450383107
 11
198.112071934021
 21
44.4182581518689
  0
ARC
  5
268
100
AcDbEntity
  8
Holes
  6
ByLayer
 62
  256
370
   -1
100
AcDbCircle
 10
198.3535533905933
 20
44.35355339059327
 40
0.25
100
AcDbArc
 50
165
 51
285.0000000000011
  0
ARC
  5
269
100
AcDbEntity
  8
Holes
  6
ByLayer
 62
  256
370
   -1
100
AcDbCircle
 10
194.5267682375336
 20
53.76612498127981
 40
0.5
100
AcDbArc
 50
45
 51
165
  0
LINE
  5
26A
100
AcDbEntity
  8
Holes
  6
ByLayer
 62
  256
370
   -1
100
AcDbLine
 10
197.1196783718731
 20
51.88032162812691
 11
194.8803216281269
 21
54.11967837187309
  0
ARC
  5
26B
100
AcDbEntity
  8
Holes
  6
ByLayer
 62
  256
370
   -1
100
AcDbCircle
 10
196.7661249812798
 20
51.52676823753364
 40
0.5
100
AcDbArc
 50
284.9999999999998
 51
45
  0
LINE
  5
26C
100
AcDbEntity
  8
Holes
  6
ByLayer
 62
  256
370
   -1
100
AcDbLine
 10
193.4182581518689
 20
50.112071934021
 11
196.8955345038311
 21
51.04380532438911
  0
LINE
  5
26D
100
AcDbEntity
  8
Holes
  6
ByLayer
 62
  256
370
   -1
100
AcDbLine
 10
194.0438053243891
 20
53.89553450383107
 11
193.112071934021
 21
50.4182581518689
  0
ARC
  5
26E
100
AcDbEntity
  8
Holes
  6
ByLayer
 62
  256
370
   -1
100
AcDbCircle
 10
193.3535533905933
 20
50.35355339059327
 40
0.25
100
AcDbArc
 50
165
 51
285.0000000000011
  0
ARC
  5
26F
100
AcDbEntity
  8
Holes
  6
ByLayer
 62
  256
370
   -1
100
AcDbCircle
 10
199.5267682375336
 20
59.76612498127981
 40
0.5
100
AcDbArc
 50
45
 51
165
  0
LINE
  5
270
100
AcDbEntity
  8
Holes
  6
ByLayer
 62
  256
370
   -1
100
AcDbLine
 10
202.1196783718731
 20
57.88032162812691
 11
199.8803216281269
 21
60.11967837187309
  0
ARC
  5
271
100
AcDbEntity
  8
Holes
  6
ByLayer
 62
  256
370
   -1
100
AcDbCircle
 10
201.7661249812798
 20
57.52676823753364
 40
0.5
100
AcDbArc
 50
284.9999999999998
 51
45
  0
LINE
  5
272
100
AcDbEntity
  8
Holes
  6
ByLayer
 62
  256
370
   -1
100
AcDbLine
 10
198.4182581518689
 20
56.112071934021
 11
201.8955345038311
 21
57.04380532438911
  0
LINE
  5
273
100
AcDbEntity
  8
Holes
  6
ByLayer
 62
  256
370
   -1
100
AcDbLine
 10
199.0438053243891
 20
59.89553450383107
 11
198.112071934021
 21
56.4182581518689
  0
ARC
  5
274
100
AcDbEntity
  8
Holes
  6
ByLayer
 62
  256
370
   -1
100
AcDbCircle
 10
198.3535533905933
 20
56.35355339059327
 40
0.25
100
AcDbArc
 50
165
 51
285.0000000000011
  0
ARC
  5
275
100
AcDbEntity
  8
Holes
  6
ByLayer
 62
  256
370
   -1
100
AcDbCircle
 10
229.5267682375336
 20
47.76612498127981
 40
0.5
100
AcDbArc
 50
45
 51
165
  0
LINE
  5
276
100
AcDbEntity
  8
Holes
  6
ByLayer
 62
  256
370
   -1
100
AcDbLine
 10
232.1196783718731
 20
45.88032162812691
 11
229.8803216281269
 21
48.11967837187309
  0
ARC
  5
277
100
AcDbEntity
  8
Holes
  6
ByLayer
 62
  256
370
   -1
100
AcDbCircle
 10
231.7661249812798
 20
45.52676823753364
 40
0.5
100
AcDbArc
 50
284.9999999999998
 51
45
  0
LINE
  5
278
100
AcDbEntity
  8
Holes
  6
ByLayer
 62
  256
370
   -1
100
AcDbLine
 10
228.4182581518689
 20
44.112071934021
 11
231.8955345038311
 21
45.04380532438911
  0
LINE
  5
279
100
AcDbEntity
  8
Holes
  6
ByLayer
 62
  256
370
   -1
100
AcDbLine
 10
229.0438053243891
 20
47.89553450383107
 11
228.112071934021
 21
44.4182581518689
  0
ARC
  5
27A
100
AcDbEntity
  8
Holes
  6
ByLayer
 62
  256
370
   -1
100
AcDbCircle
 10
228.3535533905933
 20
44.35355339059327
 40
0.25
100
AcDbArc
 50
165
 51
285.0000000000011
  0
ARC
  5
27B
100
AcDbEntity
  8
Holes
  6
ByLayer
 62
  256
370
   -1
100
AcDbCircle
 10
229.5267682375336
 20
59.76612498127981
 40
0.5
100
AcDbArc
 50
45
 51
165
  0
LINE
  5
27C
100
AcDbEntity
  8
Holes
  6
ByLayer
 62
  256
370
   -1
100
AcDbLine
 10
232.1196783718731
 20
57.88032162812691
 11
229.8803216281269
 21
60.11967837187309
  0
ARC
  5
27D
100
AcDbEntity
  8
Holes
  6
ByLayer
 62
  256
370
   -1
100
AcDbCircle
 10
231.7661249812798
 20
57.52676823753364
 40
0.5
100
AcDbArc
 50
284.9999999999998
 51
45
  0
LINE
  5
27E
100
AcDbEntity
  8
Holes
  6
ByLayer
 62
  256
370
   -1
100
AcDbLine
 10
228.4182581518689
 20
56.112071934021
 11
231.8955345038311
 21
57.04380532438911
  0
LINE
  5
27F
100
AcDbEntity
  8
Holes
  6
ByLayer
 62
  256
370
   -1
100
AcDbLine
 10
229.0438053243891
 20
59.89553450383107
 11
228.112071934021
 21
56.4182581518689
  0
ARC
  5
280
100
AcDbEntity
  8
Holes
  6
ByLayer
 62
  256
370
   -1
100
AcDbCircle
 10
228.3535533905933
 20
56.35355339059327
 40
0.25
100
AcDbArc
 50
165
 51
285.0000000000011
  0
ARC
  5
281
100
AcDbEntity
  8
Holes
  6
ByLayer
 62
  256
370
   -1
100
AcDbCircle
 10
168
 20
51
 40
6
100
AcDbArc
 50
0
 51
180
  0
LINE
  5
282
100
AcDbEntity
  8
Holes
  6
ByLayer
 62
  256
370
   -1
100
AcDbLine
 10
161
 20
49
 11
161
 21
49
  0
LINE
  5
283
100
AcDbEntity
  8
Holes
  6
ByLayer
 62
  256
370
   -1
100
AcDbLine
 10
175
 20
49
 11
175
 21
49
  0
LINE
  5
284
100
AcDbEntity
  8
Holes
  6
ByLayer
 62
  256
370
   -1
100
AcDbLine
 10
162
 20
51
 11
174
 21
51
  0
ARC
  5
285
100
AcDbEntity
  8
Holes
  6
ByLayer
 62
  256
370
   -1
100
AcDbCircle
 10
168
 20
48
 40
2
100
AcDbArc
 50
180
 51
360
  0
ARC
  5
286
100
AcDbEntity
  8
Holes
  6
ByLayer
 62
  256
370
   -1
100
AcDbCircle
 10
173
 20
48
 40
2
100
AcDbArc
 50
180
 51
360
  0
ARC
  5
287
100
AcDbEntity
  8
Holes
  6
ByLayer
 62
  256
370
   -1
100
AcDbCircle
 10
163
 20
48
 40
2
100
AcDbArc
 50
180
 51
360
  0
ARC
  5
288
100
AcDbEntity
  8
Holes
  6
ByLayer
 62
  256
370
   -1
100
AcDbCircle
 10
161
 20
49
 40
1
100
AcDbArc
 50
90
 51
180
  0
ARC
  5
289
100
AcDbEntity
  8
Holes
  6
ByLayer
 62
  256
370
   -1
100
AcDbCircle
 10
175
 20
49
 40
1
100
AcDbArc
 50
0
 51
90
  0
LINE
  5
28A
100
AcDbEntity
  8
Holes
  6
ByLayer
 62
  256
370
   -1
100
AcDbLine
 10
161
 20
50
 11
175
 21
50
  0
LINE
  5
28B
100
AcDbEntity
  8
Holes
  6
ByLayer
 62
  256
370
   -1
100
AcDbLine
 10
176
 20
49
 11
160
 21
49
  0
LINE
  5
28C
100
AcDbEntity
  8
Holes
  6
ByLayer
 62
  256
370
   -1
100
AcDbLine
 10
161
 20
48
 11
165
 21
48
  0
LINE
  5
28D
100
AcDbEntity
  8
Holes
  6
ByLayer
 62
  256
370
   -1
100
AcDbLine
 10
166
 20
48
 11
170
 21
48
  0
LINE
  5
28E
100
AcDbEntity
  8
Holes
  6
ByLayer
 62
  256
370
   -1
100
AcDbLine
 10
171
 20
48
 11
175
 21
48
  0
ARC
  5
28F
100
AcDbEntity
  8
Holes
  6
ByLayer
 62
  256
370
   -1
100
AcDbCircle
 10
162.5267682375336
 20
62.76612498127981
 40
0.5
100
AcDbArc
 50
45
 51
165
  0
LINE
  5
290
100
AcDbEntity
  8
Holes
  6
ByLayer
 62
  256
370
   -1
100
AcDbLine
 10
165.1196783718731
 20
60.88032162812691
 11
162.8803216281269
 21
63.11967837187309
  0
ARC
  5
291
100
AcDbEntity
  8
Holes
  6
ByLayer
 62
  256
370
   -1
100
AcDbCircle
 10
164.7661249812798
 20
60.52676823753364
 40
0.5
100
AcDbArc
 50
284.9999999999998
 51
45
  0
LINE
  5
292
100
AcDbEntity
  8
Holes
  6
ByLayer
 62
  256
370
   -1
100
AcDbLine
 10
161.4182581518689
 20
59.112071934021
 11
164.8955345038311
 21
60.04380532438911
  0
LINE
  5
293
100
AcDbEntity
  8
Holes
  6
ByLayer
 62
  256
370
   -1
100
AcDbLine
 10
162.0438053243891
 20
62.89553450383107
 11
161.112071934021
 21
59.4182581518689
  0
ARC
  5
294
100
AcDbEntity
  8
Holes
  6
ByLayer
 62
  256
370
   -1
100
AcDbCircle
 10
161.3535533905933
 20
59.35355339059327
 40
0.25
100
AcDbArc
 50
165
 51
285.0000000000011
  0
ARC
  5
295
100
AcDbEntity
  8
Holes
  6
ByLayer
 62
  256
370
   -1
100
AcDbCircle
 10
172.5267682375336
 20
62.76612498127981
 40
0.5
100
AcDbArc
 50
45
 51
165
  0
LINE
  5
296
100
AcDbEntity
  8
Holes
  6
ByLayer
 62
  256
370
   -1
100
AcDbLine
 10
175.1196783718731
 20
60.88032162812691
 11
172.8803216281269
 21
63.11967837187309
  0
ARC
  5
297
100
AcDbEntity
  8
Holes
  6
ByLayer
 62
  256
370
   -1
100
AcDbCircle
 10
174.7661249812798
 20
60.52676823753364
 40
0.5
100
AcDbArc
 50
284.9999999999998
 51
45
  0
LINE
  5
298
100
AcDbEntity
  8
Holes
  6
ByLayer
 62
  256
370
   -1
100
AcDbLine
 10
171.4182581518689
 20
59.112071934021
 11
174.8955345038311
 21
60.04380532438911
  0
LINE
  5
299
100
AcDbEntity
  8
Holes
  6
ByLayer
 62
  256
370
   -1
100
AcDbLine
 10
172.0438053243891
 20
62.89553450383107
 11
171.112071934021
 21
59.4182581518689
  0
ARC
  5
29A
100
AcDbEntity
  8
Holes
  6
ByLayer
 62
  256
370
   -1
100
AcDbCircle
 10
171.3535533905933
 20
59.35355339059327
 40
0.25
100
AcDbArc
 50
165
 51
285.0000000000011
  0
ARC
  5
29B
100
AcDbEntity
  8
Holes
  6
ByLayer
 62
  256
370
   -1
100
AcDbCircle
 10
152.5267682375336
 20
62.76612498127981
 40
0.5
100
AcDbArc
 50
45
 51
165
  0
LINE
  5
29C
100
AcDbEntity
  8
Holes
  6
ByLayer
 62
  256
370
   -1
100
AcDbLine
 10
155.1196783718731
 20
60.88032162812691
 11
152.8803216281269
 21
63.11967837187309
  0
ARC
  5
29D
100
AcDbEntity
  8
Holes
  6
ByLayer
 62
  256
370
   -1
100
AcDbCircle
 10
154.7661249812798
 20
60.52676823753364
 40
0.5
100
AcDbArc
 50
284.9999999999998
 51
45
  0
LINE
  5
29E
100
AcDbEntity
  8
Holes
  6
ByLayer
 62
  256
370
   -1
100
AcDbLine
 10
151.4182581518689
 20
59.112071934021
 11
154.8955345038311
 21
60.04380532438911
  0
LINE
  5
29F
100
AcDbEntity
  8
Holes
  6
ByLayer
 62
  256
370
   -1
100
AcDbLine
 10
152.0438053243891
 20
62.89553450383107
 11
151.112071934021
 21
59.4182581518689
  0
ARC
  5
2A0
100
AcDbEntity
  8
Holes
  6
ByLayer
 62
  256
370
   -1
100
AcDbCircle
 10
151.3535533905933
 20
59.35355339059327
 40
0.25
100
AcDbArc
 50
165
 51
285.0000000000011
  0
ARC
  5
2A1
100
AcDbEntity
  8
Holes
  6
ByLayer
 62
  256
370
   -1
100
AcDbCircle
 10
182.5267682375336
 20
62.76612498127981
 40
0.5
100
AcDbArc
 50
45
 51
165
  0
LINE
  5
2A2
100
AcDbEntity
  8
Holes
  6
ByLayer
 62
  256
370
   -1
100
AcDbLine
 10
185.1196783718731
 20
60.88032162812691
 11
182.8803216281269
 21
63.11967837187309
  0
ARC
  5
2A3
100
AcDbEntity
  8
Holes
  6
ByLayer
 62
  256
370
   -1
100
AcDbCircle
 10
184.7661249812798
 20
60.52676823753364
 40
0.5
100
AcDbArc
 50
284.9999999999998
 51
45
  0
LINE
  5
2A4
100
AcDbEntity
  8
Holes
  6
ByLayer
 62
  256
370
   -1
100
AcDbLine
 10
181.4182581518689
 20
59.112071934021
 11
184.8955345038311
 21
60.04380532438911
  0
LINE
  5
2A5
100
AcDbEntity
  8
Holes
  6
ByLayer
 62
  256
370
   -1
100
AcDbLine
 10
182.0438053243891
 20
62.89553450383107
 11
181.112071934021
 21
59.4182581518689
  0
ARC
  5
2A6
100
AcDbEntity
  8
Holes
  6
ByLayer
 62
  256
370
   -1
100
AcDbCircle
 10
181.3535533905933
 20
59.35355339059327
 40
0.25
100
AcDbArc
 50
165
 51
285.0000000000011
  0
ARC
  5
2A7
100
AcDbEntity
  8
Holes
  6
ByLayer
 62
  256
370
   -1
100
AcDbCircle
 10
205.5267682375336
 20
52.76612498127981
 40
0.5
100
AcDbArc
 50
45
 51
165
  0
LINE
  5
2A8
100
AcDbEntity
  8
Holes
  6
ByLayer
 62
  256
370
   -1
100
AcDbLine
 10
208.1196783718731
 20
50.88032162812691
 11
205.8803216281269
 21
53.11967837187309
  0
ARC
  5
2A9
100
AcDbEntity
  8
Holes
  6
ByLayer
 62
  256
370
   -1
100
AcDbCircle
 10
207.7661249812798
 20
50.52676823753364
 40
0.5
100
AcDbArc
 50
284.9999999999998
 51
45
  0
LINE
  5
2AA
100
AcDbEntity
  8
Holes
  6
ByLayer
 62
  256
370
   -1
100
AcDbLine
 10
204.4182581518689
 20
49.112071934021
 11
207.8955345038311
 21
50.04380532438911
  0
LINE
  5
2AB
100
AcDbEntity
  8
Holes
  6
ByLayer
 62
  256
370
   -1
100
AcDbLine
 10
205.0438053243891
 20
52.89553450383107
 11
204.112071934021
 21
49.4182581518689
  0
ARC
  5
2AC
100
AcDbEntity
  8
Holes
  6
ByLayer
 62
  256
370
   -1
100
AcDbCircle
 10
204.3535533905933
 20
49.35355339059327
 40
0.25
100
AcDbArc
 50
165
 51
285.0000000000011
  0
ARC
  5
2AD
100
AcDbEntity
  8
Holes
  6
ByLayer
 62
  256
370
   -1
100
AcDbCircle
 10
210.5267682375336
 20
58.76612498127981
 40
0.5
100
AcDbArc
 50
45
 51
165
  0
LINE
  5
2AE
100
AcDbEntity
  8
Holes
  6
ByLayer
 62
  256
370
   -1
100
AcDbLine
 10
213.1196783718731
 20
56.88032162812691
 11
210.8803216281269
 21
59.11967837187309
  0
ARC
  5
2AF
100
AcDbEntity
  8
Holes
  6
ByLayer
 62
  256
370
   -1
100
AcDbCircle
 10
212.7661249812798
 20
56.52676823753364
 40
0.5
100
AcDbArc
 50
284.9999999999998
 51
45
  0
LINE
  5
2B0
100
AcDbEntity
  8
Holes
  6
ByLayer
 62
  256
370
   -1
100
AcDbLine
 10
209.4182581518689
 20
55.112071934021
 11
212.8955345038311
 21
56.04380532438911
  0
LINE
  5
2B1
100
AcDbEntity
  8
Holes
  6
ByLayer
 62
  256
370
   -1
100
AcDbLine
 10
210.0438053243891
 20
58.89553450383107
 11
209.112071934021
 21
55.4182581518689
  0
ARC
  5
2B2
100
AcDbEntity
  8
Holes
  6
ByLayer
 62
  256
370
   -1
100
AcDbCircle
 10
209.3535533905933
 20
55.35355339059327
 40
0.25
100
AcDbArc
 50
165
 51
285.0000000000011
  0
ARC
  5
2B3
100
AcDbEntity
  8
Holes
  6
ByLayer
 62
  256
370
   -1
100
AcDbCircle
 10
205.5267682375336
 20
64.7661249812798
 40
0.5
100
AcDbArc
 50
45
 51
165
  0
LINE
  5
2B4
100
AcDbEntity
  8
Holes
  6
ByLayer
 62
  256
370
   -1
100
AcDbLine
 10
208.1196783718731
 20
62.88032162812691
 11
205.8803216281269
 21
65.11967837187308
  0
ARC
  5
2B5
100
AcDbEntity
  8
Holes
  6
ByLayer
 62
  256
370
   -1
100
AcDbCircle
 10
207.7661249812798
 20
62.52676823753364
 40
0.5
100
AcDbArc
 50
284.9999999999998
 51
45
  0
LINE
  5
2B6
100
AcDbEntity
  8
Holes
  6
ByLayer
 62
  256
370
   -1
100
AcDbLine
 10
204.4182581518689
 20
61.112071934021
 11
207.8955345038311
 21
62.04380532438911
  0
LINE
  5
2B7
100
AcDbEntity
  8
Holes
  6
ByLayer
 62
  256
370
   -1
100
AcDbLine
 10
205.0438053243891
 20
64.89553450383107
 11
204.112071934021
 21
61.4182581518689
  0
ARC
  5
2B8
100
AcDbEntity
  8
Holes
  6
ByLayer
 62
  256
370
   -1
100
AcDbCircle
 10
204.3535533905933
 20
61.35355339059327
 40
0.25
100
AcDbArc
 50
165
 51
285.0000000000011
  0
LINE
  5
2B9
100
AcDbEntity
  8
Holes
  6
ByLayer
 62
  256
370
   -1
100
AcDbLine
 10
15
 20
36
 11
15
 21
36
  0
LINE
  5
2BA
100
AcDbEntity
  8
Holes
  6
ByLayer
 62
  256
370
   -1
100
AcDbLine
 10
29
 20
36
 11
29
 21
36
  0
ARC
  5
2BB
100
AcDbEntity
  8
Holes
  6
ByLayer
 62
  256
370
   -1
100
AcDbCircle
 10
24.47323176246636
 20
26.76612498127981
 40
0.5
100
AcDbArc
 50
15.00000000000001
 51
135
  0
LINE
  5
2BC
100
AcDbEntity
  8
Holes
  6
ByLayer
 62
  256
370
   -1
100
AcDbLine
 10
21.88032162812692
 20
24.88032162812691
 11
24.11967837187308
 21
27.11967837187309
  0
ARC
  5
2BD
100
AcDbEntity
  8
Holes
  6
ByLayer
 62
  256
370
   -1
100
AcDbCircle
 10
22.2338750187202
 20
24.52676823753364
 40
0.5
100
AcDbArc
 50
135
 51
255.0000000000002
  0
LINE
  5
2BE
100
AcDbEntity
  8
Holes
  6
ByLayer
 62
  256
370
   -1
100
AcDbLine
 10
25.58174184813112
 20
23.112071934021
 11
22.10446549616893
 21
24.04380532438911
  0
LINE
  5
2BF
100
AcDbEntity
  8
Holes
  6
ByLayer
 62
  256
370
   -1
100
AcDbLine
 10
24.9561946756109
 20
26.89553450383107
 11
25.887928065979
 21
23.4182581518689
  0
ARC
  5
2C0
100
AcDbEntity
  8
Holes
  6
ByLayer
 62
  256
370
   -1
100
AcDbCircle
 10
25.64644660940672
 20
23.35355339059327
 40
0.25
100
AcDbArc
 50
254.9999999999988
 51
15.00000000000001
  0
ARC
  5
2C1
100
AcDbEntity
  8
Holes
  6
ByLayer
 62
  256
370
   -1
100
AcDbCircle
 10
14.47323176246636
 20
26.76612498127981
 40
0.5
100
AcDbArc
 50
15.00000000000001
 51
135
  0
LINE
  5
2C2
100
AcDbEntity
  8
Holes
  6
ByLayer
 62
  256
370
   -1
100
AcDbLine
 10
11.88032162812692
 20
24.88032162812691
 11
14.11967837187308
 21
27.11967837187309
  0
ARC
  5
2C3
100
AcDbEntity
  8
Holes
  6
ByLayer
 62
  256
370
   -1
100
AcDbCircle
 10
12.2338750187202
 20
24.52676823753364
 40
0.5
100
AcDbArc
 50
135
 51
255.0000000000002
  0
LINE
  5
2C4
100
AcDbEntity
  8
Holes
  6
ByLayer
 62
  256
370
   -1
100
AcDbLine
 10
15.58174184813112
 20
23.112071934021
 11
12.10446549616893
 21
24.04380532438911
  0
LINE
  5
2C5
100
AcDbEntity
  8
Holes
  6
ByLayer
 62
  256
370
   -1
100
AcDbLine
 10
14.9561946756109
 20
26.89553450383107
 11
15.887928065979
 21
23.4182581518689
  0
ARC
  5
2C6
100
AcDbEntity
  8
Holes
  6
ByLayer
 62
  256
370
   -1
100
AcDbCircle
 10
15.64644660940672
 20
23.35355339059327
 40
0.25
100
AcDbArc
 50
254.9999999999988
 51
15.00000000000001
  0
ARC
  5
2C7
100
AcDbEntity
  8
Holes
  6
ByLayer
 62
  256
370
   -1
100
AcDbCircle
 10
29.47323176246636
 20
32.76612498127981
 40
0.5
100
AcDbArc
 50
15.00000000000001
 51
135
  0
LINE
  5
2C8
100
AcDbEntity
  8
Holes
  6
ByLayer
 62
  256
370
   -1
100
AcDbLine
 10
26.88032162812692
 20
30.88032162812691
 11
29.11967837187308
 21
33.11967837187309
  0
ARC
  5
2C9
100
AcDbEntity
  8
Holes
  6
ByLayer
 62
  256
370
   -1
100
AcDbCircle
 10
27.2338750187202
 20
30.52676823753364
 40
0.5
100
AcDbArc
 50
135
 51
255.0000000000002
  0
LINE
  5
2CA
100
AcDbEntity
  8
Holes
  6
ByLayer
 62
  256
370
   -1
100
AcDbLine
 10
30.58174184813112
 20
29.112071934021
 11
27.10446549616893
 21
30.04380532438911
  0
LINE
  5
2CB
100
AcDbEntity
  8
Holes
  6
ByLayer
 62
  256
370
   -1
100
AcDbLine
 10
29.9561946756109
 20
32.89553450383107
 11
30.887928065979
 21
29.4182581518689
  0
ARC
  5
2CC
100
AcDbEntity
  8
Holes
  6
ByLayer
 62
  256
370
   -1
100
AcDbCircle
 10
30.64644660940672
 20
29.35355339059327
 40
0.25
100
AcDbArc
 50
254.9999999999988
 51
15.00000000000001
  0
ARC
  5
2CD
100
AcDbEntity
  8
Holes
  6
ByLayer
 62
  256
370
   -1
100
AcDbCircle
 10
19.47323176246636
 20
32.76612498127981
 40
0.5
100
AcDbArc
 50
15.00000000000001
 51
135
  0
LINE
  5
2CE
100
AcDbEntity
  8
Holes
  6
ByLayer
 62
  256
370
   -1
100
AcDbLine
 10
16.88032162812692
 20
30.88032162812691
 11
19.11967837187308
 21
33.11967837187309
  0
ARC
  5
2CF
100
AcDbEntity
  8
Holes
  6
ByLayer
 62
  256
370
   -1
100
AcDbCircle
 10
17.2338750187202
 20
30.52676823753364
 40
0.5
100
AcDbArc
 50
135
 51
255.0000000000002
  0
LINE
  5
2D0
100
AcDbEntity
  8
Holes
  6
ByLayer
 62
  256
370
   -1
100
AcDbLine
 10
20.58174184813112
 20
29.112071934021
 11
17.10446549616893
 21
30.04380532438911
  0
LINE
  5
2D1
100
AcDbEntity
  8
Holes
  6
ByLayer
 62
  256
370
   -1
100
AcDbLine
 10
19.9561946756109
 20
32.89553450383107
 11
20.887928065979
 21
29.4182581518689
  0
ARC
  5
2D2
100
AcDbEntity
  8
Holes
  6
ByLayer
 62
  256
370
   -1
100
AcDbCircle
 10
20.64644660940672
 20
29.35355339059327
 40
0.25
100
AcDbArc
 50
254.9999999999988
 51
15.00000000000001
  0
ARC
  5
2D3
100
AcDbEntity
  8
Holes
  6
ByLayer
 62
  256
370
   -1
100
AcDbCircle
 10
24.47323176246636
 20
38.76612498127981
 40
0.5
100
AcDbArc
 50
15.00000000000001
 51
135
  0
LINE
  5
2D4
100
AcDbEntity
  8
Holes
  6
ByLayer
 62
  256
370
   -1
100
AcDbLine
 10
21.88032162812692
 20
36.88032162812691
 11
24.11967837187308
 21
39.11967837187309
  0
ARC
  5
2D5
100
AcDbEntity
  8
Holes
  6
ByLayer
 62
  256
370
   -1
100
AcDbCircle
 10
22.2338750187202
 20
36.52676823753364
 40
0.5
100
AcDbArc
 50
135
 51
255.0000000000002
  0
LINE
  5
2D6
100
AcDbEntity
  8
Holes
  6
ByLayer
 62
  256
370
   -1
100
AcDbLine
 10
25.58174184813112
 20
35.112071934021
 11
22.10446549616893
 21
36.04380532438911
  0
LINE
  5
2D7
100
AcDbEntity
  8
Holes
  6
ByLayer
 62
  256
370
   -1
100
AcDbLine
 10
24.9561946756109
 20
38.89553450383106
 11
25.887928065979
 21
35.4182581518689
  0
ARC
  5
2D8
100
AcDbEntity
  8
Holes
  6
ByLayer
 62
  256
370
   -1
100
AcDbCircle
 10
25.64644660940672
 20
35.35355339059327
 40
0.25
100
AcDbArc
 50
254.9999999999988
 51
15.00000000000001
  0
ARC
  5
2D9
100
AcDbEntity
  8
Holes
  6
ByLayer
 62
  256
370
   -1
100
AcDbCircle
 10
19.47323176246636
 20
44.76612498127981
 40
0.5
100
AcDbArc
 50
15.00000000000001
 51
135
  0
LINE
  5
2DA
100
AcDbEntity
  8
Holes
  6
ByLayer
 62
  256
370
   -1
100
AcDbLine
 10
16.88032162812692
 20
42.88032162812691
 11
19.11967837187308
 21
45.11967837187309
  0
ARC
  5
2DB
100
AcDbEntity
  8
Holes
  6
ByLayer
 62
  256
370
   -1
100
AcDbCircle
 10
17.2338750187202
 20
42.52676823753364
 40
0.5
100
AcDbArc
 50
135
 51
255.0000000000002
  0
LINE
  5
2DC
100
AcDbEntity
  8
Holes
  6
ByLayer
 62
  256
370
   -1
100
AcDbLine
 10
20.58174184813112
 20
41.11207193402101
 11
17.10446549616893
 21
42.04380532438911
  0
LINE
  5
2DD
100
AcDbEntity
  8
Holes
  6
ByLayer
 62
  256
370
   -1
100
AcDbLine
 10
19.9561946756109
 20
44.89553450383106
 11
20.887928065979
 21
41.4182581518689
  0
ARC
  5
2DE
100
AcDbEntity
  8
Holes
  6
ByLayer
 62
  256
370
   -1
100
AcDbCircle
 10
20.64644660940672
 20
41.35355339059327
 40
0.25
100
AcDbArc
 50
254.9999999999988
 51
15.00000000000001
  0
ARC
  5
2DF
100
AcDbEntity
  8
Holes
  6
ByLayer
 62
  256
370
   -1
100
AcDbCircle
 10
36.47323176246636
 20
26.76612498127981
 40
0.5
100
AcDbArc
 50
15.00000000000001
 51
135
  0
LINE
  5
2E0
100
AcDbEntity
  8
Holes
  6
ByLayer
 62
  256
370
   -1
100
AcDbLine
 10
33.88032162812692
 20
24.88032162812691
 11
36.11967837187308
 21
27.11967837187309
  0
ARC
  5
2E1
100
AcDbEntity
  8
Holes
  6
ByLayer
 62
  256
370
   -1
100
AcDbCircle
 10
34.2338750187202
 20
24.52676823753364
 40
0.5
100
AcDbArc
 50
135
 51
255.0000000000002
  0
LINE
  5
2E2
100
AcDbEntity
  8
Holes
  6
ByLayer
 62
  256
370
   -1
100
AcDbLine
 10
37.58174184813112
 20
23.11207193402101
 11
34.10446549616893
 21
24.04380532438911
  0
LINE
  5
2E3
100
AcDbEntity
  8
Holes
  6
ByLayer
 62
  256
370
   -1
100
AcDbLine
 10
36.9561946756109
 20
26.89553450383106
 11
37.887928065979
 21
23.4182581518689
  0
ARC
  5
2E4
100
AcDbEntity
  8
Holes
  6
ByLayer
 62
  256
370
   -1
100
AcDbCircle
 10
37.64644660940672
 20
23.35355339059327
 40
0.25
100
AcDbArc
 50
254.9999999999988
 51
15.00000000000001
  0
ARC
  5
2E5
100
AcDbEntity
  8
Holes
  6
ByLayer
 62
  256
370
   -1
100
AcDbCircle
 10
41.47323176246636
 20
32.7661249812798
 40
0.5
100
AcDbArc
 50
15.00000000000001
 51
135
  0
LINE
  5
2E6
100
AcDbEntity
  8
Holes
  6
ByLayer
 62
  256
370
   -1
100
AcDbLine
 10
38.88032162812692
 20
30.88032162812691
 11
41.11967837187308
 21
33.11967837187308
  0
ARC
  5
2E7
100
AcDbEntity
  8
Holes
  6
ByLayer
 62
  256
370
   -1
100
AcDbCircle
 10
39.2338750187202
 20
30.52676823753364
 40
0.5
100
AcDbArc
 50
135
 51
255.0000000000002
  0
LINE
  5
2E8
100
AcDbEntity
  8
Holes
  6
ByLayer
 62
  256
370
   -1
100
AcDbLine
 10
42.58174184813112
 20
29.11207193402101
 11
39.10446549616893
 21
30.04380532438911
  0
LINE
  5
2E9
100
AcDbEntity
  8
Holes
  6
ByLayer
 62
  256
370
   -1
100
AcDbLine
 10
41.9561946756109
 20
32.89553450383107
 11
42.887928065979
 21
29.4182581518689
  0
ARC
  5
2EA
100
AcDbEntity
  8
Holes
  6
ByLayer
 62
  256
370
   -1
100
AcDbCircle
 10
42.64644660940672
 20
29.35355339059327
 40
0.25
100
AcDbArc
 50
254.9999999999988
 51
15.00000000000001
  0
ENDSEC
  0
SECTION
  2
OBJECTS
  0
DICTIONARY
  5
C
330
0
100
AcDbDictionary
281
    1
  3
ACAD_GROUP
350
D
  0
DICTIONARY
  5
D
330
C
100
AcDbDictionary
281
    1
  0
ENDSEC
  0
EOF
